<?xml version="1.0" encoding="UTF-8" standalone="no"?>
<!DOCTYPE svg PUBLIC "-//W3C//DTD SVG 1.1//EN"
 "http://www.w3.org/Graphics/SVG/1.1/DTD/svg11.dtd">
<!-- Generated by graphviz version 2.43.0 (0)
 -->
<!-- Title: financial_models.RegulatoryActivity Pages: 1 -->
<svg width="248pt" height="219pt"
 viewBox="0.00 0.00 247.50 219.00" xmlns="http://www.w3.org/2000/svg" xmlns:xlink="http://www.w3.org/1999/xlink">

<svg id="main" version="1.1" xmlns="http://www.w3.org/2000/svg" xmlns:xlink="http://www.w3.org/1999/xlink" xml:space="preserve">

<style type="text/css"><![CDATA[
.node, .edge {opacity: 0.7;}
.node.selected, .edge.selected {opacity: 1;}
.edge:hover path { stroke: red; }
.edge:hover polygon { stroke: red; fill: red; }
]]></style>
<script type="application/ecmascript" xlink:href="svg.min.js"/>
<svg id="graph" class="graph">
<g id="graph0" class="graph" transform="scale(1 1) rotate(0) translate(4 215)">
<title>financial_models.RegulatoryActivity</title>
<!-- Node1 -->
<g id="Node000001" class="node">
<title>Node1</title>
<g id="a_Node000001"><a xlink:title=" ">
<polygon fill="#999999" stroke="transparent" points="149,-60 0,-60 0,0 149,0 149,-60"/>
<text text-anchor="start" x="5.5" y="-48" font-family="Helvetica,sans-Serif" font-size="10.00">financial_models.Regulatory</text>
<text text-anchor="start" x="56" y="-37" font-family="Helvetica,sans-Serif" font-size="10.00">Activity</text>
<text text-anchor="start" x="73" y="-22" font-family="Helvetica,sans-Serif" font-size="10.00"> </text>
<text text-anchor="start" x="73" y="-7" font-family="Helvetica,sans-Serif" font-size="10.00"> </text>
<polygon fill="#666666" stroke="#666666" points="0.5,-32 0.5,-32 149.5,-32 149.5,-32 0.5,-32"/>
<polygon fill="#666666" stroke="#666666" points="0.5,-17 0.5,-17 149.5,-17 149.5,-17 0.5,-17"/>
<polygon fill="none" stroke="#666666" points="0,0 0,-60 149,-60 149,0 0,0"/>
</a>
</g>
</g>
<!-- Node2 -->
<g id="Node000002" class="node">
<title>Node2</title>
<g id="a_Node000002"><a xlink:href="classEnum.html" target="_top" xlink:title=" ">
<polygon fill="white" stroke="transparent" points="69.5,-211 31.5,-211 31.5,-162 69.5,-162 69.5,-211"/>
<text text-anchor="start" x="36.5" y="-198.5" font-family="Helvetica,sans-Serif" font-size="10.00">Enum</text>
<text text-anchor="start" x="48.5" y="-183.5" font-family="Helvetica,sans-Serif" font-size="10.00"> </text>
<text text-anchor="start" x="48.5" y="-168.5" font-family="Helvetica,sans-Serif" font-size="10.00"> </text>
<polygon fill="#666666" stroke="#666666" points="31.5,-193.5 31.5,-193.5 69.5,-193.5 69.5,-193.5 31.5,-193.5"/>
<polygon fill="#666666" stroke="#666666" points="31.5,-178.5 31.5,-178.5 69.5,-178.5 69.5,-178.5 31.5,-178.5"/>
<polygon fill="none" stroke="#666666" points="31.5,-162 31.5,-211 69.5,-211 69.5,-162 31.5,-162"/>
</a>
</g>
</g>
<!-- Node2&#45;&gt;Node1 -->
<g id="edge1_Node000001_Node000002" class="edge">
<title>Node2&#45;&gt;Node1</title>
<g id="a_edge1_Node000001_Node000002"><a xlink:title=" ">
<path fill="none" stroke="#63b8ff" d="M55.74,-151.78C59.99,-124.39 65.93,-86.17 69.98,-60.1"/>
<polygon fill="none" stroke="#63b8ff" points="52.27,-151.28 54.2,-161.7 59.19,-152.35 52.27,-151.28"/>
</a>
</g>
</g>
<!-- Node3 -->
<g id="Node000003" class="node">
<title>Node3</title>
<g id="a_Node000003"><a xlink:title=" ">
<polygon fill="white" stroke="transparent" points="111,-211 88,-211 88,-162 111,-162 111,-211"/>
<text text-anchor="start" x="93.5" y="-198.5" font-family="Helvetica,sans-Serif" font-size="10.00">str</text>
<text text-anchor="start" x="98" y="-183.5" font-family="Helvetica,sans-Serif" font-size="10.00"> </text>
<text text-anchor="start" x="98" y="-168.5" font-family="Helvetica,sans-Serif" font-size="10.00"> </text>
<polygon fill="#666666" stroke="#666666" points="88.5,-193.5 88.5,-193.5 111.5,-193.5 111.5,-193.5 88.5,-193.5"/>
<polygon fill="#666666" stroke="#666666" points="88.5,-178.5 88.5,-178.5 111.5,-178.5 111.5,-178.5 88.5,-178.5"/>
<polygon fill="none" stroke="#666666" points="88,-162 88,-211 111,-211 111,-162 88,-162"/>
</a>
</g>
</g>
<!-- Node3&#45;&gt;Node1 -->
<g id="edge2_Node000001_Node000003" class="edge">
<title>Node3&#45;&gt;Node1</title>
<g id="a_edge2_Node000001_Node000003"><a xlink:title=" ">
<path fill="none" stroke="#63b8ff" d="M95.65,-161.7C91.79,-137.88 85.79,-100.77 81.16,-72.17"/>
<polygon fill="none" stroke="#63b8ff" points="81.13,-71.95 76.22,-66.67 79.21,-60.1 84.12,-65.39 81.13,-71.95"/>
</a>
</g>
<text text-anchor="middle" x="165.5" y="-136" font-family="Helvetica,sans-Serif" font-size="10.00" fill="grey"> +ACQUISITION</text>
<text text-anchor="middle" x="165.5" y="-125" font-family="Helvetica,sans-Serif" font-size="10.00" fill="grey">+BANKRUPTCY</text>
<text text-anchor="middle" x="165.5" y="-114" font-family="Helvetica,sans-Serif" font-size="10.00" fill="grey">+BOND_ISSUANCE</text>
<text text-anchor="middle" x="165.5" y="-103" font-family="Helvetica,sans-Serif" font-size="10.00" fill="grey">+DIVIDEND_ANNOUNCEMENT</text>
<text text-anchor="middle" x="165.5" y="-92" font-family="Helvetica,sans-Serif" font-size="10.00" fill="grey">+EARNINGS_REPORT</text>
<text text-anchor="middle" x="165.5" y="-81" font-family="Helvetica,sans-Serif" font-size="10.00" fill="grey">+SEC_FILING</text>
</g>
</g>
</svg>
</svg>

<style type='text/css'>
<![CDATA[
[data-mouse-over-selected='false'] { opacity: 0.7; }
[data-mouse-over-selected='true']  { opacity: 1.0; }
]]>
</style>
<script type="application/ecmascript"><![CDATA[
document.addEventListener('DOMContentLoaded', (event) => {
  highlightEdges();
  highlightAdjacentNodes();
});
]]></script>
</svg>
