<?xml version="1.0" encoding="UTF-8" standalone="no"?>
<!DOCTYPE svg PUBLIC "-//W3C//DTD SVG 1.1//EN"
 "http://www.w3.org/Graphics/SVG/1.1/DTD/svg11.dtd">
<!-- Generated by graphviz version 2.43.0 (0)
 -->
<!-- Title: analysis.formulaic_analysis.FormulaicdAnalyzer.analyze_graph Pages: 1 -->
<!--zoomable 524 -->

<svg id="main" version="1.1" xmlns="http://www.w3.org/2000/svg" xmlns:xlink="http://www.w3.org/1999/xlink" xml:space="preserve" onload="init(evt)">

<style type="text/css"><![CDATA[
.node, .edge {opacity: 0.7;}
.node.selected, .edge.selected {opacity: 1;}
.edge:hover path { stroke: red; }
.edge:hover polygon { stroke: red; fill: red; }
]]></style>

<defs>
  <circle id="rim" cx="0" cy="0" r="7"/>
  <circle id="rim2" cx="0" cy="0" r="3.5"/>
  <g id="zoomPlus">
    <use xlink:href="#rim" fill="#404040"><set attributeName="fill" to="#808080" begin="zoomplus.mouseover" end="zoomplus.mouseout"/></use>
    <path d="M-4,0h8M0,-4v8" fill="none" stroke="white" stroke-width="1.5" pointer-events="none"/>
  </g>
  <g id="zoomMin">
    <use xlink:href="#rim" fill="#404040"><set attributeName="fill" to="#808080" begin="zoomminus.mouseover" end="zoomminus.mouseout"/></use>
    <path d="M-4,0h8" fill="none" stroke="white" stroke-width="1.5" pointer-events="none"/>
  </g>
  <g id="arrowUp" transform="translate(30 24)">
    <use xlink:href="#rim"/>
    <path pointer-events="none" fill="none" stroke="white" stroke-width="1.5" d="M0,-3.0v7 M-2.5,-0.5L0,-3.0L2.5,-0.5"/>
  </g>
  <g id="arrowRight" transform="rotate(90) translate(36 -43)">
    <use xlink:href="#rim"/>
    <path pointer-events="none" fill="none" stroke="white" stroke-width="1.5" d="M0,-3.0v7 M-2.5,-0.5L0,-3.0L2.5,-0.5"/>
  </g>
  <g id="arrowDown" transform="rotate(180) translate(-30 -48)">
    <use xlink:href="#rim"/>
    <path pointer-events="none" fill="none" stroke="white" stroke-width="1.5" d="M0,-3.0v7 M-2.5,-0.5L0,-3.0L2.5,-0.5"/>
  </g>
  <g id="arrowLeft" transform="rotate(270) translate(-36 17)">
    <use xlink:href="#rim"/>
    <path pointer-events="none" fill="none" stroke="white" stroke-width="1.5" d="M0,-3.0v7 M-2.5,-0.5L0,-3.0L2.5,-0.5"/>
  </g>
  <g id="resetDef">
    <use xlink:href="#rim2" fill="#404040"><set attributeName="fill" to="#808080" begin="reset.mouseover" end="reset.mouseout"/></use>
  </g>
</defs>
<script type="application/ecmascript">
var viewWidth = 671;
var viewHeight = 524;
var sectionId = 'dynsection-14';
</script>
<script type="application/ecmascript" xlink:href="svg.min.js"/>
<svg id="graph" class="graph">
<g id="viewport">
<title>analysis.formulaic_analysis.FormulaicdAnalyzer.analyze_graph</title>
<!-- Node1 -->
<g id="Node000001" class="node">
<title>Node1</title>
<g id="a_Node000001"><a xlink:title=" ">
<polygon fill="#999999" stroke="#666666" points="236,-279 0,-279 0,-249 236,-249 236,-279"/>
<text text-anchor="start" x="8" y="-267" font-family="Helvetica,sans-Serif" font-size="10.00">analysis.formulaic</text>
<text text-anchor="middle" x="118" y="-256" font-family="Helvetica,sans-Serif" font-size="10.00">_analysis.FormulaicdAnalyzer.analyze_graph</text>
</a>
</g>
</g>
<!-- Node2 -->
<g id="Node000002" class="node">
<title>Node2</title>
<g id="a_Node000002"><a xlink:href="classanalysis_1_1formulaic__analysis_1_1FormulaicdAnalyzer.html#aad651ac5b885ea03a36eb44ed3c69b49" target="_top" xlink:title=" ">
<polygon fill="white" stroke="#666666" points="449.5,-510.5 285.5,-510.5 285.5,-469.5 449.5,-469.5 449.5,-510.5"/>
<text text-anchor="start" x="293.5" y="-498.5" font-family="Helvetica,sans-Serif" font-size="10.00">analysis.formulaic</text>
<text text-anchor="start" x="293.5" y="-487.5" font-family="Helvetica,sans-Serif" font-size="10.00">_analysis.FormulaicdAnalyzer.</text>
<text text-anchor="middle" x="367.5" y="-476.5" font-family="Helvetica,sans-Serif" font-size="10.00">_analyze_correlation_patterns</text>
</a>
</g>
</g>
<!-- Node1&#45;&gt;Node2 -->
<g id="edge1_Node000001_Node000002" class="edge">
<title>Node1&#45;&gt;Node2</title>
<g id="a_edge1_Node000001_Node000002"><a xlink:title=" ">
<path fill="none" stroke="#63b8ff" d="M126.51,-279.14C145.57,-315.98 199.47,-410.94 272,-461 273.69,-462.17 275.44,-463.29 277.22,-464.37"/>
<polygon fill="#63b8ff" stroke="#63b8ff" points="275.99,-467.69 286.44,-469.41 279.34,-461.54 275.99,-467.69"/>
</a>
</g>
</g>
<!-- Node4 -->
<g id="Node000004" class="node">
<title>Node4</title>
<g id="a_Node000004"><a xlink:href="classanalysis_1_1formulaic__analysis_1_1FormulaicdAnalyzer.html#a2e5854399a1854afc24abc2784532c23" target="_top" xlink:title=" ">
<polygon fill="white" stroke="#666666" points="463,-451.5 272,-451.5 272,-410.5 463,-410.5 463,-451.5"/>
<text text-anchor="start" x="280" y="-439.5" font-family="Helvetica,sans-Serif" font-size="10.00">analysis.formulaic</text>
<text text-anchor="start" x="280" y="-428.5" font-family="Helvetica,sans-Serif" font-size="10.00">_analysis.FormulaicdAnalyzer.</text>
<text text-anchor="middle" x="367.5" y="-417.5" font-family="Helvetica,sans-Serif" font-size="10.00">_analyze_cross_asset_relationships</text>
</a>
</g>
</g>
<!-- Node1&#45;&gt;Node4 -->
<g id="edge3_Node000001_Node000004" class="edge">
<title>Node1&#45;&gt;Node4</title>
<g id="a_edge3_Node000001_Node000004"><a xlink:title=" ">
<path fill="none" stroke="#63b8ff" d="M131.7,-279.21C156.07,-307.44 212.26,-368.12 272,-402 274.52,-403.43 277.12,-404.79 279.77,-406.1"/>
<polygon fill="#63b8ff" stroke="#63b8ff" points="278.44,-409.34 288.99,-410.31 281.35,-402.97 278.44,-409.34"/>
</a>
</g>
</g>
<!-- Node5 -->
<g id="Node000005" class="node">
<title>Node5</title>
<g id="a_Node000005"><a xlink:href="classanalysis_1_1formulaic__analysis_1_1FormulaicdAnalyzer.html#a6a0fead6be894bc5b72255c28f869353" target="_top" xlink:title=" ">
<polygon fill="white" stroke="#666666" points="460.5,-392.5 274.5,-392.5 274.5,-351.5 460.5,-351.5 460.5,-392.5"/>
<text text-anchor="start" x="282.5" y="-380.5" font-family="Helvetica,sans-Serif" font-size="10.00">analysis.formulaic</text>
<text text-anchor="start" x="282.5" y="-369.5" font-family="Helvetica,sans-Serif" font-size="10.00">_analysis.FormulaicdAnalyzer.</text>
<text text-anchor="middle" x="367.5" y="-358.5" font-family="Helvetica,sans-Serif" font-size="10.00">_analyze_risk_return_relationships</text>
</a>
</g>
</g>
<!-- Node1&#45;&gt;Node5 -->
<g id="edge4_Node000001_Node000005" class="edge">
<title>Node1&#45;&gt;Node5</title>
<g id="a_edge4_Node000001_Node000005"><a xlink:title=" ">
<path fill="none" stroke="#63b8ff" d="M144.59,-279.02C174.44,-296.11 225.63,-324.09 272,-343 276.23,-344.72 280.59,-346.4 285.03,-348.03"/>
<polygon fill="#63b8ff" stroke="#63b8ff" points="284.22,-351.45 294.81,-351.49 286.56,-344.85 284.22,-351.45"/>
</a>
</g>
</g>
<!-- Node6 -->
<g id="Node000006" class="node">
<title>Node6</title>
<g id="a_Node000006"><a xlink:href="classanalysis_1_1formulaic__analysis_1_1FormulaicdAnalyzer.html#a1636db58288a06429de11c172432cc73" target="_top" xlink:title=" ">
<polygon fill="white" stroke="#666666" points="460,-333.5 275,-333.5 275,-292.5 460,-292.5 460,-333.5"/>
<text text-anchor="start" x="283" y="-321.5" font-family="Helvetica,sans-Serif" font-size="10.00">analysis.formulaic</text>
<text text-anchor="start" x="283" y="-310.5" font-family="Helvetica,sans-Serif" font-size="10.00">_analysis.FormulaicdAnalyzer.</text>
<text text-anchor="middle" x="367.5" y="-299.5" font-family="Helvetica,sans-Serif" font-size="10.00">_calculate_empirical_relationships</text>
</a>
</g>
</g>
<!-- Node1&#45;&gt;Node6 -->
<g id="edge5_Node000001_Node000006" class="edge">
<title>Node1&#45;&gt;Node6</title>
<g id="a_edge5_Node000001_Node000006"><a xlink:title=" ">
<path fill="none" stroke="#63b8ff" d="M194.94,-279.03C216.95,-283.39 241.34,-288.22 264.66,-292.84"/>
<polygon fill="#63b8ff" stroke="#63b8ff" points="264.09,-296.29 274.58,-294.8 265.45,-289.43 264.09,-296.29"/>
</a>
</g>
</g>
<!-- Node7 -->
<g id="Node000007" class="node">
<title>Node7</title>
<g id="a_Node000007"><a xlink:href="classanalysis_1_1formulaic__analysis_1_1FormulaicdAnalyzer.html#a6edfe1b1add9a566f0a21d5ac5bdc877" target="_top" xlink:title=" ">
<polygon fill="white" stroke="#666666" points="663,-198.5 499,-198.5 499,-157.5 663,-157.5 663,-198.5"/>
<text text-anchor="start" x="507" y="-186.5" font-family="Helvetica,sans-Serif" font-size="10.00">analysis.formulaic</text>
<text text-anchor="start" x="507" y="-175.5" font-family="Helvetica,sans-Serif" font-size="10.00">_analysis.FormulaicdAnalyzer.</text>
<text text-anchor="middle" x="581" y="-164.5" font-family="Helvetica,sans-Serif" font-size="10.00">_categorize_formulas</text>
</a>
</g>
</g>
<!-- Node1&#45;&gt;Node7 -->
<g id="edge6_Node000001_Node000007" class="edge">
<title>Node1&#45;&gt;Node7</title>
<g id="a_edge6_Node000001_Node000007"><a xlink:title=" ">
<path fill="none" stroke="#63b8ff" d="M236.33,-270.79C303.92,-271.45 389.73,-266.68 463,-245 492.13,-236.38 521.79,-219.29 543.96,-204.52"/>
<polygon fill="#63b8ff" stroke="#63b8ff" points="546.08,-207.31 552.37,-198.79 542.14,-201.52 546.08,-207.31"/>
</a>
</g>
</g>
<!-- Node8 -->
<g id="Node000008" class="node">
<title>Node8</title>
<g id="a_Node000008"><a xlink:href="classanalysis_1_1formulaic__analysis_1_1FormulaicdAnalyzer.html#ac393a8d97c5464fcf93ac3cda02cefd5" target="_top" xlink:title=" ">
<polygon fill="white" stroke="#666666" points="454,-235.5 281,-235.5 281,-194.5 454,-194.5 454,-235.5"/>
<text text-anchor="start" x="289" y="-223.5" font-family="Helvetica,sans-Serif" font-size="10.00">analysis.formulaic</text>
<text text-anchor="start" x="289" y="-212.5" font-family="Helvetica,sans-Serif" font-size="10.00">_analysis.FormulaicdAnalyzer.</text>
<text text-anchor="middle" x="367.5" y="-201.5" font-family="Helvetica,sans-Serif" font-size="10.00">_extract_fundamental_formulas</text>
</a>
</g>
</g>
<!-- Node1&#45;&gt;Node8 -->
<g id="edge7_Node000001_Node000008" class="edge">
<title>Node1&#45;&gt;Node8</title>
<g id="a_edge7_Node000001_Node000008"><a xlink:title=" ">
<path fill="none" stroke="#63b8ff" d="M194.94,-248.97C218.9,-244.22 245.69,-238.92 270.84,-233.94"/>
<polygon fill="#63b8ff" stroke="#63b8ff" points="271.63,-237.35 280.76,-231.98 270.27,-230.48 271.63,-237.35"/>
</a>
</g>
</g>
<!-- Node9 -->
<g id="Node000009" class="node">
<title>Node9</title>
<g id="a_Node000009"><a xlink:href="classanalysis_1_1formulaic__analysis_1_1FormulaicdAnalyzer.html#a970a76093231511b7661a88134479068" target="_top" xlink:title=" ">
<polygon fill="white" stroke="#666666" points="449.5,-176 285.5,-176 285.5,-124 449.5,-124 449.5,-176"/>
<text text-anchor="start" x="293.5" y="-164" font-family="Helvetica,sans-Serif" font-size="10.00">analysis.formulaic</text>
<text text-anchor="start" x="293.5" y="-153" font-family="Helvetica,sans-Serif" font-size="10.00">_analysis.FormulaicdAnalyzer.</text>
<text text-anchor="start" x="293.5" y="-142" font-family="Helvetica,sans-Serif" font-size="10.00">_extract_portfolio_theory</text>
<text text-anchor="middle" x="367.5" y="-131" font-family="Helvetica,sans-Serif" font-size="10.00">_formulas</text>
</a>
</g>
</g>
<!-- Node1&#45;&gt;Node9 -->
<g id="edge8_Node000001_Node000009" class="edge">
<title>Node1&#45;&gt;Node9</title>
<g id="a_edge8_Node000001_Node000009"><a xlink:title=" ">
<path fill="none" stroke="#63b8ff" d="M146.48,-248.85C176.78,-232.43 227.17,-205.9 272,-186 276.64,-183.94 281.45,-181.88 286.31,-179.86"/>
<polygon fill="#63b8ff" stroke="#63b8ff" points="287.79,-183.04 295.72,-176.01 285.14,-176.56 287.79,-183.04"/>
</a>
</g>
</g>
<!-- Node10 -->
<g id="Node000010" class="node">
<title>Node10</title>
<g id="a_Node000010"><a xlink:href="classanalysis_1_1formulaic__analysis_1_1FormulaicdAnalyzer.html#a326a355ae4f68067fde89f413a44bce3" target="_top" xlink:title=" ">
<polygon fill="white" stroke="#666666" points="455.5,-105.5 279.5,-105.5 279.5,-64.5 455.5,-64.5 455.5,-105.5"/>
<text text-anchor="start" x="287.5" y="-93.5" font-family="Helvetica,sans-Serif" font-size="10.00">analysis.formulaic</text>
<text text-anchor="start" x="287.5" y="-82.5" font-family="Helvetica,sans-Serif" font-size="10.00">_analysis.FormulaicdAnalyzer.</text>
<text text-anchor="middle" x="367.5" y="-71.5" font-family="Helvetica,sans-Serif" font-size="10.00">_extract_valuation_relationships</text>
</a>
</g>
</g>
<!-- Node1&#45;&gt;Node10 -->
<g id="edge9_Node000001_Node000010" class="edge">
<title>Node1&#45;&gt;Node10</title>
<g id="a_edge9_Node000001_Node000010"><a xlink:title=" ">
<path fill="none" stroke="#63b8ff" d="M130.36,-248.98C153.67,-219.16 209.98,-152.16 272,-115 274.97,-113.22 278.06,-111.54 281.22,-109.94"/>
<polygon fill="#63b8ff" stroke="#63b8ff" points="282.75,-113.09 290.32,-105.69 279.78,-106.75 282.75,-113.09"/>
</a>
</g>
</g>
<!-- Node11 -->
<g id="Node000011" class="node">
<title>Node11</title>
<g id="a_Node000011"><a xlink:href="classanalysis_1_1formulaic__analysis_1_1FormulaicdAnalyzer.html#a6cb6ab251c316c496fe27567dcbfc6b1" target="_top" xlink:title=" ">
<polygon fill="white" stroke="#666666" points="449.5,-46.5 285.5,-46.5 285.5,-5.5 449.5,-5.5 449.5,-46.5"/>
<text text-anchor="start" x="293.5" y="-34.5" font-family="Helvetica,sans-Serif" font-size="10.00">analysis.formulaic</text>
<text text-anchor="start" x="293.5" y="-23.5" font-family="Helvetica,sans-Serif" font-size="10.00">_analysis.FormulaicdAnalyzer.</text>
<text text-anchor="middle" x="367.5" y="-12.5" font-family="Helvetica,sans-Serif" font-size="10.00">_generate_formula_summary</text>
</a>
</g>
</g>
<!-- Node1&#45;&gt;Node11 -->
<g id="edge10_Node000001_Node000011" class="edge">
<title>Node1&#45;&gt;Node11</title>
<g id="a_edge10_Node000001_Node000011"><a xlink:title=" ">
<path fill="none" stroke="#63b8ff" d="M125.85,-248.78C143.96,-210.31 196.88,-108.44 272,-55 273.63,-53.84 275.3,-52.73 277.01,-51.66"/>
<polygon fill="#63b8ff" stroke="#63b8ff" points="278.87,-54.64 285.87,-46.68 275.44,-48.53 278.87,-54.64"/>
</a>
</g>
</g>
<!-- Node3 -->
<g id="Node000003" class="node">
<title>Node3</title>
<g id="a_Node000003"><a xlink:href="classanalysis_1_1formulaic__analysis_1_1FormulaicdAnalyzer.html#acb73ebf4763ca00358540aa5c9e8cd90" target="_top" xlink:title=" ">
<polygon fill="white" stroke="#666666" points="663,-516 499,-516 499,-464 663,-464 663,-516"/>
<text text-anchor="start" x="507" y="-504" font-family="Helvetica,sans-Serif" font-size="10.00">analysis.formulaic</text>
<text text-anchor="start" x="507" y="-493" font-family="Helvetica,sans-Serif" font-size="10.00">_analysis.FormulaicdAnalyzer.</text>
<text text-anchor="start" x="507" y="-482" font-family="Helvetica,sans-Serif" font-size="10.00">_calculate_avg_correlation</text>
<text text-anchor="middle" x="581" y="-471" font-family="Helvetica,sans-Serif" font-size="10.00">_strength</text>
</a>
</g>
</g>
<!-- Node2&#45;&gt;Node3 -->
<g id="edge2_Node000002_Node000003" class="edge">
<title>Node2&#45;&gt;Node3</title>
<g id="a_edge2_Node000002_Node000003"><a xlink:title=" ">
<path fill="none" stroke="#63b8ff" d="M449.67,-490C462.35,-490 475.54,-490 488.43,-490"/>
<polygon fill="#63b8ff" stroke="#63b8ff" points="488.7,-493.5 498.7,-490 488.7,-486.5 488.7,-493.5"/>
</a>
</g>
</g>
<!-- Node11&#45;&gt;Node7 -->
<g id="edge12_Node000011_Node000007" class="edge">
<title>Node11&#45;&gt;Node7</title>
<g id="a_edge12_Node000011_Node000007"><a xlink:title=" ">
<path fill="none" stroke="#63b8ff" d="M447.25,-46.68C452.73,-49.16 458.04,-51.93 463,-55 502.97,-79.73 538.56,-121.39 559.7,-149.29"/>
<polygon fill="#63b8ff" stroke="#63b8ff" points="557.01,-151.53 565.79,-157.47 562.62,-147.36 557.01,-151.53"/>
</a>
</g>
</g>
<!-- Node12 -->
<g id="Node000012" class="node">
<title>Node12</title>
<g id="a_Node000012"><a xlink:href="classanalysis_1_1formulaic__analysis_1_1FormulaicdAnalyzer.html#a9ce86f1d047411531fe066231283a212" target="_top" xlink:title=" ">
<polygon fill="white" stroke="#666666" points="663,-52 499,-52 499,0 663,0 663,-52"/>
<text text-anchor="start" x="507" y="-40" font-family="Helvetica,sans-Serif" font-size="10.00">analysis.formulaic</text>
<text text-anchor="start" x="507" y="-29" font-family="Helvetica,sans-Serif" font-size="10.00">_analysis.FormulaicdAnalyzer.</text>
<text text-anchor="start" x="507" y="-18" font-family="Helvetica,sans-Serif" font-size="10.00">_calculate_avg_correlation</text>
<text text-anchor="middle" x="581" y="-7" font-family="Helvetica,sans-Serif" font-size="10.00">_strength_from_empirical</text>
</a>
</g>
</g>
<!-- Node11&#45;&gt;Node12 -->
<g id="edge11_Node000011_Node000012" class="edge">
<title>Node11&#45;&gt;Node12</title>
<g id="a_edge11_Node000011_Node000012"><a xlink:title=" ">
<path fill="none" stroke="#63b8ff" d="M449.67,-26C462.35,-26 475.54,-26 488.43,-26"/>
<polygon fill="#63b8ff" stroke="#63b8ff" points="488.7,-29.5 498.7,-26 488.7,-22.5 488.7,-29.5"/>
</a>
</g>
</g>
</g>
</svg>

<g id="navigator" transform="translate(0 0)" fill="#404254">
  <rect fill="#f2f5e9" fill-opacity="0.5" stroke="#606060" stroke-width=".5" x="0" y="0" width="60" height="60"/>
  <use id="zoomplus" xlink:href="#zoomPlus" x="17" y="9" onmousedown="handleZoom(evt,'in')"/>
  <use id="zoomminus" xlink:href="#zoomMin" x="42" y="9" onmousedown="handleZoom(evt,'out')"/>
  <use id="reset" xlink:href="#resetDef" x="30" y="36" onmousedown="handleReset()"/>
   <use id="arrowup" xlink:href="#arrowUp" x="0" y="0" onmousedown="handlePan(0,-1)"/>
  <use id="arrowright" xlink:href="#arrowRight" x="0" y="0" onmousedown="handlePan(1,0)"/>
  <use id="arrowdown" xlink:href="#arrowDown" x="0" y="0" onmousedown="handlePan(0,1)"/>
  <use id="arrowleft" xlink:href="#arrowLeft" x="0" y="0" onmousedown="handlePan(-1,0)"/>
</g>
<svg viewBox="0 0 15 15" width="100%" height="30px" preserveAspectRatio="xMaxYMin meet">
 <g id="arrow_out" transform="scale(0.3 0.3)">
  <a xlink:href="classanalysis_1_1formulaic__analysis_1_1FormulaicdAnalyzer_a7b253376748fdef292484fcd0bd8a971_cgraph_org.svg" target="_base">
   <rect id="button" ry="5" rx="5" y="6" x="6" height="38" width="38"
        fill="#f2f5e9" fill-opacity="0.5" stroke="#606060" stroke-width="1.0"/>
   <path id="arrow"
     d="M 11.500037,31.436501 C 11.940474,20.09759 22.043105,11.32322 32.158766,21.979434 L 37.068811,17.246167 C 37.068811,17.246167 37.088388,32 37.088388,32 L 22.160133,31.978069 C 22.160133,31.978069 26.997745,27.140456 26.997745,27.140456 C 18.528582,18.264221 13.291696,25.230495 11.500037,31.436501 z"
     style="fill:#404040;"/>
  </a>
 </g>
</svg>

<style type='text/css'>
<![CDATA[
[data-mouse-over-selected='false'] { opacity: 0.7; }
[data-mouse-over-selected='true']  { opacity: 1.0; }
]]>
</style>
<script type="application/ecmascript"><![CDATA[
document.addEventListener('DOMContentLoaded', (event) => {
  highlightEdges();
  highlightAdjacentNodes();
});
]]></script>
</svg>
