<?xml version="1.0" encoding="UTF-8" standalone="no"?>
<!DOCTYPE svg PUBLIC "-//W3C//DTD SVG 1.1//EN"
 "http://www.w3.org/Graphics/SVG/1.1/DTD/svg11.dtd">
<!-- Generated by graphviz version 2.43.0 (0)
 -->
<!-- Title: analysis.formulaic_analysis.FormulaicdAnalyzer._calculate_avg_correlation_strength Pages: 1 -->
<svg width="644pt" height="60pt"
 viewBox="0.00 0.00 644.00 60.00" xmlns="http://www.w3.org/2000/svg" xmlns:xlink="http://www.w3.org/1999/xlink">
<g id="graph0" class="graph" transform="scale(1 1) rotate(0) translate(4 56)">
<title>analysis.formulaic_analysis.FormulaicdAnalyzer._calculate_avg_correlation_strength</title>
<!-- Node1 -->
<g id="Node000001" class="node">
<title>Node1</title>
<g id="a_Node000001"><a xlink:title=" ">
<polygon fill="#999999" stroke="#666666" points="636,-52 472,-52 472,0 636,0 636,-52"/>
<text text-anchor="start" x="480" y="-40" font-family="Helvetica,sans-Serif" font-size="10.00">analysis.formulaic</text>
<text text-anchor="start" x="480" y="-29" font-family="Helvetica,sans-Serif" font-size="10.00">_analysis.FormulaicdAnalyzer.</text>
<text text-anchor="start" x="480" y="-18" font-family="Helvetica,sans-Serif" font-size="10.00">_calculate_avg_correlation</text>
<text text-anchor="middle" x="554" y="-7" font-family="Helvetica,sans-Serif" font-size="10.00">_strength</text>
</a>
</g>
</g>
<!-- Node2 -->
<g id="Node000002" class="node">
<title>Node2</title>
<g id="a_Node000002"><a xlink:href="classanalysis_1_1formulaic__analysis_1_1FormulaicdAnalyzer.html#aad651ac5b885ea03a36eb44ed3c69b49" target="_top" xlink:title=" ">
<polygon fill="white" stroke="#666666" points="436,-46.5 272,-46.5 272,-5.5 436,-5.5 436,-46.5"/>
<text text-anchor="start" x="280" y="-34.5" font-family="Helvetica,sans-Serif" font-size="10.00">analysis.formulaic</text>
<text text-anchor="start" x="280" y="-23.5" font-family="Helvetica,sans-Serif" font-size="10.00">_analysis.FormulaicdAnalyzer.</text>
<text text-anchor="middle" x="354" y="-12.5" font-family="Helvetica,sans-Serif" font-size="10.00">_analyze_correlation_patterns</text>
</a>
</g>
</g>
<!-- Node1&#45;&gt;Node2 -->
<g id="edge1_Node000001_Node000002" class="edge">
<title>Node1&#45;&gt;Node2</title>
<g id="a_edge1_Node000001_Node000002"><a xlink:title=" ">
<path fill="none" stroke="#63b8ff" d="M461.64,-26C453.18,-26 444.65,-26 436.3,-26"/>
<polygon fill="#63b8ff" stroke="#63b8ff" points="461.89,-29.5 471.89,-26 461.89,-22.5 461.89,-29.5"/>
</a>
</g>
</g>
<!-- Node3 -->
<g id="Node000003" class="node">
<title>Node3</title>
<g id="a_Node000003"><a xlink:href="classanalysis_1_1formulaic__analysis_1_1FormulaicdAnalyzer.html#a7b253376748fdef292484fcd0bd8a971" target="_top" xlink:title=" ">
<polygon fill="white" stroke="#666666" points="236,-41 0,-41 0,-11 236,-11 236,-41"/>
<text text-anchor="start" x="8" y="-29" font-family="Helvetica,sans-Serif" font-size="10.00">analysis.formulaic</text>
<text text-anchor="middle" x="118" y="-18" font-family="Helvetica,sans-Serif" font-size="10.00">_analysis.FormulaicdAnalyzer.analyze_graph</text>
</a>
</g>
</g>
<!-- Node2&#45;&gt;Node3 -->
<g id="edge2_Node000002_Node000003" class="edge">
<title>Node2&#45;&gt;Node3</title>
<g id="a_edge2_Node000002_Node000003"><a xlink:title=" ">
<path fill="none" stroke="#63b8ff" d="M261.74,-26C253.4,-26 244.87,-26 236.34,-26"/>
<polygon fill="#63b8ff" stroke="#63b8ff" points="261.81,-29.5 271.81,-26 261.81,-22.5 261.81,-29.5"/>
</a>
</g>
</g>
</g>
</svg>
