<?xml version="1.0" encoding="UTF-8" standalone="no"?>
<!DOCTYPE svg PUBLIC "-//W3C//DTD SVG 1.1//EN"
 "http://www.w3.org/Graphics/SVG/1.1/DTD/svg11.dtd">
<!-- Generated by graphviz version 2.43.0 (0)
 -->
<!-- Title: api.main.TestWorkflowYAMLSyntax Pages: 1 -->
<svg width="189pt" height="83pt"
 viewBox="0.00 0.00 189.00 83.00" xmlns="http://www.w3.org/2000/svg" xmlns:xlink="http://www.w3.org/1999/xlink">
<g id="graph0" class="graph" transform="scale(1 1) rotate(0) translate(4 79)">
<title>api.main.TestWorkflowYAMLSyntax</title>
<!-- Node1 -->
<g id="Node000001" class="node">
<title>Node1</title>
<g id="a_Node000001"><a xlink:title=" ">
<polygon fill="#999999" stroke="transparent" points="181,-75 0,-75 0,0 181,0 181,-75"/>
<text text-anchor="start" x="5.5" y="-62.5" font-family="Helvetica,sans-Serif" font-size="10.00">api.main.TestWorkflowYAMLSyntax</text>
<text text-anchor="start" x="89" y="-47.5" font-family="Helvetica,sans-Serif" font-size="10.00"> </text>
<text text-anchor="start" x="21.5" y="-32.5" font-family="Helvetica,sans-Serif" font-size="10.00">+</text>
<text text-anchor="start" x="51.5" y="-32.5" font-family="Helvetica,sans-Serif" font-size="10.00">workflow_files()</text>
<text text-anchor="start" x="21.5" y="-17.5" font-family="Helvetica,sans-Serif" font-size="10.00">+</text>
<text text-anchor="start" x="51.5" y="-17.5" font-family="Helvetica,sans-Serif" font-size="10.00">test_all_workflows</text>
<text text-anchor="start" x="51.5" y="-6.5" font-family="Helvetica,sans-Serif" font-size="10.00">_are_valid_yaml()</text>
<polygon fill="#666666" stroke="#666666" points="0.5,-57.5 0.5,-57.5 181.5,-57.5 181.5,-57.5 0.5,-57.5"/>
<polygon fill="#666666" stroke="#666666" points="0.5,-42.5 0.5,-42.5 181.5,-42.5 181.5,-42.5 0.5,-42.5"/>
<polygon fill="none" stroke="#666666" points="0,0 0,-75 181,-75 181,0 0,0"/>
</a>
</g>
</g>
</g>
</svg>
