<?xml version="1.0" encoding="UTF-8" standalone="no"?>
<!DOCTYPE svg PUBLIC "-//W3C//DTD SVG 1.1//EN"
 "http://www.w3.org/Graphics/SVG/1.1/DTD/svg11.dtd">
<!-- Generated by graphviz version 2.43.0 (0)
 -->
<!-- Title: asset_graph.AssetRelationshipGraph Pages: 1 -->
<svg width="224pt" height="276pt"
 viewBox="0.00 0.00 223.50 276.00" xmlns="http://www.w3.org/2000/svg" xmlns:xlink="http://www.w3.org/1999/xlink">

<svg id="main" version="1.1" xmlns="http://www.w3.org/2000/svg" xmlns:xlink="http://www.w3.org/1999/xlink" xml:space="preserve">

<style type="text/css"><![CDATA[
.node, .edge {opacity: 0.7;}
.node.selected, .edge.selected {opacity: 1;}
.edge:hover path { stroke: red; }
.edge:hover polygon { stroke: red; fill: red; }
]]></style>
<script type="application/ecmascript" xlink:href="svg.min.js"/>
<svg id="graph" class="graph">
<g id="graph0" class="graph" transform="scale(1 1) rotate(0) translate(4 272)">
<title>asset_graph.AssetRelationshipGraph</title>
<!-- Node1 -->
<g id="Node000001" class="node">
<title>Node1</title>
<g id="a_Node000001"><a xlink:title=" ">
<polygon fill="#999999" stroke="transparent" points="161,-161 0,-161 0,0 161,0 161,-161"/>
<text text-anchor="start" x="5.5" y="-148.5" font-family="Helvetica,sans-Serif" font-size="10.00">asset_graph.AssetRelationship</text>
<text text-anchor="start" x="66" y="-137.5" font-family="Helvetica,sans-Serif" font-size="10.00">Graph</text>
<text text-anchor="start" x="10.5" y="-122.5" font-family="Helvetica,sans-Serif" font-size="10.00">+</text>
<text text-anchor="start" x="29.5" y="-122.5" font-family="Helvetica,sans-Serif" font-size="10.00">database_url</text>
<text text-anchor="start" x="10.5" y="-107.5" font-family="Helvetica,sans-Serif" font-size="10.00">+</text>
<text text-anchor="start" x="29.5" y="-107.5" font-family="Helvetica,sans-Serif" font-size="10.00">__init__()</text>
<text text-anchor="start" x="10.5" y="-92.5" font-family="Helvetica,sans-Serif" font-size="10.00">+</text>
<text text-anchor="start" x="29.5" y="-92.5" font-family="Helvetica,sans-Serif" font-size="10.00">add_asset()</text>
<text text-anchor="start" x="10.5" y="-77.5" font-family="Helvetica,sans-Serif" font-size="10.00">+</text>
<text text-anchor="start" x="29.5" y="-77.5" font-family="Helvetica,sans-Serif" font-size="10.00">add_regulatory_event()</text>
<text text-anchor="start" x="10.5" y="-62.5" font-family="Helvetica,sans-Serif" font-size="10.00">+</text>
<text text-anchor="start" x="29.5" y="-62.5" font-family="Helvetica,sans-Serif" font-size="10.00">build_relationships()</text>
<text text-anchor="start" x="10.5" y="-47.5" font-family="Helvetica,sans-Serif" font-size="10.00">+</text>
<text text-anchor="start" x="29.5" y="-47.5" font-family="Helvetica,sans-Serif" font-size="10.00">add_relationship()</text>
<text text-anchor="start" x="10.5" y="-32.5" font-family="Helvetica,sans-Serif" font-size="10.00">+</text>
<text text-anchor="start" x="29.5" y="-32.5" font-family="Helvetica,sans-Serif" font-size="10.00">calculate_metrics()</text>
<text text-anchor="start" x="10.5" y="-17.5" font-family="Helvetica,sans-Serif" font-size="10.00">+</text>
<text text-anchor="start" x="29.5" y="-17.5" font-family="Helvetica,sans-Serif" font-size="10.00">get_3d_visualization</text>
<text text-anchor="start" x="29.5" y="-6.5" font-family="Helvetica,sans-Serif" font-size="10.00">_data_enhanced()</text>
<polygon fill="#666666" stroke="#666666" points="0.5,-132.5 0.5,-132.5 161.5,-132.5 161.5,-132.5 0.5,-132.5"/>
<polygon fill="#666666" stroke="#666666" points="0.5,-117.5 0.5,-117.5 27.5,-117.5 27.5,-117.5 0.5,-117.5"/>
<polygon fill="#666666" stroke="#666666" points="27.5,-117.5 27.5,-117.5 161.5,-117.5 161.5,-117.5 27.5,-117.5"/>
<polygon fill="none" stroke="#666666" points="0,0 0,-161 161,-161 161,0 0,0"/>
</a>
</g>
</g>
<!-- Node2 -->
<g id="Node000002" class="node">
<title>Node2</title>
<g id="a_Node000002"><a xlink:title=" ">
<polygon fill="white" stroke="transparent" points="48,-268 19,-268 19,-219 48,-219 48,-268"/>
<text text-anchor="start" x="24.5" y="-255.5" font-family="Helvetica,sans-Serif" font-size="10.00">dict</text>
<text text-anchor="start" x="32" y="-240.5" font-family="Helvetica,sans-Serif" font-size="10.00"> </text>
<text text-anchor="start" x="32" y="-225.5" font-family="Helvetica,sans-Serif" font-size="10.00"> </text>
<polygon fill="#666666" stroke="#666666" points="19.5,-250.5 19.5,-250.5 48.5,-250.5 48.5,-250.5 19.5,-250.5"/>
<polygon fill="#666666" stroke="#666666" points="19.5,-235.5 19.5,-235.5 48.5,-235.5 48.5,-235.5 19.5,-235.5"/>
<polygon fill="none" stroke="#666666" points="19,-219 19,-268 48,-268 48,-219 19,-219"/>
</a>
</g>
</g>
<!-- Node2&#45;&gt;Node1 -->
<g id="edge1_Node000001_Node000002" class="edge">
<title>Node2&#45;&gt;Node1</title>
<g id="a_edge1_Node000001_Node000002"><a xlink:title=" ">
<path fill="none" stroke="#63b8ff" d="M31.52,-218.99C31.09,-206.89 31.48,-191.99 34.5,-179 34.97,-176.96 35.49,-174.92 36.05,-172.87"/>
<polygon fill="none" stroke="#63b8ff" points="36.14,-172.6 34.09,-165.69 39.68,-161.14 41.73,-168.05 36.14,-172.6"/>
</a>
</g>
<text text-anchor="middle" x="70.5" y="-193" font-family="Helvetica,sans-Serif" font-size="10.00" fill="grey"> +assets</text>
<text text-anchor="middle" x="70.5" y="-182" font-family="Helvetica,sans-Serif" font-size="10.00" fill="grey">+relationships</text>
</g>
<!-- Node3 -->
<g id="Node000003" class="node">
<title>Node3</title>
<g id="a_Node000003"><a xlink:title=" ">
<polygon fill="white" stroke="transparent" points="141.5,-268 115.5,-268 115.5,-219 141.5,-219 141.5,-268"/>
<text text-anchor="start" x="120.5" y="-255.5" font-family="Helvetica,sans-Serif" font-size="10.00">list</text>
<text text-anchor="start" x="126.5" y="-240.5" font-family="Helvetica,sans-Serif" font-size="10.00"> </text>
<text text-anchor="start" x="126.5" y="-225.5" font-family="Helvetica,sans-Serif" font-size="10.00"> </text>
<polygon fill="#666666" stroke="#666666" points="115.5,-250.5 115.5,-250.5 141.5,-250.5 141.5,-250.5 115.5,-250.5"/>
<polygon fill="#666666" stroke="#666666" points="115.5,-235.5 115.5,-235.5 141.5,-235.5 141.5,-235.5 115.5,-235.5"/>
<polygon fill="none" stroke="#666666" points="115.5,-219 115.5,-268 141.5,-268 141.5,-219 115.5,-219"/>
</a>
</g>
</g>
<!-- Node3&#45;&gt;Node1 -->
<g id="edge2_Node000001_Node000003" class="edge">
<title>Node3&#45;&gt;Node1</title>
<g id="a_edge2_Node000001_Node000003"><a xlink:title=" ">
<path fill="none" stroke="#63b8ff" d="M121.42,-218.74C117.69,-206.24 112.85,-190.01 107.81,-173.12"/>
<polygon fill="none" stroke="#63b8ff" points="107.74,-172.85 102.19,-168.24 104.31,-161.35 109.85,-165.96 107.74,-172.85"/>
</a>
</g>
<text text-anchor="middle" x="165.5" y="-187.5" font-family="Helvetica,sans-Serif" font-size="10.00" fill="grey"> +regulatory_events</text>
</g>
</g>
</svg>
</svg>

<style type='text/css'>
<![CDATA[
[data-mouse-over-selected='false'] { opacity: 0.7; }
[data-mouse-over-selected='true']  { opacity: 1.0; }
]]>
</style>
<script type="application/ecmascript"><![CDATA[
document.addEventListener('DOMContentLoaded', (event) => {
  highlightEdges();
  highlightAdjacentNodes();
});
]]></script>
</svg>
