<?xml version="1.0" encoding="UTF-8" standalone="no"?>
<!DOCTYPE svg PUBLIC "-//W3C//DTD SVG 1.1//EN"
 "http://www.w3.org/Graphics/SVG/1.1/DTD/svg11.dtd">
<!-- Generated by graphviz version 2.43.0 (0)
 -->
<!-- Title: api.main.VisualizationDataResponse Pages: 1 -->
<svg width="151pt" height="175pt"
 viewBox="0.00 0.00 151.00 175.00" xmlns="http://www.w3.org/2000/svg" xmlns:xlink="http://www.w3.org/1999/xlink">
<g id="graph0" class="graph" transform="scale(1 1) rotate(0) translate(4 171)">
<title>api.main.VisualizationDataResponse</title>
<!-- Node1 -->
<g id="Node000001" class="node">
<title>Node1</title>
<g id="a_Node000001"><a xlink:title=" ">
<polygon fill="#999999" stroke="transparent" points="143,-60 0,-60 0,0 143,0 143,-60"/>
<text text-anchor="start" x="5.5" y="-48" font-family="Helvetica,sans-Serif" font-size="10.00">api.main.VisualizationData</text>
<text text-anchor="start" x="48" y="-37" font-family="Helvetica,sans-Serif" font-size="10.00">Response</text>
<text text-anchor="start" x="70" y="-22" font-family="Helvetica,sans-Serif" font-size="10.00"> </text>
<text text-anchor="start" x="70" y="-7" font-family="Helvetica,sans-Serif" font-size="10.00"> </text>
<polygon fill="#666666" stroke="#666666" points="0.5,-32 0.5,-32 143.5,-32 143.5,-32 0.5,-32"/>
<polygon fill="#666666" stroke="#666666" points="0.5,-17 0.5,-17 143.5,-17 143.5,-17 0.5,-17"/>
<polygon fill="none" stroke="#666666" points="0,0 0,-60 143,-60 143,0 0,0"/>
</a>
</g>
</g>
<!-- Node2 -->
<g id="Node000002" class="node">
<title>Node2</title>
<g id="a_Node000002"><a xlink:href="classBaseModel.html" target="_top" xlink:title=" ">
<polygon fill="white" stroke="transparent" points="72,-167 7,-167 7,-118 72,-118 72,-167"/>
<text text-anchor="start" x="12.5" y="-154.5" font-family="Helvetica,sans-Serif" font-size="10.00">BaseModel</text>
<text text-anchor="start" x="38" y="-139.5" font-family="Helvetica,sans-Serif" font-size="10.00"> </text>
<text text-anchor="start" x="38" y="-124.5" font-family="Helvetica,sans-Serif" font-size="10.00"> </text>
<polygon fill="#666666" stroke="#666666" points="7.5,-149.5 7.5,-149.5 72.5,-149.5 72.5,-149.5 7.5,-149.5"/>
<polygon fill="#666666" stroke="#666666" points="7.5,-134.5 7.5,-134.5 72.5,-134.5 72.5,-134.5 7.5,-134.5"/>
<polygon fill="none" stroke="#666666" points="7,-118 7,-167 72,-167 72,-118 7,-118"/>
</a>
</g>
</g>
<!-- Node2&#45;&gt;Node1 -->
<g id="edge1_Node000001_Node000002" class="edge">
<title>Node2&#45;&gt;Node1</title>
<g id="a_edge1_Node000001_Node000002"><a xlink:title=" ">
<path fill="none" stroke="#63b8ff" d="M49.27,-107.75C53.67,-92.56 58.82,-74.79 63.05,-60.17"/>
<polygon fill="none" stroke="#63b8ff" points="45.78,-107.22 46.36,-117.79 52.51,-109.16 45.78,-107.22"/>
</a>
</g>
</g>
<!-- Node3 -->
<g id="Node000003" class="node">
<title>Node3</title>
<g id="a_Node000003"><a xlink:title=" ">
<polygon fill="white" stroke="transparent" points="118.5,-167 90.5,-167 90.5,-118 118.5,-118 118.5,-167"/>
<text text-anchor="start" x="95.5" y="-154.5" font-family="Helvetica,sans-Serif" font-size="10.00">List</text>
<text text-anchor="start" x="102.5" y="-139.5" font-family="Helvetica,sans-Serif" font-size="10.00"> </text>
<text text-anchor="start" x="102.5" y="-124.5" font-family="Helvetica,sans-Serif" font-size="10.00"> </text>
<polygon fill="#666666" stroke="#666666" points="90.5,-149.5 90.5,-149.5 118.5,-149.5 118.5,-149.5 90.5,-149.5"/>
<polygon fill="#666666" stroke="#666666" points="90.5,-134.5 90.5,-134.5 118.5,-134.5 118.5,-134.5 90.5,-134.5"/>
<polygon fill="none" stroke="#666666" points="90.5,-118 90.5,-167 118.5,-167 118.5,-118 90.5,-118"/>
</a>
</g>
</g>
<!-- Node3&#45;&gt;Node1 -->
<g id="edge2_Node000001_Node000003" class="edge">
<title>Node3&#45;&gt;Node1</title>
<g id="a_edge2_Node000001_Node000003"><a xlink:title=" ">
<path fill="none" stroke="#63b8ff" d="M97.42,-117.79C93.45,-104.48 88.37,-87.5 83.77,-72.09"/>
<polygon fill="none" stroke="#63b8ff" points="83.65,-71.67 78.1,-67.07 80.21,-60.17 85.76,-64.78 83.65,-71.67"/>
</a>
</g>
<text text-anchor="middle" x="112" y="-92" font-family="Helvetica,sans-Serif" font-size="10.00" fill="grey"> +edges</text>
<text text-anchor="middle" x="112" y="-81" font-family="Helvetica,sans-Serif" font-size="10.00" fill="grey">+nodes</text>
</g>
</g>
</svg>
