<?xml version="1.0" encoding="UTF-8" standalone="no"?>
<!DOCTYPE svg PUBLIC "-//W3C//DTD SVG 1.1//EN"
 "http://www.w3.org/Graphics/SVG/1.1/DTD/svg11.dtd">
<!-- Generated by graphviz version 2.43.0 (0)
 -->
<!-- Title: db_models.RegulatoryEventORM Pages: 1 -->
<svg width="280pt" height="230pt"
 viewBox="0.00 0.00 279.50 230.00" xmlns="http://www.w3.org/2000/svg" xmlns:xlink="http://www.w3.org/1999/xlink">

<svg id="main" version="1.1" xmlns="http://www.w3.org/2000/svg" xmlns:xlink="http://www.w3.org/1999/xlink" xml:space="preserve">

<style type="text/css"><![CDATA[
.node, .edge {opacity: 0.7;}
.node.selected, .edge.selected {opacity: 1;}
.edge:hover path { stroke: red; }
.edge:hover polygon { stroke: red; fill: red; }
]]></style>
<script type="application/ecmascript" xlink:href="svg.min.js"/>
<svg id="graph" class="graph">
<g id="graph0" class="graph" transform="scale(1 1) rotate(0) translate(4 226)">
<title>db_models.RegulatoryEventORM</title>
<!-- Node1 -->
<g id="Node000001" class="node">
<title>Node1</title>
<g id="a_Node000001"><a xlink:title=" ">
<polygon fill="#999999" stroke="transparent" points="171,-49 0,-49 0,0 171,0 171,-49"/>
<text text-anchor="start" x="5.5" y="-36.5" font-family="Helvetica,sans-Serif" font-size="10.00">db_models.RegulatoryEventORM</text>
<text text-anchor="start" x="84" y="-21.5" font-family="Helvetica,sans-Serif" font-size="10.00"> </text>
<text text-anchor="start" x="84" y="-6.5" font-family="Helvetica,sans-Serif" font-size="10.00"> </text>
<polygon fill="#666666" stroke="#666666" points="0.5,-31.5 0.5,-31.5 171.5,-31.5 171.5,-31.5 0.5,-31.5"/>
<polygon fill="#666666" stroke="#666666" points="0.5,-16.5 0.5,-16.5 171.5,-16.5 171.5,-16.5 0.5,-16.5"/>
<polygon fill="none" stroke="#666666" points="0,0 0,-49 171,-49 171,0 0,0"/>
</a>
</g>
</g>
<!-- Node2 -->
<g id="Node000002" class="node">
<title>Node2</title>
<g id="a_Node000002"><a xlink:href="classBase.html" target="_top" xlink:title=" ">
<polygon fill="white" stroke="transparent" points="56,-222 21,-222 21,-173 56,-173 56,-222"/>
<text text-anchor="start" x="26.5" y="-209.5" font-family="Helvetica,sans-Serif" font-size="10.00">Base</text>
<text text-anchor="start" x="37" y="-194.5" font-family="Helvetica,sans-Serif" font-size="10.00"> </text>
<text text-anchor="start" x="37" y="-179.5" font-family="Helvetica,sans-Serif" font-size="10.00"> </text>
<polygon fill="#666666" stroke="#666666" points="21.5,-204.5 21.5,-204.5 56.5,-204.5 56.5,-204.5 21.5,-204.5"/>
<polygon fill="#666666" stroke="#666666" points="21.5,-189.5 21.5,-189.5 56.5,-189.5 56.5,-189.5 21.5,-189.5"/>
<polygon fill="none" stroke="#666666" points="21,-173 21,-222 56,-222 56,-173 21,-173"/>
</a>
</g>
</g>
<!-- Node2&#45;&gt;Node1 -->
<g id="edge1_Node000001_Node000002" class="edge">
<title>Node2&#45;&gt;Node1</title>
<g id="a_edge1_Node000001_Node000002"><a xlink:title=" ">
<path fill="none" stroke="#63b8ff" d="M47.74,-162.9C56.96,-129.33 70.91,-78.59 79.02,-49.07"/>
<polygon fill="none" stroke="#63b8ff" points="44.31,-162.15 45.04,-172.72 51.06,-164.01 44.31,-162.15"/>
</a>
</g>
</g>
<!-- Node3 -->
<g id="Node000003" class="node">
<title>Node3</title>
<g id="a_Node000003"><a xlink:title=" ">
<polygon fill="white" stroke="transparent" points="97,-222 74,-222 74,-173 97,-173 97,-222"/>
<text text-anchor="start" x="79.5" y="-209.5" font-family="Helvetica,sans-Serif" font-size="10.00">str</text>
<text text-anchor="start" x="84" y="-194.5" font-family="Helvetica,sans-Serif" font-size="10.00"> </text>
<text text-anchor="start" x="84" y="-179.5" font-family="Helvetica,sans-Serif" font-size="10.00"> </text>
<polygon fill="#666666" stroke="#666666" points="74.5,-204.5 74.5,-204.5 97.5,-204.5 97.5,-204.5 74.5,-204.5"/>
<polygon fill="#666666" stroke="#666666" points="74.5,-189.5 74.5,-189.5 97.5,-189.5 97.5,-189.5 74.5,-189.5"/>
<polygon fill="none" stroke="#666666" points="74,-173 74,-222 97,-222 97,-173 74,-173"/>
</a>
</g>
</g>
<!-- Node3&#45;&gt;Node1 -->
<g id="edge2_Node000001_Node000003" class="edge">
<title>Node3&#45;&gt;Node1</title>
<g id="a_edge2_Node000001_Node000003"><a xlink:title=" ">
<path fill="none" stroke="#63b8ff" d="M85.5,-172.72C85.5,-143.88 85.5,-94.98 85.5,-61.51"/>
<polygon fill="none" stroke="#63b8ff" points="85.5,-61.07 81.5,-55.07 85.5,-49.07 89.5,-55.07 85.5,-61.07"/>
</a>
</g>
<text text-anchor="middle" x="126" y="-108.5" font-family="Helvetica,sans-Serif" font-size="10.00" fill="grey"> &#45;__tablename__</text>
</g>
<!-- Node4 -->
<g id="Node000004" class="node">
<title>Node4</title>
<g id="a_Node000004"><a xlink:title=" ">
<polygon fill="white" stroke="transparent" points="214.5,-222 164.5,-222 164.5,-173 214.5,-173 214.5,-222"/>
<text text-anchor="start" x="169.5" y="-209.5" font-family="Helvetica,sans-Serif" font-size="10.00">Mapped</text>
<text text-anchor="start" x="187.5" y="-194.5" font-family="Helvetica,sans-Serif" font-size="10.00"> </text>
<text text-anchor="start" x="187.5" y="-179.5" font-family="Helvetica,sans-Serif" font-size="10.00"> </text>
<polygon fill="#666666" stroke="#666666" points="164.5,-204.5 164.5,-204.5 214.5,-204.5 214.5,-204.5 164.5,-204.5"/>
<polygon fill="#666666" stroke="#666666" points="164.5,-189.5 164.5,-189.5 214.5,-189.5 214.5,-189.5 164.5,-189.5"/>
<polygon fill="none" stroke="#666666" points="164.5,-173 164.5,-222 214.5,-222 214.5,-173 164.5,-173"/>
</a>
</g>
</g>
<!-- Node4&#45;&gt;Node1 -->
<g id="edge3_Node000001_Node000004" class="edge">
<title>Node4&#45;&gt;Node1</title>
<g id="a_edge3_Node000001_Node000004"><a xlink:title=" ">
<path fill="none" stroke="#63b8ff" d="M191.53,-172.54C192.63,-144.52 190.37,-98.02 167.5,-67 164.65,-63.14 161.34,-59.61 157.72,-56.39"/>
<polygon fill="none" stroke="#63b8ff" points="157.65,-56.34 150.45,-55.84 148.14,-49.01 155.34,-49.51 157.65,-56.34"/>
</a>
</g>
<text text-anchor="middle" x="231.5" y="-147" font-family="Helvetica,sans-Serif" font-size="10.00" fill="grey"> +asset</text>
<text text-anchor="middle" x="231.5" y="-136" font-family="Helvetica,sans-Serif" font-size="10.00" fill="grey">+asset_id</text>
<text text-anchor="middle" x="231.5" y="-125" font-family="Helvetica,sans-Serif" font-size="10.00" fill="grey">+date</text>
<text text-anchor="middle" x="231.5" y="-114" font-family="Helvetica,sans-Serif" font-size="10.00" fill="grey">+description</text>
<text text-anchor="middle" x="231.5" y="-103" font-family="Helvetica,sans-Serif" font-size="10.00" fill="grey">+event_type</text>
<text text-anchor="middle" x="231.5" y="-92" font-family="Helvetica,sans-Serif" font-size="10.00" fill="grey">+id</text>
<text text-anchor="middle" x="231.5" y="-81" font-family="Helvetica,sans-Serif" font-size="10.00" fill="grey">+impact_score</text>
<text text-anchor="middle" x="231.5" y="-70" font-family="Helvetica,sans-Serif" font-size="10.00" fill="grey">+related_assets</text>
</g>
</g>
</svg>
</svg>

<style type='text/css'>
<![CDATA[
[data-mouse-over-selected='false'] { opacity: 0.7; }
[data-mouse-over-selected='true']  { opacity: 1.0; }
]]>
</style>
<script type="application/ecmascript"><![CDATA[
document.addEventListener('DOMContentLoaded', (event) => {
  highlightEdges();
  highlightAdjacentNodes();
});
]]></script>
</svg>
