<?xml version="1.0" encoding="UTF-8" standalone="no"?>
<!DOCTYPE svg PUBLIC "-//W3C//DTD SVG 1.1//EN"
 "http://www.w3.org/Graphics/SVG/1.1/DTD/svg11.dtd">
<!-- Generated by graphviz version 2.43.0 (0)
 -->
<!-- Title: BaseModel Pages: 1 -->
<svg width="957pt" height="172pt"
 viewBox="0.00 0.00 957.00 172.00" xmlns="http://www.w3.org/2000/svg" xmlns:xlink="http://www.w3.org/1999/xlink">
<g id="graph0" class="graph" transform="scale(1 1) rotate(0) translate(4 168)">
<title>BaseModel</title>
<!-- Node1 -->
<g id="Node000001" class="node">
<title>Node1</title>
<g id="a_Node000001"><a xlink:title=" ">
<polygon fill="#999999" stroke="transparent" points="414,-164 349,-164 349,-115 414,-115 414,-164"/>
<text text-anchor="start" x="354.5" y="-151.5" font-family="Helvetica,sans-Serif" font-size="10.00">BaseModel</text>
<text text-anchor="start" x="380" y="-136.5" font-family="Helvetica,sans-Serif" font-size="10.00"> </text>
<text text-anchor="start" x="380" y="-121.5" font-family="Helvetica,sans-Serif" font-size="10.00"> </text>
<polygon fill="#666666" stroke="#666666" points="349.5,-146.5 349.5,-146.5 414.5,-146.5 414.5,-146.5 349.5,-146.5"/>
<polygon fill="#666666" stroke="#666666" points="349.5,-131.5 349.5,-131.5 414.5,-131.5 414.5,-131.5 349.5,-131.5"/>
<polygon fill="none" stroke="#666666" points="349,-115 349,-164 414,-164 414,-115 349,-115"/>
</a>
</g>
</g>
<!-- Node2 -->
<g id="Node000002" class="node">
<title>Node2</title>
<g id="a_Node000002"><a xlink:href="classapi_1_1auth_1_1Token.html" target="_top" xlink:title=" ">
<polygon fill="white" stroke="transparent" points="81,-64 0,-64 0,-15 81,-15 81,-64"/>
<text text-anchor="start" x="5.5" y="-51.5" font-family="Helvetica,sans-Serif" font-size="10.00">api.auth.Token</text>
<text text-anchor="start" x="39" y="-36.5" font-family="Helvetica,sans-Serif" font-size="10.00"> </text>
<text text-anchor="start" x="39" y="-21.5" font-family="Helvetica,sans-Serif" font-size="10.00"> </text>
<polygon fill="#666666" stroke="#666666" points="0.5,-46.5 0.5,-46.5 81.5,-46.5 81.5,-46.5 0.5,-46.5"/>
<polygon fill="#666666" stroke="#666666" points="0.5,-31.5 0.5,-31.5 81.5,-31.5 81.5,-31.5 0.5,-31.5"/>
<polygon fill="none" stroke="#666666" points="0,-15 0,-64 81,-64 81,-15 0,-15"/>
</a>
</g>
</g>
<!-- Node1&#45;&gt;Node2 -->
<g id="edge1_Node000001_Node000002" class="edge">
<title>Node1&#45;&gt;Node2</title>
<g id="a_edge1_Node000001_Node000002"><a xlink:title=" ">
<path fill="none" stroke="#63b8ff" d="M338.59,-135.79C280.12,-130.78 173.23,-116.83 90.5,-79 82.13,-75.17 73.87,-69.71 66.55,-64.1"/>
<polygon fill="none" stroke="#63b8ff" points="338.34,-139.28 348.59,-136.6 338.9,-132.31 338.34,-139.28"/>
</a>
</g>
</g>
<!-- Node3 -->
<g id="Node000003" class="node">
<title>Node3</title>
<g id="a_Node000003"><a xlink:href="classapi_1_1auth_1_1TokenData.html" target="_top" xlink:title=" ">
<polygon fill="white" stroke="transparent" points="203.5,-64 99.5,-64 99.5,-15 203.5,-15 203.5,-64"/>
<text text-anchor="start" x="104.5" y="-51.5" font-family="Helvetica,sans-Serif" font-size="10.00">api.auth.TokenData</text>
<text text-anchor="start" x="112" y="-36.5" font-family="Helvetica,sans-Serif" font-size="10.00">+</text>
<text text-anchor="start" x="133.5" y="-36.5" font-family="Helvetica,sans-Serif" font-size="10.00">username</text>
<text text-anchor="start" x="149.5" y="-21.5" font-family="Helvetica,sans-Serif" font-size="10.00"> </text>
<polygon fill="#666666" stroke="#666666" points="99.5,-46.5 99.5,-46.5 203.5,-46.5 203.5,-46.5 99.5,-46.5"/>
<polygon fill="#666666" stroke="#666666" points="99.5,-31.5 99.5,-31.5 131.5,-31.5 131.5,-31.5 99.5,-31.5"/>
<polygon fill="#666666" stroke="#666666" points="131.5,-31.5 131.5,-31.5 203.5,-31.5 203.5,-31.5 131.5,-31.5"/>
<polygon fill="none" stroke="#666666" points="99.5,-15 99.5,-64 203.5,-64 203.5,-15 99.5,-15"/>
</a>
</g>
</g>
<!-- Node1&#45;&gt;Node3 -->
<g id="edge2_Node000001_Node000003" class="edge">
<title>Node1&#45;&gt;Node3</title>
<g id="a_edge2_Node000001_Node000003"><a xlink:title=" ">
<path fill="none" stroke="#63b8ff" d="M339.02,-126.45C304.19,-115.89 254.04,-99.1 212.5,-79 203.59,-74.69 194.38,-69.37 185.89,-64.08"/>
<polygon fill="none" stroke="#63b8ff" points="338.28,-129.88 348.86,-129.39 340.28,-123.18 338.28,-129.88"/>
</a>
</g>
</g>
<!-- Node4 -->
<g id="Node000004" class="node">
<title>Node4</title>
<g id="a_Node000004"><a xlink:href="classapi_1_1auth_1_1User.html" target="_top" xlink:title=" ">
<polygon fill="white" stroke="transparent" points="297.5,-79 221.5,-79 221.5,0 297.5,0 297.5,-79"/>
<text text-anchor="start" x="226.5" y="-66.5" font-family="Helvetica,sans-Serif" font-size="10.00">api.auth.User</text>
<text text-anchor="start" x="227" y="-51.5" font-family="Helvetica,sans-Serif" font-size="10.00">+</text>
<text text-anchor="start" x="241.5" y="-51.5" font-family="Helvetica,sans-Serif" font-size="10.00">email</text>
<text text-anchor="start" x="227" y="-36.5" font-family="Helvetica,sans-Serif" font-size="10.00">+</text>
<text text-anchor="start" x="241.5" y="-36.5" font-family="Helvetica,sans-Serif" font-size="10.00">full_name</text>
<text text-anchor="start" x="227" y="-21.5" font-family="Helvetica,sans-Serif" font-size="10.00">+</text>
<text text-anchor="start" x="241.5" y="-21.5" font-family="Helvetica,sans-Serif" font-size="10.00">disabled</text>
<text text-anchor="start" x="257.5" y="-6.5" font-family="Helvetica,sans-Serif" font-size="10.00"> </text>
<polygon fill="#666666" stroke="#666666" points="221.5,-61.5 221.5,-61.5 297.5,-61.5 297.5,-61.5 221.5,-61.5"/>
<polygon fill="#666666" stroke="#666666" points="221.5,-16.5 221.5,-16.5 239.5,-16.5 239.5,-16.5 221.5,-16.5"/>
<polygon fill="#666666" stroke="#666666" points="239.5,-16.5 239.5,-16.5 297.5,-16.5 297.5,-16.5 239.5,-16.5"/>
<polygon fill="none" stroke="#666666" points="221.5,0 221.5,-79 297.5,-79 297.5,0 221.5,0"/>
</a>
</g>
</g>
<!-- Node1&#45;&gt;Node4 -->
<g id="edge3_Node000001_Node000004" class="edge">
<title>Node1&#45;&gt;Node4</title>
<g id="a_edge3_Node000001_Node000004"><a xlink:title=" ">
<path fill="none" stroke="#63b8ff" d="M343.49,-108.54C331.62,-99.12 318.49,-88.66 306.5,-79 303.63,-76.68 300.66,-74.28 297.68,-71.86"/>
<polygon fill="none" stroke="#63b8ff" points="341.48,-111.4 351.49,-114.87 345.82,-105.91 341.48,-111.4"/>
</a>
</g>
</g>
<!-- Node5 -->
<g id="Node000005" class="node">
<title>Node5</title>
<g id="a_Node000005"><a xlink:href="classapi_1_1main_1_1AssetResponse.html" target="_top" xlink:title=" ">
<polygon fill="white" stroke="transparent" points="447,-79 316,-79 316,0 447,0 447,-79"/>
<text text-anchor="start" x="321.5" y="-66.5" font-family="Helvetica,sans-Serif" font-size="10.00">api.main.AssetResponse</text>
<text text-anchor="start" x="327.5" y="-51.5" font-family="Helvetica,sans-Serif" font-size="10.00">+</text>
<text text-anchor="start" x="347.5" y="-51.5" font-family="Helvetica,sans-Serif" font-size="10.00">market_cap</text>
<text text-anchor="start" x="327.5" y="-36.5" font-family="Helvetica,sans-Serif" font-size="10.00">+</text>
<text text-anchor="start" x="347.5" y="-36.5" font-family="Helvetica,sans-Serif" font-size="10.00">currency</text>
<text text-anchor="start" x="327.5" y="-21.5" font-family="Helvetica,sans-Serif" font-size="10.00">+</text>
<text text-anchor="start" x="347.5" y="-21.5" font-family="Helvetica,sans-Serif" font-size="10.00">additional_fields</text>
<text text-anchor="start" x="380" y="-6.5" font-family="Helvetica,sans-Serif" font-size="10.00"> </text>
<polygon fill="#666666" stroke="#666666" points="316.5,-61.5 316.5,-61.5 447.5,-61.5 447.5,-61.5 316.5,-61.5"/>
<polygon fill="#666666" stroke="#666666" points="316.5,-16.5 316.5,-16.5 345.5,-16.5 345.5,-16.5 316.5,-16.5"/>
<polygon fill="#666666" stroke="#666666" points="345.5,-16.5 345.5,-16.5 447.5,-16.5 447.5,-16.5 345.5,-16.5"/>
<polygon fill="none" stroke="#666666" points="316,0 316,-79 447,-79 447,0 316,0"/>
</a>
</g>
</g>
<!-- Node1&#45;&gt;Node5 -->
<g id="edge4_Node000001_Node000005" class="edge">
<title>Node1&#45;&gt;Node5</title>
<g id="a_edge4_Node000001_Node000005"><a xlink:title=" ">
<path fill="none" stroke="#63b8ff" d="M381.5,-104.52C381.5,-96.38 381.5,-87.63 381.5,-79.29"/>
<polygon fill="none" stroke="#63b8ff" points="378,-104.78 381.5,-114.78 385,-104.78 378,-104.78"/>
</a>
</g>
</g>
<!-- Node6 -->
<g id="Node000006" class="node">
<title>Node6</title>
<g id="a_Node000006"><a xlink:href="classapi_1_1main_1_1MetricsResponse.html" target="_top" xlink:title=" ">
<polygon fill="white" stroke="transparent" points="605.5,-71.5 465.5,-71.5 465.5,-7.5 605.5,-7.5 605.5,-71.5"/>
<text text-anchor="start" x="470.5" y="-59.5" font-family="Helvetica,sans-Serif" font-size="10.00">api.main.MetricsResponse</text>
<text text-anchor="start" x="474" y="-44.5" font-family="Helvetica,sans-Serif" font-size="10.00">+</text>
<text text-anchor="start" x="491.5" y="-44.5" font-family="Helvetica,sans-Serif" font-size="10.00">asset_classes</text>
<text text-anchor="start" x="474" y="-29.5" font-family="Helvetica,sans-Serif" font-size="10.00">+</text>
<text text-anchor="start" x="491.5" y="-29.5" font-family="Helvetica,sans-Serif" font-size="10.00">relationship_density</text>
<text text-anchor="start" x="533.5" y="-14.5" font-family="Helvetica,sans-Serif" font-size="10.00"> </text>
<polygon fill="#666666" stroke="#666666" points="465.5,-54.5 465.5,-54.5 605.5,-54.5 605.5,-54.5 465.5,-54.5"/>
<polygon fill="#666666" stroke="#666666" points="465.5,-24.5 465.5,-24.5 489.5,-24.5 489.5,-24.5 465.5,-24.5"/>
<polygon fill="#666666" stroke="#666666" points="489.5,-24.5 489.5,-24.5 605.5,-24.5 605.5,-24.5 489.5,-24.5"/>
<polygon fill="none" stroke="#666666" points="465.5,-7.5 465.5,-71.5 605.5,-71.5 605.5,-7.5 465.5,-7.5"/>
</a>
</g>
</g>
<!-- Node1&#45;&gt;Node6 -->
<g id="edge5_Node000001_Node000006" class="edge">
<title>Node1&#45;&gt;Node6</title>
<g id="a_edge5_Node000001_Node000006"><a xlink:title=" ">
<path fill="none" stroke="#63b8ff" d="M422.86,-112.18C442.46,-99.71 466.01,-84.72 486.5,-71.68"/>
<polygon fill="none" stroke="#63b8ff" points="420.72,-109.4 414.16,-117.72 424.48,-115.3 420.72,-109.4"/>
</a>
</g>
</g>
<!-- Node7 -->
<g id="Node000007" class="node">
<title>Node7</title>
<g id="a_Node000007"><a xlink:href="classapi_1_1main_1_1RelationshipResponse.html" target="_top" xlink:title=" ">
<polygon fill="white" stroke="transparent" points="787.5,-64 623.5,-64 623.5,-15 787.5,-15 787.5,-64"/>
<text text-anchor="start" x="628.5" y="-51.5" font-family="Helvetica,sans-Serif" font-size="10.00">api.main.RelationshipResponse</text>
<text text-anchor="start" x="703.5" y="-36.5" font-family="Helvetica,sans-Serif" font-size="10.00"> </text>
<text text-anchor="start" x="703.5" y="-21.5" font-family="Helvetica,sans-Serif" font-size="10.00"> </text>
<polygon fill="#666666" stroke="#666666" points="623.5,-46.5 623.5,-46.5 787.5,-46.5 787.5,-46.5 623.5,-46.5"/>
<polygon fill="#666666" stroke="#666666" points="623.5,-31.5 623.5,-31.5 787.5,-31.5 787.5,-31.5 623.5,-31.5"/>
<polygon fill="none" stroke="#666666" points="623.5,-15 623.5,-64 787.5,-64 787.5,-15 623.5,-15"/>
</a>
</g>
</g>
<!-- Node1&#45;&gt;Node7 -->
<g id="edge6_Node000001_Node000007" class="edge">
<title>Node1&#45;&gt;Node7</title>
<g id="a_edge6_Node000001_Node000007"><a xlink:title=" ">
<path fill="none" stroke="#63b8ff" d="M424.23,-129.61C471.39,-119.34 549.26,-100.99 614.5,-79 627.34,-74.67 640.92,-69.35 653.57,-64.06"/>
<polygon fill="none" stroke="#63b8ff" points="423.4,-126.21 414.37,-131.74 424.88,-133.05 423.4,-126.21"/>
</a>
</g>
</g>
<!-- Node8 -->
<g id="Node000008" class="node">
<title>Node8</title>
<g id="a_Node000008"><a xlink:href="classapi_1_1main_1_1VisualizationDataResponse.html" target="_top" xlink:title=" ">
<polygon fill="white" stroke="transparent" points="949,-77 806,-77 806,-2 949,-2 949,-77"/>
<text text-anchor="start" x="811.5" y="-64.5" font-family="Helvetica,sans-Serif" font-size="10.00">api.main.VisualizationData</text>
<text text-anchor="start" x="854" y="-53.5" font-family="Helvetica,sans-Serif" font-size="10.00">Response</text>
<text text-anchor="start" x="833.5" y="-38.5" font-family="Helvetica,sans-Serif" font-size="10.00">+</text>
<text text-anchor="start" x="869.5" y="-38.5" font-family="Helvetica,sans-Serif" font-size="10.00">nodes</text>
<text text-anchor="start" x="833.5" y="-23.5" font-family="Helvetica,sans-Serif" font-size="10.00">+</text>
<text text-anchor="start" x="869.5" y="-23.5" font-family="Helvetica,sans-Serif" font-size="10.00">edges</text>
<text text-anchor="start" x="876" y="-8.5" font-family="Helvetica,sans-Serif" font-size="10.00"> </text>
<polygon fill="#666666" stroke="#666666" points="806.5,-48.5 806.5,-48.5 949.5,-48.5 949.5,-48.5 806.5,-48.5"/>
<polygon fill="#666666" stroke="#666666" points="806.5,-18.5 806.5,-18.5 867.5,-18.5 867.5,-18.5 806.5,-18.5"/>
<polygon fill="#666666" stroke="#666666" points="867.5,-18.5 867.5,-18.5 949.5,-18.5 949.5,-18.5 867.5,-18.5"/>
<polygon fill="none" stroke="#666666" points="806,-2 806,-77 949,-77 949,-2 806,-2"/>
</a>
</g>
</g>
<!-- Node1&#45;&gt;Node8 -->
<g id="edge7_Node000001_Node000008" class="edge">
<title>Node1&#45;&gt;Node8</title>
<g id="a_edge7_Node000001_Node000008"><a xlink:title=" ">
<path fill="none" stroke="#63b8ff" d="M424.42,-136.6C500.77,-132.28 664.56,-118.81 796.5,-79 799.63,-78.06 802.79,-77.01 805.96,-75.88"/>
<polygon fill="none" stroke="#63b8ff" points="424.03,-133.11 414.24,-137.15 424.41,-140.1 424.03,-133.11"/>
</a>
</g>
</g>
</g>
</svg>
