<?xml version="1.0" encoding="UTF-8" standalone="no"?>
<!DOCTYPE svg PUBLIC "-//W3C//DTD SVG 1.1//EN"
 "http://www.w3.org/Graphics/SVG/1.1/DTD/svg11.dtd">
<!-- Generated by graphviz version 2.43.0 (0)
 -->
<!-- Title: db_models.AssetRelationshipORM Pages: 1 -->
<svg width="368pt" height="252pt"
 viewBox="0.00 0.00 367.50 252.00" xmlns="http://www.w3.org/2000/svg" xmlns:xlink="http://www.w3.org/1999/xlink">
<g id="graph0" class="graph" transform="scale(1 1) rotate(0) translate(4 248)">
<title>db_models.AssetRelationshipORM</title>
<!-- Node1 -->
<g id="Node000001" class="node">
<title>Node1</title>
<g id="a_Node000001"><a xlink:title=" ">
<polygon fill="#999999" stroke="transparent" points="205.5,-49 27.5,-49 27.5,0 205.5,0 205.5,-49"/>
<text text-anchor="start" x="32.5" y="-36.5" font-family="Helvetica,sans-Serif" font-size="10.00">db_models.AssetRelationshipORM</text>
<text text-anchor="start" x="114.5" y="-21.5" font-family="Helvetica,sans-Serif" font-size="10.00"> </text>
<text text-anchor="start" x="114.5" y="-6.5" font-family="Helvetica,sans-Serif" font-size="10.00"> </text>
<polygon fill="#666666" stroke="#666666" points="27.5,-31.5 27.5,-31.5 205.5,-31.5 205.5,-31.5 27.5,-31.5"/>
<polygon fill="#666666" stroke="#666666" points="27.5,-16.5 27.5,-16.5 205.5,-16.5 205.5,-16.5 27.5,-16.5"/>
<polygon fill="none" stroke="#666666" points="27.5,0 27.5,-49 205.5,-49 205.5,0 27.5,0"/>
</a>
</g>
</g>
<!-- Node2 -->
<g id="Node000002" class="node">
<title>Node2</title>
<g id="a_Node000002"><a xlink:href="classBase.html" target="_top" xlink:title=" ">
<polygon fill="white" stroke="transparent" points="35,-244 0,-244 0,-195 35,-195 35,-244"/>
<text text-anchor="start" x="5.5" y="-231.5" font-family="Helvetica,sans-Serif" font-size="10.00">Base</text>
<text text-anchor="start" x="16" y="-216.5" font-family="Helvetica,sans-Serif" font-size="10.00"> </text>
<text text-anchor="start" x="16" y="-201.5" font-family="Helvetica,sans-Serif" font-size="10.00"> </text>
<polygon fill="#666666" stroke="#666666" points="0.5,-226.5 0.5,-226.5 35.5,-226.5 35.5,-226.5 0.5,-226.5"/>
<polygon fill="#666666" stroke="#666666" points="0.5,-211.5 0.5,-211.5 35.5,-211.5 35.5,-211.5 0.5,-211.5"/>
<polygon fill="none" stroke="#666666" points="0,-195 0,-244 35,-244 35,-195 0,-195"/>
</a>
</g>
</g>
<!-- Node2&#45;&gt;Node1 -->
<g id="edge1_Node000001_Node000002" class="edge">
<title>Node2&#45;&gt;Node1</title>
<g id="a_edge1_Node000001_Node000002"><a xlink:title=" ">
<path fill="none" stroke="#63b8ff" d="M16.91,-184.94C17.93,-152.08 23.92,-101.99 48.5,-67 53.35,-60.1 59.75,-54.13 66.68,-49.04"/>
<polygon fill="none" stroke="#63b8ff" points="13.41,-184.9 16.73,-194.96 20.41,-185.02 13.41,-184.9"/>
</a>
</g>
</g>
<!-- Node3 -->
<g id="Node000003" class="node">
<title>Node3</title>
<g id="a_Node000003"><a xlink:title=" ">
<polygon fill="white" stroke="transparent" points="76,-244 53,-244 53,-195 76,-195 76,-244"/>
<text text-anchor="start" x="58.5" y="-231.5" font-family="Helvetica,sans-Serif" font-size="10.00">str</text>
<text text-anchor="start" x="63" y="-216.5" font-family="Helvetica,sans-Serif" font-size="10.00"> </text>
<text text-anchor="start" x="63" y="-201.5" font-family="Helvetica,sans-Serif" font-size="10.00"> </text>
<polygon fill="#666666" stroke="#666666" points="53.5,-226.5 53.5,-226.5 76.5,-226.5 76.5,-226.5 53.5,-226.5"/>
<polygon fill="#666666" stroke="#666666" points="53.5,-211.5 53.5,-211.5 76.5,-211.5 76.5,-211.5 53.5,-211.5"/>
<polygon fill="none" stroke="#666666" points="53,-195 53,-244 76,-244 76,-195 53,-195"/>
</a>
</g>
</g>
<!-- Node3&#45;&gt;Node1 -->
<g id="edge2_Node000001_Node000003" class="edge">
<title>Node3&#45;&gt;Node1</title>
<g id="a_edge2_Node000001_Node000003"><a xlink:title=" ">
<path fill="none" stroke="#63b8ff" d="M58.7,-194.8C52.4,-163.74 45.65,-108.39 65.5,-67 67,-63.86 68.87,-60.89 71,-58.07"/>
<polygon fill="none" stroke="#63b8ff" points="71.01,-58.06 72.06,-50.93 79.05,-49.16 78,-56.29 71.01,-58.06"/>
</a>
</g>
<text text-anchor="middle" x="106" y="-119.5" font-family="Helvetica,sans-Serif" font-size="10.00" fill="grey"> &#45;__tablename__</text>
</g>
<!-- Node4 -->
<g id="Node000004" class="node">
<title>Node4</title>
<g id="a_Node000004"><a xlink:title=" ">
<polygon fill="white" stroke="transparent" points="186,-244 151,-244 151,-195 186,-195 186,-244"/>
<text text-anchor="start" x="156.5" y="-231.5" font-family="Helvetica,sans-Serif" font-size="10.00">tuple</text>
<text text-anchor="start" x="167" y="-216.5" font-family="Helvetica,sans-Serif" font-size="10.00"> </text>
<text text-anchor="start" x="167" y="-201.5" font-family="Helvetica,sans-Serif" font-size="10.00"> </text>
<polygon fill="#666666" stroke="#666666" points="151.5,-226.5 151.5,-226.5 186.5,-226.5 186.5,-226.5 151.5,-226.5"/>
<polygon fill="#666666" stroke="#666666" points="151.5,-211.5 151.5,-211.5 186.5,-211.5 186.5,-211.5 151.5,-211.5"/>
<polygon fill="none" stroke="#666666" points="151,-195 151,-244 186,-244 186,-195 151,-195"/>
</a>
</g>
</g>
<!-- Node4&#45;&gt;Node1 -->
<g id="edge3_Node000001_Node000004" class="edge">
<title>Node4&#45;&gt;Node1</title>
<g id="a_edge3_Node000001_Node000004"><a xlink:title=" ">
<path fill="none" stroke="#63b8ff" d="M168.51,-194.75C167.77,-164.13 163.82,-109.74 146.5,-67 145.5,-64.52 144.31,-62.06 143.01,-59.63"/>
<polygon fill="none" stroke="#63b8ff" points="142.98,-59.57 136.42,-56.56 136.68,-49.36 143.23,-52.37 142.98,-59.57"/>
</a>
</g>
<text text-anchor="middle" x="207" y="-119.5" font-family="Helvetica,sans-Serif" font-size="10.00" fill="grey"> &#45;__table_args__</text>
</g>
<!-- Node5 -->
<g id="Node000005" class="node">
<title>Node5</title>
<g id="a_Node000005"><a xlink:title=" ">
<polygon fill="white" stroke="transparent" points="295.5,-244 245.5,-244 245.5,-195 295.5,-195 295.5,-244"/>
<text text-anchor="start" x="250.5" y="-231.5" font-family="Helvetica,sans-Serif" font-size="10.00">Mapped</text>
<text text-anchor="start" x="268.5" y="-216.5" font-family="Helvetica,sans-Serif" font-size="10.00"> </text>
<text text-anchor="start" x="268.5" y="-201.5" font-family="Helvetica,sans-Serif" font-size="10.00"> </text>
<polygon fill="#666666" stroke="#666666" points="245.5,-226.5 245.5,-226.5 295.5,-226.5 295.5,-226.5 245.5,-226.5"/>
<polygon fill="#666666" stroke="#666666" points="245.5,-211.5 245.5,-211.5 295.5,-211.5 295.5,-211.5 245.5,-211.5"/>
<polygon fill="none" stroke="#666666" points="245.5,-195 245.5,-244 295.5,-244 295.5,-195 245.5,-195"/>
</a>
</g>
</g>
<!-- Node5&#45;&gt;Node1 -->
<g id="edge4_Node000001_Node000005" class="edge">
<title>Node5&#45;&gt;Node1</title>
<g id="a_edge4_Node000001_Node000005"><a xlink:title=" ">
<path fill="none" stroke="#63b8ff" d="M274.16,-194.91C277.82,-162.2 279.16,-103.02 248.5,-67 239.92,-56.92 228.91,-49.25 216.92,-43.43"/>
<polygon fill="none" stroke="#63b8ff" points="216.7,-43.33 209.6,-44.63 205.67,-38.59 212.77,-37.29 216.7,-43.33"/>
</a>
</g>
<text text-anchor="middle" x="317.5" y="-169" font-family="Helvetica,sans-Serif" font-size="10.00" fill="grey"> +bidirectional</text>
<text text-anchor="middle" x="317.5" y="-158" font-family="Helvetica,sans-Serif" font-size="10.00" fill="grey">+id</text>
<text text-anchor="start" x="275.5" y="-147" font-family="Helvetica,sans-Serif" font-size="10.00" fill="grey">+relationship</text>
<text text-anchor="middle" x="317.5" y="-136" font-family="Helvetica,sans-Serif" font-size="10.00" fill="grey">_type</text>
<text text-anchor="middle" x="317.5" y="-125" font-family="Helvetica,sans-Serif" font-size="10.00" fill="grey">+source</text>
<text text-anchor="start" x="275.5" y="-114" font-family="Helvetica,sans-Serif" font-size="10.00" fill="grey">+source_asset</text>
<text text-anchor="middle" x="317.5" y="-103" font-family="Helvetica,sans-Serif" font-size="10.00" fill="grey">_id</text>
<text text-anchor="middle" x="317.5" y="-92" font-family="Helvetica,sans-Serif" font-size="10.00" fill="grey">+strength</text>
<text text-anchor="middle" x="317.5" y="-81" font-family="Helvetica,sans-Serif" font-size="10.00" fill="grey">+target</text>
<text text-anchor="middle" x="317.5" y="-70" font-family="Helvetica,sans-Serif" font-size="10.00" fill="grey">+target_asset_id</text>
</g>
</g>
</svg>
