<?xml version="1.0" encoding="UTF-8" standalone="no"?>
<!DOCTYPE svg PUBLIC "-//W3C//DTD SVG 1.1//EN"
 "http://www.w3.org/Graphics/SVG/1.1/DTD/svg11.dtd">
<!-- Generated by graphviz version 2.43.0 (0)
 -->
<!-- Title: financial_models.Commodity Pages: 1 -->
<svg width="161pt" height="247pt"
 viewBox="0.00 0.00 161.00 247.00" xmlns="http://www.w3.org/2000/svg" xmlns:xlink="http://www.w3.org/1999/xlink">
<g id="graph0" class="graph" transform="scale(1 1) rotate(0) translate(4 243)">
<title>financial_models.Commodity</title>
<!-- Node1 -->
<g id="Node000001" class="node">
<title>Node1</title>
<g id="a_Node000001"><a xlink:title=" ">
<polygon fill="#999999" stroke="transparent" points="153,-79 0,-79 0,0 153,0 153,-79"/>
<text text-anchor="start" x="5.5" y="-66.5" font-family="Helvetica,sans-Serif" font-size="10.00">financial_models.Commodity</text>
<text text-anchor="start" x="20.5" y="-51.5" font-family="Helvetica,sans-Serif" font-size="10.00">+</text>
<text text-anchor="start" x="49.5" y="-51.5" font-family="Helvetica,sans-Serif" font-size="10.00">contract_size</text>
<text text-anchor="start" x="20.5" y="-36.5" font-family="Helvetica,sans-Serif" font-size="10.00">+</text>
<text text-anchor="start" x="49.5" y="-36.5" font-family="Helvetica,sans-Serif" font-size="10.00">delivery_date</text>
<text text-anchor="start" x="20.5" y="-21.5" font-family="Helvetica,sans-Serif" font-size="10.00">+</text>
<text text-anchor="start" x="49.5" y="-21.5" font-family="Helvetica,sans-Serif" font-size="10.00">volatility</text>
<text text-anchor="start" x="75" y="-6.5" font-family="Helvetica,sans-Serif" font-size="10.00"> </text>
<polygon fill="#666666" stroke="#666666" points="0.5,-61.5 0.5,-61.5 153.5,-61.5 153.5,-61.5 0.5,-61.5"/>
<polygon fill="#666666" stroke="#666666" points="0.5,-16.5 0.5,-16.5 47.5,-16.5 47.5,-16.5 0.5,-16.5"/>
<polygon fill="#666666" stroke="#666666" points="47.5,-16.5 47.5,-16.5 153.5,-16.5 153.5,-16.5 47.5,-16.5"/>
<polygon fill="none" stroke="#666666" points="0,0 0,-79 153,-79 153,0 0,0"/>
</a>
</g>
</g>
<!-- Node2 -->
<g id="Node000002" class="node">
<title>Node2</title>
<g id="a_Node000002"><a xlink:href="classfinancial__models_1_1Asset.html" target="_top" xlink:title=" ">
<polygon fill="white" stroke="transparent" points="138,-239 15,-239 15,-115 138,-115 138,-239"/>
<text text-anchor="start" x="20.5" y="-227" font-family="Helvetica,sans-Serif" font-size="10.00">financial_models.Asset</text>
<text text-anchor="start" x="27" y="-212" font-family="Helvetica,sans-Serif" font-size="10.00">+</text>
<text text-anchor="start" x="47.5" y="-212" font-family="Helvetica,sans-Serif" font-size="10.00">id</text>
<text text-anchor="start" x="27" y="-197" font-family="Helvetica,sans-Serif" font-size="10.00">+</text>
<text text-anchor="start" x="47.5" y="-197" font-family="Helvetica,sans-Serif" font-size="10.00">symbol</text>
<text text-anchor="start" x="27" y="-182" font-family="Helvetica,sans-Serif" font-size="10.00">+</text>
<text text-anchor="start" x="47.5" y="-182" font-family="Helvetica,sans-Serif" font-size="10.00">name</text>
<text text-anchor="start" x="27" y="-167" font-family="Helvetica,sans-Serif" font-size="10.00">+</text>
<text text-anchor="start" x="47.5" y="-167" font-family="Helvetica,sans-Serif" font-size="10.00">price</text>
<text text-anchor="start" x="27" y="-152" font-family="Helvetica,sans-Serif" font-size="10.00">+</text>
<text text-anchor="start" x="47.5" y="-152" font-family="Helvetica,sans-Serif" font-size="10.00">market_cap</text>
<text text-anchor="start" x="27" y="-137" font-family="Helvetica,sans-Serif" font-size="10.00">+</text>
<text text-anchor="start" x="47.5" y="-137" font-family="Helvetica,sans-Serif" font-size="10.00">currency</text>
<text text-anchor="start" x="27" y="-122" font-family="Helvetica,sans-Serif" font-size="10.00">+</text>
<text text-anchor="start" x="47.5" y="-122" font-family="Helvetica,sans-Serif" font-size="10.00">__post_init__()</text>
<polygon fill="#666666" stroke="#666666" points="15.5,-222 15.5,-222 138.5,-222 138.5,-222 15.5,-222"/>
<polygon fill="#666666" stroke="#666666" points="15.5,-132 15.5,-132 45.5,-132 45.5,-132 15.5,-132"/>
<polygon fill="#666666" stroke="#666666" points="45.5,-132 45.5,-132 138.5,-132 138.5,-132 45.5,-132"/>
<polygon fill="none" stroke="#666666" points="15,-115 15,-239 138,-239 138,-115 15,-115"/>
</a>
</g>
</g>
<!-- Node2&#45;&gt;Node1 -->
<g id="edge1_Node000001_Node000002" class="edge">
<title>Node2&#45;&gt;Node1</title>
<g id="a_edge1_Node000001_Node000002"><a xlink:title=" ">
<path fill="none" stroke="#63b8ff" d="M76.5,-104.93C76.5,-96.02 76.5,-87.19 76.5,-79.05"/>
<polygon fill="none" stroke="#63b8ff" points="73,-104.99 76.5,-114.99 80,-104.99 73,-104.99"/>
</a>
</g>
</g>
</g>
</svg>
