<?xml version="1.0" encoding="UTF-8" standalone="no"?>
<!DOCTYPE svg PUBLIC "-//W3C//DTD SVG 1.1//EN"
 "http://www.w3.org/Graphics/SVG/1.1/DTD/svg11.dtd">
<!-- Generated by graphviz version 2.43.0 (0)
 -->
<!-- Title: app.FinancialAssetApp.refresh_all_outputs Pages: 1 -->
<svg width="538pt" height="86pt"
 viewBox="0.00 0.00 538.00 86.00" xmlns="http://www.w3.org/2000/svg" xmlns:xlink="http://www.w3.org/1999/xlink">
<g id="graph0" class="graph" transform="scale(1 1) rotate(0) translate(4 82)">
<title>app.FinancialAssetApp.refresh_all_outputs</title>
<!-- Node1 -->
<g id="Node000001" class="node">
<title>Node1</title>
<g id="a_Node000001"><a xlink:title=" ">
<polygon fill="#999999" stroke="#666666" points="164,-54 0,-54 0,-24 164,-24 164,-54"/>
<text text-anchor="start" x="8" y="-42" font-family="Helvetica,sans-Serif" font-size="10.00">app.FinancialAssetApp.refresh</text>
<text text-anchor="middle" x="82" y="-31" font-family="Helvetica,sans-Serif" font-size="10.00">_all_outputs</text>
</a>
</g>
</g>
<!-- Node2 -->
<g id="Node000002" class="node">
<title>Node2</title>
<g id="a_Node000002"><a xlink:href="classapp_1_1FinancialAssetApp.html#a54667558411627b15aeb4951aff6b392" target="_top" xlink:title=" ">
<polygon fill="white" stroke="#666666" points="363.5,-78 200.5,-78 200.5,-48 363.5,-48 363.5,-78"/>
<text text-anchor="start" x="208.5" y="-66" font-family="Helvetica,sans-Serif" font-size="10.00">app.FinancialAssetApp.ensure</text>
<text text-anchor="middle" x="282" y="-55" font-family="Helvetica,sans-Serif" font-size="10.00">_graph</text>
</a>
</g>
</g>
<!-- Node1&#45;&gt;Node2 -->
<g id="edge1_Node000001_Node000002" class="edge">
<title>Node1&#45;&gt;Node2</title>
<g id="a_edge1_Node000001_Node000002"><a xlink:title=" ">
<path fill="none" stroke="#63b8ff" d="M164.11,-48.83C172.7,-49.87 181.49,-50.94 190.18,-51.99"/>
<polygon fill="#63b8ff" stroke="#63b8ff" points="189.99,-55.49 200.34,-53.22 190.83,-48.55 189.99,-55.49"/>
</a>
</g>
</g>
<!-- Node4 -->
<g id="Node000004" class="node">
<title>Node4</title>
<g id="a_Node000004"><a xlink:href="classapp_1_1FinancialAssetApp.html#ae0e06267c27a0577165ffdf62d64a657" target="_top" xlink:title=" ">
<polygon fill="white" stroke="#666666" points="364,-30 200,-30 200,0 364,0 364,-30"/>
<text text-anchor="start" x="208" y="-18" font-family="Helvetica,sans-Serif" font-size="10.00">app.FinancialAssetApp.update</text>
<text text-anchor="middle" x="282" y="-7" font-family="Helvetica,sans-Serif" font-size="10.00">_all_metrics_outputs</text>
</a>
</g>
</g>
<!-- Node1&#45;&gt;Node4 -->
<g id="edge3_Node000001_Node000004" class="edge">
<title>Node1&#45;&gt;Node4</title>
<g id="a_edge3_Node000001_Node000004"><a xlink:title=" ">
<path fill="none" stroke="#63b8ff" d="M164.11,-29.17C172.55,-28.15 181.17,-27.1 189.72,-26.06"/>
<polygon fill="#63b8ff" stroke="#63b8ff" points="190.19,-29.53 199.7,-24.85 189.35,-22.58 190.19,-29.53"/>
</a>
</g>
</g>
<!-- Node3 -->
<g id="Node000003" class="node">
<title>Node3</title>
<g id="a_Node000003"><a xlink:href="classapp_1_1FinancialAssetApp.html#ac33bbb920250622229430b5da9211366" target="_top" xlink:title=" ">
<polygon fill="white" stroke="#666666" points="530,-78 400,-78 400,-48 530,-48 530,-78"/>
<text text-anchor="start" x="408" y="-66" font-family="Helvetica,sans-Serif" font-size="10.00">app.FinancialAssetApp.</text>
<text text-anchor="middle" x="465" y="-55" font-family="Helvetica,sans-Serif" font-size="10.00">_initialize_graph</text>
</a>
</g>
</g>
<!-- Node2&#45;&gt;Node3 -->
<g id="edge2_Node000002_Node000003" class="edge">
<title>Node2&#45;&gt;Node3</title>
<g id="a_edge2_Node000002_Node000003"><a xlink:title=" ">
<path fill="none" stroke="#63b8ff" d="M363.71,-63C372.29,-63 380.98,-63 389.49,-63"/>
<polygon fill="#63b8ff" stroke="#63b8ff" points="389.74,-66.5 399.74,-63 389.74,-59.5 389.74,-66.5"/>
</a>
</g>
</g>
<!-- Node5 -->
<g id="Node000005" class="node">
<title>Node5</title>
<g id="a_Node000005"><a xlink:href="classapp_1_1FinancialAssetApp.html#a039f1574f4af1b89ac02965f8afb8caa" target="_top" xlink:title=" ">
<polygon fill="white" stroke="#666666" points="530,-30 400,-30 400,0 530,0 530,-30"/>
<text text-anchor="start" x="408" y="-18" font-family="Helvetica,sans-Serif" font-size="10.00">app.FinancialAssetApp.</text>
<text text-anchor="middle" x="465" y="-7" font-family="Helvetica,sans-Serif" font-size="10.00">_update_metrics_text</text>
</a>
</g>
</g>
<!-- Node4&#45;&gt;Node5 -->
<g id="edge4_Node000004_Node000005" class="edge">
<title>Node4&#45;&gt;Node5</title>
<g id="a_edge4_Node000004_Node000005"><a xlink:title=" ">
<path fill="none" stroke="#63b8ff" d="M364.23,-15C372.72,-15 381.32,-15 389.72,-15"/>
<polygon fill="#63b8ff" stroke="#63b8ff" points="389.85,-18.5 399.85,-15 389.85,-11.5 389.85,-18.5"/>
</a>
</g>
</g>
</g>
</svg>
