<?xml version="1.0" encoding="UTF-8" standalone="no"?>
<!DOCTYPE svg PUBLIC "-//W3C//DTD SVG 1.1//EN"
 "http://www.w3.org/Graphics/SVG/1.1/DTD/svg11.dtd">
<!-- Generated by graphviz version 2.43.0 (0)
 -->
<!-- Title: db_models.AssetORM Pages: 1 -->
<svg width="125pt" height="307pt"
 viewBox="0.00 0.00 125.00 307.00" xmlns="http://www.w3.org/2000/svg" xmlns:xlink="http://www.w3.org/1999/xlink">
<g id="graph0" class="graph" transform="scale(1 1) rotate(0) translate(4 303)">
<title>db_models.AssetORM</title>
<!-- Node1 -->
<g id="Node000001" class="node">
<title>Node1</title>
<g id="a_Node000001"><a xlink:title=" ">
<polygon fill="#999999" stroke="transparent" points="117,-214 0,-214 0,0 117,0 117,-214"/>
<text text-anchor="start" x="5.5" y="-202" font-family="Helvetica,sans-Serif" font-size="10.00">db_models.AssetORM</text>
<text text-anchor="start" x="10" y="-187" font-family="Helvetica,sans-Serif" font-size="10.00">+</text>
<text text-anchor="start" x="28.5" y="-187" font-family="Helvetica,sans-Serif" font-size="10.00">id</text>
<text text-anchor="start" x="10" y="-172" font-family="Helvetica,sans-Serif" font-size="10.00">+</text>
<text text-anchor="start" x="28.5" y="-172" font-family="Helvetica,sans-Serif" font-size="10.00">symbol</text>
<text text-anchor="start" x="10" y="-157" font-family="Helvetica,sans-Serif" font-size="10.00">+</text>
<text text-anchor="start" x="28.5" y="-157" font-family="Helvetica,sans-Serif" font-size="10.00">name</text>
<text text-anchor="start" x="10" y="-142" font-family="Helvetica,sans-Serif" font-size="10.00">+</text>
<text text-anchor="start" x="28.5" y="-142" font-family="Helvetica,sans-Serif" font-size="10.00">asset_class</text>
<text text-anchor="start" x="10" y="-127" font-family="Helvetica,sans-Serif" font-size="10.00">+</text>
<text text-anchor="start" x="28.5" y="-127" font-family="Helvetica,sans-Serif" font-size="10.00">sector</text>
<text text-anchor="start" x="10" y="-112" font-family="Helvetica,sans-Serif" font-size="10.00">+</text>
<text text-anchor="start" x="28.5" y="-112" font-family="Helvetica,sans-Serif" font-size="10.00">price</text>
<text text-anchor="start" x="10" y="-97" font-family="Helvetica,sans-Serif" font-size="10.00">+</text>
<text text-anchor="start" x="28.5" y="-97" font-family="Helvetica,sans-Serif" font-size="10.00">market_cap</text>
<text text-anchor="start" x="10" y="-82" font-family="Helvetica,sans-Serif" font-size="10.00">+</text>
<text text-anchor="start" x="28.5" y="-82" font-family="Helvetica,sans-Serif" font-size="10.00">currency</text>
<text text-anchor="start" x="10" y="-67" font-family="Helvetica,sans-Serif" font-size="10.00">+</text>
<text text-anchor="start" x="28.5" y="-67" font-family="Helvetica,sans-Serif" font-size="10.00">pe_ratio</text>
<text text-anchor="start" x="10" y="-52" font-family="Helvetica,sans-Serif" font-size="10.00">+</text>
<text text-anchor="start" x="28.5" y="-52" font-family="Helvetica,sans-Serif" font-size="10.00">dividend_yield</text>
<text text-anchor="start" x="28.5" y="-37" font-family="Helvetica,sans-Serif" font-size="10.00">and 16 more...</text>
<text text-anchor="start" x="12.5" y="-22" font-family="Helvetica,sans-Serif" font-size="10.00">&#45;</text>
<text text-anchor="start" x="28.5" y="-22" font-family="Helvetica,sans-Serif" font-size="10.00">__tablename__</text>
<text text-anchor="start" x="57" y="-7" font-family="Helvetica,sans-Serif" font-size="10.00"> </text>
<polygon fill="#666666" stroke="#666666" points="0.5,-197 0.5,-197 117.5,-197 117.5,-197 0.5,-197"/>
<polygon fill="#666666" stroke="#666666" points="0.5,-17 0.5,-17 26.5,-17 26.5,-17 0.5,-17"/>
<polygon fill="#666666" stroke="#666666" points="26.5,-17 26.5,-17 117.5,-17 117.5,-17 26.5,-17"/>
<polygon fill="none" stroke="#666666" points="0,0 0,-214 117,-214 117,0 0,0"/>
</a>
</g>
</g>
<!-- Node2 -->
<g id="Node000002" class="node">
<title>Node2</title>
<g id="a_Node000002"><a xlink:href="classBase.html" target="_top" xlink:title=" ">
<polygon fill="white" stroke="transparent" points="76,-299 41,-299 41,-250 76,-250 76,-299"/>
<text text-anchor="start" x="46.5" y="-286.5" font-family="Helvetica,sans-Serif" font-size="10.00">Base</text>
<text text-anchor="start" x="57" y="-271.5" font-family="Helvetica,sans-Serif" font-size="10.00"> </text>
<text text-anchor="start" x="57" y="-256.5" font-family="Helvetica,sans-Serif" font-size="10.00"> </text>
<polygon fill="#666666" stroke="#666666" points="41.5,-281.5 41.5,-281.5 76.5,-281.5 76.5,-281.5 41.5,-281.5"/>
<polygon fill="#666666" stroke="#666666" points="41.5,-266.5 41.5,-266.5 76.5,-266.5 76.5,-266.5 41.5,-266.5"/>
<polygon fill="none" stroke="#666666" points="41,-250 41,-299 76,-299 76,-250 41,-250"/>
</a>
</g>
</g>
<!-- Node2&#45;&gt;Node1 -->
<g id="edge1_Node000001_Node000002" class="edge">
<title>Node2&#45;&gt;Node1</title>
<g id="a_edge1_Node000001_Node000002"><a xlink:title=" ">
<path fill="none" stroke="#63b8ff" d="M58.5,-239.75C58.5,-231.93 58.5,-223.21 58.5,-214.07"/>
<polygon fill="none" stroke="#63b8ff" points="55,-239.79 58.5,-249.79 62,-239.79 55,-239.79"/>
</a>
</g>
</g>
</g>
</svg>
