<?xml version="1.0" encoding="UTF-8" standalone="no"?>
<!DOCTYPE svg PUBLIC "-//W3C//DTD SVG 1.1//EN"
 "http://www.w3.org/Graphics/SVG/1.1/DTD/svg11.dtd">
<!-- Generated by graphviz version 2.43.0 (0)
 -->
<!-- Title: analysis.formulaic_analysis.Formula Pages: 1 -->
<svg width="145pt" height="164pt"
 viewBox="0.00 0.00 145.00 164.00" xmlns="http://www.w3.org/2000/svg" xmlns:xlink="http://www.w3.org/1999/xlink">
<g id="graph0" class="graph" transform="scale(1 1) rotate(0) translate(4 160)">
<title>analysis.formulaic_analysis.Formula</title>
<!-- Node1 -->
<g id="Node000001" class="node">
<title>Node1</title>
<g id="a_Node000001"><a xlink:title=" ">
<polygon fill="#999999" stroke="transparent" points="105.5,-60 4.5,-60 4.5,0 105.5,0 105.5,-60"/>
<text text-anchor="start" x="10" y="-48" font-family="Helvetica,sans-Serif" font-size="10.00">analysis.formulaic</text>
<text text-anchor="start" x="11" y="-37" font-family="Helvetica,sans-Serif" font-size="10.00">_analysis.Formula</text>
<text text-anchor="start" x="53.5" y="-22" font-family="Helvetica,sans-Serif" font-size="10.00"> </text>
<text text-anchor="start" x="53.5" y="-7" font-family="Helvetica,sans-Serif" font-size="10.00"> </text>
<polygon fill="#666666" stroke="#666666" points="5,-32 5,-32 106,-32 106,-32 5,-32"/>
<polygon fill="#666666" stroke="#666666" points="5,-17 5,-17 106,-17 106,-17 5,-17"/>
<polygon fill="none" stroke="#666666" points="4.5,0 4.5,-60 105.5,-60 105.5,0 4.5,0"/>
</a>
</g>
</g>
<!-- Node2 -->
<g id="Node000002" class="node">
<title>Node2</title>
<g id="a_Node000002"><a xlink:title=" ">
<polygon fill="white" stroke="transparent" points="30,-156 0,-156 0,-107 30,-107 30,-156"/>
<text text-anchor="start" x="5" y="-143.5" font-family="Helvetica,sans-Serif" font-size="10.00">Dict</text>
<text text-anchor="start" x="13" y="-128.5" font-family="Helvetica,sans-Serif" font-size="10.00"> </text>
<text text-anchor="start" x="13" y="-113.5" font-family="Helvetica,sans-Serif" font-size="10.00"> </text>
<polygon fill="#666666" stroke="#666666" points="0,-138.5 0,-138.5 30,-138.5 30,-138.5 0,-138.5"/>
<polygon fill="#666666" stroke="#666666" points="0,-123.5 0,-123.5 30,-123.5 30,-123.5 0,-123.5"/>
<polygon fill="none" stroke="#666666" points="0,-107 0,-156 30,-156 30,-107 0,-107"/>
</a>
</g>
</g>
<!-- Node2&#45;&gt;Node1 -->
<g id="edge1_Node000001_Node000002" class="edge">
<title>Node2&#45;&gt;Node1</title>
<g id="a_edge1_Node000001_Node000002"><a xlink:title=" ">
<path fill="none" stroke="#63b8ff" d="M12.16,-106.88C11.88,-97.62 12.63,-87.06 16,-78 16.95,-75.46 18.09,-72.95 19.39,-70.5"/>
<polygon fill="none" stroke="#63b8ff" points="19.49,-70.34 19.31,-63.13 25.89,-60.19 26.08,-67.39 19.49,-70.34"/>
</a>
</g>
<text text-anchor="middle" x="44.5" y="-81" font-family="Helvetica,sans-Serif" font-size="10.00" fill="grey"> +variables</text>
</g>
<!-- Node3 -->
<g id="Node000003" class="node">
<title>Node3</title>
<g id="a_Node000003"><a xlink:title=" ">
<polygon fill="white" stroke="transparent" points="111,-156 79,-156 79,-107 111,-107 111,-156"/>
<text text-anchor="start" x="84" y="-143.5" font-family="Helvetica,sans-Serif" font-size="10.00">float</text>
<text text-anchor="start" x="93" y="-128.5" font-family="Helvetica,sans-Serif" font-size="10.00"> </text>
<text text-anchor="start" x="93" y="-113.5" font-family="Helvetica,sans-Serif" font-size="10.00"> </text>
<polygon fill="#666666" stroke="#666666" points="79,-138.5 79,-138.5 111,-138.5 111,-138.5 79,-138.5"/>
<polygon fill="#666666" stroke="#666666" points="79,-123.5 79,-123.5 111,-123.5 111,-123.5 79,-123.5"/>
<polygon fill="none" stroke="#666666" points="79,-107 79,-156 111,-156 111,-107 79,-107"/>
</a>
</g>
</g>
<!-- Node3&#45;&gt;Node1 -->
<g id="edge2_Node000001_Node000003" class="edge">
<title>Node3&#45;&gt;Node1</title>
<g id="a_edge2_Node000001_Node000003"><a xlink:title=" ">
<path fill="none" stroke="#63b8ff" d="M85.52,-106.92C81.25,-96.29 76.08,-83.44 71.22,-71.36"/>
<polygon fill="none" stroke="#63b8ff" points="71.18,-71.24 65.23,-67.16 66.7,-60.1 72.65,-64.18 71.18,-71.24"/>
</a>
</g>
<text text-anchor="middle" x="107" y="-81" font-family="Helvetica,sans-Serif" font-size="10.00" fill="grey"> +r_squared</text>
</g>
</g>
</svg>
