<?xml version="1.0" encoding="UTF-8" standalone="no"?>
<!DOCTYPE svg PUBLIC "-//W3C//DTD SVG 1.1//EN"
 "http://www.w3.org/Graphics/SVG/1.1/DTD/svg11.dtd">
<!-- Generated by graphviz version 2.43.0 (0)
 -->
<!-- Title: Base Pages: 1 -->
<svg width="677pt" height="307pt"
 viewBox="0.00 0.00 677.00 307.00" xmlns="http://www.w3.org/2000/svg" xmlns:xlink="http://www.w3.org/1999/xlink">
<g id="graph0" class="graph" transform="scale(1 1) rotate(0) translate(4 303)">
<title>Base</title>
<!-- Node1 -->
<g id="Node000001" class="node">
<title>Node1</title>
<g id="a_Node000001"><a xlink:title=" ">
<polygon fill="#999999" stroke="transparent" points="332,-299 297,-299 297,-250 332,-250 332,-299"/>
<text text-anchor="start" x="302.5" y="-286.5" font-family="Helvetica,sans-Serif" font-size="10.00">Base</text>
<text text-anchor="start" x="313" y="-271.5" font-family="Helvetica,sans-Serif" font-size="10.00"> </text>
<text text-anchor="start" x="313" y="-256.5" font-family="Helvetica,sans-Serif" font-size="10.00"> </text>
<polygon fill="#666666" stroke="#666666" points="297.5,-281.5 297.5,-281.5 332.5,-281.5 332.5,-281.5 297.5,-281.5"/>
<polygon fill="#666666" stroke="#666666" points="297.5,-266.5 297.5,-266.5 332.5,-266.5 332.5,-266.5 297.5,-266.5"/>
<polygon fill="none" stroke="#666666" points="297,-250 297,-299 332,-299 332,-250 297,-250"/>
</a>
</g>
</g>
<!-- Node2 -->
<g id="Node000002" class="node">
<title>Node2</title>
<g id="a_Node000002"><a xlink:href="classdb__models_1_1AssetORM.html" target="_top" xlink:title=" ">
<polygon fill="white" stroke="transparent" points="117,-214 0,-214 0,0 117,0 117,-214"/>
<text text-anchor="start" x="5.5" y="-202" font-family="Helvetica,sans-Serif" font-size="10.00">db_models.AssetORM</text>
<text text-anchor="start" x="10" y="-187" font-family="Helvetica,sans-Serif" font-size="10.00">+</text>
<text text-anchor="start" x="28.5" y="-187" font-family="Helvetica,sans-Serif" font-size="10.00">id</text>
<text text-anchor="start" x="10" y="-172" font-family="Helvetica,sans-Serif" font-size="10.00">+</text>
<text text-anchor="start" x="28.5" y="-172" font-family="Helvetica,sans-Serif" font-size="10.00">symbol</text>
<text text-anchor="start" x="10" y="-157" font-family="Helvetica,sans-Serif" font-size="10.00">+</text>
<text text-anchor="start" x="28.5" y="-157" font-family="Helvetica,sans-Serif" font-size="10.00">name</text>
<text text-anchor="start" x="10" y="-142" font-family="Helvetica,sans-Serif" font-size="10.00">+</text>
<text text-anchor="start" x="28.5" y="-142" font-family="Helvetica,sans-Serif" font-size="10.00">asset_class</text>
<text text-anchor="start" x="10" y="-127" font-family="Helvetica,sans-Serif" font-size="10.00">+</text>
<text text-anchor="start" x="28.5" y="-127" font-family="Helvetica,sans-Serif" font-size="10.00">sector</text>
<text text-anchor="start" x="10" y="-112" font-family="Helvetica,sans-Serif" font-size="10.00">+</text>
<text text-anchor="start" x="28.5" y="-112" font-family="Helvetica,sans-Serif" font-size="10.00">price</text>
<text text-anchor="start" x="10" y="-97" font-family="Helvetica,sans-Serif" font-size="10.00">+</text>
<text text-anchor="start" x="28.5" y="-97" font-family="Helvetica,sans-Serif" font-size="10.00">market_cap</text>
<text text-anchor="start" x="10" y="-82" font-family="Helvetica,sans-Serif" font-size="10.00">+</text>
<text text-anchor="start" x="28.5" y="-82" font-family="Helvetica,sans-Serif" font-size="10.00">currency</text>
<text text-anchor="start" x="10" y="-67" font-family="Helvetica,sans-Serif" font-size="10.00">+</text>
<text text-anchor="start" x="28.5" y="-67" font-family="Helvetica,sans-Serif" font-size="10.00">pe_ratio</text>
<text text-anchor="start" x="10" y="-52" font-family="Helvetica,sans-Serif" font-size="10.00">+</text>
<text text-anchor="start" x="28.5" y="-52" font-family="Helvetica,sans-Serif" font-size="10.00">dividend_yield</text>
<text text-anchor="start" x="28.5" y="-37" font-family="Helvetica,sans-Serif" font-size="10.00">and 16 more...</text>
<text text-anchor="start" x="12.5" y="-22" font-family="Helvetica,sans-Serif" font-size="10.00">&#45;</text>
<text text-anchor="start" x="28.5" y="-22" font-family="Helvetica,sans-Serif" font-size="10.00">__tablename__</text>
<text text-anchor="start" x="57" y="-7" font-family="Helvetica,sans-Serif" font-size="10.00"> </text>
<polygon fill="#666666" stroke="#666666" points="0.5,-197 0.5,-197 117.5,-197 117.5,-197 0.5,-197"/>
<polygon fill="#666666" stroke="#666666" points="0.5,-17 0.5,-17 26.5,-17 26.5,-17 0.5,-17"/>
<polygon fill="#666666" stroke="#666666" points="26.5,-17 26.5,-17 117.5,-17 117.5,-17 26.5,-17"/>
<polygon fill="none" stroke="#666666" points="0,0 0,-214 117,-214 117,0 0,0"/>
</a>
</g>
</g>
<!-- Node1&#45;&gt;Node2 -->
<g id="edge1_Node000001_Node000002" class="edge">
<title>Node1&#45;&gt;Node2</title>
<g id="a_edge1_Node000001_Node000002"><a xlink:title=" ">
<path fill="none" stroke="#63b8ff" d="M286.71,-270.67C247.44,-265.45 175.07,-251.19 126.5,-214 123.38,-211.61 120.35,-209.03 117.44,-206.3"/>
<polygon fill="none" stroke="#63b8ff" points="286.52,-274.18 296.87,-271.92 287.37,-267.23 286.52,-274.18"/>
</a>
</g>
</g>
<!-- Node3 -->
<g id="Node000003" class="node">
<title>Node3</title>
<g id="a_Node000003"><a xlink:href="classdb__models_1_1AssetRelationshipORM.html" target="_top" xlink:title=" ">
<polygon fill="white" stroke="transparent" points="313.5,-199 135.5,-199 135.5,-15 313.5,-15 313.5,-199"/>
<text text-anchor="start" x="140.5" y="-187" font-family="Helvetica,sans-Serif" font-size="10.00">db_models.AssetRelationshipORM</text>
<text text-anchor="start" x="157.5" y="-172" font-family="Helvetica,sans-Serif" font-size="10.00">+</text>
<text text-anchor="start" x="188.5" y="-172" font-family="Helvetica,sans-Serif" font-size="10.00">id</text>
<text text-anchor="start" x="157.5" y="-157" font-family="Helvetica,sans-Serif" font-size="10.00">+</text>
<text text-anchor="start" x="188.5" y="-157" font-family="Helvetica,sans-Serif" font-size="10.00">source_asset_id</text>
<text text-anchor="start" x="157.5" y="-142" font-family="Helvetica,sans-Serif" font-size="10.00">+</text>
<text text-anchor="start" x="188.5" y="-142" font-family="Helvetica,sans-Serif" font-size="10.00">target_asset_id</text>
<text text-anchor="start" x="157.5" y="-127" font-family="Helvetica,sans-Serif" font-size="10.00">+</text>
<text text-anchor="start" x="188.5" y="-127" font-family="Helvetica,sans-Serif" font-size="10.00">relationship_type</text>
<text text-anchor="start" x="157.5" y="-112" font-family="Helvetica,sans-Serif" font-size="10.00">+</text>
<text text-anchor="start" x="188.5" y="-112" font-family="Helvetica,sans-Serif" font-size="10.00">strength</text>
<text text-anchor="start" x="157.5" y="-97" font-family="Helvetica,sans-Serif" font-size="10.00">+</text>
<text text-anchor="start" x="188.5" y="-97" font-family="Helvetica,sans-Serif" font-size="10.00">bidirectional</text>
<text text-anchor="start" x="157.5" y="-82" font-family="Helvetica,sans-Serif" font-size="10.00">+</text>
<text text-anchor="start" x="188.5" y="-82" font-family="Helvetica,sans-Serif" font-size="10.00">source</text>
<text text-anchor="start" x="157.5" y="-67" font-family="Helvetica,sans-Serif" font-size="10.00">+</text>
<text text-anchor="start" x="188.5" y="-67" font-family="Helvetica,sans-Serif" font-size="10.00">target</text>
<text text-anchor="start" x="160" y="-52" font-family="Helvetica,sans-Serif" font-size="10.00">&#45;</text>
<text text-anchor="start" x="188.5" y="-52" font-family="Helvetica,sans-Serif" font-size="10.00">__tablename__</text>
<text text-anchor="start" x="160" y="-37" font-family="Helvetica,sans-Serif" font-size="10.00">&#45;</text>
<text text-anchor="start" x="188.5" y="-37" font-family="Helvetica,sans-Serif" font-size="10.00">__table_args__</text>
<text text-anchor="start" x="222.5" y="-22" font-family="Helvetica,sans-Serif" font-size="10.00"> </text>
<polygon fill="#666666" stroke="#666666" points="135.5,-182 135.5,-182 313.5,-182 313.5,-182 135.5,-182"/>
<polygon fill="#666666" stroke="#666666" points="135.5,-32 135.5,-32 186.5,-32 186.5,-32 135.5,-32"/>
<polygon fill="#666666" stroke="#666666" points="186.5,-32 186.5,-32 313.5,-32 313.5,-32 186.5,-32"/>
<polygon fill="none" stroke="#666666" points="135.5,-15 135.5,-199 313.5,-199 313.5,-15 135.5,-15"/>
</a>
</g>
</g>
<!-- Node1&#45;&gt;Node3 -->
<g id="edge2_Node000001_Node000003" class="edge">
<title>Node1&#45;&gt;Node3</title>
<g id="a_edge2_Node000001_Node000003"><a xlink:title=" ">
<path fill="none" stroke="#63b8ff" d="M296.79,-240.93C290.14,-228.71 282.22,-214.14 274.1,-199.2"/>
<polygon fill="none" stroke="#63b8ff" points="293.75,-242.67 301.61,-249.79 299.9,-239.33 293.75,-242.67"/>
</a>
</g>
</g>
<!-- Node4 -->
<g id="Node000004" class="node">
<title>Node4</title>
<g id="a_Node000004"><a xlink:href="classdb__models_1_1RegulatoryEventAssetORM.html" target="_top" xlink:title=" ">
<polygon fill="white" stroke="transparent" points="479.5,-182 331.5,-182 331.5,-32 479.5,-32 479.5,-182"/>
<text text-anchor="start" x="336.5" y="-170" font-family="Helvetica,sans-Serif" font-size="10.00">db_models.RegulatoryEvent</text>
<text text-anchor="start" x="380" y="-159" font-family="Helvetica,sans-Serif" font-size="10.00">AssetORM</text>
<text text-anchor="start" x="348.5" y="-144" font-family="Helvetica,sans-Serif" font-size="10.00">+</text>
<text text-anchor="start" x="374.5" y="-144" font-family="Helvetica,sans-Serif" font-size="10.00">id</text>
<text text-anchor="start" x="348.5" y="-129" font-family="Helvetica,sans-Serif" font-size="10.00">+</text>
<text text-anchor="start" x="374.5" y="-129" font-family="Helvetica,sans-Serif" font-size="10.00">event_id</text>
<text text-anchor="start" x="348.5" y="-114" font-family="Helvetica,sans-Serif" font-size="10.00">+</text>
<text text-anchor="start" x="374.5" y="-114" font-family="Helvetica,sans-Serif" font-size="10.00">asset_id</text>
<text text-anchor="start" x="348.5" y="-99" font-family="Helvetica,sans-Serif" font-size="10.00">+</text>
<text text-anchor="start" x="374.5" y="-99" font-family="Helvetica,sans-Serif" font-size="10.00">event</text>
<text text-anchor="start" x="348.5" y="-84" font-family="Helvetica,sans-Serif" font-size="10.00">+</text>
<text text-anchor="start" x="374.5" y="-84" font-family="Helvetica,sans-Serif" font-size="10.00">asset</text>
<text text-anchor="start" x="351" y="-69" font-family="Helvetica,sans-Serif" font-size="10.00">&#45;</text>
<text text-anchor="start" x="374.5" y="-69" font-family="Helvetica,sans-Serif" font-size="10.00">__tablename__</text>
<text text-anchor="start" x="351" y="-54" font-family="Helvetica,sans-Serif" font-size="10.00">&#45;</text>
<text text-anchor="start" x="374.5" y="-54" font-family="Helvetica,sans-Serif" font-size="10.00">__table_args__</text>
<text text-anchor="start" x="403.5" y="-39" font-family="Helvetica,sans-Serif" font-size="10.00"> </text>
<polygon fill="#666666" stroke="#666666" points="331.5,-154 331.5,-154 479.5,-154 479.5,-154 331.5,-154"/>
<polygon fill="#666666" stroke="#666666" points="331.5,-49 331.5,-49 372.5,-49 372.5,-49 331.5,-49"/>
<polygon fill="#666666" stroke="#666666" points="372.5,-49 372.5,-49 479.5,-49 479.5,-49 372.5,-49"/>
<polygon fill="none" stroke="#666666" points="331.5,-32 331.5,-182 479.5,-182 479.5,-32 331.5,-32"/>
</a>
</g>
</g>
<!-- Node1&#45;&gt;Node4 -->
<g id="edge3_Node000001_Node000004" class="edge">
<title>Node1&#45;&gt;Node4</title>
<g id="a_edge3_Node000001_Node000004"><a xlink:title=" ">
<path fill="none" stroke="#63b8ff" d="M332.41,-240.93C341.67,-224.09 353.37,-202.81 364.68,-182.24"/>
<polygon fill="none" stroke="#63b8ff" points="329.29,-239.34 327.54,-249.79 335.42,-242.71 329.29,-239.34"/>
</a>
</g>
</g>
<!-- Node5 -->
<g id="Node000005" class="node">
<title>Node5</title>
<g id="a_Node000005"><a xlink:href="classdb__models_1_1RegulatoryEventORM.html" target="_top" xlink:title=" ">
<polygon fill="white" stroke="transparent" points="669,-191.5 498,-191.5 498,-22.5 669,-22.5 669,-191.5"/>
<text text-anchor="start" x="503.5" y="-179" font-family="Helvetica,sans-Serif" font-size="10.00">db_models.RegulatoryEventORM</text>
<text text-anchor="start" x="521.5" y="-164" font-family="Helvetica,sans-Serif" font-size="10.00">+</text>
<text text-anchor="start" x="553.5" y="-164" font-family="Helvetica,sans-Serif" font-size="10.00">id</text>
<text text-anchor="start" x="521.5" y="-149" font-family="Helvetica,sans-Serif" font-size="10.00">+</text>
<text text-anchor="start" x="553.5" y="-149" font-family="Helvetica,sans-Serif" font-size="10.00">asset_id</text>
<text text-anchor="start" x="521.5" y="-134" font-family="Helvetica,sans-Serif" font-size="10.00">+</text>
<text text-anchor="start" x="553.5" y="-134" font-family="Helvetica,sans-Serif" font-size="10.00">event_type</text>
<text text-anchor="start" x="521.5" y="-119" font-family="Helvetica,sans-Serif" font-size="10.00">+</text>
<text text-anchor="start" x="553.5" y="-119" font-family="Helvetica,sans-Serif" font-size="10.00">date</text>
<text text-anchor="start" x="521.5" y="-104" font-family="Helvetica,sans-Serif" font-size="10.00">+</text>
<text text-anchor="start" x="553.5" y="-104" font-family="Helvetica,sans-Serif" font-size="10.00">description</text>
<text text-anchor="start" x="521.5" y="-89" font-family="Helvetica,sans-Serif" font-size="10.00">+</text>
<text text-anchor="start" x="553.5" y="-89" font-family="Helvetica,sans-Serif" font-size="10.00">impact_score</text>
<text text-anchor="start" x="521.5" y="-74" font-family="Helvetica,sans-Serif" font-size="10.00">+</text>
<text text-anchor="start" x="553.5" y="-74" font-family="Helvetica,sans-Serif" font-size="10.00">asset</text>
<text text-anchor="start" x="521.5" y="-59" font-family="Helvetica,sans-Serif" font-size="10.00">+</text>
<text text-anchor="start" x="553.5" y="-59" font-family="Helvetica,sans-Serif" font-size="10.00">related_assets</text>
<text text-anchor="start" x="524" y="-44" font-family="Helvetica,sans-Serif" font-size="10.00">&#45;</text>
<text text-anchor="start" x="553.5" y="-44" font-family="Helvetica,sans-Serif" font-size="10.00">__tablename__</text>
<text text-anchor="start" x="582" y="-29" font-family="Helvetica,sans-Serif" font-size="10.00"> </text>
<polygon fill="#666666" stroke="#666666" points="498.5,-174 498.5,-174 669.5,-174 669.5,-174 498.5,-174"/>
<polygon fill="#666666" stroke="#666666" points="498.5,-39 498.5,-39 551.5,-39 551.5,-39 498.5,-39"/>
<polygon fill="#666666" stroke="#666666" points="551.5,-39 551.5,-39 669.5,-39 669.5,-39 551.5,-39"/>
<polygon fill="none" stroke="#666666" points="498,-22.5 498,-191.5 669,-191.5 669,-22.5 498,-22.5"/>
</a>
</g>
</g>
<!-- Node1&#45;&gt;Node5 -->
<g id="edge4_Node000001_Node000005" class="edge">
<title>Node1&#45;&gt;Node5</title>
<g id="a_edge4_Node000001_Node000005"><a xlink:title=" ">
<path fill="none" stroke="#63b8ff" d="M342.36,-268.54C378.44,-261.13 442.18,-244.66 488.5,-214 498.29,-207.52 507.71,-199.8 516.58,-191.51"/>
<polygon fill="none" stroke="#63b8ff" points="341.24,-265.19 332.1,-270.55 342.59,-272.06 341.24,-265.19"/>
</a>
</g>
</g>
</g>
</svg>
