<?xml version="1.0" encoding="UTF-8" standalone="no"?>
<!DOCTYPE svg PUBLIC "-//W3C//DTD SVG 1.1//EN"
 "http://www.w3.org/Graphics/SVG/1.1/DTD/svg11.dtd">
<!-- Generated by graphviz version 2.43.0 (0)
 -->
<!-- Title: app.FinancialAssetApp.refresh_visualization Pages: 1 -->
<svg width="537pt" height="38pt"
 viewBox="0.00 0.00 537.00 38.00" xmlns="http://www.w3.org/2000/svg" xmlns:xlink="http://www.w3.org/1999/xlink">
<g id="graph0" class="graph" transform="scale(1 1) rotate(0) translate(4 34)">
<title>app.FinancialAssetApp.refresh_visualization</title>
<!-- Node1 -->
<g id="Node000001" class="node">
<title>Node1</title>
<g id="a_Node000001"><a xlink:title=" ">
<polygon fill="#999999" stroke="#666666" points="164,-30 0,-30 0,0 164,0 164,-30"/>
<text text-anchor="start" x="8" y="-18" font-family="Helvetica,sans-Serif" font-size="10.00">app.FinancialAssetApp.refresh</text>
<text text-anchor="middle" x="82" y="-7" font-family="Helvetica,sans-Serif" font-size="10.00">_visualization</text>
</a>
</g>
</g>
<!-- Node2 -->
<g id="Node000002" class="node">
<title>Node2</title>
<g id="a_Node000002"><a xlink:href="classapp_1_1FinancialAssetApp.html#a54667558411627b15aeb4951aff6b392" target="_top" xlink:title=" ">
<polygon fill="white" stroke="#666666" points="363,-30 200,-30 200,0 363,0 363,-30"/>
<text text-anchor="start" x="208" y="-18" font-family="Helvetica,sans-Serif" font-size="10.00">app.FinancialAssetApp.ensure</text>
<text text-anchor="middle" x="281.5" y="-7" font-family="Helvetica,sans-Serif" font-size="10.00">_graph</text>
</a>
</g>
</g>
<!-- Node1&#45;&gt;Node2 -->
<g id="edge1_Node000001_Node000002" class="edge">
<title>Node1&#45;&gt;Node2</title>
<g id="a_edge1_Node000001_Node000002"><a xlink:title=" ">
<path fill="none" stroke="#63b8ff" d="M164.19,-15C172.67,-15 181.34,-15 189.93,-15"/>
<polygon fill="#63b8ff" stroke="#63b8ff" points="189.95,-18.5 199.95,-15 189.95,-11.5 189.95,-18.5"/>
</a>
</g>
</g>
<!-- Node3 -->
<g id="Node000003" class="node">
<title>Node3</title>
<g id="a_Node000003"><a xlink:href="classapp_1_1FinancialAssetApp.html#ac33bbb920250622229430b5da9211366" target="_top" xlink:title=" ">
<polygon fill="white" stroke="#666666" points="529,-30 399,-30 399,0 529,0 529,-30"/>
<text text-anchor="start" x="407" y="-18" font-family="Helvetica,sans-Serif" font-size="10.00">app.FinancialAssetApp.</text>
<text text-anchor="middle" x="464" y="-7" font-family="Helvetica,sans-Serif" font-size="10.00">_initialize_graph</text>
</a>
</g>
</g>
<!-- Node2&#45;&gt;Node3 -->
<g id="edge2_Node000002_Node000003" class="edge">
<title>Node2&#45;&gt;Node3</title>
<g id="a_edge2_Node000002_Node000003"><a xlink:title=" ">
<path fill="none" stroke="#63b8ff" d="M363.25,-15C371.72,-15 380.31,-15 388.71,-15"/>
<polygon fill="#63b8ff" stroke="#63b8ff" points="388.84,-18.5 398.84,-15 388.84,-11.5 388.84,-18.5"/>
</a>
</g>
</g>
</g>
</svg>
