<?xml version="1.0" encoding="UTF-8" standalone="no"?>
<!DOCTYPE svg PUBLIC "-//W3C//DTD SVG 1.1//EN"
 "http://www.w3.org/Graphics/SVG/1.1/DTD/svg11.dtd">
<!-- Generated by graphviz version 2.43.0 (0)
 -->
<!-- Title: financial_models.RegulatoryEvent Pages: 1 -->
<svg width="166pt" height="224pt"
 viewBox="0.00 0.00 165.50 224.00" xmlns="http://www.w3.org/2000/svg" xmlns:xlink="http://www.w3.org/1999/xlink">

<svg id="main" version="1.1" xmlns="http://www.w3.org/2000/svg" xmlns:xlink="http://www.w3.org/1999/xlink" xml:space="preserve">

<style type="text/css"><![CDATA[
.node, .edge {opacity: 0.7;}
.node.selected, .edge.selected {opacity: 1;}
.edge:hover path { stroke: red; }
.edge:hover polygon { stroke: red; fill: red; }
]]></style>
<script type="application/ecmascript" xlink:href="svg.min.js"/>
<svg id="graph" class="graph">
<g id="graph0" class="graph" transform="scale(1 1) rotate(0) translate(4 220)">
<title>financial_models.RegulatoryEvent</title>
<!-- Node1 -->
<g id="Node000001" class="node">
<title>Node1</title>
<g id="a_Node000001"><a xlink:title=" ">
<polygon fill="#999999" stroke="transparent" points="149,-120 0,-120 0,0 149,0 149,-120"/>
<text text-anchor="start" x="5.5" y="-108" font-family="Helvetica,sans-Serif" font-size="10.00">financial_models.Regulatory</text>
<text text-anchor="start" x="61" y="-97" font-family="Helvetica,sans-Serif" font-size="10.00">Event</text>
<text text-anchor="start" x="18.5" y="-82" font-family="Helvetica,sans-Serif" font-size="10.00">+</text>
<text text-anchor="start" x="45.5" y="-82" font-family="Helvetica,sans-Serif" font-size="10.00">id</text>
<text text-anchor="start" x="18.5" y="-67" font-family="Helvetica,sans-Serif" font-size="10.00">+</text>
<text text-anchor="start" x="45.5" y="-67" font-family="Helvetica,sans-Serif" font-size="10.00">asset_id</text>
<text text-anchor="start" x="18.5" y="-52" font-family="Helvetica,sans-Serif" font-size="10.00">+</text>
<text text-anchor="start" x="45.5" y="-52" font-family="Helvetica,sans-Serif" font-size="10.00">impact_score</text>
<text text-anchor="start" x="18.5" y="-37" font-family="Helvetica,sans-Serif" font-size="10.00">+</text>
<text text-anchor="start" x="45.5" y="-37" font-family="Helvetica,sans-Serif" font-size="10.00">date</text>
<text text-anchor="start" x="18.5" y="-22" font-family="Helvetica,sans-Serif" font-size="10.00">+</text>
<text text-anchor="start" x="45.5" y="-22" font-family="Helvetica,sans-Serif" font-size="10.00">description</text>
<text text-anchor="start" x="18.5" y="-7" font-family="Helvetica,sans-Serif" font-size="10.00">+</text>
<text text-anchor="start" x="45.5" y="-7" font-family="Helvetica,sans-Serif" font-size="10.00">__post_init__()</text>
<polygon fill="#666666" stroke="#666666" points="0.5,-92 0.5,-92 149.5,-92 149.5,-92 0.5,-92"/>
<polygon fill="#666666" stroke="#666666" points="0.5,-17 0.5,-17 43.5,-17 43.5,-17 0.5,-17"/>
<polygon fill="#666666" stroke="#666666" points="43.5,-17 43.5,-17 149.5,-17 149.5,-17 43.5,-17"/>
<polygon fill="none" stroke="#666666" points="0,0 0,-120 149,-120 149,0 0,0"/>
</a>
</g>
</g>
<!-- Node2 -->
<g id="Node000002" class="node">
<title>Node2</title>
<g id="a_Node000002"><a xlink:title=" ">
<polygon fill="white" stroke="transparent" points="88.5,-216 60.5,-216 60.5,-167 88.5,-167 88.5,-216"/>
<text text-anchor="start" x="65.5" y="-203.5" font-family="Helvetica,sans-Serif" font-size="10.00">List</text>
<text text-anchor="start" x="72.5" y="-188.5" font-family="Helvetica,sans-Serif" font-size="10.00"> </text>
<text text-anchor="start" x="72.5" y="-173.5" font-family="Helvetica,sans-Serif" font-size="10.00"> </text>
<polygon fill="#666666" stroke="#666666" points="60.5,-198.5 60.5,-198.5 88.5,-198.5 88.5,-198.5 60.5,-198.5"/>
<polygon fill="#666666" stroke="#666666" points="60.5,-183.5 60.5,-183.5 88.5,-183.5 88.5,-183.5 60.5,-183.5"/>
<polygon fill="none" stroke="#666666" points="60.5,-167 60.5,-216 88.5,-216 88.5,-167 60.5,-167"/>
</a>
</g>
</g>
<!-- Node2&#45;&gt;Node1 -->
<g id="edge1_Node000001_Node000002" class="edge">
<title>Node2&#45;&gt;Node1</title>
<g id="a_edge1_Node000001_Node000002"><a xlink:title=" ">
<path fill="none" stroke="#63b8ff" d="M74.5,-166.75C74.5,-156.79 74.5,-144.63 74.5,-132.15"/>
<polygon fill="none" stroke="#63b8ff" points="74.5,-132.15 70.5,-126.15 74.5,-120.15 78.5,-126.15 74.5,-132.15"/>
</a>
</g>
<text text-anchor="middle" x="116" y="-141" font-family="Helvetica,sans-Serif" font-size="10.00" fill="grey"> +related_assets</text>
</g>
</g>
</svg>
</svg>

<style type='text/css'>
<![CDATA[
[data-mouse-over-selected='false'] { opacity: 0.7; }
[data-mouse-over-selected='true']  { opacity: 1.0; }
]]>
</style>
<script type="application/ecmascript"><![CDATA[
document.addEventListener('DOMContentLoaded', (event) => {
  highlightEdges();
  highlightAdjacentNodes();
});
]]></script>
</svg>
