<?xml version="1.0" encoding="UTF-8" standalone="no"?>
<!DOCTYPE svg PUBLIC "-//W3C//DTD SVG 1.1//EN"
 "http://www.w3.org/Graphics/SVG/1.1/DTD/svg11.dtd">
<!-- Generated by graphviz version 2.43.0 (0)
 -->
<!-- Title: db_models.AssetRelationshipORM Pages: 1 -->
<svg width="186pt" height="277pt"
 viewBox="0.00 0.00 186.00 277.00" xmlns="http://www.w3.org/2000/svg" xmlns:xlink="http://www.w3.org/1999/xlink">
<g id="graph0" class="graph" transform="scale(1 1) rotate(0) translate(4 273)">
<title>db_models.AssetRelationshipORM</title>
<!-- Node1 -->
<g id="Node000001" class="node">
<title>Node1</title>
<g id="a_Node000001"><a xlink:title=" ">
<polygon fill="#999999" stroke="transparent" points="178,-184 0,-184 0,0 178,0 178,-184"/>
<text text-anchor="start" x="5" y="-172" font-family="Helvetica,sans-Serif" font-size="10.00">db_models.AssetRelationshipORM</text>
<text text-anchor="start" x="22" y="-157" font-family="Helvetica,sans-Serif" font-size="10.00">+</text>
<text text-anchor="start" x="53" y="-157" font-family="Helvetica,sans-Serif" font-size="10.00">id</text>
<text text-anchor="start" x="22" y="-142" font-family="Helvetica,sans-Serif" font-size="10.00">+</text>
<text text-anchor="start" x="53" y="-142" font-family="Helvetica,sans-Serif" font-size="10.00">source_asset_id</text>
<text text-anchor="start" x="22" y="-127" font-family="Helvetica,sans-Serif" font-size="10.00">+</text>
<text text-anchor="start" x="53" y="-127" font-family="Helvetica,sans-Serif" font-size="10.00">target_asset_id</text>
<text text-anchor="start" x="22" y="-112" font-family="Helvetica,sans-Serif" font-size="10.00">+</text>
<text text-anchor="start" x="53" y="-112" font-family="Helvetica,sans-Serif" font-size="10.00">relationship_type</text>
<text text-anchor="start" x="22" y="-97" font-family="Helvetica,sans-Serif" font-size="10.00">+</text>
<text text-anchor="start" x="53" y="-97" font-family="Helvetica,sans-Serif" font-size="10.00">strength</text>
<text text-anchor="start" x="22" y="-82" font-family="Helvetica,sans-Serif" font-size="10.00">+</text>
<text text-anchor="start" x="53" y="-82" font-family="Helvetica,sans-Serif" font-size="10.00">bidirectional</text>
<text text-anchor="start" x="22" y="-67" font-family="Helvetica,sans-Serif" font-size="10.00">+</text>
<text text-anchor="start" x="53" y="-67" font-family="Helvetica,sans-Serif" font-size="10.00">source</text>
<text text-anchor="start" x="22" y="-52" font-family="Helvetica,sans-Serif" font-size="10.00">+</text>
<text text-anchor="start" x="53" y="-52" font-family="Helvetica,sans-Serif" font-size="10.00">target</text>
<text text-anchor="start" x="24.5" y="-37" font-family="Helvetica,sans-Serif" font-size="10.00">&#45;</text>
<text text-anchor="start" x="53" y="-37" font-family="Helvetica,sans-Serif" font-size="10.00">__tablename__</text>
<text text-anchor="start" x="24.5" y="-22" font-family="Helvetica,sans-Serif" font-size="10.00">&#45;</text>
<text text-anchor="start" x="53" y="-22" font-family="Helvetica,sans-Serif" font-size="10.00">__table_args__</text>
<text text-anchor="start" x="87" y="-7" font-family="Helvetica,sans-Serif" font-size="10.00"> </text>
<polygon fill="#666666" stroke="#666666" points="0,-167 0,-167 178,-167 178,-167 0,-167"/>
<polygon fill="#666666" stroke="#666666" points="0,-17 0,-17 51,-17 51,-17 0,-17"/>
<polygon fill="#666666" stroke="#666666" points="51,-17 51,-17 178,-17 178,-17 51,-17"/>
<polygon fill="none" stroke="#666666" points="0,0 0,-184 178,-184 178,0 0,0"/>
</a>
</g>
</g>
<!-- Node2 -->
<g id="Node000002" class="node">
<title>Node2</title>
<g id="a_Node000002"><a xlink:href="classBase.html" target="_top" xlink:title=" ">
<polygon fill="white" stroke="transparent" points="106.5,-269 71.5,-269 71.5,-220 106.5,-220 106.5,-269"/>
<text text-anchor="start" x="77" y="-256.5" font-family="Helvetica,sans-Serif" font-size="10.00">Base</text>
<text text-anchor="start" x="87.5" y="-241.5" font-family="Helvetica,sans-Serif" font-size="10.00"> </text>
<text text-anchor="start" x="87.5" y="-226.5" font-family="Helvetica,sans-Serif" font-size="10.00"> </text>
<polygon fill="#666666" stroke="#666666" points="72,-251.5 72,-251.5 107,-251.5 107,-251.5 72,-251.5"/>
<polygon fill="#666666" stroke="#666666" points="72,-236.5 72,-236.5 107,-236.5 107,-236.5 72,-236.5"/>
<polygon fill="none" stroke="#666666" points="71.5,-220 71.5,-269 106.5,-269 106.5,-220 71.5,-220"/>
</a>
</g>
</g>
<!-- Node2&#45;&gt;Node1 -->
<g id="edge1_Node000001_Node000002" class="edge">
<title>Node2&#45;&gt;Node1</title>
<g id="a_edge1_Node000001_Node000002"><a xlink:title=" ">
<path fill="none" stroke="#63b8ff" d="M89,-209.88C89,-202.03 89,-193.29 89,-184.23"/>
<polygon fill="none" stroke="#63b8ff" points="85.5,-209.98 89,-219.98 92.5,-209.98 85.5,-209.98"/>
</a>
</g>
</g>
</g>
</svg>
