<?xml version="1.0" encoding="UTF-8" standalone="no"?>
<!DOCTYPE svg PUBLIC "-//W3C//DTD SVG 1.1//EN"
 "http://www.w3.org/Graphics/SVG/1.1/DTD/svg11.dtd">
<!-- Generated by graphviz version 2.43.0 (0)
 -->
<!-- Title: Enum Pages: 1 -->
<svg width="336pt" height="228pt"
 viewBox="0.00 0.00 336.00 228.00" xmlns="http://www.w3.org/2000/svg" xmlns:xlink="http://www.w3.org/1999/xlink">
<g id="graph0" class="graph" transform="scale(1 1) rotate(0) translate(4 224)">
<title>Enum</title>
<!-- Node1 -->
<g id="Node000001" class="node">
<title>Node1</title>
<g id="a_Node000001"><a xlink:title=" ">
<polygon fill="#999999" stroke="transparent" points="179.5,-220 141.5,-220 141.5,-171 179.5,-171 179.5,-220"/>
<text text-anchor="start" x="146.5" y="-207.5" font-family="Helvetica,sans-Serif" font-size="10.00">Enum</text>
<text text-anchor="start" x="158.5" y="-192.5" font-family="Helvetica,sans-Serif" font-size="10.00"> </text>
<text text-anchor="start" x="158.5" y="-177.5" font-family="Helvetica,sans-Serif" font-size="10.00"> </text>
<polygon fill="#666666" stroke="#666666" points="141.5,-202.5 141.5,-202.5 179.5,-202.5 179.5,-202.5 141.5,-202.5"/>
<polygon fill="#666666" stroke="#666666" points="141.5,-187.5 141.5,-187.5 179.5,-187.5 179.5,-187.5 141.5,-187.5"/>
<polygon fill="none" stroke="#666666" points="141.5,-171 141.5,-220 179.5,-220 179.5,-171 141.5,-171"/>
</a>
</g>
</g>
<!-- Node2 -->
<g id="Node000002" class="node">
<title>Node2</title>
<g id="a_Node000002"><a xlink:href="classfinancial__models_1_1AssetClass.html" target="_top" xlink:title=" ">
<polygon fill="white" stroke="transparent" points="149,-122 0,-122 0,-13 149,-13 149,-122"/>
<text text-anchor="start" x="5.5" y="-109.5" font-family="Helvetica,sans-Serif" font-size="10.00">financial_models.AssetClass</text>
<text text-anchor="start" x="17.5" y="-94.5" font-family="Helvetica,sans-Serif" font-size="10.00">+</text>
<text text-anchor="start" x="43.5" y="-94.5" font-family="Helvetica,sans-Serif" font-size="10.00">EQUITY</text>
<text text-anchor="start" x="17.5" y="-79.5" font-family="Helvetica,sans-Serif" font-size="10.00">+</text>
<text text-anchor="start" x="43.5" y="-79.5" font-family="Helvetica,sans-Serif" font-size="10.00">FIXED_INCOME</text>
<text text-anchor="start" x="17.5" y="-64.5" font-family="Helvetica,sans-Serif" font-size="10.00">+</text>
<text text-anchor="start" x="43.5" y="-64.5" font-family="Helvetica,sans-Serif" font-size="10.00">COMMODITY</text>
<text text-anchor="start" x="17.5" y="-49.5" font-family="Helvetica,sans-Serif" font-size="10.00">+</text>
<text text-anchor="start" x="43.5" y="-49.5" font-family="Helvetica,sans-Serif" font-size="10.00">CURRENCY</text>
<text text-anchor="start" x="17.5" y="-34.5" font-family="Helvetica,sans-Serif" font-size="10.00">+</text>
<text text-anchor="start" x="43.5" y="-34.5" font-family="Helvetica,sans-Serif" font-size="10.00">DERIVATIVE</text>
<text text-anchor="start" x="73" y="-19.5" font-family="Helvetica,sans-Serif" font-size="10.00"> </text>
<polygon fill="#666666" stroke="#666666" points="0.5,-104.5 0.5,-104.5 149.5,-104.5 149.5,-104.5 0.5,-104.5"/>
<polygon fill="#666666" stroke="#666666" points="0.5,-29.5 0.5,-29.5 41.5,-29.5 41.5,-29.5 0.5,-29.5"/>
<polygon fill="#666666" stroke="#666666" points="41.5,-29.5 41.5,-29.5 149.5,-29.5 149.5,-29.5 41.5,-29.5"/>
<polygon fill="none" stroke="#666666" points="0,-13 0,-122 149,-122 149,-13 0,-13"/>
</a>
</g>
</g>
<!-- Node1&#45;&gt;Node2 -->
<g id="edge1_Node000001_Node000002" class="edge">
<title>Node1&#45;&gt;Node2</title>
<g id="a_edge1_Node000001_Node000002"><a xlink:title=" ">
<path fill="none" stroke="#63b8ff" d="M138.52,-162.3C130.18,-150.08 120.44,-135.8 111.1,-122.13"/>
<polygon fill="none" stroke="#63b8ff" points="135.8,-164.51 144.32,-170.8 141.58,-160.57 135.8,-164.51"/>
</a>
</g>
</g>
<!-- Node3 -->
<g id="Node000003" class="node">
<title>Node3</title>
<g id="a_Node000003"><a xlink:href="classfinancial__models_1_1RegulatoryActivity.html" target="_top" xlink:title=" ">
<polygon fill="white" stroke="transparent" points="328,-135 167,-135 167,0 328,0 328,-135"/>
<text text-anchor="start" x="178.5" y="-122.5" font-family="Helvetica,sans-Serif" font-size="10.00">financial_models.Regulatory</text>
<text text-anchor="start" x="229" y="-111.5" font-family="Helvetica,sans-Serif" font-size="10.00">Activity</text>
<text text-anchor="start" x="171.5" y="-96.5" font-family="Helvetica,sans-Serif" font-size="10.00">+</text>
<text text-anchor="start" x="184.5" y="-96.5" font-family="Helvetica,sans-Serif" font-size="10.00">EARNINGS_REPORT</text>
<text text-anchor="start" x="171.5" y="-81.5" font-family="Helvetica,sans-Serif" font-size="10.00">+</text>
<text text-anchor="start" x="184.5" y="-81.5" font-family="Helvetica,sans-Serif" font-size="10.00">SEC_FILING</text>
<text text-anchor="start" x="171.5" y="-66.5" font-family="Helvetica,sans-Serif" font-size="10.00">+</text>
<text text-anchor="start" x="184.5" y="-66.5" font-family="Helvetica,sans-Serif" font-size="10.00">DIVIDEND_ANNOUNCEMENT</text>
<text text-anchor="start" x="171.5" y="-51.5" font-family="Helvetica,sans-Serif" font-size="10.00">+</text>
<text text-anchor="start" x="184.5" y="-51.5" font-family="Helvetica,sans-Serif" font-size="10.00">BOND_ISSUANCE</text>
<text text-anchor="start" x="171.5" y="-36.5" font-family="Helvetica,sans-Serif" font-size="10.00">+</text>
<text text-anchor="start" x="184.5" y="-36.5" font-family="Helvetica,sans-Serif" font-size="10.00">ACQUISITION</text>
<text text-anchor="start" x="171.5" y="-21.5" font-family="Helvetica,sans-Serif" font-size="10.00">+</text>
<text text-anchor="start" x="184.5" y="-21.5" font-family="Helvetica,sans-Serif" font-size="10.00">BANKRUPTCY</text>
<text text-anchor="start" x="246" y="-6.5" font-family="Helvetica,sans-Serif" font-size="10.00"> </text>
<polygon fill="#666666" stroke="#666666" points="167.5,-106.5 167.5,-106.5 328.5,-106.5 328.5,-106.5 167.5,-106.5"/>
<polygon fill="#666666" stroke="#666666" points="167.5,-16.5 167.5,-16.5 182.5,-16.5 182.5,-16.5 167.5,-16.5"/>
<polygon fill="#666666" stroke="#666666" points="182.5,-16.5 182.5,-16.5 328.5,-16.5 328.5,-16.5 182.5,-16.5"/>
<polygon fill="none" stroke="#666666" points="167,0 167,-135 328,-135 328,0 167,0"/>
</a>
</g>
</g>
<!-- Node1&#45;&gt;Node3 -->
<g id="edge2_Node000001_Node000003" class="edge">
<title>Node1&#45;&gt;Node3</title>
<g id="a_edge2_Node000001_Node000003"><a xlink:title=" ">
<path fill="none" stroke="#63b8ff" d="M182.64,-162.43C188.44,-154.03 194.92,-144.66 201.47,-135.17"/>
<polygon fill="none" stroke="#63b8ff" points="179.67,-160.58 176.86,-170.8 185.43,-164.56 179.67,-160.58"/>
</a>
</g>
</g>
</g>
</svg>
