<?xml version="1.0" encoding="UTF-8" standalone="no"?>
<!DOCTYPE svg PUBLIC "-//W3C//DTD SVG 1.1//EN"
 "http://www.w3.org/Graphics/SVG/1.1/DTD/svg11.dtd">
<!-- Generated by graphviz version 2.43.0 (0)
 -->
<!-- Title: financial_models.Bond Pages: 1 -->
<svg width="255pt" height="284pt"
 viewBox="0.00 0.00 255.00 284.00" xmlns="http://www.w3.org/2000/svg" xmlns:xlink="http://www.w3.org/1999/xlink">
<g id="graph0" class="graph" transform="scale(1 1) rotate(0) translate(4 280)">
<title>financial_models.Bond</title>
<!-- Node1 -->
<g id="Node000001" class="node">
<title>Node1</title>
<g id="a_Node000001"><a xlink:title=" ">
<polygon fill="#999999" stroke="transparent" points="121,-49 0,-49 0,0 121,0 121,-49"/>
<text text-anchor="start" x="5.5" y="-36.5" font-family="Helvetica,sans-Serif" font-size="10.00">financial_models.Bond</text>
<text text-anchor="start" x="59" y="-21.5" font-family="Helvetica,sans-Serif" font-size="10.00"> </text>
<text text-anchor="start" x="59" y="-6.5" font-family="Helvetica,sans-Serif" font-size="10.00"> </text>
<polygon fill="#666666" stroke="#666666" points="0.5,-31.5 0.5,-31.5 121.5,-31.5 121.5,-31.5 0.5,-31.5"/>
<polygon fill="#666666" stroke="#666666" points="0.5,-16.5 0.5,-16.5 121.5,-16.5 121.5,-16.5 0.5,-16.5"/>
<polygon fill="none" stroke="#666666" points="0,0 0,-49 121,-49 121,0 0,0"/>
</a>
</g>
</g>
<!-- Node2 -->
<g id="Node000002" class="node">
<title>Node2</title>
<g id="a_Node000002"><a xlink:href="classfinancial__models_1_1Asset.html" target="_top" xlink:title=" ">
<polygon fill="white" stroke="transparent" points="247,-180 124,-180 124,-86 247,-86 247,-180"/>
<text text-anchor="start" x="129.5" y="-168" font-family="Helvetica,sans-Serif" font-size="10.00">financial_models.Asset</text>
<text text-anchor="start" x="136" y="-153" font-family="Helvetica,sans-Serif" font-size="10.00">+</text>
<text text-anchor="start" x="156.5" y="-153" font-family="Helvetica,sans-Serif" font-size="10.00">id</text>
<text text-anchor="start" x="136" y="-138" font-family="Helvetica,sans-Serif" font-size="10.00">+</text>
<text text-anchor="start" x="156.5" y="-138" font-family="Helvetica,sans-Serif" font-size="10.00">symbol</text>
<text text-anchor="start" x="136" y="-123" font-family="Helvetica,sans-Serif" font-size="10.00">+</text>
<text text-anchor="start" x="156.5" y="-123" font-family="Helvetica,sans-Serif" font-size="10.00">name</text>
<text text-anchor="start" x="136" y="-108" font-family="Helvetica,sans-Serif" font-size="10.00">+</text>
<text text-anchor="start" x="156.5" y="-108" font-family="Helvetica,sans-Serif" font-size="10.00">price</text>
<text text-anchor="start" x="136" y="-93" font-family="Helvetica,sans-Serif" font-size="10.00">+</text>
<text text-anchor="start" x="156.5" y="-93" font-family="Helvetica,sans-Serif" font-size="10.00">__post_init__()</text>
<polygon fill="#666666" stroke="#666666" points="124.5,-163 124.5,-163 247.5,-163 247.5,-163 124.5,-163"/>
<polygon fill="#666666" stroke="#666666" points="124.5,-103 124.5,-103 154.5,-103 154.5,-103 124.5,-103"/>
<polygon fill="#666666" stroke="#666666" points="154.5,-103 154.5,-103 247.5,-103 247.5,-103 154.5,-103"/>
<polygon fill="none" stroke="#666666" points="124,-86 124,-180 247,-180 247,-86 124,-86"/>
</a>
</g>
</g>
<!-- Node2&#45;&gt;Node1 -->
<g id="edge1_Node000001_Node000002" class="edge">
<title>Node2&#45;&gt;Node1</title>
<g id="a_edge1_Node000001_Node000002"><a xlink:title=" ">
<path fill="none" stroke="#63b8ff" d="M123.67,-79.32C111.22,-68.72 98.74,-58.08 88.19,-49.1"/>
<polygon fill="none" stroke="#63b8ff" points="121.52,-82.09 131.4,-85.91 126.06,-76.76 121.52,-82.09"/>
</a>
</g>
</g>
<!-- Node3 -->
<g id="Node000003" class="node">
<title>Node3</title>
<g id="a_Node000003"><a xlink:title=" ">
<polygon fill="white" stroke="transparent" points="57.5,-276 5.5,-276 5.5,-227 57.5,-227 57.5,-276"/>
<text text-anchor="start" x="10.5" y="-263.5" font-family="Helvetica,sans-Serif" font-size="10.00">Optional</text>
<text text-anchor="start" x="29.5" y="-248.5" font-family="Helvetica,sans-Serif" font-size="10.00"> </text>
<text text-anchor="start" x="29.5" y="-233.5" font-family="Helvetica,sans-Serif" font-size="10.00"> </text>
<polygon fill="#666666" stroke="#666666" points="5.5,-258.5 5.5,-258.5 57.5,-258.5 57.5,-258.5 5.5,-258.5"/>
<polygon fill="#666666" stroke="#666666" points="5.5,-243.5 5.5,-243.5 57.5,-243.5 57.5,-243.5 5.5,-243.5"/>
<polygon fill="none" stroke="#666666" points="5.5,-227 5.5,-276 57.5,-276 57.5,-227 5.5,-227"/>
</a>
</g>
</g>
<!-- Node3&#45;&gt;Node1 -->
<g id="edge4_Node000001_Node000003" class="edge">
<title>Node3&#45;&gt;Node1</title>
<g id="a_edge4_Node000001_Node000003"><a xlink:title=" ">
<path fill="none" stroke="#63b8ff" d="M24.46,-226.74C15.99,-194.2 4.67,-134.32 19.5,-86 22.38,-76.62 27.26,-67.38 32.67,-59.06"/>
<polygon fill="none" stroke="#63b8ff" points="32.8,-58.89 32.98,-51.68 39.7,-49.07 39.52,-56.28 32.8,-58.89"/>
</a>
</g>
<text text-anchor="middle" x="67" y="-152.5" font-family="Helvetica,sans-Serif" font-size="10.00" fill="grey"> +coupon_rate</text>
<text text-anchor="middle" x="67" y="-141.5" font-family="Helvetica,sans-Serif" font-size="10.00" fill="grey">+credit_rating</text>
<text text-anchor="middle" x="67" y="-130.5" font-family="Helvetica,sans-Serif" font-size="10.00" fill="grey">+issuer_id</text>
<text text-anchor="middle" x="67" y="-119.5" font-family="Helvetica,sans-Serif" font-size="10.00" fill="grey">+maturity_date</text>
<text text-anchor="middle" x="67" y="-108.5" font-family="Helvetica,sans-Serif" font-size="10.00" fill="grey">+yield_to_maturity</text>
</g>
<!-- Node3&#45;&gt;Node2 -->
<g id="edge2_Node000002_Node000003" class="edge">
<title>Node3&#45;&gt;Node2</title>
<g id="a_edge2_Node000002_Node000003"><a xlink:title=" ">
<path fill="none" stroke="#63b8ff" d="M57.62,-230.74C73.48,-218.74 94.54,-202.81 114.99,-187.34"/>
<polygon fill="none" stroke="#63b8ff" points="115.06,-187.29 117.43,-180.48 124.63,-180.05 122.26,-186.86 115.06,-187.29"/>
</a>
</g>
<text text-anchor="middle" x="134" y="-201" font-family="Helvetica,sans-Serif" font-size="10.00" fill="grey"> +market_cap</text>
</g>
<!-- Node4 -->
<g id="Node000004" class="node">
<title>Node4</title>
<g id="a_Node000004"><a xlink:title=" ">
<polygon fill="white" stroke="transparent" points="197,-276 174,-276 174,-227 197,-227 197,-276"/>
<text text-anchor="start" x="179.5" y="-263.5" font-family="Helvetica,sans-Serif" font-size="10.00">str</text>
<text text-anchor="start" x="184" y="-248.5" font-family="Helvetica,sans-Serif" font-size="10.00"> </text>
<text text-anchor="start" x="184" y="-233.5" font-family="Helvetica,sans-Serif" font-size="10.00"> </text>
<polygon fill="#666666" stroke="#666666" points="174.5,-258.5 174.5,-258.5 197.5,-258.5 197.5,-258.5 174.5,-258.5"/>
<polygon fill="#666666" stroke="#666666" points="174.5,-243.5 174.5,-243.5 197.5,-243.5 197.5,-243.5 174.5,-243.5"/>
<polygon fill="none" stroke="#666666" points="174,-227 174,-276 197,-276 197,-227 174,-227"/>
</a>
</g>
</g>
<!-- Node4&#45;&gt;Node2 -->
<g id="edge3_Node000002_Node000004" class="edge">
<title>Node4&#45;&gt;Node2</title>
<g id="a_edge3_Node000002_Node000004"><a xlink:title=" ">
<path fill="none" stroke="#63b8ff" d="M185.5,-226.92C185.5,-216.85 185.5,-204.6 185.5,-192.35"/>
<polygon fill="none" stroke="#63b8ff" points="185.5,-192.17 181.5,-186.17 185.5,-180.17 189.5,-186.17 185.5,-192.17"/>
</a>
</g>
<text text-anchor="middle" x="212.5" y="-201" font-family="Helvetica,sans-Serif" font-size="10.00" fill="grey"> +currency</text>
</g>
</g>
</svg>
