<?xml version="1.0" encoding="UTF-8" standalone="no"?>
<!DOCTYPE svg PUBLIC "-//W3C//DTD SVG 1.1//EN"
 "http://www.w3.org/Graphics/SVG/1.1/DTD/svg11.dtd">
<!-- Generated by graphviz version 2.43.0 (0)
 -->
<!-- Title: api.main.AssetResponse Pages: 1 -->
<svg width="351pt" height="153pt"
 viewBox="0.00 0.00 350.50 153.00" xmlns="http://www.w3.org/2000/svg" xmlns:xlink="http://www.w3.org/1999/xlink">
<g id="graph0" class="graph" transform="scale(1 1) rotate(0) translate(4 149)">
<title>api.main.AssetResponse</title>
<!-- Node1 -->
<g id="Node000001" class="node">
<title>Node1</title>
<g id="a_Node000001"><a xlink:title=" ">
<polygon fill="#999999" stroke="transparent" points="221,-49 90,-49 90,0 221,0 221,-49"/>
<text text-anchor="start" x="95.5" y="-36.5" font-family="Helvetica,sans-Serif" font-size="10.00">api.main.AssetResponse</text>
<text text-anchor="start" x="154" y="-21.5" font-family="Helvetica,sans-Serif" font-size="10.00"> </text>
<text text-anchor="start" x="154" y="-6.5" font-family="Helvetica,sans-Serif" font-size="10.00"> </text>
<polygon fill="#666666" stroke="#666666" points="90.5,-31.5 90.5,-31.5 221.5,-31.5 221.5,-31.5 90.5,-31.5"/>
<polygon fill="#666666" stroke="#666666" points="90.5,-16.5 90.5,-16.5 221.5,-16.5 221.5,-16.5 90.5,-16.5"/>
<polygon fill="none" stroke="#666666" points="90,0 90,-49 221,-49 221,0 90,0"/>
</a>
</g>
</g>
<!-- Node2 -->
<g id="Node000002" class="node">
<title>Node2</title>
<g id="a_Node000002"><a xlink:href="classBaseModel.html" target="_top" xlink:title=" ">
<polygon fill="white" stroke="transparent" points="65,-145 0,-145 0,-96 65,-96 65,-145"/>
<text text-anchor="start" x="5.5" y="-132.5" font-family="Helvetica,sans-Serif" font-size="10.00">BaseModel</text>
<text text-anchor="start" x="31" y="-117.5" font-family="Helvetica,sans-Serif" font-size="10.00"> </text>
<text text-anchor="start" x="31" y="-102.5" font-family="Helvetica,sans-Serif" font-size="10.00"> </text>
<polygon fill="#666666" stroke="#666666" points="0.5,-127.5 0.5,-127.5 65.5,-127.5 65.5,-127.5 0.5,-127.5"/>
<polygon fill="#666666" stroke="#666666" points="0.5,-112.5 0.5,-112.5 65.5,-112.5 65.5,-112.5 0.5,-112.5"/>
<polygon fill="none" stroke="#666666" points="0,-96 0,-145 65,-145 65,-96 0,-96"/>
</a>
</g>
</g>
<!-- Node2&#45;&gt;Node1 -->
<g id="edge1_Node000001_Node000002" class="edge">
<title>Node2&#45;&gt;Node1</title>
<g id="a_edge1_Node000001_Node000002"><a xlink:title=" ">
<path fill="none" stroke="#63b8ff" d="M71.67,-89.56C88.73,-76.52 108.45,-61.46 124.47,-49.21"/>
<polygon fill="none" stroke="#63b8ff" points="69.36,-86.93 63.54,-95.78 73.61,-92.49 69.36,-86.93"/>
</a>
</g>
</g>
<!-- Node3 -->
<g id="Node000003" class="node">
<title>Node3</title>
<g id="a_Node000003"><a xlink:title=" ">
<polygon fill="white" stroke="transparent" points="135.5,-145 83.5,-145 83.5,-96 135.5,-96 135.5,-145"/>
<text text-anchor="start" x="88.5" y="-132.5" font-family="Helvetica,sans-Serif" font-size="10.00">Optional</text>
<text text-anchor="start" x="107.5" y="-117.5" font-family="Helvetica,sans-Serif" font-size="10.00"> </text>
<text text-anchor="start" x="107.5" y="-102.5" font-family="Helvetica,sans-Serif" font-size="10.00"> </text>
<polygon fill="#666666" stroke="#666666" points="83.5,-127.5 83.5,-127.5 135.5,-127.5 135.5,-127.5 83.5,-127.5"/>
<polygon fill="#666666" stroke="#666666" points="83.5,-112.5 83.5,-112.5 135.5,-112.5 135.5,-112.5 83.5,-112.5"/>
<polygon fill="none" stroke="#666666" points="83.5,-96 83.5,-145 135.5,-145 135.5,-96 83.5,-96"/>
</a>
</g>
</g>
<!-- Node3&#45;&gt;Node1 -->
<g id="edge2_Node000001_Node000003" class="edge">
<title>Node3&#45;&gt;Node1</title>
<g id="a_edge2_Node000001_Node000003"><a xlink:title=" ">
<path fill="none" stroke="#63b8ff" d="M106.06,-95.89C105.67,-86.53 106.5,-75.9 110.5,-67 111.84,-64.01 113.51,-61.14 115.42,-58.41"/>
<polygon fill="none" stroke="#63b8ff" points="115.47,-58.34 116.22,-51.17 123.13,-49.11 122.38,-56.28 115.47,-58.34"/>
</a>
</g>
<text text-anchor="middle" x="145" y="-70" font-family="Helvetica,sans-Serif" font-size="10.00" fill="grey"> +market_cap</text>
</g>
<!-- Node4 -->
<g id="Node000004" class="node">
<title>Node4</title>
<g id="a_Node000004"><a xlink:title=" ">
<polygon fill="white" stroke="transparent" points="213,-145 190,-145 190,-96 213,-96 213,-145"/>
<text text-anchor="start" x="195.5" y="-132.5" font-family="Helvetica,sans-Serif" font-size="10.00">str</text>
<text text-anchor="start" x="200" y="-117.5" font-family="Helvetica,sans-Serif" font-size="10.00"> </text>
<text text-anchor="start" x="200" y="-102.5" font-family="Helvetica,sans-Serif" font-size="10.00"> </text>
<polygon fill="#666666" stroke="#666666" points="190.5,-127.5 190.5,-127.5 213.5,-127.5 213.5,-127.5 190.5,-127.5"/>
<polygon fill="#666666" stroke="#666666" points="190.5,-112.5 190.5,-112.5 213.5,-112.5 213.5,-112.5 190.5,-112.5"/>
<polygon fill="none" stroke="#666666" points="190,-96 190,-145 213,-145 213,-96 190,-96"/>
</a>
</g>
</g>
<!-- Node4&#45;&gt;Node1 -->
<g id="edge3_Node000001_Node000004" class="edge">
<title>Node4&#45;&gt;Node1</title>
<g id="a_edge3_Node000001_Node000004"><a xlink:title=" ">
<path fill="none" stroke="#63b8ff" d="M192.38,-95.95C188.64,-86.8 184.11,-76.3 179.5,-67 178.37,-64.73 177.17,-62.41 175.94,-60.09"/>
<polygon fill="none" stroke="#63b8ff" points="175.81,-59.85 169.4,-56.54 169.99,-49.36 176.4,-52.66 175.81,-59.85"/>
</a>
</g>
<text text-anchor="middle" x="210.5" y="-70" font-family="Helvetica,sans-Serif" font-size="10.00" fill="grey"> +currency</text>
</g>
<!-- Node5 -->
<g id="Node000005" class="node">
<title>Node5</title>
<g id="a_Node000005"><a xlink:title=" ">
<polygon fill="white" stroke="transparent" points="293,-145 264,-145 264,-96 293,-96 293,-145"/>
<text text-anchor="start" x="269.5" y="-132.5" font-family="Helvetica,sans-Serif" font-size="10.00">dict</text>
<text text-anchor="start" x="277" y="-117.5" font-family="Helvetica,sans-Serif" font-size="10.00"> </text>
<text text-anchor="start" x="277" y="-102.5" font-family="Helvetica,sans-Serif" font-size="10.00"> </text>
<polygon fill="#666666" stroke="#666666" points="264.5,-127.5 264.5,-127.5 293.5,-127.5 293.5,-127.5 264.5,-127.5"/>
<polygon fill="#666666" stroke="#666666" points="264.5,-112.5 264.5,-112.5 293.5,-112.5 293.5,-112.5 264.5,-112.5"/>
<polygon fill="none" stroke="#666666" points="264,-96 264,-145 293,-145 293,-96 264,-96"/>
</a>
</g>
</g>
<!-- Node5&#45;&gt;Node1 -->
<g id="edge4_Node000001_Node000005" class="edge">
<title>Node5&#45;&gt;Node1</title>
<g id="a_edge4_Node000001_Node000005"><a xlink:title=" ">
<path fill="none" stroke="#63b8ff" d="M265.42,-95.75C259.15,-85.94 250.94,-75 241.5,-67 236.52,-62.78 231.04,-58.87 225.33,-55.29"/>
<polygon fill="none" stroke="#63b8ff" points="225.22,-55.23 218.02,-55.66 214.85,-49.18 222.05,-48.75 225.22,-55.23"/>
</a>
</g>
<text text-anchor="middle" x="296.5" y="-70" font-family="Helvetica,sans-Serif" font-size="10.00" fill="grey"> +additional_fields</text>
</g>
</g>
</svg>
