<?xml version="1.0" encoding="UTF-8" standalone="no"?>
<!DOCTYPE svg PUBLIC "-//W3C//DTD SVG 1.1//EN"
 "http://www.w3.org/Graphics/SVG/1.1/DTD/svg11.dtd">
<!-- Generated by graphviz version 2.43.0 (0)
 -->
<!-- Title: db_models.RegulatoryEventAssetORM Pages: 1 -->
<svg width="327pt" height="208pt"
 viewBox="0.00 0.00 326.50 208.00" xmlns="http://www.w3.org/2000/svg" xmlns:xlink="http://www.w3.org/1999/xlink">

<svg id="main" version="1.1" xmlns="http://www.w3.org/2000/svg" xmlns:xlink="http://www.w3.org/1999/xlink" xml:space="preserve">

<style type="text/css"><![CDATA[
.node, .edge {opacity: 0.7;}
.node.selected, .edge.selected {opacity: 1;}
.edge:hover path { stroke: red; }
.edge:hover polygon { stroke: red; fill: red; }
]]></style>
<script type="application/ecmascript" xlink:href="svg.min.js"/>
<svg id="graph" class="graph">
<g id="graph0" class="graph" transform="scale(1 1) rotate(0) translate(4 204)">
<title>db_models.RegulatoryEventAssetORM</title>
<!-- Node1 -->
<g id="Node000001" class="node">
<title>Node1</title>
<g id="a_Node000001"><a xlink:title=" ">
<polygon fill="#999999" stroke="transparent" points="190.5,-60 42.5,-60 42.5,0 190.5,0 190.5,-60"/>
<text text-anchor="start" x="47.5" y="-48" font-family="Helvetica,sans-Serif" font-size="10.00">db_models.RegulatoryEvent</text>
<text text-anchor="start" x="91" y="-37" font-family="Helvetica,sans-Serif" font-size="10.00">AssetORM</text>
<text text-anchor="start" x="114.5" y="-22" font-family="Helvetica,sans-Serif" font-size="10.00"> </text>
<text text-anchor="start" x="114.5" y="-7" font-family="Helvetica,sans-Serif" font-size="10.00"> </text>
<polygon fill="#666666" stroke="#666666" points="42.5,-32 42.5,-32 190.5,-32 190.5,-32 42.5,-32"/>
<polygon fill="#666666" stroke="#666666" points="42.5,-17 42.5,-17 190.5,-17 190.5,-17 42.5,-17"/>
<polygon fill="none" stroke="#666666" points="42.5,0 42.5,-60 190.5,-60 190.5,0 42.5,0"/>
</a>
</g>
</g>
<!-- Node2 -->
<g id="Node000002" class="node">
<title>Node2</title>
<g id="a_Node000002"><a xlink:href="classBase.html" target="_top" xlink:title=" ">
<polygon fill="white" stroke="transparent" points="35,-200 0,-200 0,-151 35,-151 35,-200"/>
<text text-anchor="start" x="5.5" y="-187.5" font-family="Helvetica,sans-Serif" font-size="10.00">Base</text>
<text text-anchor="start" x="16" y="-172.5" font-family="Helvetica,sans-Serif" font-size="10.00"> </text>
<text text-anchor="start" x="16" y="-157.5" font-family="Helvetica,sans-Serif" font-size="10.00"> </text>
<polygon fill="#666666" stroke="#666666" points="0.5,-182.5 0.5,-182.5 35.5,-182.5 35.5,-182.5 0.5,-182.5"/>
<polygon fill="#666666" stroke="#666666" points="0.5,-167.5 0.5,-167.5 35.5,-167.5 35.5,-167.5 0.5,-167.5"/>
<polygon fill="none" stroke="#666666" points="0,-151 0,-200 35,-200 35,-151 0,-151"/>
</a>
</g>
</g>
<!-- Node2&#45;&gt;Node1 -->
<g id="edge1_Node000001_Node000002" class="edge">
<title>Node2&#45;&gt;Node1</title>
<g id="a_edge1_Node000001_Node000002"><a xlink:title=" ">
<path fill="none" stroke="#63b8ff" d="M24.91,-141.03C30.45,-121.3 39.52,-96.64 53.5,-78 58.33,-71.56 64.28,-65.59 70.58,-60.22"/>
<polygon fill="none" stroke="#63b8ff" points="21.48,-140.27 22.32,-150.84 28.25,-142.06 21.48,-140.27"/>
</a>
</g>
</g>
<!-- Node3 -->
<g id="Node000003" class="node">
<title>Node3</title>
<g id="a_Node000003"><a xlink:title=" ">
<polygon fill="white" stroke="transparent" points="76,-200 53,-200 53,-151 76,-151 76,-200"/>
<text text-anchor="start" x="58.5" y="-187.5" font-family="Helvetica,sans-Serif" font-size="10.00">str</text>
<text text-anchor="start" x="63" y="-172.5" font-family="Helvetica,sans-Serif" font-size="10.00"> </text>
<text text-anchor="start" x="63" y="-157.5" font-family="Helvetica,sans-Serif" font-size="10.00"> </text>
<polygon fill="#666666" stroke="#666666" points="53.5,-182.5 53.5,-182.5 76.5,-182.5 76.5,-182.5 53.5,-182.5"/>
<polygon fill="#666666" stroke="#666666" points="53.5,-167.5 53.5,-167.5 76.5,-167.5 76.5,-167.5 53.5,-167.5"/>
<polygon fill="none" stroke="#666666" points="53,-151 53,-200 76,-200 76,-151 53,-151"/>
</a>
</g>
</g>
<!-- Node3&#45;&gt;Node1 -->
<g id="edge2_Node000001_Node000003" class="edge">
<title>Node3&#45;&gt;Node1</title>
<g id="a_edge2_Node000001_Node000003"><a xlink:title=" ">
<path fill="none" stroke="#63b8ff" d="M59.68,-150.78C56.72,-130.54 55.22,-101.12 65.5,-78 66.76,-75.16 68.29,-72.41 70.01,-69.77"/>
<polygon fill="none" stroke="#63b8ff" points="70.14,-69.61 70.66,-62.41 77.5,-60.13 76.98,-67.32 70.14,-69.61"/>
</a>
</g>
<text text-anchor="middle" x="106" y="-103" font-family="Helvetica,sans-Serif" font-size="10.00" fill="grey"> &#45;__tablename__</text>
</g>
<!-- Node4 -->
<g id="Node000004" class="node">
<title>Node4</title>
<g id="a_Node000004"><a xlink:title=" ">
<polygon fill="white" stroke="transparent" points="186,-200 151,-200 151,-151 186,-151 186,-200"/>
<text text-anchor="start" x="156.5" y="-187.5" font-family="Helvetica,sans-Serif" font-size="10.00">tuple</text>
<text text-anchor="start" x="167" y="-172.5" font-family="Helvetica,sans-Serif" font-size="10.00"> </text>
<text text-anchor="start" x="167" y="-157.5" font-family="Helvetica,sans-Serif" font-size="10.00"> </text>
<polygon fill="#666666" stroke="#666666" points="151.5,-182.5 151.5,-182.5 186.5,-182.5 186.5,-182.5 151.5,-182.5"/>
<polygon fill="#666666" stroke="#666666" points="151.5,-167.5 151.5,-167.5 186.5,-167.5 186.5,-167.5 151.5,-167.5"/>
<polygon fill="none" stroke="#666666" points="151,-151 151,-200 186,-200 186,-151 151,-151"/>
</a>
</g>
</g>
<!-- Node4&#45;&gt;Node1 -->
<g id="edge3_Node000001_Node000004" class="edge">
<title>Node4&#45;&gt;Node1</title>
<g id="a_edge3_Node000001_Node000004"><a xlink:title=" ">
<path fill="none" stroke="#63b8ff" d="M165.42,-150.8C162.29,-130.82 156.45,-101.78 146.5,-78 145.52,-75.66 144.43,-73.31 143.26,-70.98"/>
<polygon fill="none" stroke="#63b8ff" points="143.13,-70.74 136.73,-67.43 137.32,-60.24 143.72,-63.56 143.13,-70.74"/>
</a>
</g>
<text text-anchor="middle" x="201" y="-103" font-family="Helvetica,sans-Serif" font-size="10.00" fill="grey"> &#45;__table_args__</text>
</g>
<!-- Node5 -->
<g id="Node000005" class="node">
<title>Node5</title>
<g id="a_Node000005"><a xlink:title=" ">
<polygon fill="white" stroke="transparent" points="295.5,-200 245.5,-200 245.5,-151 295.5,-151 295.5,-200"/>
<text text-anchor="start" x="250.5" y="-187.5" font-family="Helvetica,sans-Serif" font-size="10.00">Mapped</text>
<text text-anchor="start" x="268.5" y="-172.5" font-family="Helvetica,sans-Serif" font-size="10.00"> </text>
<text text-anchor="start" x="268.5" y="-157.5" font-family="Helvetica,sans-Serif" font-size="10.00"> </text>
<polygon fill="#666666" stroke="#666666" points="245.5,-182.5 245.5,-182.5 295.5,-182.5 295.5,-182.5 245.5,-182.5"/>
<polygon fill="#666666" stroke="#666666" points="245.5,-167.5 245.5,-167.5 295.5,-167.5 295.5,-167.5 245.5,-167.5"/>
<polygon fill="none" stroke="#666666" points="245.5,-151 245.5,-200 295.5,-200 295.5,-151 245.5,-151"/>
</a>
</g>
</g>
<!-- Node5&#45;&gt;Node1 -->
<g id="edge4_Node000001_Node000005" class="edge">
<title>Node5&#45;&gt;Node1</title>
<g id="a_edge4_Node000001_Node000005"><a xlink:title=" ">
<path fill="none" stroke="#63b8ff" d="M270.06,-150.97C268.43,-129.44 262.77,-97.97 244.5,-78 233.06,-65.49 218,-56.3 202.24,-49.56"/>
<polygon fill="none" stroke="#63b8ff" points="201.87,-49.41 194.83,-50.97 190.69,-45.06 197.73,-43.51 201.87,-49.41"/>
</a>
</g>
<text text-anchor="middle" x="293" y="-125" font-family="Helvetica,sans-Serif" font-size="10.00" fill="grey"> +asset</text>
<text text-anchor="middle" x="293" y="-114" font-family="Helvetica,sans-Serif" font-size="10.00" fill="grey">+asset_id</text>
<text text-anchor="middle" x="293" y="-103" font-family="Helvetica,sans-Serif" font-size="10.00" fill="grey">+event</text>
<text text-anchor="middle" x="293" y="-92" font-family="Helvetica,sans-Serif" font-size="10.00" fill="grey">+event_id</text>
<text text-anchor="middle" x="293" y="-81" font-family="Helvetica,sans-Serif" font-size="10.00" fill="grey">+id</text>
</g>
</g>
</svg>
</svg>

<style type='text/css'>
<![CDATA[
[data-mouse-over-selected='false'] { opacity: 0.7; }
[data-mouse-over-selected='true']  { opacity: 1.0; }
]]>
</style>
<script type="application/ecmascript"><![CDATA[
document.addEventListener('DOMContentLoaded', (event) => {
  highlightEdges();
  highlightAdjacentNodes();
});
]]></script>
</svg>
