<?xml version="1.0" encoding="UTF-8" standalone="no"?>
<!DOCTYPE svg PUBLIC "-//W3C//DTD SVG 1.1//EN"
 "http://www.w3.org/Graphics/SVG/1.1/DTD/svg11.dtd">
<!-- Generated by graphviz version 2.43.0 (0)
 -->
<!-- Title: analysis.formulaic_analysis.FormulaicdAnalyzer._categorize_formulas Pages: 1 -->
<svg width="644pt" height="74pt"
 viewBox="0.00 0.00 644.00 74.00" xmlns="http://www.w3.org/2000/svg" xmlns:xlink="http://www.w3.org/1999/xlink">
<g id="graph0" class="graph" transform="scale(1 1) rotate(0) translate(4 70)">
<title>analysis.formulaic_analysis.FormulaicdAnalyzer._categorize_formulas</title>
<!-- Node1 -->
<g id="Node000001" class="node">
<title>Node1</title>
<g id="a_Node000001"><a xlink:title=" ">
<polygon fill="#999999" stroke="#666666" points="636,-41 472,-41 472,0 636,0 636,-41"/>
<text text-anchor="start" x="480" y="-29" font-family="Helvetica,sans-Serif" font-size="10.00">analysis.formulaic</text>
<text text-anchor="start" x="480" y="-18" font-family="Helvetica,sans-Serif" font-size="10.00">_analysis.FormulaicdAnalyzer.</text>
<text text-anchor="middle" x="554" y="-7" font-family="Helvetica,sans-Serif" font-size="10.00">_categorize_formulas</text>
</a>
</g>
</g>
<!-- Node2 -->
<g id="Node000002" class="node">
<title>Node2</title>
<g id="a_Node000002"><a xlink:href="classanalysis_1_1formulaic__analysis_1_1FormulaicdAnalyzer.html#a6cb6ab251c316c496fe27567dcbfc6b1" target="_top" xlink:title=" ">
<polygon fill="white" stroke="#666666" points="436,-66 272,-66 272,-25 436,-25 436,-66"/>
<text text-anchor="start" x="280" y="-54" font-family="Helvetica,sans-Serif" font-size="10.00">analysis.formulaic</text>
<text text-anchor="start" x="280" y="-43" font-family="Helvetica,sans-Serif" font-size="10.00">_analysis.FormulaicdAnalyzer.</text>
<text text-anchor="middle" x="354" y="-32" font-family="Helvetica,sans-Serif" font-size="10.00">_generate_formula_summary</text>
</a>
</g>
</g>
<!-- Node1&#45;&gt;Node2 -->
<g id="edge1_Node000001_Node000002" class="edge">
<title>Node1&#45;&gt;Node2</title>
<g id="a_edge1_Node000001_Node000002"><a xlink:title=" ">
<path fill="none" stroke="#63b8ff" d="M461.92,-32C453.37,-33.08 444.75,-34.17 436.3,-35.23"/>
<polygon fill="#63b8ff" stroke="#63b8ff" points="462.41,-35.47 471.89,-30.74 461.53,-28.52 462.41,-35.47"/>
</a>
</g>
</g>
<!-- Node3 -->
<g id="Node000003" class="node">
<title>Node3</title>
<g id="a_Node000003"><a xlink:href="classanalysis_1_1formulaic__analysis_1_1FormulaicdAnalyzer.html#a7b253376748fdef292484fcd0bd8a971" target="_top" xlink:title=" ">
<polygon fill="white" stroke="#666666" points="236,-35.5 0,-35.5 0,-5.5 236,-5.5 236,-35.5"/>
<text text-anchor="start" x="8" y="-23.5" font-family="Helvetica,sans-Serif" font-size="10.00">analysis.formulaic</text>
<text text-anchor="middle" x="118" y="-12.5" font-family="Helvetica,sans-Serif" font-size="10.00">_analysis.FormulaicdAnalyzer.analyze_graph</text>
</a>
</g>
</g>
<!-- Node1&#45;&gt;Node3 -->
<g id="edge3_Node000001_Node000003" class="edge">
<title>Node1&#45;&gt;Node3</title>
<g id="a_edge3_Node000001_Node000003"><a xlink:title=" ">
<path fill="none" stroke="#63b8ff" d="M461.65,-17.08C452.98,-16.84 444.33,-16.64 436,-16.5 363.12,-15.25 344.88,-15.55 272,-16.5 260.44,-16.65 248.39,-16.87 236.36,-17.12"/>
<polygon fill="#63b8ff" stroke="#63b8ff" points="461.72,-20.58 471.82,-17.37 461.92,-13.58 461.72,-20.58"/>
</a>
</g>
</g>
<!-- Node2&#45;&gt;Node3 -->
<g id="edge2_Node000002_Node000003" class="edge">
<title>Node2&#45;&gt;Node3</title>
<g id="a_edge2_Node000002_Node000003"><a xlink:title=" ">
<path fill="none" stroke="#63b8ff" d="M261.74,-35.75C253.4,-34.86 244.87,-33.95 236.34,-33.04"/>
<polygon fill="#63b8ff" stroke="#63b8ff" points="261.5,-39.24 271.81,-36.83 262.24,-32.28 261.5,-39.24"/>
</a>
</g>
</g>
</g>
</svg>
