<?xml version="1.0" encoding="UTF-8" standalone="no"?>
<!DOCTYPE svg PUBLIC "-//W3C//DTD SVG 1.1//EN"
 "http://www.w3.org/Graphics/SVG/1.1/DTD/svg11.dtd">
<!-- Generated by graphviz version 2.43.0 (0)
 -->
<!-- Title: db_models.AssetORM Pages: 1 -->
<svg width="273pt" height="413pt"
 viewBox="0.00 0.00 272.50 413.00" xmlns="http://www.w3.org/2000/svg" xmlns:xlink="http://www.w3.org/1999/xlink">
<g id="graph0" class="graph" transform="scale(1 1) rotate(0) translate(4 409)">
<title>db_models.AssetORM</title>
<!-- Node1 -->
<g id="Node000001" class="node">
<title>Node1</title>
<g id="a_Node000001"><a xlink:title=" ">
<polygon fill="#999999" stroke="transparent" points="123,-199 6,-199 6,0 123,0 123,-199"/>
<text text-anchor="start" x="11.5" y="-186.5" font-family="Helvetica,sans-Serif" font-size="10.00">db_models.AssetORM</text>
<text text-anchor="start" x="10.5" y="-171.5" font-family="Helvetica,sans-Serif" font-size="10.00">+</text>
<text text-anchor="start" x="23.5" y="-171.5" font-family="Helvetica,sans-Serif" font-size="10.00">id</text>
<text text-anchor="start" x="10.5" y="-156.5" font-family="Helvetica,sans-Serif" font-size="10.00">+</text>
<text text-anchor="start" x="23.5" y="-156.5" font-family="Helvetica,sans-Serif" font-size="10.00">symbol</text>
<text text-anchor="start" x="10.5" y="-141.5" font-family="Helvetica,sans-Serif" font-size="10.00">+</text>
<text text-anchor="start" x="23.5" y="-141.5" font-family="Helvetica,sans-Serif" font-size="10.00">name</text>
<text text-anchor="start" x="10.5" y="-126.5" font-family="Helvetica,sans-Serif" font-size="10.00">+</text>
<text text-anchor="start" x="23.5" y="-126.5" font-family="Helvetica,sans-Serif" font-size="10.00">sector</text>
<text text-anchor="start" x="10.5" y="-111.5" font-family="Helvetica,sans-Serif" font-size="10.00">+</text>
<text text-anchor="start" x="23.5" y="-111.5" font-family="Helvetica,sans-Serif" font-size="10.00">price</text>
<text text-anchor="start" x="10.5" y="-96.5" font-family="Helvetica,sans-Serif" font-size="10.00">+</text>
<text text-anchor="start" x="23.5" y="-96.5" font-family="Helvetica,sans-Serif" font-size="10.00">market_cap</text>
<text text-anchor="start" x="10.5" y="-81.5" font-family="Helvetica,sans-Serif" font-size="10.00">+</text>
<text text-anchor="start" x="23.5" y="-81.5" font-family="Helvetica,sans-Serif" font-size="10.00">pe_ratio</text>
<text text-anchor="start" x="10.5" y="-66.5" font-family="Helvetica,sans-Serif" font-size="10.00">+</text>
<text text-anchor="start" x="23.5" y="-66.5" font-family="Helvetica,sans-Serif" font-size="10.00">earnings_per_share</text>
<text text-anchor="start" x="10.5" y="-51.5" font-family="Helvetica,sans-Serif" font-size="10.00">+</text>
<text text-anchor="start" x="23.5" y="-51.5" font-family="Helvetica,sans-Serif" font-size="10.00">yield_to_maturity</text>
<text text-anchor="start" x="10.5" y="-36.5" font-family="Helvetica,sans-Serif" font-size="10.00">+</text>
<text text-anchor="start" x="23.5" y="-36.5" font-family="Helvetica,sans-Serif" font-size="10.00">maturity_date</text>
<text text-anchor="start" x="23.5" y="-21.5" font-family="Helvetica,sans-Serif" font-size="10.00">and 6 more...</text>
<text text-anchor="start" x="63" y="-6.5" font-family="Helvetica,sans-Serif" font-size="10.00"> </text>
<polygon fill="#666666" stroke="#666666" points="6.5,-181.5 6.5,-181.5 123.5,-181.5 123.5,-181.5 6.5,-181.5"/>
<polygon fill="#666666" stroke="#666666" points="6.5,-16.5 6.5,-16.5 21.5,-16.5 21.5,-16.5 6.5,-16.5"/>
<polygon fill="#666666" stroke="#666666" points="21.5,-16.5 21.5,-16.5 123.5,-16.5 123.5,-16.5 21.5,-16.5"/>
<polygon fill="none" stroke="#666666" points="6,0 6,-199 123,-199 123,0 6,0"/>
</a>
</g>
</g>
<!-- Node2 -->
<g id="Node000002" class="node">
<title>Node2</title>
<g id="a_Node000002"><a xlink:href="classBase.html" target="_top" xlink:title=" ">
<polygon fill="white" stroke="transparent" points="35,-405 0,-405 0,-356 35,-356 35,-405"/>
<text text-anchor="start" x="5.5" y="-392.5" font-family="Helvetica,sans-Serif" font-size="10.00">Base</text>
<text text-anchor="start" x="16" y="-377.5" font-family="Helvetica,sans-Serif" font-size="10.00"> </text>
<text text-anchor="start" x="16" y="-362.5" font-family="Helvetica,sans-Serif" font-size="10.00"> </text>
<polygon fill="#666666" stroke="#666666" points="0.5,-387.5 0.5,-387.5 35.5,-387.5 35.5,-387.5 0.5,-387.5"/>
<polygon fill="#666666" stroke="#666666" points="0.5,-372.5 0.5,-372.5 35.5,-372.5 35.5,-372.5 0.5,-372.5"/>
<polygon fill="none" stroke="#666666" points="0,-356 0,-405 35,-405 35,-356 0,-356"/>
</a>
</g>
</g>
<!-- Node2&#45;&gt;Node1 -->
<g id="edge1_Node000001_Node000002" class="edge">
<title>Node2&#45;&gt;Node1</title>
<g id="a_edge1_Node000001_Node000002"><a xlink:title=" ">
<path fill="none" stroke="#63b8ff" d="M23.19,-345.69C29.29,-309.5 39.25,-250.37 47.86,-199.25"/>
<polygon fill="none" stroke="#63b8ff" points="19.72,-345.27 21.51,-355.71 26.62,-346.43 19.72,-345.27"/>
</a>
</g>
</g>
<!-- Node3 -->
<g id="Node000003" class="node">
<title>Node3</title>
<g id="a_Node000003"><a xlink:title=" ">
<polygon fill="white" stroke="transparent" points="76,-405 53,-405 53,-356 76,-356 76,-405"/>
<text text-anchor="start" x="58.5" y="-392.5" font-family="Helvetica,sans-Serif" font-size="10.00">str</text>
<text text-anchor="start" x="63" y="-377.5" font-family="Helvetica,sans-Serif" font-size="10.00"> </text>
<text text-anchor="start" x="63" y="-362.5" font-family="Helvetica,sans-Serif" font-size="10.00"> </text>
<polygon fill="#666666" stroke="#666666" points="53.5,-387.5 53.5,-387.5 76.5,-387.5 76.5,-387.5 53.5,-387.5"/>
<polygon fill="#666666" stroke="#666666" points="53.5,-372.5 53.5,-372.5 76.5,-372.5 76.5,-372.5 53.5,-372.5"/>
<polygon fill="none" stroke="#666666" points="53,-356 53,-405 76,-405 76,-356 53,-356"/>
</a>
</g>
</g>
<!-- Node3&#45;&gt;Node1 -->
<g id="edge2_Node000001_Node000003" class="edge">
<title>Node3&#45;&gt;Node1</title>
<g id="a_edge2_Node000001_Node000003"><a xlink:title=" ">
<path fill="none" stroke="#63b8ff" d="M64.5,-355.71C64.5,-323.74 64.5,-264.77 64.5,-211.56"/>
<polygon fill="none" stroke="#63b8ff" points="64.5,-211.25 60.5,-205.25 64.5,-199.25 68.5,-205.25 64.5,-211.25"/>
</a>
</g>
<text text-anchor="middle" x="105" y="-275" font-family="Helvetica,sans-Serif" font-size="10.00" fill="grey"> &#45;__tablename__</text>
</g>
<!-- Node4 -->
<g id="Node000004" class="node">
<title>Node4</title>
<g id="a_Node000004"><a xlink:title=" ">
<polygon fill="white" stroke="transparent" points="193.5,-405 143.5,-405 143.5,-356 193.5,-356 193.5,-405"/>
<text text-anchor="start" x="148.5" y="-392.5" font-family="Helvetica,sans-Serif" font-size="10.00">Mapped</text>
<text text-anchor="start" x="166.5" y="-377.5" font-family="Helvetica,sans-Serif" font-size="10.00"> </text>
<text text-anchor="start" x="166.5" y="-362.5" font-family="Helvetica,sans-Serif" font-size="10.00"> </text>
<polygon fill="#666666" stroke="#666666" points="143.5,-387.5 143.5,-387.5 193.5,-387.5 193.5,-387.5 143.5,-387.5"/>
<polygon fill="#666666" stroke="#666666" points="143.5,-372.5 143.5,-372.5 193.5,-372.5 193.5,-372.5 143.5,-372.5"/>
<polygon fill="none" stroke="#666666" points="143.5,-356 143.5,-405 193.5,-405 193.5,-356 143.5,-356"/>
</a>
</g>
</g>
<!-- Node4&#45;&gt;Node1 -->
<g id="edge3_Node000001_Node000004" class="edge">
<title>Node4&#45;&gt;Node1</title>
<g id="a_edge3_Node000001_Node000004"><a xlink:title=" ">
<path fill="none" stroke="#63b8ff" d="M168.76,-355.75C168.36,-323.3 164.85,-263.78 146.5,-217 141.98,-205.48 136.1,-194.02 129.56,-183.03"/>
<polygon fill="none" stroke="#63b8ff" points="129.44,-182.84 122.88,-179.86 123.11,-172.65 129.67,-175.64 129.44,-182.84"/>
</a>
</g>
<text text-anchor="middle" x="216" y="-330" font-family="Helvetica,sans-Serif" font-size="10.00" fill="grey"> +asset_class</text>
<text text-anchor="middle" x="216" y="-319" font-family="Helvetica,sans-Serif" font-size="10.00" fill="grey">+book_value</text>
<text text-anchor="middle" x="216" y="-308" font-family="Helvetica,sans-Serif" font-size="10.00" fill="grey">+central_bank_rate</text>
<text text-anchor="middle" x="216" y="-297" font-family="Helvetica,sans-Serif" font-size="10.00" fill="grey">+contract_size</text>
<text text-anchor="middle" x="216" y="-286" font-family="Helvetica,sans-Serif" font-size="10.00" fill="grey">+country</text>
<text text-anchor="middle" x="216" y="-275" font-family="Helvetica,sans-Serif" font-size="10.00" fill="grey">+coupon_rate</text>
<text text-anchor="middle" x="216" y="-264" font-family="Helvetica,sans-Serif" font-size="10.00" fill="grey">+credit_rating</text>
<text text-anchor="middle" x="216" y="-253" font-family="Helvetica,sans-Serif" font-size="10.00" fill="grey">+currency</text>
<text text-anchor="middle" x="216" y="-242" font-family="Helvetica,sans-Serif" font-size="10.00" fill="grey">+delivery_date</text>
<text text-anchor="middle" x="216" y="-231" font-family="Helvetica,sans-Serif" font-size="10.00" fill="grey">+dividend_yield</text>
<text text-anchor="middle" x="216" y="-220" font-family="Helvetica,sans-Serif" font-size="10.00" fill="grey">...</text>
</g>
</g>
</svg>
