<?xml version="1.0" encoding="UTF-8" standalone="no"?>
<!DOCTYPE svg PUBLIC "-//W3C//DTD SVG 1.1//EN"
 "http://www.w3.org/Graphics/SVG/1.1/DTD/svg11.dtd">
<!-- Generated by graphviz version 2.43.0 (0)
 -->
<!-- Title: financial_models.AssetClass Pages: 1 -->
<svg width="182pt" height="197pt"
 viewBox="0.00 0.00 181.50 197.00" xmlns="http://www.w3.org/2000/svg" xmlns:xlink="http://www.w3.org/1999/xlink">

<svg id="main" version="1.1" xmlns="http://www.w3.org/2000/svg" xmlns:xlink="http://www.w3.org/1999/xlink" xml:space="preserve">

<style type="text/css"><![CDATA[
.node, .edge {opacity: 0.7;}
.node.selected, .edge.selected {opacity: 1;}
.edge:hover path { stroke: red; }
.edge:hover polygon { stroke: red; fill: red; }
]]></style>
<script type="application/ecmascript" xlink:href="svg.min.js"/>
<svg id="graph" class="graph">
<g id="graph0" class="graph" transform="scale(1 1) rotate(0) translate(4 193)">
<title>financial_models.AssetClass</title>
<!-- Node1 -->
<g id="Node000001" class="node">
<title>Node1</title>
<g id="a_Node000001"><a xlink:title=" ">
<polygon fill="#999999" stroke="transparent" points="149,-49 0,-49 0,0 149,0 149,-49"/>
<text text-anchor="start" x="5.5" y="-36.5" font-family="Helvetica,sans-Serif" font-size="10.00">financial_models.AssetClass</text>
<text text-anchor="start" x="73" y="-21.5" font-family="Helvetica,sans-Serif" font-size="10.00"> </text>
<text text-anchor="start" x="73" y="-6.5" font-family="Helvetica,sans-Serif" font-size="10.00"> </text>
<polygon fill="#666666" stroke="#666666" points="0.5,-31.5 0.5,-31.5 149.5,-31.5 149.5,-31.5 0.5,-31.5"/>
<polygon fill="#666666" stroke="#666666" points="0.5,-16.5 0.5,-16.5 149.5,-16.5 149.5,-16.5 0.5,-16.5"/>
<polygon fill="none" stroke="#666666" points="0,0 0,-49 149,-49 149,0 0,0"/>
</a>
</g>
</g>
<!-- Node2 -->
<g id="Node000002" class="node">
<title>Node2</title>
<g id="a_Node000002"><a xlink:href="classEnum.html" target="_top" xlink:title=" ">
<polygon fill="white" stroke="transparent" points="69.5,-189 31.5,-189 31.5,-140 69.5,-140 69.5,-189"/>
<text text-anchor="start" x="36.5" y="-176.5" font-family="Helvetica,sans-Serif" font-size="10.00">Enum</text>
<text text-anchor="start" x="48.5" y="-161.5" font-family="Helvetica,sans-Serif" font-size="10.00"> </text>
<text text-anchor="start" x="48.5" y="-146.5" font-family="Helvetica,sans-Serif" font-size="10.00"> </text>
<polygon fill="#666666" stroke="#666666" points="31.5,-171.5 31.5,-171.5 69.5,-171.5 69.5,-171.5 31.5,-171.5"/>
<polygon fill="#666666" stroke="#666666" points="31.5,-156.5 31.5,-156.5 69.5,-156.5 69.5,-156.5 31.5,-156.5"/>
<polygon fill="none" stroke="#666666" points="31.5,-140 31.5,-189 69.5,-189 69.5,-140 31.5,-140"/>
</a>
</g>
</g>
<!-- Node2&#45;&gt;Node1 -->
<g id="edge1_Node000001_Node000002" class="edge">
<title>Node2&#45;&gt;Node1</title>
<g id="a_edge1_Node000001_Node000002"><a xlink:title=" ">
<path fill="none" stroke="#63b8ff" d="M56.38,-129.67C60.71,-104.78 66.49,-71.54 70.35,-49.38"/>
<polygon fill="none" stroke="#63b8ff" points="52.89,-129.33 54.63,-139.78 59.79,-130.52 52.89,-129.33"/>
</a>
</g>
</g>
<!-- Node3 -->
<g id="Node000003" class="node">
<title>Node3</title>
<g id="a_Node000003"><a xlink:title=" ">
<polygon fill="white" stroke="transparent" points="111,-189 88,-189 88,-140 111,-140 111,-189"/>
<text text-anchor="start" x="93.5" y="-176.5" font-family="Helvetica,sans-Serif" font-size="10.00">str</text>
<text text-anchor="start" x="98" y="-161.5" font-family="Helvetica,sans-Serif" font-size="10.00"> </text>
<text text-anchor="start" x="98" y="-146.5" font-family="Helvetica,sans-Serif" font-size="10.00"> </text>
<polygon fill="#666666" stroke="#666666" points="88.5,-171.5 88.5,-171.5 111.5,-171.5 111.5,-171.5 88.5,-171.5"/>
<polygon fill="#666666" stroke="#666666" points="88.5,-156.5 88.5,-156.5 111.5,-156.5 111.5,-156.5 88.5,-156.5"/>
<polygon fill="none" stroke="#666666" points="88,-140 88,-189 111,-189 111,-140 88,-140"/>
</a>
</g>
</g>
<!-- Node3&#45;&gt;Node1 -->
<g id="edge2_Node000001_Node000003" class="edge">
<title>Node3&#45;&gt;Node1</title>
<g id="a_edge2_Node000001_Node000003"><a xlink:title=" ">
<path fill="none" stroke="#63b8ff" d="M95.2,-139.78C91.3,-118.25 85.5,-86.2 81.02,-61.52"/>
<polygon fill="none" stroke="#63b8ff" points="80.96,-61.18 75.96,-55.99 78.83,-49.38 83.83,-54.57 80.96,-61.18"/>
</a>
</g>
<text text-anchor="middle" x="132" y="-114" font-family="Helvetica,sans-Serif" font-size="10.00" fill="grey"> +COMMODITY</text>
<text text-anchor="middle" x="132" y="-103" font-family="Helvetica,sans-Serif" font-size="10.00" fill="grey">+CURRENCY</text>
<text text-anchor="middle" x="132" y="-92" font-family="Helvetica,sans-Serif" font-size="10.00" fill="grey">+DERIVATIVE</text>
<text text-anchor="middle" x="132" y="-81" font-family="Helvetica,sans-Serif" font-size="10.00" fill="grey">+EQUITY</text>
<text text-anchor="middle" x="132" y="-70" font-family="Helvetica,sans-Serif" font-size="10.00" fill="grey">+FIXED_INCOME</text>
</g>
</g>
</svg>
</svg>

<style type='text/css'>
<![CDATA[
[data-mouse-over-selected='false'] { opacity: 0.7; }
[data-mouse-over-selected='true']  { opacity: 1.0; }
]]>
</style>
<script type="application/ecmascript"><![CDATA[
document.addEventListener('DOMContentLoaded', (event) => {
  highlightEdges();
  highlightAdjacentNodes();
});
]]></script>
</svg>
