<?xml version="1.0" encoding="UTF-8" standalone="no"?>
<!DOCTYPE svg PUBLIC "-//W3C//DTD SVG 1.1//EN"
 "http://www.w3.org/Graphics/SVG/1.1/DTD/svg11.dtd">
<!-- Generated by graphviz version 2.43.0 (0)
 -->
<!-- Title: financial_models.Asset Pages: 1 -->
<svg width="604pt" height="277pt"
 viewBox="0.00 0.00 604.00 277.00" xmlns="http://www.w3.org/2000/svg" xmlns:xlink="http://www.w3.org/1999/xlink">
<g id="graph0" class="graph" transform="scale(1 1) rotate(0) translate(4 273)">
<title>financial_models.Asset</title>
<!-- Node1 -->
<g id="Node000001" class="node">
<title>Node1</title>
<g id="a_Node000001"><a xlink:title=" ">
<polygon fill="#999999" stroke="transparent" points="359,-269 236,-269 236,-145 359,-145 359,-269"/>
<text text-anchor="start" x="241.5" y="-257" font-family="Helvetica,sans-Serif" font-size="10.00">financial_models.Asset</text>
<text text-anchor="start" x="248" y="-242" font-family="Helvetica,sans-Serif" font-size="10.00">+</text>
<text text-anchor="start" x="268.5" y="-242" font-family="Helvetica,sans-Serif" font-size="10.00">id</text>
<text text-anchor="start" x="248" y="-227" font-family="Helvetica,sans-Serif" font-size="10.00">+</text>
<text text-anchor="start" x="268.5" y="-227" font-family="Helvetica,sans-Serif" font-size="10.00">symbol</text>
<text text-anchor="start" x="248" y="-212" font-family="Helvetica,sans-Serif" font-size="10.00">+</text>
<text text-anchor="start" x="268.5" y="-212" font-family="Helvetica,sans-Serif" font-size="10.00">name</text>
<text text-anchor="start" x="248" y="-197" font-family="Helvetica,sans-Serif" font-size="10.00">+</text>
<text text-anchor="start" x="268.5" y="-197" font-family="Helvetica,sans-Serif" font-size="10.00">price</text>
<text text-anchor="start" x="248" y="-182" font-family="Helvetica,sans-Serif" font-size="10.00">+</text>
<text text-anchor="start" x="268.5" y="-182" font-family="Helvetica,sans-Serif" font-size="10.00">market_cap</text>
<text text-anchor="start" x="248" y="-167" font-family="Helvetica,sans-Serif" font-size="10.00">+</text>
<text text-anchor="start" x="268.5" y="-167" font-family="Helvetica,sans-Serif" font-size="10.00">currency</text>
<text text-anchor="start" x="248" y="-152" font-family="Helvetica,sans-Serif" font-size="10.00">+</text>
<text text-anchor="start" x="268.5" y="-152" font-family="Helvetica,sans-Serif" font-size="10.00">__post_init__()</text>
<polygon fill="#666666" stroke="#666666" points="236.5,-252 236.5,-252 359.5,-252 359.5,-252 236.5,-252"/>
<polygon fill="#666666" stroke="#666666" points="236.5,-162 236.5,-162 266.5,-162 266.5,-162 236.5,-162"/>
<polygon fill="#666666" stroke="#666666" points="266.5,-162 266.5,-162 359.5,-162 359.5,-162 266.5,-162"/>
<polygon fill="none" stroke="#666666" points="236,-145 236,-269 359,-269 359,-145 236,-145"/>
</a>
</g>
</g>
<!-- Node2 -->
<g id="Node000002" class="node">
<title>Node2</title>
<g id="a_Node000002"><a xlink:href="classfinancial__models_1_1Bond.html" target="_top" xlink:title=" ">
<polygon fill="white" stroke="transparent" points="121,-109 0,-109 0,0 121,0 121,-109"/>
<text text-anchor="start" x="5.5" y="-96.5" font-family="Helvetica,sans-Serif" font-size="10.00">financial_models.Bond</text>
<text text-anchor="start" x="7.5" y="-81.5" font-family="Helvetica,sans-Serif" font-size="10.00">+</text>
<text text-anchor="start" x="23.5" y="-81.5" font-family="Helvetica,sans-Serif" font-size="10.00">yield_to_maturity</text>
<text text-anchor="start" x="7.5" y="-66.5" font-family="Helvetica,sans-Serif" font-size="10.00">+</text>
<text text-anchor="start" x="23.5" y="-66.5" font-family="Helvetica,sans-Serif" font-size="10.00">coupon_rate</text>
<text text-anchor="start" x="7.5" y="-51.5" font-family="Helvetica,sans-Serif" font-size="10.00">+</text>
<text text-anchor="start" x="23.5" y="-51.5" font-family="Helvetica,sans-Serif" font-size="10.00">maturity_date</text>
<text text-anchor="start" x="7.5" y="-36.5" font-family="Helvetica,sans-Serif" font-size="10.00">+</text>
<text text-anchor="start" x="23.5" y="-36.5" font-family="Helvetica,sans-Serif" font-size="10.00">credit_rating</text>
<text text-anchor="start" x="7.5" y="-21.5" font-family="Helvetica,sans-Serif" font-size="10.00">+</text>
<text text-anchor="start" x="23.5" y="-21.5" font-family="Helvetica,sans-Serif" font-size="10.00">issuer_id</text>
<text text-anchor="start" x="59" y="-6.5" font-family="Helvetica,sans-Serif" font-size="10.00"> </text>
<polygon fill="#666666" stroke="#666666" points="0.5,-91.5 0.5,-91.5 121.5,-91.5 121.5,-91.5 0.5,-91.5"/>
<polygon fill="#666666" stroke="#666666" points="0.5,-16.5 0.5,-16.5 21.5,-16.5 21.5,-16.5 0.5,-16.5"/>
<polygon fill="#666666" stroke="#666666" points="21.5,-16.5 21.5,-16.5 121.5,-16.5 121.5,-16.5 21.5,-16.5"/>
<polygon fill="none" stroke="#666666" points="0,0 0,-109 121,-109 121,0 0,0"/>
</a>
</g>
</g>
<!-- Node1&#45;&gt;Node2 -->
<g id="edge1_Node000001_Node000002" class="edge">
<title>Node1&#45;&gt;Node2</title>
<g id="a_edge1_Node000001_Node000002"><a xlink:title=" ">
<path fill="none" stroke="#63b8ff" d="M226.76,-167.98C196.26,-150.87 160.54,-129.86 129.5,-109 126.73,-107.14 123.93,-105.21 121.12,-103.22"/>
<polygon fill="none" stroke="#63b8ff" points="225.19,-171.11 235.63,-172.93 228.6,-165 225.19,-171.11"/>
</a>
</g>
</g>
<!-- Node3 -->
<g id="Node000003" class="node">
<title>Node3</title>
<g id="a_Node000003"><a xlink:href="classfinancial__models_1_1Commodity.html" target="_top" xlink:title=" ">
<polygon fill="white" stroke="transparent" points="292,-94 139,-94 139,-15 292,-15 292,-94"/>
<text text-anchor="start" x="144.5" y="-81.5" font-family="Helvetica,sans-Serif" font-size="10.00">financial_models.Commodity</text>
<text text-anchor="start" x="159.5" y="-66.5" font-family="Helvetica,sans-Serif" font-size="10.00">+</text>
<text text-anchor="start" x="188.5" y="-66.5" font-family="Helvetica,sans-Serif" font-size="10.00">contract_size</text>
<text text-anchor="start" x="159.5" y="-51.5" font-family="Helvetica,sans-Serif" font-size="10.00">+</text>
<text text-anchor="start" x="188.5" y="-51.5" font-family="Helvetica,sans-Serif" font-size="10.00">delivery_date</text>
<text text-anchor="start" x="159.5" y="-36.5" font-family="Helvetica,sans-Serif" font-size="10.00">+</text>
<text text-anchor="start" x="188.5" y="-36.5" font-family="Helvetica,sans-Serif" font-size="10.00">volatility</text>
<text text-anchor="start" x="214" y="-21.5" font-family="Helvetica,sans-Serif" font-size="10.00"> </text>
<polygon fill="#666666" stroke="#666666" points="139.5,-76.5 139.5,-76.5 292.5,-76.5 292.5,-76.5 139.5,-76.5"/>
<polygon fill="#666666" stroke="#666666" points="139.5,-31.5 139.5,-31.5 186.5,-31.5 186.5,-31.5 139.5,-31.5"/>
<polygon fill="#666666" stroke="#666666" points="186.5,-31.5 186.5,-31.5 292.5,-31.5 292.5,-31.5 186.5,-31.5"/>
<polygon fill="none" stroke="#666666" points="139,-15 139,-94 292,-94 292,-15 139,-15"/>
</a>
</g>
</g>
<!-- Node1&#45;&gt;Node3 -->
<g id="edge2_Node000001_Node000003" class="edge">
<title>Node1&#45;&gt;Node3</title>
<g id="a_edge2_Node000001_Node000003"><a xlink:title=" ">
<path fill="none" stroke="#63b8ff" d="M259.31,-135.9C251.49,-121.56 243.54,-106.96 236.59,-94.21"/>
<polygon fill="none" stroke="#63b8ff" points="256.29,-137.68 264.15,-144.79 262.44,-134.33 256.29,-137.68"/>
</a>
</g>
</g>
<!-- Node4 -->
<g id="Node000004" class="node">
<title>Node4</title>
<g id="a_Node000004"><a xlink:href="classfinancial__models_1_1Currency.html" target="_top" xlink:title=" ">
<polygon fill="white" stroke="transparent" points="450.5,-94 310.5,-94 310.5,-15 450.5,-15 450.5,-94"/>
<text text-anchor="start" x="315.5" y="-81.5" font-family="Helvetica,sans-Serif" font-size="10.00">financial_models.Currency</text>
<text text-anchor="start" x="322" y="-66.5" font-family="Helvetica,sans-Serif" font-size="10.00">+</text>
<text text-anchor="start" x="342.5" y="-66.5" font-family="Helvetica,sans-Serif" font-size="10.00">exchange_rate</text>
<text text-anchor="start" x="322" y="-51.5" font-family="Helvetica,sans-Serif" font-size="10.00">+</text>
<text text-anchor="start" x="342.5" y="-51.5" font-family="Helvetica,sans-Serif" font-size="10.00">country</text>
<text text-anchor="start" x="322" y="-36.5" font-family="Helvetica,sans-Serif" font-size="10.00">+</text>
<text text-anchor="start" x="342.5" y="-36.5" font-family="Helvetica,sans-Serif" font-size="10.00">central_bank_rate</text>
<text text-anchor="start" x="378.5" y="-21.5" font-family="Helvetica,sans-Serif" font-size="10.00"> </text>
<polygon fill="#666666" stroke="#666666" points="310.5,-76.5 310.5,-76.5 450.5,-76.5 450.5,-76.5 310.5,-76.5"/>
<polygon fill="#666666" stroke="#666666" points="310.5,-31.5 310.5,-31.5 340.5,-31.5 340.5,-31.5 310.5,-31.5"/>
<polygon fill="#666666" stroke="#666666" points="340.5,-31.5 340.5,-31.5 450.5,-31.5 450.5,-31.5 340.5,-31.5"/>
<polygon fill="none" stroke="#666666" points="310.5,-15 310.5,-94 450.5,-94 450.5,-15 310.5,-15"/>
</a>
</g>
</g>
<!-- Node1&#45;&gt;Node4 -->
<g id="edge3_Node000001_Node000004" class="edge">
<title>Node1&#45;&gt;Node4</title>
<g id="a_edge3_Node000001_Node000004"><a xlink:title=" ">
<path fill="none" stroke="#63b8ff" d="M336.16,-135.9C344.07,-121.56 352.12,-106.96 359.15,-94.21"/>
<polygon fill="none" stroke="#63b8ff" points="333.02,-134.34 331.26,-144.79 339.15,-137.72 333.02,-134.34"/>
</a>
</g>
</g>
<!-- Node5 -->
<g id="Node000005" class="node">
<title>Node5</title>
<g id="a_Node000005"><a xlink:href="classfinancial__models_1_1Equity.html" target="_top" xlink:title=" ">
<polygon fill="white" stroke="transparent" points="596,-101.5 469,-101.5 469,-7.5 596,-7.5 596,-101.5"/>
<text text-anchor="start" x="474.5" y="-89.5" font-family="Helvetica,sans-Serif" font-size="10.00">financial_models.Equity</text>
<text text-anchor="start" x="476" y="-74.5" font-family="Helvetica,sans-Serif" font-size="10.00">+</text>
<text text-anchor="start" x="491.5" y="-74.5" font-family="Helvetica,sans-Serif" font-size="10.00">pe_ratio</text>
<text text-anchor="start" x="476" y="-59.5" font-family="Helvetica,sans-Serif" font-size="10.00">+</text>
<text text-anchor="start" x="491.5" y="-59.5" font-family="Helvetica,sans-Serif" font-size="10.00">dividend_yield</text>
<text text-anchor="start" x="476" y="-44.5" font-family="Helvetica,sans-Serif" font-size="10.00">+</text>
<text text-anchor="start" x="491.5" y="-44.5" font-family="Helvetica,sans-Serif" font-size="10.00">earnings_per_share</text>
<text text-anchor="start" x="476" y="-29.5" font-family="Helvetica,sans-Serif" font-size="10.00">+</text>
<text text-anchor="start" x="491.5" y="-29.5" font-family="Helvetica,sans-Serif" font-size="10.00">book_value</text>
<text text-anchor="start" x="531" y="-14.5" font-family="Helvetica,sans-Serif" font-size="10.00"> </text>
<polygon fill="#666666" stroke="#666666" points="469.5,-84.5 469.5,-84.5 596.5,-84.5 596.5,-84.5 469.5,-84.5"/>
<polygon fill="#666666" stroke="#666666" points="469.5,-24.5 469.5,-24.5 489.5,-24.5 489.5,-24.5 469.5,-24.5"/>
<polygon fill="#666666" stroke="#666666" points="489.5,-24.5 489.5,-24.5 596.5,-24.5 596.5,-24.5 489.5,-24.5"/>
<polygon fill="none" stroke="#666666" points="469,-7.5 469,-101.5 596,-101.5 596,-7.5 469,-7.5"/>
</a>
</g>
</g>
<!-- Node1&#45;&gt;Node5 -->
<g id="edge4_Node000001_Node000005" class="edge">
<title>Node1&#45;&gt;Node5</title>
<g id="a_edge4_Node000001_Node000005"><a xlink:title=" ">
<path fill="none" stroke="#63b8ff" d="M367.88,-165.78C396.66,-148.84 430.05,-128.55 459.5,-109 463.03,-106.65 466.64,-104.21 470.25,-101.71"/>
<polygon fill="none" stroke="#63b8ff" points="365.96,-162.85 359.1,-170.93 369.5,-168.89 365.96,-162.85"/>
</a>
</g>
</g>
</g>
</svg>
