<?xml version="1.0" encoding="UTF-8" standalone="no"?>
<!DOCTYPE svg PUBLIC "-//W3C//DTD SVG 1.1//EN"
 "http://www.w3.org/Graphics/SVG/1.1/DTD/svg11.dtd">
<!-- Generated by graphviz version 2.43.0 (0)
 -->
<!-- Title: financial_models.Commodity Pages: 1 -->
<svg width="257pt" height="284pt"
 viewBox="0.00 0.00 257.00 284.00" xmlns="http://www.w3.org/2000/svg" xmlns:xlink="http://www.w3.org/1999/xlink">

<svg id="main" version="1.1" xmlns="http://www.w3.org/2000/svg" xmlns:xlink="http://www.w3.org/1999/xlink" xml:space="preserve">

<style type="text/css"><![CDATA[
.node, .edge {opacity: 0.7;}
.node.selected, .edge.selected {opacity: 1;}
.edge:hover path { stroke: red; }
.edge:hover polygon { stroke: red; fill: red; }
]]></style>
<script type="application/ecmascript" xlink:href="svg.min.js"/>
<svg id="graph" class="graph">
<g id="graph0" class="graph" transform="scale(1 1) rotate(0) translate(4 280)">
<title>financial_models.Commodity</title>
<!-- Node1 -->
<g id="Node000001" class="node">
<title>Node1</title>
<g id="a_Node000001"><a xlink:title=" ">
<polygon fill="#999999" stroke="transparent" points="153,-49 0,-49 0,0 153,0 153,-49"/>
<text text-anchor="start" x="5.5" y="-36.5" font-family="Helvetica,sans-Serif" font-size="10.00">financial_models.Commodity</text>
<text text-anchor="start" x="75" y="-21.5" font-family="Helvetica,sans-Serif" font-size="10.00"> </text>
<text text-anchor="start" x="75" y="-6.5" font-family="Helvetica,sans-Serif" font-size="10.00"> </text>
<polygon fill="#666666" stroke="#666666" points="0.5,-31.5 0.5,-31.5 153.5,-31.5 153.5,-31.5 0.5,-31.5"/>
<polygon fill="#666666" stroke="#666666" points="0.5,-16.5 0.5,-16.5 153.5,-16.5 153.5,-16.5 0.5,-16.5"/>
<polygon fill="none" stroke="#666666" points="0,0 0,-49 153,-49 153,0 0,0"/>
</a>
</g>
</g>
<!-- Node2 -->
<g id="Node000002" class="node">
<title>Node2</title>
<g id="a_Node000002"><a xlink:href="classfinancial__models_1_1Asset.html" target="_top" xlink:title=" ">
<polygon fill="white" stroke="transparent" points="249,-180 126,-180 126,-86 249,-86 249,-180"/>
<text text-anchor="start" x="131.5" y="-168" font-family="Helvetica,sans-Serif" font-size="10.00">financial_models.Asset</text>
<text text-anchor="start" x="138" y="-153" font-family="Helvetica,sans-Serif" font-size="10.00">+</text>
<text text-anchor="start" x="158.5" y="-153" font-family="Helvetica,sans-Serif" font-size="10.00">id</text>
<text text-anchor="start" x="138" y="-138" font-family="Helvetica,sans-Serif" font-size="10.00">+</text>
<text text-anchor="start" x="158.5" y="-138" font-family="Helvetica,sans-Serif" font-size="10.00">symbol</text>
<text text-anchor="start" x="138" y="-123" font-family="Helvetica,sans-Serif" font-size="10.00">+</text>
<text text-anchor="start" x="158.5" y="-123" font-family="Helvetica,sans-Serif" font-size="10.00">name</text>
<text text-anchor="start" x="138" y="-108" font-family="Helvetica,sans-Serif" font-size="10.00">+</text>
<text text-anchor="start" x="158.5" y="-108" font-family="Helvetica,sans-Serif" font-size="10.00">price</text>
<text text-anchor="start" x="138" y="-93" font-family="Helvetica,sans-Serif" font-size="10.00">+</text>
<text text-anchor="start" x="158.5" y="-93" font-family="Helvetica,sans-Serif" font-size="10.00">__post_init__()</text>
<polygon fill="#666666" stroke="#666666" points="126.5,-163 126.5,-163 249.5,-163 249.5,-163 126.5,-163"/>
<polygon fill="#666666" stroke="#666666" points="126.5,-103 126.5,-103 156.5,-103 156.5,-103 126.5,-103"/>
<polygon fill="#666666" stroke="#666666" points="156.5,-103 156.5,-103 249.5,-103 249.5,-103 156.5,-103"/>
<polygon fill="none" stroke="#666666" points="126,-86 126,-180 249,-180 249,-86 126,-86"/>
</a>
</g>
</g>
<!-- Node2&#45;&gt;Node1 -->
<g id="edge1_Node000001_Node000002" class="edge">
<title>Node2&#45;&gt;Node1</title>
<g id="a_edge1_Node000001_Node000002"><a xlink:title=" ">
<path fill="none" stroke="#63b8ff" d="M131.97,-78.72C121.12,-68.31 110.28,-57.91 101.09,-49.1"/>
<polygon fill="none" stroke="#63b8ff" points="129.82,-81.51 139.46,-85.91 134.67,-76.46 129.82,-81.51"/>
</a>
</g>
</g>
<!-- Node3 -->
<g id="Node000003" class="node">
<title>Node3</title>
<g id="a_Node000003"><a xlink:title=" ">
<polygon fill="white" stroke="transparent" points="74.5,-276 22.5,-276 22.5,-227 74.5,-227 74.5,-276"/>
<text text-anchor="start" x="27.5" y="-263.5" font-family="Helvetica,sans-Serif" font-size="10.00">Optional</text>
<text text-anchor="start" x="46.5" y="-248.5" font-family="Helvetica,sans-Serif" font-size="10.00"> </text>
<text text-anchor="start" x="46.5" y="-233.5" font-family="Helvetica,sans-Serif" font-size="10.00"> </text>
<polygon fill="#666666" stroke="#666666" points="22.5,-258.5 22.5,-258.5 74.5,-258.5 74.5,-258.5 22.5,-258.5"/>
<polygon fill="#666666" stroke="#666666" points="22.5,-243.5 22.5,-243.5 74.5,-243.5 74.5,-243.5 22.5,-243.5"/>
<polygon fill="none" stroke="#666666" points="22.5,-227 22.5,-276 74.5,-276 74.5,-227 22.5,-227"/>
</a>
</g>
</g>
<!-- Node3&#45;&gt;Node1 -->
<g id="edge4_Node000001_Node000003" class="edge">
<title>Node3&#45;&gt;Node1</title>
<g id="a_edge4_Node000001_Node000003"><a xlink:title=" ">
<path fill="none" stroke="#63b8ff" d="M42.79,-226.84C35.99,-194.42 27.12,-134.66 40.5,-86 43,-76.9 47.27,-67.79 52,-59.51"/>
<polygon fill="none" stroke="#63b8ff" points="52.09,-59.36 51.84,-52.15 58.4,-49.15 58.65,-56.36 52.09,-59.36"/>
</a>
</g>
<text text-anchor="middle" x="78.5" y="-141.5" font-family="Helvetica,sans-Serif" font-size="10.00" fill="grey"> +contract_size</text>
<text text-anchor="middle" x="78.5" y="-130.5" font-family="Helvetica,sans-Serif" font-size="10.00" fill="grey">+delivery_date</text>
<text text-anchor="middle" x="78.5" y="-119.5" font-family="Helvetica,sans-Serif" font-size="10.00" fill="grey">+volatility</text>
</g>
<!-- Node3&#45;&gt;Node2 -->
<g id="edge2_Node000002_Node000003" class="edge">
<title>Node3&#45;&gt;Node2</title>
<g id="a_edge2_Node000002_Node000003"><a xlink:title=" ">
<path fill="none" stroke="#63b8ff" d="M74.64,-228.59C88.38,-217.08 105.88,-202.41 122.97,-188.08"/>
<polygon fill="none" stroke="#63b8ff" points="123.2,-187.89 125.23,-180.97 132.4,-180.18 130.37,-187.1 123.2,-187.89"/>
</a>
</g>
<text text-anchor="middle" x="145" y="-201" font-family="Helvetica,sans-Serif" font-size="10.00" fill="grey"> +market_cap</text>
</g>
<!-- Node4 -->
<g id="Node000004" class="node">
<title>Node4</title>
<g id="a_Node000004"><a xlink:title=" ">
<polygon fill="white" stroke="transparent" points="199,-276 176,-276 176,-227 199,-227 199,-276"/>
<text text-anchor="start" x="181.5" y="-263.5" font-family="Helvetica,sans-Serif" font-size="10.00">str</text>
<text text-anchor="start" x="186" y="-248.5" font-family="Helvetica,sans-Serif" font-size="10.00"> </text>
<text text-anchor="start" x="186" y="-233.5" font-family="Helvetica,sans-Serif" font-size="10.00"> </text>
<polygon fill="#666666" stroke="#666666" points="176.5,-258.5 176.5,-258.5 199.5,-258.5 199.5,-258.5 176.5,-258.5"/>
<polygon fill="#666666" stroke="#666666" points="176.5,-243.5 176.5,-243.5 199.5,-243.5 199.5,-243.5 176.5,-243.5"/>
<polygon fill="none" stroke="#666666" points="176,-227 176,-276 199,-276 199,-227 176,-227"/>
</a>
</g>
</g>
<!-- Node4&#45;&gt;Node2 -->
<g id="edge3_Node000002_Node000004" class="edge">
<title>Node4&#45;&gt;Node2</title>
<g id="a_edge3_Node000002_Node000004"><a xlink:title=" ">
<path fill="none" stroke="#63b8ff" d="M187.5,-226.92C187.5,-216.85 187.5,-204.6 187.5,-192.35"/>
<polygon fill="none" stroke="#63b8ff" points="187.5,-192.17 183.5,-186.17 187.5,-180.17 191.5,-186.17 187.5,-192.17"/>
</a>
</g>
<text text-anchor="middle" x="214.5" y="-201" font-family="Helvetica,sans-Serif" font-size="10.00" fill="grey"> +currency</text>
</g>
</g>
</svg>
</svg>

<style type='text/css'>
<![CDATA[
[data-mouse-over-selected='false'] { opacity: 0.7; }
[data-mouse-over-selected='true']  { opacity: 1.0; }
]]>
</style>
<script type="application/ecmascript"><![CDATA[
document.addEventListener('DOMContentLoaded', (event) => {
  highlightEdges();
  highlightAdjacentNodes();
});
]]></script>
</svg>
