<?xml version="1.0" encoding="UTF-8" standalone="no"?>
<!DOCTYPE svg PUBLIC "-//W3C//DTD SVG 1.1//EN"
 "http://www.w3.org/Graphics/SVG/1.1/DTD/svg11.dtd">
<!-- Generated by graphviz version 2.43.0 (0)
 -->
<!-- Title: app.FinancialAssetApp.generate_formulaic_analysis Pages: 1 -->
<svg width="546pt" height="86pt"
 viewBox="0.00 0.00 546.00 86.00" xmlns="http://www.w3.org/2000/svg" xmlns:xlink="http://www.w3.org/1999/xlink">
<g id="graph0" class="graph" transform="scale(1 1) rotate(0) translate(4 82)">
<title>app.FinancialAssetApp.generate_formulaic_analysis</title>
<!-- Node1 -->
<g id="Node000001" class="node">
<title>Node1</title>
<g id="a_Node000001"><a xlink:title=" ">
<polygon fill="#999999" stroke="#666666" points="173,-54 0,-54 0,-24 173,-24 173,-54"/>
<text text-anchor="start" x="8" y="-42" font-family="Helvetica,sans-Serif" font-size="10.00">app.FinancialAssetApp.generate</text>
<text text-anchor="middle" x="86.5" y="-31" font-family="Helvetica,sans-Serif" font-size="10.00">_formulaic_analysis</text>
</a>
</g>
</g>
<!-- Node2 -->
<g id="Node000002" class="node">
<title>Node2</title>
<g id="a_Node000002"><a xlink:href="classapp_1_1FinancialAssetApp.html#a97f0c7bdc8c242aecb1eef59d18200c3" target="_top" xlink:title=" ">
<polygon fill="white" stroke="#666666" points="365.5,-78 215.5,-78 215.5,-48 365.5,-48 365.5,-78"/>
<text text-anchor="start" x="223.5" y="-66" font-family="Helvetica,sans-Serif" font-size="10.00">app.FinancialAssetApp.</text>
<text text-anchor="middle" x="290.5" y="-55" font-family="Helvetica,sans-Serif" font-size="10.00">_format_formula_summary</text>
</a>
</g>
</g>
<!-- Node1&#45;&gt;Node2 -->
<g id="edge1_Node000001_Node000002" class="edge">
<title>Node1&#45;&gt;Node2</title>
<g id="a_edge1_Node000001_Node000002"><a xlink:title=" ">
<path fill="none" stroke="#63b8ff" d="M173.17,-49.18C183.76,-50.44 194.58,-51.72 205.16,-52.98"/>
<polygon fill="#63b8ff" stroke="#63b8ff" points="204.86,-56.47 215.2,-54.17 205.68,-49.52 204.86,-56.47"/>
</a>
</g>
</g>
<!-- Node3 -->
<g id="Node000003" class="node">
<title>Node3</title>
<g id="a_Node000003"><a xlink:href="classapp_1_1FinancialAssetApp.html#a54667558411627b15aeb4951aff6b392" target="_top" xlink:title=" ">
<polygon fill="white" stroke="#666666" points="372,-30 209,-30 209,0 372,0 372,-30"/>
<text text-anchor="start" x="217" y="-18" font-family="Helvetica,sans-Serif" font-size="10.00">app.FinancialAssetApp.ensure</text>
<text text-anchor="middle" x="290.5" y="-7" font-family="Helvetica,sans-Serif" font-size="10.00">_graph</text>
</a>
</g>
</g>
<!-- Node1&#45;&gt;Node3 -->
<g id="edge2_Node000001_Node000003" class="edge">
<title>Node1&#45;&gt;Node3</title>
<g id="a_edge2_Node000001_Node000003"><a xlink:title=" ">
<path fill="none" stroke="#63b8ff" d="M173.17,-28.82C181.67,-27.81 190.32,-26.78 198.87,-25.77"/>
<polygon fill="#63b8ff" stroke="#63b8ff" points="199.33,-29.24 208.84,-24.58 198.5,-22.29 199.33,-29.24"/>
</a>
</g>
</g>
<!-- Node4 -->
<g id="Node000004" class="node">
<title>Node4</title>
<g id="a_Node000004"><a xlink:href="classapp_1_1FinancialAssetApp.html#ac33bbb920250622229430b5da9211366" target="_top" xlink:title=" ">
<polygon fill="white" stroke="#666666" points="538,-30 408,-30 408,0 538,0 538,-30"/>
<text text-anchor="start" x="416" y="-18" font-family="Helvetica,sans-Serif" font-size="10.00">app.FinancialAssetApp.</text>
<text text-anchor="middle" x="473" y="-7" font-family="Helvetica,sans-Serif" font-size="10.00">_initialize_graph</text>
</a>
</g>
</g>
<!-- Node3&#45;&gt;Node4 -->
<g id="edge3_Node000003_Node000004" class="edge">
<title>Node3&#45;&gt;Node4</title>
<g id="a_edge3_Node000003_Node000004"><a xlink:title=" ">
<path fill="none" stroke="#63b8ff" d="M372.25,-15C380.72,-15 389.31,-15 397.71,-15"/>
<polygon fill="#63b8ff" stroke="#63b8ff" points="397.84,-18.5 407.84,-15 397.84,-11.5 397.84,-18.5"/>
</a>
</g>
</g>
</g>
</svg>
