<?xml version="1.0" encoding="UTF-8" standalone="no"?>
<!DOCTYPE svg PUBLIC "-//W3C//DTD SVG 1.1//EN"
 "http://www.w3.org/Graphics/SVG/1.1/DTD/svg11.dtd">
<!-- Generated by graphviz version 2.43.0 (0)
 -->
<!-- Title: real_data_fetcher.RealDataFetcher.create_real_database Pages: 1 -->
<!--zoomable 374 -->

<svg id="main" version="1.1" xmlns="http://www.w3.org/2000/svg" xmlns:xlink="http://www.w3.org/1999/xlink" xml:space="preserve" onload="init(evt)">

<style type="text/css"><![CDATA[
.node, .edge {opacity: 0.7;}
.node.selected, .edge.selected {opacity: 1;}
.edge:hover path { stroke: red; }
.edge:hover polygon { stroke: red; fill: red; }
]]></style>

<defs>
  <circle id="rim" cx="0" cy="0" r="7"/>
  <circle id="rim2" cx="0" cy="0" r="3.5"/>
  <g id="zoomPlus">
    <use xlink:href="#rim" fill="#404040"><set attributeName="fill" to="#808080" begin="zoomplus.mouseover" end="zoomplus.mouseout"/></use>
    <path d="M-4,0h8M0,-4v8" fill="none" stroke="white" stroke-width="1.5" pointer-events="none"/>
  </g>
  <g id="zoomMin">
    <use xlink:href="#rim" fill="#404040"><set attributeName="fill" to="#808080" begin="zoomminus.mouseover" end="zoomminus.mouseout"/></use>
    <path d="M-4,0h8" fill="none" stroke="white" stroke-width="1.5" pointer-events="none"/>
  </g>
  <g id="arrowUp" transform="translate(30 24)">
    <use xlink:href="#rim"/>
    <path pointer-events="none" fill="none" stroke="white" stroke-width="1.5" d="M0,-3.0v7 M-2.5,-0.5L0,-3.0L2.5,-0.5"/>
  </g>
  <g id="arrowRight" transform="rotate(90) translate(36 -43)">
    <use xlink:href="#rim"/>
    <path pointer-events="none" fill="none" stroke="white" stroke-width="1.5" d="M0,-3.0v7 M-2.5,-0.5L0,-3.0L2.5,-0.5"/>
  </g>
  <g id="arrowDown" transform="rotate(180) translate(-30 -48)">
    <use xlink:href="#rim"/>
    <path pointer-events="none" fill="none" stroke="white" stroke-width="1.5" d="M0,-3.0v7 M-2.5,-0.5L0,-3.0L2.5,-0.5"/>
  </g>
  <g id="arrowLeft" transform="rotate(270) translate(-36 17)">
    <use xlink:href="#rim"/>
    <path pointer-events="none" fill="none" stroke="white" stroke-width="1.5" d="M0,-3.0v7 M-2.5,-0.5L0,-3.0L2.5,-0.5"/>
  </g>
  <g id="resetDef">
    <use xlink:href="#rim2" fill="#404040"><set attributeName="fill" to="#808080" begin="reset.mouseover" end="reset.mouseout"/></use>
  </g>
</defs>
<script type="application/ecmascript">
var viewWidth = 824;
var viewHeight = 374;
var sectionId = 'dynsection-7';
</script>
<script type="application/ecmascript" xlink:href="svg.min.js"/>
<svg id="graph" class="graph">
<g id="viewport">
<title>real_data_fetcher.RealDataFetcher.create_real_database</title>
<!-- Node1 -->
<g id="Node000001" class="node">
<title>Node1</title>
<g id="a_Node000001"><a xlink:title=" ">
<polygon fill="#999999" stroke="#666666" points="160,-198 0,-198 0,-168 160,-168 160,-198"/>
<text text-anchor="start" x="8" y="-186" font-family="Helvetica,sans-Serif" font-size="10.00">real_data_fetcher.RealData</text>
<text text-anchor="middle" x="80" y="-175" font-family="Helvetica,sans-Serif" font-size="10.00">Fetcher.create_real_database</text>
</a>
</g>
</g>
<!-- Node2 -->
<g id="Node000002" class="node">
<title>Node2</title>
<g id="a_Node000002"><a xlink:href="classreal__data__fetcher_1_1RealDataFetcher.html#a9cd5f5e7404e03b5b0cf41657a363b08" target="_top" xlink:title=" ">
<polygon fill="white" stroke="#666666" points="381,-366 196,-366 196,-336 381,-336 381,-366"/>
<text text-anchor="start" x="204" y="-354" font-family="Helvetica,sans-Serif" font-size="10.00">real_data_fetcher.RealData</text>
<text text-anchor="middle" x="288.5" y="-343" font-family="Helvetica,sans-Serif" font-size="10.00">Fetcher._create_regulatory_events</text>
</a>
</g>
</g>
<!-- Node1&#45;&gt;Node2 -->
<g id="edge1_Node000001_Node000002" class="edge">
<title>Node1&#45;&gt;Node2</title>
<g id="a_edge1_Node000001_Node000002"><a xlink:title=" ">
<path fill="none" stroke="#63b8ff" d="M88.81,-198.29C104.76,-227.91 143.97,-293.16 196,-327 198.45,-328.6 201.01,-330.08 203.64,-331.47"/>
<polygon fill="#63b8ff" stroke="#63b8ff" points="202.29,-334.71 212.83,-335.83 205.29,-328.39 202.29,-334.71"/>
</a>
</g>
</g>
<!-- Node3 -->
<g id="Node000003" class="node">
<title>Node3</title>
<g id="a_Node000003"><a xlink:href="classreal__data__fetcher_1_1RealDataFetcher.html#a02af871fd47c69a47316f98a338852bd" target="_top" xlink:title=" ">
<polygon fill="white" stroke="#666666" points="363,-318 214,-318 214,-288 363,-288 363,-318"/>
<text text-anchor="start" x="222" y="-306" font-family="Helvetica,sans-Serif" font-size="10.00">real_data_fetcher.RealData</text>
<text text-anchor="middle" x="288.5" y="-295" font-family="Helvetica,sans-Serif" font-size="10.00">Fetcher._fallback</text>
</a>
</g>
</g>
<!-- Node1&#45;&gt;Node3 -->
<g id="edge2_Node000001_Node000003" class="edge">
<title>Node1&#45;&gt;Node3</title>
<g id="a_edge2_Node000001_Node000003"><a xlink:title=" ">
<path fill="none" stroke="#63b8ff" d="M94.72,-198.04C114.88,-219.23 154.62,-257.67 196,-279 199.69,-280.91 203.55,-282.67 207.51,-284.3"/>
<polygon fill="#63b8ff" stroke="#63b8ff" points="206.28,-287.58 216.87,-287.87 208.78,-281.04 206.28,-287.58"/>
</a>
</g>
</g>
<!-- Node4 -->
<g id="Node000004" class="node">
<title>Node4</title>
<g id="a_Node000004"><a xlink:href="classreal__data__fetcher_1_1RealDataFetcher.html#a60db7c3d12d520782fc8fd3251d4c3e1" target="_top" xlink:title=" ">
<polygon fill="white" stroke="#666666" points="363,-270 214,-270 214,-240 363,-240 363,-270"/>
<text text-anchor="start" x="222" y="-258" font-family="Helvetica,sans-Serif" font-size="10.00">real_data_fetcher.RealData</text>
<text text-anchor="middle" x="288.5" y="-247" font-family="Helvetica,sans-Serif" font-size="10.00">Fetcher._fetch_bond_data</text>
</a>
</g>
</g>
<!-- Node1&#45;&gt;Node4 -->
<g id="edge3_Node000001_Node000004" class="edge">
<title>Node1&#45;&gt;Node4</title>
<g id="a_edge3_Node000001_Node000004"><a xlink:title=" ">
<path fill="none" stroke="#63b8ff" d="M113.75,-198.1C136.51,-208.24 167.72,-221.44 196,-231 202.27,-233.12 208.84,-235.17 215.45,-237.11"/>
<polygon fill="#63b8ff" stroke="#63b8ff" points="214.56,-240.5 225.14,-239.89 216.49,-233.77 214.56,-240.5"/>
</a>
</g>
</g>
<!-- Node5 -->
<g id="Node000005" class="node">
<title>Node5</title>
<g id="a_Node000005"><a xlink:href="classreal__data__fetcher_1_1RealDataFetcher.html#a7bc07e5c8019a3c37a97856bf3a85086" target="_top" xlink:title=" ">
<polygon fill="white" stroke="#666666" points="375,-222 202,-222 202,-192 375,-192 375,-222"/>
<text text-anchor="start" x="210" y="-210" font-family="Helvetica,sans-Serif" font-size="10.00">real_data_fetcher.RealData</text>
<text text-anchor="middle" x="288.5" y="-199" font-family="Helvetica,sans-Serif" font-size="10.00">Fetcher._fetch_commodity_data</text>
</a>
</g>
</g>
<!-- Node1&#45;&gt;Node5 -->
<g id="edge4_Node000001_Node000005" class="edge">
<title>Node1&#45;&gt;Node5</title>
<g id="a_edge4_Node000001_Node000005"><a xlink:title=" ">
<path fill="none" stroke="#63b8ff" d="M160.25,-192.21C170.59,-193.41 181.27,-194.65 191.85,-195.88"/>
<polygon fill="#63b8ff" stroke="#63b8ff" points="191.61,-199.38 201.94,-197.06 192.41,-192.43 191.61,-199.38"/>
</a>
</g>
</g>
<!-- Node6 -->
<g id="Node000006" class="node">
<title>Node6</title>
<g id="a_Node000006"><a xlink:href="classreal__data__fetcher_1_1RealDataFetcher.html#a4d9154b41313c16038447fab3ea25441" target="_top" xlink:title=" ">
<polygon fill="white" stroke="#666666" points="368,-174 209,-174 209,-144 368,-144 368,-174"/>
<text text-anchor="start" x="217" y="-162" font-family="Helvetica,sans-Serif" font-size="10.00">real_data_fetcher.RealData</text>
<text text-anchor="middle" x="288.5" y="-151" font-family="Helvetica,sans-Serif" font-size="10.00">Fetcher._fetch_currency_data</text>
</a>
</g>
</g>
<!-- Node1&#45;&gt;Node6 -->
<g id="edge5_Node000001_Node000006" class="edge">
<title>Node1&#45;&gt;Node6</title>
<g id="a_edge5_Node000001_Node000006"><a xlink:title=" ">
<path fill="none" stroke="#63b8ff" d="M160.25,-173.79C172.81,-172.33 185.88,-170.81 198.65,-169.33"/>
<polygon fill="#63b8ff" stroke="#63b8ff" points="199.28,-172.78 208.81,-168.15 198.47,-165.82 199.28,-172.78"/>
</a>
</g>
</g>
<!-- Node7 -->
<g id="Node000007" class="node">
<title>Node7</title>
<g id="a_Node000007"><a xlink:href="classreal__data__fetcher_1_1RealDataFetcher.html#ad74ac0bf89faaba50d6c6789f18ef6a3" target="_top" xlink:title=" ">
<polygon fill="white" stroke="#666666" points="363,-126 214,-126 214,-96 363,-96 363,-126"/>
<text text-anchor="start" x="222" y="-114" font-family="Helvetica,sans-Serif" font-size="10.00">real_data_fetcher.RealData</text>
<text text-anchor="middle" x="288.5" y="-103" font-family="Helvetica,sans-Serif" font-size="10.00">Fetcher._fetch_equity_data</text>
</a>
</g>
</g>
<!-- Node1&#45;&gt;Node7 -->
<g id="edge6_Node000001_Node000007" class="edge">
<title>Node1&#45;&gt;Node7</title>
<g id="a_edge6_Node000001_Node000007"><a xlink:title=" ">
<path fill="none" stroke="#63b8ff" d="M113.75,-167.9C136.51,-157.76 167.72,-144.56 196,-135 202.27,-132.88 208.84,-130.83 215.45,-128.89"/>
<polygon fill="#63b8ff" stroke="#63b8ff" points="216.49,-132.23 225.14,-126.11 214.56,-125.5 216.49,-132.23"/>
</a>
</g>
</g>
<!-- Node8 -->
<g id="Node000008" class="node">
<title>Node8</title>
<g id="a_Node000008"><a xlink:href="namespacereal__data__fetcher.html#a2710dfe9b01edbd77d126e04b9219f81" target="_top" xlink:title=" ">
<polygon fill="white" stroke="#666666" points="341,-78 236,-78 236,-48 341,-48 341,-78"/>
<text text-anchor="start" x="244" y="-66" font-family="Helvetica,sans-Serif" font-size="10.00">real_data_fetcher.</text>
<text text-anchor="middle" x="288.5" y="-55" font-family="Helvetica,sans-Serif" font-size="10.00">_load_from_cache</text>
</a>
</g>
</g>
<!-- Node1&#45;&gt;Node8 -->
<g id="edge7_Node000001_Node000008" class="edge">
<title>Node1&#45;&gt;Node8</title>
<g id="a_edge7_Node000001_Node000008"><a xlink:title=" ">
<path fill="none" stroke="#63b8ff" d="M94.72,-167.96C114.88,-146.77 154.62,-108.33 196,-87 205.29,-82.21 215.62,-78.32 225.89,-75.17"/>
<polygon fill="#63b8ff" stroke="#63b8ff" points="227.03,-78.49 235.69,-72.38 225.12,-71.75 227.03,-78.49"/>
</a>
</g>
</g>
<!-- Node12 -->
<g id="Node000012" class="node">
<title>Node12</title>
<g id="a_Node000012"><a xlink:href="namespacereal__data__fetcher.html#a34a36a48285836a9ee924d54d668ac17" target="_top" xlink:title=" ">
<polygon fill="white" stroke="#666666" points="340.5,-30 236.5,-30 236.5,0 340.5,0 340.5,-30"/>
<text text-anchor="start" x="244.5" y="-18" font-family="Helvetica,sans-Serif" font-size="10.00">real_data_fetcher.</text>
<text text-anchor="middle" x="288.5" y="-7" font-family="Helvetica,sans-Serif" font-size="10.00">_save_to_cache</text>
</a>
</g>
</g>
<!-- Node1&#45;&gt;Node12 -->
<g id="edge11_Node000001_Node000012" class="edge">
<title>Node1&#45;&gt;Node12</title>
<g id="a_edge11_Node000001_Node000012"><a xlink:title=" ">
<path fill="none" stroke="#63b8ff" d="M88.81,-167.71C104.76,-138.09 143.97,-72.84 196,-39 205.17,-33.04 215.76,-28.55 226.42,-25.18"/>
<polygon fill="#63b8ff" stroke="#63b8ff" points="227.53,-28.5 236.18,-22.38 225.6,-21.77 227.53,-28.5"/>
</a>
</g>
</g>
<!-- Node9 -->
<g id="Node000009" class="node">
<title>Node9</title>
<g id="a_Node000009"><a xlink:href="namespacereal__data__fetcher.html#a454b8e340291b892a6c6ac22628e176d" target="_top" xlink:title=" ">
<polygon fill="white" stroke="#666666" points="525,-78 417,-78 417,-48 525,-48 525,-78"/>
<text text-anchor="start" x="425" y="-66" font-family="Helvetica,sans-Serif" font-size="10.00">real_data_fetcher.</text>
<text text-anchor="middle" x="471" y="-55" font-family="Helvetica,sans-Serif" font-size="10.00">_deserialize_graph</text>
</a>
</g>
</g>
<!-- Node8&#45;&gt;Node9 -->
<g id="edge8_Node000008_Node000009" class="edge">
<title>Node8&#45;&gt;Node9</title>
<g id="a_edge8_Node000008_Node000009"><a xlink:title=" ">
<path fill="none" stroke="#63b8ff" d="M341.22,-63C361.55,-63 385.08,-63 406.42,-63"/>
<polygon fill="#63b8ff" stroke="#63b8ff" points="406.7,-66.5 416.7,-63 406.7,-59.5 406.7,-66.5"/>
</a>
</g>
</g>
<!-- Node10 -->
<g id="Node000010" class="node">
<title>Node10</title>
<g id="a_Node000010"><a xlink:href="namespacereal__data__fetcher.html#abdf7273df04c3bbad4f9ff50ab955e7a" target="_top" xlink:title=" ">
<polygon fill="white" stroke="#666666" points="672,-126 565,-126 565,-96 672,-96 672,-126"/>
<text text-anchor="start" x="573" y="-114" font-family="Helvetica,sans-Serif" font-size="10.00">real_data_fetcher.</text>
<text text-anchor="middle" x="618.5" y="-103" font-family="Helvetica,sans-Serif" font-size="10.00">_deserialize_asset</text>
</a>
</g>
</g>
<!-- Node9&#45;&gt;Node10 -->
<g id="edge9_Node000009_Node000010" class="edge">
<title>Node9&#45;&gt;Node10</title>
<g id="a_edge9_Node000009_Node000010"><a xlink:title=" ">
<path fill="none" stroke="#63b8ff" d="M517.64,-78.06C531.86,-82.75 547.69,-87.97 562.48,-92.85"/>
<polygon fill="#63b8ff" stroke="#63b8ff" points="561.43,-96.19 572.02,-96 563.62,-89.54 561.43,-96.19"/>
</a>
</g>
</g>
<!-- Node11 -->
<g id="Node000011" class="node">
<title>Node11</title>
<g id="a_Node000011"><a xlink:href="namespacereal__data__fetcher.html#aa7a191723a1829e72eb81b5d5702968f" target="_top" xlink:title=" ">
<polygon fill="white" stroke="#666666" points="672.5,-78 564.5,-78 564.5,-48 672.5,-48 672.5,-78"/>
<text text-anchor="start" x="572.5" y="-66" font-family="Helvetica,sans-Serif" font-size="10.00">real_data_fetcher.</text>
<text text-anchor="middle" x="618.5" y="-55" font-family="Helvetica,sans-Serif" font-size="10.00">_deserialize_event</text>
</a>
</g>
</g>
<!-- Node9&#45;&gt;Node11 -->
<g id="edge10_Node000009_Node000011" class="edge">
<title>Node9&#45;&gt;Node11</title>
<g id="a_edge10_Node000009_Node000011"><a xlink:title=" ">
<path fill="none" stroke="#63b8ff" d="M525.35,-63C534.64,-63 544.39,-63 553.92,-63"/>
<polygon fill="#63b8ff" stroke="#63b8ff" points="554.15,-66.5 564.15,-63 554.15,-59.5 554.15,-66.5"/>
</a>
</g>
</g>
<!-- Node13 -->
<g id="Node000013" class="node">
<title>Node13</title>
<g id="a_Node000013"><a xlink:href="namespacereal__data__fetcher.html#a8e813225fc6d948bb9d5f56142b9daf2" target="_top" xlink:title=" ">
<polygon fill="white" stroke="#666666" points="523,-30 419,-30 419,0 523,0 523,-30"/>
<text text-anchor="start" x="427" y="-18" font-family="Helvetica,sans-Serif" font-size="10.00">real_data_fetcher.</text>
<text text-anchor="middle" x="471" y="-7" font-family="Helvetica,sans-Serif" font-size="10.00">_serialize_graph</text>
</a>
</g>
</g>
<!-- Node12&#45;&gt;Node13 -->
<g id="edge12_Node000012_Node000013" class="edge">
<title>Node12&#45;&gt;Node13</title>
<g id="a_edge12_Node000012_Node000013"><a xlink:title=" ">
<path fill="none" stroke="#63b8ff" d="M340.74,-15C361.89,-15 386.57,-15 408.66,-15"/>
<polygon fill="#63b8ff" stroke="#63b8ff" points="408.94,-18.5 418.94,-15 408.94,-11.5 408.94,-18.5"/>
</a>
</g>
</g>
<!-- Node14 -->
<g id="Node000014" class="node">
<title>Node14</title>
<g id="a_Node000014"><a xlink:href="namespacereal__data__fetcher.html#aa49e9b3286af259490d5da8498795117" target="_top" xlink:title=" ">
<polygon fill="white" stroke="#666666" points="676,-30 561,-30 561,0 676,0 676,-30"/>
<text text-anchor="start" x="569" y="-18" font-family="Helvetica,sans-Serif" font-size="10.00">real_data_fetcher.</text>
<text text-anchor="middle" x="618.5" y="-7" font-family="Helvetica,sans-Serif" font-size="10.00">_serialize_dataclass</text>
</a>
</g>
</g>
<!-- Node13&#45;&gt;Node14 -->
<g id="edge13_Node000013_Node000014" class="edge">
<title>Node13&#45;&gt;Node14</title>
<g id="a_edge13_Node000013_Node000014"><a xlink:title=" ">
<path fill="none" stroke="#63b8ff" d="M523.3,-15C532.1,-15 541.35,-15 550.49,-15"/>
<polygon fill="#63b8ff" stroke="#63b8ff" points="550.72,-18.5 560.72,-15 550.72,-11.5 550.72,-18.5"/>
</a>
</g>
</g>
<!-- Node15 -->
<g id="Node000015" class="node">
<title>Node15</title>
<g id="a_Node000015"><a xlink:href="namespacereal__data__fetcher.html#af21d5c52e7d58d6cfe7230e7f54a35f3" target="_top" xlink:title=" ">
<polygon fill="white" stroke="#666666" points="816,-30 712,-30 712,0 816,0 816,-30"/>
<text text-anchor="start" x="720" y="-18" font-family="Helvetica,sans-Serif" font-size="10.00">real_data_fetcher.</text>
<text text-anchor="middle" x="764" y="-7" font-family="Helvetica,sans-Serif" font-size="10.00">_enum_to_value</text>
</a>
</g>
</g>
<!-- Node14&#45;&gt;Node15 -->
<g id="edge14_Node000014_Node000015" class="edge">
<title>Node14&#45;&gt;Node15</title>
<g id="a_edge14_Node000014_Node000015"><a xlink:title=" ">
<path fill="none" stroke="#63b8ff" d="M676.21,-15C684.57,-15 693.21,-15 701.65,-15"/>
<polygon fill="#63b8ff" stroke="#63b8ff" points="701.82,-18.5 711.82,-15 701.82,-11.5 701.82,-18.5"/>
</a>
</g>
</g>
</g>
</svg>

<g id="navigator" transform="translate(0 0)" fill="#404254">
  <rect fill="#f2f5e9" fill-opacity="0.5" stroke="#606060" stroke-width=".5" x="0" y="0" width="60" height="60"/>
  <use id="zoomplus" xlink:href="#zoomPlus" x="17" y="9" onmousedown="handleZoom(evt,'in')"/>
  <use id="zoomminus" xlink:href="#zoomMin" x="42" y="9" onmousedown="handleZoom(evt,'out')"/>
  <use id="reset" xlink:href="#resetDef" x="30" y="36" onmousedown="handleReset()"/>
   <use id="arrowup" xlink:href="#arrowUp" x="0" y="0" onmousedown="handlePan(0,-1)"/>
  <use id="arrowright" xlink:href="#arrowRight" x="0" y="0" onmousedown="handlePan(1,0)"/>
  <use id="arrowdown" xlink:href="#arrowDown" x="0" y="0" onmousedown="handlePan(0,1)"/>
  <use id="arrowleft" xlink:href="#arrowLeft" x="0" y="0" onmousedown="handlePan(-1,0)"/>
</g>
<svg viewBox="0 0 15 15" width="100%" height="30px" preserveAspectRatio="xMaxYMin meet">
 <g id="arrow_out" transform="scale(0.3 0.3)">
  <a xlink:href="classreal__data__fetcher_1_1RealDataFetcher_a9a0b50ea3d53d8cd924fe836f2e15f3e_cgraph_org.svg" target="_base">
   <rect id="button" ry="5" rx="5" y="6" x="6" height="38" width="38"
        fill="#f2f5e9" fill-opacity="0.5" stroke="#606060" stroke-width="1.0"/>
   <path id="arrow"
     d="M 11.500037,31.436501 C 11.940474,20.09759 22.043105,11.32322 32.158766,21.979434 L 37.068811,17.246167 C 37.068811,17.246167 37.088388,32 37.088388,32 L 22.160133,31.978069 C 22.160133,31.978069 26.997745,27.140456 26.997745,27.140456 C 18.528582,18.264221 13.291696,25.230495 11.500037,31.436501 z"
     style="fill:#404040;"/>
  </a>
 </g>
</svg>

<style type='text/css'>
<![CDATA[
[data-mouse-over-selected='false'] { opacity: 0.7; }
[data-mouse-over-selected='true']  { opacity: 1.0; }
]]>
</style>
<script type="application/ecmascript"><![CDATA[
document.addEventListener('DOMContentLoaded', (event) => {
  highlightEdges();
  highlightAdjacentNodes();
});
]]></script>
</svg>
