<?xml version="1.0" encoding="UTF-8" standalone="no"?>
<!DOCTYPE svg PUBLIC "-//W3C//DTD SVG 1.1//EN"
 "http://www.w3.org/Graphics/SVG/1.1/DTD/svg11.dtd">
<!-- Generated by graphviz version 2.43.0 (0)
 -->
<!-- Title: financial_models.Currency Pages: 1 -->
<svg width="269pt" height="284pt"
 viewBox="0.00 0.00 268.50 284.00" xmlns="http://www.w3.org/2000/svg" xmlns:xlink="http://www.w3.org/1999/xlink">
<g id="graph0" class="graph" transform="scale(1 1) rotate(0) translate(4 280)">
<title>financial_models.Currency</title>
<!-- Node1 -->
<g id="Node000001" class="node">
<title>Node1</title>
<g id="a_Node000001"><a xlink:title=" ">
<polygon fill="#999999" stroke="transparent" points="140,-49 0,-49 0,0 140,0 140,-49"/>
<text text-anchor="start" x="5" y="-36.5" font-family="Helvetica,sans-Serif" font-size="10.00">financial_models.Currency</text>
<text text-anchor="start" x="68" y="-21.5" font-family="Helvetica,sans-Serif" font-size="10.00"> </text>
<text text-anchor="start" x="68" y="-6.5" font-family="Helvetica,sans-Serif" font-size="10.00"> </text>
<polygon fill="#666666" stroke="#666666" points="0,-31.5 0,-31.5 140,-31.5 140,-31.5 0,-31.5"/>
<polygon fill="#666666" stroke="#666666" points="0,-16.5 0,-16.5 140,-16.5 140,-16.5 0,-16.5"/>
<polygon fill="none" stroke="#666666" points="0,0 0,-49 140,-49 140,0 0,0"/>
</a>
</g>
</g>
<!-- Node2 -->
<g id="Node000002" class="node">
<title>Node2</title>
<g id="a_Node000002"><a xlink:href="classfinancial__models_1_1Asset.html" target="_top" xlink:title=" ">
<polygon fill="white" stroke="transparent" points="260.5,-180 137.5,-180 137.5,-86 260.5,-86 260.5,-180"/>
<text text-anchor="start" x="143" y="-168" font-family="Helvetica,sans-Serif" font-size="10.00">financial_models.Asset</text>
<text text-anchor="start" x="149.5" y="-153" font-family="Helvetica,sans-Serif" font-size="10.00">+</text>
<text text-anchor="start" x="170" y="-153" font-family="Helvetica,sans-Serif" font-size="10.00">id</text>
<text text-anchor="start" x="149.5" y="-138" font-family="Helvetica,sans-Serif" font-size="10.00">+</text>
<text text-anchor="start" x="170" y="-138" font-family="Helvetica,sans-Serif" font-size="10.00">symbol</text>
<text text-anchor="start" x="149.5" y="-123" font-family="Helvetica,sans-Serif" font-size="10.00">+</text>
<text text-anchor="start" x="170" y="-123" font-family="Helvetica,sans-Serif" font-size="10.00">name</text>
<text text-anchor="start" x="149.5" y="-108" font-family="Helvetica,sans-Serif" font-size="10.00">+</text>
<text text-anchor="start" x="170" y="-108" font-family="Helvetica,sans-Serif" font-size="10.00">price</text>
<text text-anchor="start" x="149.5" y="-93" font-family="Helvetica,sans-Serif" font-size="10.00">+</text>
<text text-anchor="start" x="170" y="-93" font-family="Helvetica,sans-Serif" font-size="10.00">__post_init__()</text>
<polygon fill="#666666" stroke="#666666" points="138,-163 138,-163 261,-163 261,-163 138,-163"/>
<polygon fill="#666666" stroke="#666666" points="138,-103 138,-103 168,-103 168,-103 138,-103"/>
<polygon fill="#666666" stroke="#666666" points="168,-103 168,-103 261,-103 261,-103 168,-103"/>
<polygon fill="none" stroke="#666666" points="137.5,-86 137.5,-180 260.5,-180 260.5,-86 137.5,-86"/>
</a>
</g>
</g>
<!-- Node2&#45;&gt;Node1 -->
<g id="edge1_Node000001_Node000002" class="edge">
<title>Node2&#45;&gt;Node1</title>
<g id="a_edge1_Node000001_Node000002"><a xlink:title=" ">
<path fill="none" stroke="#63b8ff" d="M135.19,-79.32C122.35,-68.72 109.46,-58.08 98.58,-49.1"/>
<polygon fill="none" stroke="#63b8ff" points="133.23,-82.24 143.17,-85.91 137.69,-76.84 133.23,-82.24"/>
</a>
</g>
</g>
<!-- Node3 -->
<g id="Node000003" class="node">
<title>Node3</title>
<g id="a_Node000003"><a xlink:title=" ">
<polygon fill="white" stroke="transparent" points="67,-276 15,-276 15,-227 67,-227 67,-276"/>
<text text-anchor="start" x="20" y="-263.5" font-family="Helvetica,sans-Serif" font-size="10.00">Optional</text>
<text text-anchor="start" x="39" y="-248.5" font-family="Helvetica,sans-Serif" font-size="10.00"> </text>
<text text-anchor="start" x="39" y="-233.5" font-family="Helvetica,sans-Serif" font-size="10.00"> </text>
<polygon fill="#666666" stroke="#666666" points="15,-258.5 15,-258.5 67,-258.5 67,-258.5 15,-258.5"/>
<polygon fill="#666666" stroke="#666666" points="15,-243.5 15,-243.5 67,-243.5 67,-243.5 15,-243.5"/>
<polygon fill="none" stroke="#666666" points="15,-227 15,-276 67,-276 67,-227 15,-227"/>
</a>
</g>
</g>
<!-- Node3&#45;&gt;Node1 -->
<g id="edge4_Node000001_Node000003" class="edge">
<title>Node3&#45;&gt;Node1</title>
<g id="a_edge4_Node000001_Node000003"><a xlink:title=" ">
<path fill="none" stroke="#63b8ff" d="M33.72,-227C24.86,-194.5 12.85,-134.39 28,-86 30.93,-76.65 35.87,-67.47 41.35,-59.21"/>
<polygon fill="none" stroke="#63b8ff" points="41.48,-59.03 41.73,-51.82 48.48,-49.28 48.23,-56.49 41.48,-59.03"/>
</a>
</g>
<text text-anchor="middle" x="78" y="-141.5" font-family="Helvetica,sans-Serif" font-size="10.00" fill="grey"> +central_bank_rate</text>
<text text-anchor="middle" x="78" y="-130.5" font-family="Helvetica,sans-Serif" font-size="10.00" fill="grey">+country</text>
<text text-anchor="middle" x="78" y="-119.5" font-family="Helvetica,sans-Serif" font-size="10.00" fill="grey">+exchange_rate</text>
</g>
<!-- Node3&#45;&gt;Node2 -->
<g id="edge2_Node000002_Node000003" class="edge">
<title>Node3&#45;&gt;Node2</title>
<g id="a_edge2_Node000002_Node000003"><a xlink:title=" ">
<path fill="none" stroke="#63b8ff" d="M67.09,-231.26C83.66,-219.04 105.98,-202.59 127.54,-186.69"/>
<polygon fill="none" stroke="#63b8ff" points="127.71,-186.56 130.17,-179.78 137.37,-179.44 134.91,-186.22 127.71,-186.56"/>
</a>
</g>
<text text-anchor="middle" x="145.5" y="-201" font-family="Helvetica,sans-Serif" font-size="10.00" fill="grey"> +market_cap</text>
</g>
<!-- Node4 -->
<g id="Node000004" class="node">
<title>Node4</title>
<g id="a_Node000004"><a xlink:title=" ">
<polygon fill="white" stroke="transparent" points="210.5,-276 187.5,-276 187.5,-227 210.5,-227 210.5,-276"/>
<text text-anchor="start" x="193" y="-263.5" font-family="Helvetica,sans-Serif" font-size="10.00">str</text>
<text text-anchor="start" x="197.5" y="-248.5" font-family="Helvetica,sans-Serif" font-size="10.00"> </text>
<text text-anchor="start" x="197.5" y="-233.5" font-family="Helvetica,sans-Serif" font-size="10.00"> </text>
<polygon fill="#666666" stroke="#666666" points="188,-258.5 188,-258.5 211,-258.5 211,-258.5 188,-258.5"/>
<polygon fill="#666666" stroke="#666666" points="188,-243.5 188,-243.5 211,-243.5 211,-243.5 188,-243.5"/>
<polygon fill="none" stroke="#666666" points="187.5,-227 187.5,-276 210.5,-276 210.5,-227 187.5,-227"/>
</a>
</g>
</g>
<!-- Node4&#45;&gt;Node2 -->
<g id="edge3_Node000002_Node000004" class="edge">
<title>Node4&#45;&gt;Node2</title>
<g id="a_edge3_Node000002_Node000004"><a xlink:title=" ">
<path fill="none" stroke="#63b8ff" d="M199,-226.92C199,-216.85 199,-204.6 199,-192.35"/>
<polygon fill="none" stroke="#63b8ff" points="199,-192.17 195,-186.17 199,-180.17 203,-186.17 199,-192.17"/>
</a>
</g>
<text text-anchor="middle" x="226" y="-201" font-family="Helvetica,sans-Serif" font-size="10.00" fill="grey"> +currency</text>
</g>
</g>
</svg>
