<?xml version="1.0" encoding="UTF-8" standalone="no"?>
<!DOCTYPE svg PUBLIC "-//W3C//DTD SVG 1.1//EN"
 "http://www.w3.org/Graphics/SVG/1.1/DTD/svg11.dtd">
<!-- Generated by graphviz version 2.43.0 (0)
 -->
<!-- Title: api.main.TestWorkflowSecurity Pages: 1 -->
<svg width="172pt" height="113pt"
 viewBox="0.00 0.00 172.00 113.00" xmlns="http://www.w3.org/2000/svg" xmlns:xlink="http://www.w3.org/1999/xlink">
<g id="graph0" class="graph" transform="scale(1 1) rotate(0) translate(4 109)">
<title>api.main.TestWorkflowSecurity</title>
<!-- Node1 -->
<g id="Node000001" class="node">
<title>Node1</title>
<g id="a_Node000001"><a xlink:title=" ">
<polygon fill="#999999" stroke="transparent" points="164,-105 0,-105 0,0 164,0 164,-105"/>
<text text-anchor="start" x="6.5" y="-92.5" font-family="Helvetica,sans-Serif" font-size="10.00">api.main.TestWorkflowSecurity</text>
<text text-anchor="start" x="80" y="-77.5" font-family="Helvetica,sans-Serif" font-size="10.00"> </text>
<text text-anchor="start" x="4" y="-62.5" font-family="Helvetica,sans-Serif" font-size="10.00">+</text>
<text text-anchor="start" x="17" y="-62.5" font-family="Helvetica,sans-Serif" font-size="10.00">workflow_files()</text>
<text text-anchor="start" x="4" y="-47.5" font-family="Helvetica,sans-Serif" font-size="10.00">+</text>
<text text-anchor="start" x="17" y="-47.5" font-family="Helvetica,sans-Serif" font-size="10.00">test_no_hardcoded_secrets()</text>
<text text-anchor="start" x="4" y="-32.5" font-family="Helvetica,sans-Serif" font-size="10.00">+</text>
<text text-anchor="start" x="17" y="-32.5" font-family="Helvetica,sans-Serif" font-size="10.00">test_pull_request_safe</text>
<text text-anchor="start" x="17" y="-21.5" font-family="Helvetica,sans-Serif" font-size="10.00">_checkout()</text>
<text text-anchor="start" x="4" y="-6.5" font-family="Helvetica,sans-Serif" font-size="10.00">+</text>
<text text-anchor="start" x="17" y="-6.5" font-family="Helvetica,sans-Serif" font-size="10.00">test_restricted_permissions()</text>
<polygon fill="#666666" stroke="#666666" points="0,-87.5 0,-87.5 164,-87.5 164,-87.5 0,-87.5"/>
<polygon fill="#666666" stroke="#666666" points="0,-72.5 0,-72.5 164,-72.5 164,-72.5 0,-72.5"/>
<polygon fill="none" stroke="#666666" points="0,0 0,-105 164,-105 164,0 0,0"/>
</a>
</g>
</g>
</g>
</svg>
