<?xml version="1.0" encoding="UTF-8" standalone="no"?>
<!DOCTYPE svg PUBLIC "-//W3C//DTD SVG 1.1//EN"
 "http://www.w3.org/Graphics/SVG/1.1/DTD/svg11.dtd">
<!-- Generated by graphviz version 2.43.0 (0)
 -->
<!-- Title: Base Pages: 1 -->
<!--zoomable 307 -->

<svg id="main" version="1.1" xmlns="http://www.w3.org/2000/svg" xmlns:xlink="http://www.w3.org/1999/xlink" xml:space="preserve" onload="init(evt)">

<style type="text/css"><![CDATA[
.node, .edge {opacity: 0.7;}
.node.selected, .edge.selected {opacity: 1;}
.edge:hover path { stroke: red; }
.edge:hover polygon { stroke: red; fill: red; }
]]></style>

<defs>
  <circle id="rim" cx="0" cy="0" r="7"/>
  <circle id="rim2" cx="0" cy="0" r="3.5"/>
  <g id="zoomPlus">
    <use xlink:href="#rim" fill="#404040"><set attributeName="fill" to="#808080" begin="zoomplus.mouseover" end="zoomplus.mouseout"/></use>
    <path d="M-4,0h8M0,-4v8" fill="none" stroke="white" stroke-width="1.5" pointer-events="none"/>
  </g>
  <g id="zoomMin">
    <use xlink:href="#rim" fill="#404040"><set attributeName="fill" to="#808080" begin="zoomminus.mouseover" end="zoomminus.mouseout"/></use>
    <path d="M-4,0h8" fill="none" stroke="white" stroke-width="1.5" pointer-events="none"/>
  </g>
  <g id="arrowUp" transform="translate(30 24)">
    <use xlink:href="#rim"/>
    <path pointer-events="none" fill="none" stroke="white" stroke-width="1.5" d="M0,-3.0v7 M-2.5,-0.5L0,-3.0L2.5,-0.5"/>
  </g>
  <g id="arrowRight" transform="rotate(90) translate(36 -43)">
    <use xlink:href="#rim"/>
    <path pointer-events="none" fill="none" stroke="white" stroke-width="1.5" d="M0,-3.0v7 M-2.5,-0.5L0,-3.0L2.5,-0.5"/>
  </g>
  <g id="arrowDown" transform="rotate(180) translate(-30 -48)">
    <use xlink:href="#rim"/>
    <path pointer-events="none" fill="none" stroke="white" stroke-width="1.5" d="M0,-3.0v7 M-2.5,-0.5L0,-3.0L2.5,-0.5"/>
  </g>
  <g id="arrowLeft" transform="rotate(270) translate(-36 17)">
    <use xlink:href="#rim"/>
    <path pointer-events="none" fill="none" stroke="white" stroke-width="1.5" d="M0,-3.0v7 M-2.5,-0.5L0,-3.0L2.5,-0.5"/>
  </g>
  <g id="resetDef">
    <use xlink:href="#rim2" fill="#404040"><set attributeName="fill" to="#808080" begin="reset.mouseover" end="reset.mouseout"/></use>
  </g>
</defs>
<script type="application/ecmascript">
var viewWidth = 677;
var viewHeight = 307;
var sectionId = 'dynsection-0';
</script>
<script type="application/ecmascript" xlink:href="svg.min.js"/>
<svg id="graph" class="graph">
<g id="viewport">
<title>Base</title>
<!-- Node1 -->
<g id="Node000001" class="node">
<title>Node1</title>
<g id="a_Node000001"><a xlink:title=" ">
<polygon fill="#999999" stroke="transparent" points="332,-299 297,-299 297,-250 332,-250 332,-299"/>
<text text-anchor="start" x="302.5" y="-286.5" font-family="Helvetica,sans-Serif" font-size="10.00">Base</text>
<text text-anchor="start" x="313" y="-271.5" font-family="Helvetica,sans-Serif" font-size="10.00"> </text>
<text text-anchor="start" x="313" y="-256.5" font-family="Helvetica,sans-Serif" font-size="10.00"> </text>
<polygon fill="#666666" stroke="#666666" points="297.5,-281.5 297.5,-281.5 332.5,-281.5 332.5,-281.5 297.5,-281.5"/>
<polygon fill="#666666" stroke="#666666" points="297.5,-266.5 297.5,-266.5 332.5,-266.5 332.5,-266.5 297.5,-266.5"/>
<polygon fill="none" stroke="#666666" points="297,-250 297,-299 332,-299 332,-250 297,-250"/>
</a>
</g>
</g>
<!-- Node2 -->
<g id="Node000002" class="node">
<title>Node2</title>
<g id="a_Node000002"><a xlink:href="classdb__models_1_1AssetORM.html" target="_top" xlink:title=" ">
<polygon fill="white" stroke="transparent" points="117,-214 0,-214 0,0 117,0 117,-214"/>
<text text-anchor="start" x="5.5" y="-202" font-family="Helvetica,sans-Serif" font-size="10.00">db_models.AssetORM</text>
<text text-anchor="start" x="10" y="-187" font-family="Helvetica,sans-Serif" font-size="10.00">+</text>
<text text-anchor="start" x="28.5" y="-187" font-family="Helvetica,sans-Serif" font-size="10.00">id</text>
<text text-anchor="start" x="10" y="-172" font-family="Helvetica,sans-Serif" font-size="10.00">+</text>
<text text-anchor="start" x="28.5" y="-172" font-family="Helvetica,sans-Serif" font-size="10.00">symbol</text>
<text text-anchor="start" x="10" y="-157" font-family="Helvetica,sans-Serif" font-size="10.00">+</text>
<text text-anchor="start" x="28.5" y="-157" font-family="Helvetica,sans-Serif" font-size="10.00">name</text>
<text text-anchor="start" x="10" y="-142" font-family="Helvetica,sans-Serif" font-size="10.00">+</text>
<text text-anchor="start" x="28.5" y="-142" font-family="Helvetica,sans-Serif" font-size="10.00">asset_class</text>
<text text-anchor="start" x="10" y="-127" font-family="Helvetica,sans-Serif" font-size="10.00">+</text>
<text text-anchor="start" x="28.5" y="-127" font-family="Helvetica,sans-Serif" font-size="10.00">sector</text>
<text text-anchor="start" x="10" y="-112" font-family="Helvetica,sans-Serif" font-size="10.00">+</text>
<text text-anchor="start" x="28.5" y="-112" font-family="Helvetica,sans-Serif" font-size="10.00">price</text>
<text text-anchor="start" x="10" y="-97" font-family="Helvetica,sans-Serif" font-size="10.00">+</text>
<text text-anchor="start" x="28.5" y="-97" font-family="Helvetica,sans-Serif" font-size="10.00">market_cap</text>
<text text-anchor="start" x="10" y="-82" font-family="Helvetica,sans-Serif" font-size="10.00">+</text>
<text text-anchor="start" x="28.5" y="-82" font-family="Helvetica,sans-Serif" font-size="10.00">currency</text>
<text text-anchor="start" x="10" y="-67" font-family="Helvetica,sans-Serif" font-size="10.00">+</text>
<text text-anchor="start" x="28.5" y="-67" font-family="Helvetica,sans-Serif" font-size="10.00">pe_ratio</text>
<text text-anchor="start" x="10" y="-52" font-family="Helvetica,sans-Serif" font-size="10.00">+</text>
<text text-anchor="start" x="28.5" y="-52" font-family="Helvetica,sans-Serif" font-size="10.00">dividend_yield</text>
<text text-anchor="start" x="28.5" y="-37" font-family="Helvetica,sans-Serif" font-size="10.00">and 16 more...</text>
<text text-anchor="start" x="12.5" y="-22" font-family="Helvetica,sans-Serif" font-size="10.00">&#45;</text>
<text text-anchor="start" x="28.5" y="-22" font-family="Helvetica,sans-Serif" font-size="10.00">__tablename__</text>
<text text-anchor="start" x="57" y="-7" font-family="Helvetica,sans-Serif" font-size="10.00"> </text>
<polygon fill="#666666" stroke="#666666" points="0.5,-197 0.5,-197 117.5,-197 117.5,-197 0.5,-197"/>
<polygon fill="#666666" stroke="#666666" points="0.5,-17 0.5,-17 26.5,-17 26.5,-17 0.5,-17"/>
<polygon fill="#666666" stroke="#666666" points="26.5,-17 26.5,-17 117.5,-17 117.5,-17 26.5,-17"/>
<polygon fill="none" stroke="#666666" points="0,0 0,-214 117,-214 117,0 0,0"/>
</a>
</g>
</g>
<!-- Node1&#45;&gt;Node2 -->
<g id="edge1_Node000001_Node000002" class="edge">
<title>Node1&#45;&gt;Node2</title>
<g id="a_edge1_Node000001_Node000002"><a xlink:title=" ">
<path fill="none" stroke="#63b8ff" d="M286.71,-270.67C247.44,-265.45 175.07,-251.19 126.5,-214 123.38,-211.61 120.35,-209.03 117.44,-206.3"/>
<polygon fill="none" stroke="#63b8ff" points="286.52,-274.18 296.87,-271.92 287.37,-267.23 286.52,-274.18"/>
</a>
</g>
</g>
<!-- Node3 -->
<g id="Node000003" class="node">
<title>Node3</title>
<g id="a_Node000003"><a xlink:href="classdb__models_1_1AssetRelationshipORM.html" target="_top" xlink:title=" ">
<polygon fill="white" stroke="transparent" points="313.5,-199 135.5,-199 135.5,-15 313.5,-15 313.5,-199"/>
<text text-anchor="start" x="140.5" y="-187" font-family="Helvetica,sans-Serif" font-size="10.00">db_models.AssetRelationshipORM</text>
<text text-anchor="start" x="157.5" y="-172" font-family="Helvetica,sans-Serif" font-size="10.00">+</text>
<text text-anchor="start" x="188.5" y="-172" font-family="Helvetica,sans-Serif" font-size="10.00">id</text>
<text text-anchor="start" x="157.5" y="-157" font-family="Helvetica,sans-Serif" font-size="10.00">+</text>
<text text-anchor="start" x="188.5" y="-157" font-family="Helvetica,sans-Serif" font-size="10.00">source_asset_id</text>
<text text-anchor="start" x="157.5" y="-142" font-family="Helvetica,sans-Serif" font-size="10.00">+</text>
<text text-anchor="start" x="188.5" y="-142" font-family="Helvetica,sans-Serif" font-size="10.00">target_asset_id</text>
<text text-anchor="start" x="157.5" y="-127" font-family="Helvetica,sans-Serif" font-size="10.00">+</text>
<text text-anchor="start" x="188.5" y="-127" font-family="Helvetica,sans-Serif" font-size="10.00">relationship_type</text>
<text text-anchor="start" x="157.5" y="-112" font-family="Helvetica,sans-Serif" font-size="10.00">+</text>
<text text-anchor="start" x="188.5" y="-112" font-family="Helvetica,sans-Serif" font-size="10.00">strength</text>
<text text-anchor="start" x="157.5" y="-97" font-family="Helvetica,sans-Serif" font-size="10.00">+</text>
<text text-anchor="start" x="188.5" y="-97" font-family="Helvetica,sans-Serif" font-size="10.00">bidirectional</text>
<text text-anchor="start" x="157.5" y="-82" font-family="Helvetica,sans-Serif" font-size="10.00">+</text>
<text text-anchor="start" x="188.5" y="-82" font-family="Helvetica,sans-Serif" font-size="10.00">source</text>
<text text-anchor="start" x="157.5" y="-67" font-family="Helvetica,sans-Serif" font-size="10.00">+</text>
<text text-anchor="start" x="188.5" y="-67" font-family="Helvetica,sans-Serif" font-size="10.00">target</text>
<text text-anchor="start" x="160" y="-52" font-family="Helvetica,sans-Serif" font-size="10.00">&#45;</text>
<text text-anchor="start" x="188.5" y="-52" font-family="Helvetica,sans-Serif" font-size="10.00">__tablename__</text>
<text text-anchor="start" x="160" y="-37" font-family="Helvetica,sans-Serif" font-size="10.00">&#45;</text>
<text text-anchor="start" x="188.5" y="-37" font-family="Helvetica,sans-Serif" font-size="10.00">__table_args__</text>
<text text-anchor="start" x="222.5" y="-22" font-family="Helvetica,sans-Serif" font-size="10.00"> </text>
<polygon fill="#666666" stroke="#666666" points="135.5,-182 135.5,-182 313.5,-182 313.5,-182 135.5,-182"/>
<polygon fill="#666666" stroke="#666666" points="135.5,-32 135.5,-32 186.5,-32 186.5,-32 135.5,-32"/>
<polygon fill="#666666" stroke="#666666" points="186.5,-32 186.5,-32 313.5,-32 313.5,-32 186.5,-32"/>
<polygon fill="none" stroke="#666666" points="135.5,-15 135.5,-199 313.5,-199 313.5,-15 135.5,-15"/>
</a>
</g>
</g>
<!-- Node1&#45;&gt;Node3 -->
<g id="edge2_Node000001_Node000003" class="edge">
<title>Node1&#45;&gt;Node3</title>
<g id="a_edge2_Node000001_Node000003"><a xlink:title=" ">
<path fill="none" stroke="#63b8ff" d="M296.79,-240.93C290.14,-228.71 282.22,-214.14 274.1,-199.2"/>
<polygon fill="none" stroke="#63b8ff" points="293.75,-242.67 301.61,-249.79 299.9,-239.33 293.75,-242.67"/>
</a>
</g>
</g>
<!-- Node4 -->
<g id="Node000004" class="node">
<title>Node4</title>
<g id="a_Node000004"><a xlink:href="classdb__models_1_1RegulatoryEventAssetORM.html" target="_top" xlink:title=" ">
<polygon fill="white" stroke="transparent" points="479.5,-182 331.5,-182 331.5,-32 479.5,-32 479.5,-182"/>
<text text-anchor="start" x="336.5" y="-170" font-family="Helvetica,sans-Serif" font-size="10.00">db_models.RegulatoryEvent</text>
<text text-anchor="start" x="380" y="-159" font-family="Helvetica,sans-Serif" font-size="10.00">AssetORM</text>
<text text-anchor="start" x="348.5" y="-144" font-family="Helvetica,sans-Serif" font-size="10.00">+</text>
<text text-anchor="start" x="374.5" y="-144" font-family="Helvetica,sans-Serif" font-size="10.00">id</text>
<text text-anchor="start" x="348.5" y="-129" font-family="Helvetica,sans-Serif" font-size="10.00">+</text>
<text text-anchor="start" x="374.5" y="-129" font-family="Helvetica,sans-Serif" font-size="10.00">event_id</text>
<text text-anchor="start" x="348.5" y="-114" font-family="Helvetica,sans-Serif" font-size="10.00">+</text>
<text text-anchor="start" x="374.5" y="-114" font-family="Helvetica,sans-Serif" font-size="10.00">asset_id</text>
<text text-anchor="start" x="348.5" y="-99" font-family="Helvetica,sans-Serif" font-size="10.00">+</text>
<text text-anchor="start" x="374.5" y="-99" font-family="Helvetica,sans-Serif" font-size="10.00">event</text>
<text text-anchor="start" x="348.5" y="-84" font-family="Helvetica,sans-Serif" font-size="10.00">+</text>
<text text-anchor="start" x="374.5" y="-84" font-family="Helvetica,sans-Serif" font-size="10.00">asset</text>
<text text-anchor="start" x="351" y="-69" font-family="Helvetica,sans-Serif" font-size="10.00">&#45;</text>
<text text-anchor="start" x="374.5" y="-69" font-family="Helvetica,sans-Serif" font-size="10.00">__tablename__</text>
<text text-anchor="start" x="351" y="-54" font-family="Helvetica,sans-Serif" font-size="10.00">&#45;</text>
<text text-anchor="start" x="374.5" y="-54" font-family="Helvetica,sans-Serif" font-size="10.00">__table_args__</text>
<text text-anchor="start" x="403.5" y="-39" font-family="Helvetica,sans-Serif" font-size="10.00"> </text>
<polygon fill="#666666" stroke="#666666" points="331.5,-154 331.5,-154 479.5,-154 479.5,-154 331.5,-154"/>
<polygon fill="#666666" stroke="#666666" points="331.5,-49 331.5,-49 372.5,-49 372.5,-49 331.5,-49"/>
<polygon fill="#666666" stroke="#666666" points="372.5,-49 372.5,-49 479.5,-49 479.5,-49 372.5,-49"/>
<polygon fill="none" stroke="#666666" points="331.5,-32 331.5,-182 479.5,-182 479.5,-32 331.5,-32"/>
</a>
</g>
</g>
<!-- Node1&#45;&gt;Node4 -->
<g id="edge3_Node000001_Node000004" class="edge">
<title>Node1&#45;&gt;Node4</title>
<g id="a_edge3_Node000001_Node000004"><a xlink:title=" ">
<path fill="none" stroke="#63b8ff" d="M332.41,-240.93C341.67,-224.09 353.37,-202.81 364.68,-182.24"/>
<polygon fill="none" stroke="#63b8ff" points="329.29,-239.34 327.54,-249.79 335.42,-242.71 329.29,-239.34"/>
</a>
</g>
</g>
<!-- Node5 -->
<g id="Node000005" class="node">
<title>Node5</title>
<g id="a_Node000005"><a xlink:href="classdb__models_1_1RegulatoryEventORM.html" target="_top" xlink:title=" ">
<polygon fill="white" stroke="transparent" points="669,-191.5 498,-191.5 498,-22.5 669,-22.5 669,-191.5"/>
<text text-anchor="start" x="503.5" y="-179" font-family="Helvetica,sans-Serif" font-size="10.00">db_models.RegulatoryEventORM</text>
<text text-anchor="start" x="521.5" y="-164" font-family="Helvetica,sans-Serif" font-size="10.00">+</text>
<text text-anchor="start" x="553.5" y="-164" font-family="Helvetica,sans-Serif" font-size="10.00">id</text>
<text text-anchor="start" x="521.5" y="-149" font-family="Helvetica,sans-Serif" font-size="10.00">+</text>
<text text-anchor="start" x="553.5" y="-149" font-family="Helvetica,sans-Serif" font-size="10.00">asset_id</text>
<text text-anchor="start" x="521.5" y="-134" font-family="Helvetica,sans-Serif" font-size="10.00">+</text>
<text text-anchor="start" x="553.5" y="-134" font-family="Helvetica,sans-Serif" font-size="10.00">event_type</text>
<text text-anchor="start" x="521.5" y="-119" font-family="Helvetica,sans-Serif" font-size="10.00">+</text>
<text text-anchor="start" x="553.5" y="-119" font-family="Helvetica,sans-Serif" font-size="10.00">date</text>
<text text-anchor="start" x="521.5" y="-104" font-family="Helvetica,sans-Serif" font-size="10.00">+</text>
<text text-anchor="start" x="553.5" y="-104" font-family="Helvetica,sans-Serif" font-size="10.00">description</text>
<text text-anchor="start" x="521.5" y="-89" font-family="Helvetica,sans-Serif" font-size="10.00">+</text>
<text text-anchor="start" x="553.5" y="-89" font-family="Helvetica,sans-Serif" font-size="10.00">impact_score</text>
<text text-anchor="start" x="521.5" y="-74" font-family="Helvetica,sans-Serif" font-size="10.00">+</text>
<text text-anchor="start" x="553.5" y="-74" font-family="Helvetica,sans-Serif" font-size="10.00">asset</text>
<text text-anchor="start" x="521.5" y="-59" font-family="Helvetica,sans-Serif" font-size="10.00">+</text>
<text text-anchor="start" x="553.5" y="-59" font-family="Helvetica,sans-Serif" font-size="10.00">related_assets</text>
<text text-anchor="start" x="524" y="-44" font-family="Helvetica,sans-Serif" font-size="10.00">&#45;</text>
<text text-anchor="start" x="553.5" y="-44" font-family="Helvetica,sans-Serif" font-size="10.00">__tablename__</text>
<text text-anchor="start" x="582" y="-29" font-family="Helvetica,sans-Serif" font-size="10.00"> </text>
<polygon fill="#666666" stroke="#666666" points="498.5,-174 498.5,-174 669.5,-174 669.5,-174 498.5,-174"/>
<polygon fill="#666666" stroke="#666666" points="498.5,-39 498.5,-39 551.5,-39 551.5,-39 498.5,-39"/>
<polygon fill="#666666" stroke="#666666" points="551.5,-39 551.5,-39 669.5,-39 669.5,-39 551.5,-39"/>
<polygon fill="none" stroke="#666666" points="498,-22.5 498,-191.5 669,-191.5 669,-22.5 498,-22.5"/>
</a>
</g>
</g>
<!-- Node1&#45;&gt;Node5 -->
<g id="edge4_Node000001_Node000005" class="edge">
<title>Node1&#45;&gt;Node5</title>
<g id="a_edge4_Node000001_Node000005"><a xlink:title=" ">
<path fill="none" stroke="#63b8ff" d="M342.36,-268.54C378.44,-261.13 442.18,-244.66 488.5,-214 498.29,-207.52 507.71,-199.8 516.58,-191.51"/>
<polygon fill="none" stroke="#63b8ff" points="341.24,-265.19 332.1,-270.55 342.59,-272.06 341.24,-265.19"/>
</a>
</g>
</g>
</g>
</svg>

<g id="navigator" transform="translate(0 0)" fill="#404254">
  <rect fill="#f2f5e9" fill-opacity="0.5" stroke="#606060" stroke-width=".5" x="0" y="0" width="60" height="60"/>
  <use id="zoomplus" xlink:href="#zoomPlus" x="17" y="9" onmousedown="handleZoom(evt,'in')"/>
  <use id="zoomminus" xlink:href="#zoomMin" x="42" y="9" onmousedown="handleZoom(evt,'out')"/>
  <use id="reset" xlink:href="#resetDef" x="30" y="36" onmousedown="handleReset()"/>
   <use id="arrowup" xlink:href="#arrowUp" x="0" y="0" onmousedown="handlePan(0,-1)"/>
  <use id="arrowright" xlink:href="#arrowRight" x="0" y="0" onmousedown="handlePan(1,0)"/>
  <use id="arrowdown" xlink:href="#arrowDown" x="0" y="0" onmousedown="handlePan(0,1)"/>
  <use id="arrowleft" xlink:href="#arrowLeft" x="0" y="0" onmousedown="handlePan(-1,0)"/>
</g>
<svg viewBox="0 0 15 15" width="100%" height="30px" preserveAspectRatio="xMaxYMin meet">
 <g id="arrow_out" transform="scale(0.3 0.3)">
  <a xlink:href="classBase__inherit__graph_org.svg" target="_base">
   <rect id="button" ry="5" rx="5" y="6" x="6" height="38" width="38"
        fill="#f2f5e9" fill-opacity="0.5" stroke="#606060" stroke-width="1.0"/>
   <path id="arrow"
     d="M 11.500037,31.436501 C 11.940474,20.09759 22.043105,11.32322 32.158766,21.979434 L 37.068811,17.246167 C 37.068811,17.246167 37.088388,32 37.088388,32 L 22.160133,31.978069 C 22.160133,31.978069 26.997745,27.140456 26.997745,27.140456 C 18.528582,18.264221 13.291696,25.230495 11.500037,31.436501 z"
     style="fill:#404040;"/>
  </a>
 </g>
</svg>

<style type='text/css'>
<![CDATA[
[data-mouse-over-selected='false'] { opacity: 0.7; }
[data-mouse-over-selected='true']  { opacity: 1.0; }
]]>
</style>
<script type="application/ecmascript"><![CDATA[
document.addEventListener('DOMContentLoaded', (event) => {
  highlightEdges();
  highlightAdjacentNodes();
});
]]></script>
</svg>
