<?xml version="1.0" encoding="UTF-8" standalone="no"?>
<!DOCTYPE svg PUBLIC "-//W3C//DTD SVG 1.1//EN"
 "http://www.w3.org/Graphics/SVG/1.1/DTD/svg11.dtd">
<!-- Generated by graphviz version 2.43.0 (0)
 -->
<!-- Title: financial_models.Bond Pages: 1 -->
<svg width="131pt" height="277pt"
 viewBox="0.00 0.00 131.00 277.00" xmlns="http://www.w3.org/2000/svg" xmlns:xlink="http://www.w3.org/1999/xlink">

<svg id="main" version="1.1" xmlns="http://www.w3.org/2000/svg" xmlns:xlink="http://www.w3.org/1999/xlink" xml:space="preserve">

<style type="text/css"><![CDATA[
.node, .edge {opacity: 0.7;}
.node.selected, .edge.selected {opacity: 1;}
.edge:hover path { stroke: red; }
.edge:hover polygon { stroke: red; fill: red; }
]]></style>
<script type="application/ecmascript" xlink:href="svg.min.js"/>
<svg id="graph" class="graph">
<g id="graph0" class="graph" transform="scale(1 1) rotate(0) translate(4 273)">
<title>financial_models.Bond</title>
<!-- Node1 -->
<g id="Node000001" class="node">
<title>Node1</title>
<g id="a_Node000001"><a xlink:title=" ">
<polygon fill="#999999" stroke="transparent" points="122,-109 1,-109 1,0 122,0 122,-109"/>
<text text-anchor="start" x="6.5" y="-96.5" font-family="Helvetica,sans-Serif" font-size="10.00">financial_models.Bond</text>
<text text-anchor="start" x="8.5" y="-81.5" font-family="Helvetica,sans-Serif" font-size="10.00">+</text>
<text text-anchor="start" x="24.5" y="-81.5" font-family="Helvetica,sans-Serif" font-size="10.00">yield_to_maturity</text>
<text text-anchor="start" x="8.5" y="-66.5" font-family="Helvetica,sans-Serif" font-size="10.00">+</text>
<text text-anchor="start" x="24.5" y="-66.5" font-family="Helvetica,sans-Serif" font-size="10.00">coupon_rate</text>
<text text-anchor="start" x="8.5" y="-51.5" font-family="Helvetica,sans-Serif" font-size="10.00">+</text>
<text text-anchor="start" x="24.5" y="-51.5" font-family="Helvetica,sans-Serif" font-size="10.00">maturity_date</text>
<text text-anchor="start" x="8.5" y="-36.5" font-family="Helvetica,sans-Serif" font-size="10.00">+</text>
<text text-anchor="start" x="24.5" y="-36.5" font-family="Helvetica,sans-Serif" font-size="10.00">credit_rating</text>
<text text-anchor="start" x="8.5" y="-21.5" font-family="Helvetica,sans-Serif" font-size="10.00">+</text>
<text text-anchor="start" x="24.5" y="-21.5" font-family="Helvetica,sans-Serif" font-size="10.00">issuer_id</text>
<text text-anchor="start" x="60" y="-6.5" font-family="Helvetica,sans-Serif" font-size="10.00"> </text>
<polygon fill="#666666" stroke="#666666" points="1.5,-91.5 1.5,-91.5 122.5,-91.5 122.5,-91.5 1.5,-91.5"/>
<polygon fill="#666666" stroke="#666666" points="1.5,-16.5 1.5,-16.5 22.5,-16.5 22.5,-16.5 1.5,-16.5"/>
<polygon fill="#666666" stroke="#666666" points="22.5,-16.5 22.5,-16.5 122.5,-16.5 122.5,-16.5 22.5,-16.5"/>
<polygon fill="none" stroke="#666666" points="1,0 1,-109 122,-109 122,0 1,0"/>
</a>
</g>
</g>
<!-- Node2 -->
<g id="Node000002" class="node">
<title>Node2</title>
<g id="a_Node000002"><a xlink:href="classfinancial__models_1_1Asset.html" target="_top" xlink:title=" ">
<polygon fill="white" stroke="transparent" points="123,-269 0,-269 0,-145 123,-145 123,-269"/>
<text text-anchor="start" x="5.5" y="-257" font-family="Helvetica,sans-Serif" font-size="10.00">financial_models.Asset</text>
<text text-anchor="start" x="12" y="-242" font-family="Helvetica,sans-Serif" font-size="10.00">+</text>
<text text-anchor="start" x="32.5" y="-242" font-family="Helvetica,sans-Serif" font-size="10.00">id</text>
<text text-anchor="start" x="12" y="-227" font-family="Helvetica,sans-Serif" font-size="10.00">+</text>
<text text-anchor="start" x="32.5" y="-227" font-family="Helvetica,sans-Serif" font-size="10.00">symbol</text>
<text text-anchor="start" x="12" y="-212" font-family="Helvetica,sans-Serif" font-size="10.00">+</text>
<text text-anchor="start" x="32.5" y="-212" font-family="Helvetica,sans-Serif" font-size="10.00">name</text>
<text text-anchor="start" x="12" y="-197" font-family="Helvetica,sans-Serif" font-size="10.00">+</text>
<text text-anchor="start" x="32.5" y="-197" font-family="Helvetica,sans-Serif" font-size="10.00">price</text>
<text text-anchor="start" x="12" y="-182" font-family="Helvetica,sans-Serif" font-size="10.00">+</text>
<text text-anchor="start" x="32.5" y="-182" font-family="Helvetica,sans-Serif" font-size="10.00">market_cap</text>
<text text-anchor="start" x="12" y="-167" font-family="Helvetica,sans-Serif" font-size="10.00">+</text>
<text text-anchor="start" x="32.5" y="-167" font-family="Helvetica,sans-Serif" font-size="10.00">currency</text>
<text text-anchor="start" x="12" y="-152" font-family="Helvetica,sans-Serif" font-size="10.00">+</text>
<text text-anchor="start" x="32.5" y="-152" font-family="Helvetica,sans-Serif" font-size="10.00">__post_init__()</text>
<polygon fill="#666666" stroke="#666666" points="0.5,-252 0.5,-252 123.5,-252 123.5,-252 0.5,-252"/>
<polygon fill="#666666" stroke="#666666" points="0.5,-162 0.5,-162 30.5,-162 30.5,-162 0.5,-162"/>
<polygon fill="#666666" stroke="#666666" points="30.5,-162 30.5,-162 123.5,-162 123.5,-162 30.5,-162"/>
<polygon fill="none" stroke="#666666" points="0,-145 0,-269 123,-269 123,-145 0,-145"/>
</a>
</g>
</g>
<!-- Node2&#45;&gt;Node1 -->
<g id="edge1_Node000001_Node000002" class="edge">
<title>Node2&#45;&gt;Node1</title>
<g id="a_edge1_Node000001_Node000002"><a xlink:title=" ">
<path fill="none" stroke="#63b8ff" d="M61.5,-134.53C61.5,-126.08 61.5,-117.56 61.5,-109.41"/>
<polygon fill="none" stroke="#63b8ff" points="58,-134.79 61.5,-144.79 65,-134.79 58,-134.79"/>
</a>
</g>
</g>
</g>
</svg>
</svg>

<style type='text/css'>
<![CDATA[
[data-mouse-over-selected='false'] { opacity: 0.7; }
[data-mouse-over-selected='true']  { opacity: 1.0; }
]]>
</style>
<script type="application/ecmascript"><![CDATA[
document.addEventListener('DOMContentLoaded', (event) => {
  highlightEdges();
  highlightAdjacentNodes();
});
]]></script>
</svg>
