<?xml version="1.0" encoding="UTF-8" standalone="no"?>
<!DOCTYPE svg PUBLIC "-//W3C//DTD SVG 1.1//EN"
 "http://www.w3.org/Graphics/SVG/1.1/DTD/svg11.dtd">
<!-- Generated by graphviz version 2.43.0 (0)
 -->
<!-- Title: api.main.TestWorkflowMaintainability Pages: 1 -->
<svg width="202pt" height="94pt"
 viewBox="0.00 0.00 202.00 94.00" xmlns="http://www.w3.org/2000/svg" xmlns:xlink="http://www.w3.org/1999/xlink">
<g id="graph0" class="graph" transform="scale(1 1) rotate(0) translate(4 90)">
<title>api.main.TestWorkflowMaintainability</title>
<!-- Node1 -->
<g id="Node000001" class="node">
<title>Node1</title>
<g id="a_Node000001"><a xlink:title=" ">
<polygon fill="#999999" stroke="transparent" points="194,-86 0,-86 0,0 194,0 194,-86"/>
<text text-anchor="start" x="5" y="-74" font-family="Helvetica,sans-Serif" font-size="10.00">api.main.TestWorkflowMaintainability</text>
<text text-anchor="start" x="95" y="-59" font-family="Helvetica,sans-Serif" font-size="10.00"> </text>
<text text-anchor="start" x="14.5" y="-44" font-family="Helvetica,sans-Serif" font-size="10.00">+</text>
<text text-anchor="start" x="38" y="-44" font-family="Helvetica,sans-Serif" font-size="10.00">test_workflows_have</text>
<text text-anchor="start" x="38" y="-33" font-family="Helvetica,sans-Serif" font-size="10.00">_comments()</text>
<text text-anchor="start" x="14.5" y="-18" font-family="Helvetica,sans-Serif" font-size="10.00">+</text>
<text text-anchor="start" x="38" y="-18" font-family="Helvetica,sans-Serif" font-size="10.00">test_complex_expressions</text>
<text text-anchor="start" x="38" y="-7" font-family="Helvetica,sans-Serif" font-size="10.00">_explained()</text>
<polygon fill="#666666" stroke="#666666" points="0,-69 0,-69 194,-69 194,-69 0,-69"/>
<polygon fill="#666666" stroke="#666666" points="0,-54 0,-54 194,-54 194,-54 0,-54"/>
<polygon fill="none" stroke="#666666" points="0,0 0,-86 194,-86 194,0 0,0"/>
</a>
</g>
</g>
</g>
</svg>
