<?xml version="1.0" encoding="UTF-8" standalone="no"?>
<!DOCTYPE svg PUBLIC "-//W3C//DTD SVG 1.1//EN"
 "http://www.w3.org/Graphics/SVG/1.1/DTD/svg11.dtd">
<!-- Generated by graphviz version 2.43.0 (0)
 -->
<!-- Title: financial_models.Equity Pages: 1 -->
<svg width="265pt" height="284pt"
 viewBox="0.00 0.00 265.00 284.00" xmlns="http://www.w3.org/2000/svg" xmlns:xlink="http://www.w3.org/1999/xlink">

<svg id="main" version="1.1" xmlns="http://www.w3.org/2000/svg" xmlns:xlink="http://www.w3.org/1999/xlink" xml:space="preserve">

<style type="text/css"><![CDATA[
.node, .edge {opacity: 0.7;}
.node.selected, .edge.selected {opacity: 1;}
.edge:hover path { stroke: red; }
.edge:hover polygon { stroke: red; fill: red; }
]]></style>
<script type="application/ecmascript" xlink:href="svg.min.js"/>
<svg id="graph" class="graph">
<g id="graph0" class="graph" transform="scale(1 1) rotate(0) translate(4 280)">
<title>financial_models.Equity</title>
<!-- Node1 -->
<g id="Node000001" class="node">
<title>Node1</title>
<g id="a_Node000001"><a xlink:title=" ">
<polygon fill="#999999" stroke="transparent" points="127,-49 0,-49 0,0 127,0 127,-49"/>
<text text-anchor="start" x="5.5" y="-36.5" font-family="Helvetica,sans-Serif" font-size="10.00">financial_models.Equity</text>
<text text-anchor="start" x="62" y="-21.5" font-family="Helvetica,sans-Serif" font-size="10.00"> </text>
<text text-anchor="start" x="62" y="-6.5" font-family="Helvetica,sans-Serif" font-size="10.00"> </text>
<polygon fill="#666666" stroke="#666666" points="0.5,-31.5 0.5,-31.5 127.5,-31.5 127.5,-31.5 0.5,-31.5"/>
<polygon fill="#666666" stroke="#666666" points="0.5,-16.5 0.5,-16.5 127.5,-16.5 127.5,-16.5 0.5,-16.5"/>
<polygon fill="none" stroke="#666666" points="0,0 0,-49 127,-49 127,0 0,0"/>
</a>
</g>
</g>
<!-- Node2 -->
<g id="Node000002" class="node">
<title>Node2</title>
<g id="a_Node000002"><a xlink:href="classfinancial__models_1_1Asset.html" target="_top" xlink:title=" ">
<polygon fill="white" stroke="transparent" points="257,-180 134,-180 134,-86 257,-86 257,-180"/>
<text text-anchor="start" x="139.5" y="-168" font-family="Helvetica,sans-Serif" font-size="10.00">financial_models.Asset</text>
<text text-anchor="start" x="146" y="-153" font-family="Helvetica,sans-Serif" font-size="10.00">+</text>
<text text-anchor="start" x="166.5" y="-153" font-family="Helvetica,sans-Serif" font-size="10.00">id</text>
<text text-anchor="start" x="146" y="-138" font-family="Helvetica,sans-Serif" font-size="10.00">+</text>
<text text-anchor="start" x="166.5" y="-138" font-family="Helvetica,sans-Serif" font-size="10.00">symbol</text>
<text text-anchor="start" x="146" y="-123" font-family="Helvetica,sans-Serif" font-size="10.00">+</text>
<text text-anchor="start" x="166.5" y="-123" font-family="Helvetica,sans-Serif" font-size="10.00">name</text>
<text text-anchor="start" x="146" y="-108" font-family="Helvetica,sans-Serif" font-size="10.00">+</text>
<text text-anchor="start" x="166.5" y="-108" font-family="Helvetica,sans-Serif" font-size="10.00">price</text>
<text text-anchor="start" x="146" y="-93" font-family="Helvetica,sans-Serif" font-size="10.00">+</text>
<text text-anchor="start" x="166.5" y="-93" font-family="Helvetica,sans-Serif" font-size="10.00">__post_init__()</text>
<polygon fill="#666666" stroke="#666666" points="134.5,-163 134.5,-163 257.5,-163 257.5,-163 134.5,-163"/>
<polygon fill="#666666" stroke="#666666" points="134.5,-103 134.5,-103 164.5,-103 164.5,-103 134.5,-103"/>
<polygon fill="#666666" stroke="#666666" points="164.5,-103 164.5,-103 257.5,-103 257.5,-103 164.5,-103"/>
<polygon fill="none" stroke="#666666" points="134,-86 134,-180 257,-180 257,-86 134,-86"/>
</a>
</g>
</g>
<!-- Node2&#45;&gt;Node1 -->
<g id="edge1_Node000001_Node000002" class="edge">
<title>Node2&#45;&gt;Node1</title>
<g id="a_edge1_Node000001_Node000002"><a xlink:title=" ">
<path fill="none" stroke="#63b8ff" d="M130.58,-79.62C117.31,-68.92 103.98,-58.16 92.75,-49.1"/>
<polygon fill="none" stroke="#63b8ff" points="128.39,-82.35 138.37,-85.91 132.79,-76.9 128.39,-82.35"/>
</a>
</g>
</g>
<!-- Node3 -->
<g id="Node000003" class="node">
<title>Node3</title>
<g id="a_Node000003"><a xlink:title=" ">
<polygon fill="white" stroke="transparent" points="60.5,-276 8.5,-276 8.5,-227 60.5,-227 60.5,-276"/>
<text text-anchor="start" x="13.5" y="-263.5" font-family="Helvetica,sans-Serif" font-size="10.00">Optional</text>
<text text-anchor="start" x="32.5" y="-248.5" font-family="Helvetica,sans-Serif" font-size="10.00"> </text>
<text text-anchor="start" x="32.5" y="-233.5" font-family="Helvetica,sans-Serif" font-size="10.00"> </text>
<polygon fill="#666666" stroke="#666666" points="8.5,-258.5 8.5,-258.5 60.5,-258.5 60.5,-258.5 8.5,-258.5"/>
<polygon fill="#666666" stroke="#666666" points="8.5,-243.5 8.5,-243.5 60.5,-243.5 60.5,-243.5 8.5,-243.5"/>
<polygon fill="none" stroke="#666666" points="8.5,-227 8.5,-276 60.5,-276 60.5,-227 8.5,-227"/>
</a>
</g>
</g>
<!-- Node3&#45;&gt;Node1 -->
<g id="edge4_Node000001_Node000003" class="edge">
<title>Node3&#45;&gt;Node1</title>
<g id="a_edge4_Node000001_Node000003"><a xlink:title=" ">
<path fill="none" stroke="#63b8ff" d="M26.92,-226.98C17.67,-194.47 5.07,-134.33 20.5,-86 23.5,-76.59 28.56,-67.39 34.18,-59.12"/>
<polygon fill="none" stroke="#63b8ff" points="34.36,-58.87 34.7,-51.66 41.47,-49.2 41.14,-56.4 34.36,-58.87"/>
</a>
</g>
<text text-anchor="middle" x="72.5" y="-147" font-family="Helvetica,sans-Serif" font-size="10.00" fill="grey"> +book_value</text>
<text text-anchor="middle" x="72.5" y="-136" font-family="Helvetica,sans-Serif" font-size="10.00" fill="grey">+dividend_yield</text>
<text text-anchor="middle" x="72.5" y="-125" font-family="Helvetica,sans-Serif" font-size="10.00" fill="grey">+earnings_per_share</text>
<text text-anchor="middle" x="72.5" y="-114" font-family="Helvetica,sans-Serif" font-size="10.00" fill="grey">+pe_ratio</text>
</g>
<!-- Node3&#45;&gt;Node2 -->
<g id="edge2_Node000002_Node000003" class="edge">
<title>Node3&#45;&gt;Node2</title>
<g id="a_edge2_Node000002_Node000003"><a xlink:title=" ">
<path fill="none" stroke="#63b8ff" d="M60.73,-231.52C77.96,-219.05 101.4,-202.09 123.9,-185.81"/>
<polygon fill="none" stroke="#63b8ff" points="124.08,-185.68 126.6,-178.92 133.81,-178.64 131.29,-185.4 124.08,-185.68"/>
</a>
</g>
<text text-anchor="middle" x="140" y="-201" font-family="Helvetica,sans-Serif" font-size="10.00" fill="grey"> +market_cap</text>
</g>
<!-- Node4 -->
<g id="Node000004" class="node">
<title>Node4</title>
<g id="a_Node000004"><a xlink:title=" ">
<polygon fill="white" stroke="transparent" points="207,-276 184,-276 184,-227 207,-227 207,-276"/>
<text text-anchor="start" x="189.5" y="-263.5" font-family="Helvetica,sans-Serif" font-size="10.00">str</text>
<text text-anchor="start" x="194" y="-248.5" font-family="Helvetica,sans-Serif" font-size="10.00"> </text>
<text text-anchor="start" x="194" y="-233.5" font-family="Helvetica,sans-Serif" font-size="10.00"> </text>
<polygon fill="#666666" stroke="#666666" points="184.5,-258.5 184.5,-258.5 207.5,-258.5 207.5,-258.5 184.5,-258.5"/>
<polygon fill="#666666" stroke="#666666" points="184.5,-243.5 184.5,-243.5 207.5,-243.5 207.5,-243.5 184.5,-243.5"/>
<polygon fill="none" stroke="#666666" points="184,-227 184,-276 207,-276 207,-227 184,-227"/>
</a>
</g>
</g>
<!-- Node4&#45;&gt;Node2 -->
<g id="edge3_Node000002_Node000004" class="edge">
<title>Node4&#45;&gt;Node2</title>
<g id="a_edge3_Node000002_Node000004"><a xlink:title=" ">
<path fill="none" stroke="#63b8ff" d="M195.5,-226.92C195.5,-216.85 195.5,-204.6 195.5,-192.35"/>
<polygon fill="none" stroke="#63b8ff" points="195.5,-192.17 191.5,-186.17 195.5,-180.17 199.5,-186.17 195.5,-192.17"/>
</a>
</g>
<text text-anchor="middle" x="222.5" y="-201" font-family="Helvetica,sans-Serif" font-size="10.00" fill="grey"> +currency</text>
</g>
</g>
</svg>
</svg>

<style type='text/css'>
<![CDATA[
[data-mouse-over-selected='false'] { opacity: 0.7; }
[data-mouse-over-selected='true']  { opacity: 1.0; }
]]>
</style>
<script type="application/ecmascript"><![CDATA[
document.addEventListener('DOMContentLoaded', (event) => {
  highlightEdges();
  highlightAdjacentNodes();
});
]]></script>
</svg>
