<?xml version="1.0" encoding="UTF-8" standalone="no"?>
<!DOCTYPE svg PUBLIC "-//W3C//DTD SVG 1.1//EN"
 "http://www.w3.org/Graphics/SVG/1.1/DTD/svg11.dtd">
<!-- Generated by graphviz version 2.43.0 (0)
 -->
<!-- Title: app.AppConstants Pages: 1 -->
<svg width="215pt" height="446pt"
 viewBox="0.00 0.00 214.50 446.00" xmlns="http://www.w3.org/2000/svg" xmlns:xlink="http://www.w3.org/1999/xlink">
<g id="graph0" class="graph" transform="scale(1 1) rotate(0) translate(4 442)">
<title>app.AppConstants</title>
<!-- Node1 -->
<g id="Node000001" class="node">
<title>Node1</title>
<g id="a_Node000001"><a xlink:title=" ">
<polygon fill="#999999" stroke="transparent" points="149,-199 0,-199 0,0 149,0 149,-199"/>
<text text-anchor="start" x="30.5" y="-186.5" font-family="Helvetica,sans-Serif" font-size="10.00">app.AppConstants</text>
<text text-anchor="start" x="4.5" y="-171.5" font-family="Helvetica,sans-Serif" font-size="10.00">+</text>
<text text-anchor="start" x="17.5" y="-171.5" font-family="Helvetica,sans-Serif" font-size="10.00">TITLE</text>
<text text-anchor="start" x="4.5" y="-156.5" font-family="Helvetica,sans-Serif" font-size="10.00">+</text>
<text text-anchor="start" x="17.5" y="-156.5" font-family="Helvetica,sans-Serif" font-size="10.00">MARKDOWN_HEADER</text>
<text text-anchor="start" x="4.5" y="-141.5" font-family="Helvetica,sans-Serif" font-size="10.00">+</text>
<text text-anchor="start" x="17.5" y="-141.5" font-family="Helvetica,sans-Serif" font-size="10.00">TAB_3D_VISUALIZATION</text>
<text text-anchor="start" x="4.5" y="-126.5" font-family="Helvetica,sans-Serif" font-size="10.00">+</text>
<text text-anchor="start" x="17.5" y="-126.5" font-family="Helvetica,sans-Serif" font-size="10.00">TAB_METRICS_ANALYTICS</text>
<text text-anchor="start" x="4.5" y="-111.5" font-family="Helvetica,sans-Serif" font-size="10.00">+</text>
<text text-anchor="start" x="17.5" y="-111.5" font-family="Helvetica,sans-Serif" font-size="10.00">TAB_SCHEMA_RULES</text>
<text text-anchor="start" x="4.5" y="-96.5" font-family="Helvetica,sans-Serif" font-size="10.00">+</text>
<text text-anchor="start" x="17.5" y="-96.5" font-family="Helvetica,sans-Serif" font-size="10.00">TAB_ASSET_EXPLORER</text>
<text text-anchor="start" x="4.5" y="-81.5" font-family="Helvetica,sans-Serif" font-size="10.00">+</text>
<text text-anchor="start" x="17.5" y="-81.5" font-family="Helvetica,sans-Serif" font-size="10.00">TAB_DOCUMENTATION</text>
<text text-anchor="start" x="4.5" y="-66.5" font-family="Helvetica,sans-Serif" font-size="10.00">+</text>
<text text-anchor="start" x="17.5" y="-66.5" font-family="Helvetica,sans-Serif" font-size="10.00">REFRESH_BUTTON_LABEL</text>
<text text-anchor="start" x="4.5" y="-51.5" font-family="Helvetica,sans-Serif" font-size="10.00">+</text>
<text text-anchor="start" x="17.5" y="-51.5" font-family="Helvetica,sans-Serif" font-size="10.00">SELECT_ASSET_LABEL</text>
<text text-anchor="start" x="4.5" y="-36.5" font-family="Helvetica,sans-Serif" font-size="10.00">+</text>
<text text-anchor="start" x="17.5" y="-36.5" font-family="Helvetica,sans-Serif" font-size="10.00">RELATED_ASSETS_LABEL</text>
<text text-anchor="start" x="17.5" y="-21.5" font-family="Helvetica,sans-Serif" font-size="10.00">and 6 more...</text>
<text text-anchor="start" x="73" y="-6.5" font-family="Helvetica,sans-Serif" font-size="10.00"> </text>
<polygon fill="#666666" stroke="#666666" points="0.5,-181.5 0.5,-181.5 149.5,-181.5 149.5,-181.5 0.5,-181.5"/>
<polygon fill="#666666" stroke="#666666" points="0.5,-16.5 0.5,-16.5 15.5,-16.5 15.5,-16.5 0.5,-16.5"/>
<polygon fill="#666666" stroke="#666666" points="15.5,-16.5 15.5,-16.5 149.5,-16.5 149.5,-16.5 15.5,-16.5"/>
<polygon fill="none" stroke="#666666" points="0,0 0,-199 149,-199 149,0 0,0"/>
</a>
</g>
</g>
<!-- Node2 -->
<g id="Node000002" class="node">
<title>Node2</title>
<g id="a_Node000002"><a xlink:title=" ">
<polygon fill="white" stroke="transparent" points="86,-438 63,-438 63,-389 86,-389 86,-438"/>
<text text-anchor="start" x="68.5" y="-425.5" font-family="Helvetica,sans-Serif" font-size="10.00">str</text>
<text text-anchor="start" x="73" y="-410.5" font-family="Helvetica,sans-Serif" font-size="10.00"> </text>
<text text-anchor="start" x="73" y="-395.5" font-family="Helvetica,sans-Serif" font-size="10.00"> </text>
<polygon fill="#666666" stroke="#666666" points="63.5,-420.5 63.5,-420.5 86.5,-420.5 86.5,-420.5 63.5,-420.5"/>
<polygon fill="#666666" stroke="#666666" points="63.5,-405.5 63.5,-405.5 86.5,-405.5 86.5,-405.5 63.5,-405.5"/>
<polygon fill="none" stroke="#666666" points="63,-389 63,-438 86,-438 86,-389 63,-389"/>
</a>
</g>
</g>
<!-- Node2&#45;&gt;Node1 -->
<g id="edge1_Node000001_Node000002" class="edge">
<title>Node2&#45;&gt;Node1</title>
<g id="a_edge1_Node000001_Node000002"><a xlink:title=" ">
<path fill="none" stroke="#63b8ff" d="M74.5,-388.79C74.5,-351.25 74.5,-275.78 74.5,-211.48"/>
<polygon fill="none" stroke="#63b8ff" points="74.5,-211.2 70.5,-205.2 74.5,-199.2 78.5,-205.2 74.5,-211.2"/>
</a>
</g>
<text text-anchor="middle" x="140.5" y="-363" font-family="Helvetica,sans-Serif" font-size="10.00" fill="grey"> +APP_LAUNCH_INFO</text>
<text text-anchor="middle" x="140.5" y="-352" font-family="Helvetica,sans-Serif" font-size="10.00" fill="grey">+APP_START_ERROR</text>
<text text-anchor="middle" x="140.5" y="-341" font-family="Helvetica,sans-Serif" font-size="10.00" fill="grey">+APP_START_INFO</text>
<text text-anchor="middle" x="140.5" y="-330" font-family="Helvetica,sans-Serif" font-size="10.00" fill="grey">+ASSET_DETAILS_LABEL</text>
<text text-anchor="start" x="74.5" y="-319" font-family="Helvetica,sans-Serif" font-size="10.00" fill="grey">+DETAILED_ASSET_INFO</text>
<text text-anchor="middle" x="140.5" y="-308" font-family="Helvetica,sans-Serif" font-size="10.00" fill="grey">_MD</text>
<text text-anchor="middle" x="140.5" y="-297" font-family="Helvetica,sans-Serif" font-size="10.00" fill="grey">+DOC_MARKDOWN</text>
<text text-anchor="middle" x="140.5" y="-286" font-family="Helvetica,sans-Serif" font-size="10.00" fill="grey">+ERROR_LABEL</text>
<text text-anchor="start" x="74.5" y="-275" font-family="Helvetica,sans-Serif" font-size="10.00" fill="grey">+GENERATE_SCHEMA</text>
<text text-anchor="middle" x="140.5" y="-264" font-family="Helvetica,sans-Serif" font-size="10.00" fill="grey">_BUTTON_LABEL</text>
<text text-anchor="middle" x="140.5" y="-253" font-family="Helvetica,sans-Serif" font-size="10.00" fill="grey">+INITIAL_GRAPH_ERROR</text>
<text text-anchor="start" x="74.5" y="-242" font-family="Helvetica,sans-Serif" font-size="10.00" fill="grey">+INTERACTIVE_3D_GRAPH</text>
<text text-anchor="middle" x="140.5" y="-231" font-family="Helvetica,sans-Serif" font-size="10.00" fill="grey">_MD</text>
<text text-anchor="middle" x="140.5" y="-220" font-family="Helvetica,sans-Serif" font-size="10.00" fill="grey">...</text>
</g>
</g>
</svg>
