<?xml version="1.0" encoding="UTF-8" standalone="no"?>
<!DOCTYPE svg PUBLIC "-//W3C//DTD SVG 1.1//EN"
 "http://www.w3.org/Graphics/SVG/1.1/DTD/svg11.dtd">
<!-- Generated by graphviz version 2.43.0 (0)
 -->
<!-- Title: repository.AssetGraphRepository._to_asset_model Pages: 1 -->
<svg width="645pt" height="38pt"
 viewBox="0.00 0.00 645.00 38.00" xmlns="http://www.w3.org/2000/svg" xmlns:xlink="http://www.w3.org/1999/xlink">
<g id="graph0" class="graph" transform="scale(1 1) rotate(0) translate(4 34)">
<title>repository.AssetGraphRepository._to_asset_model</title>
<!-- Node1 -->
<g id="Node000001" class="node">
<title>Node1</title>
<g id="a_Node000001"><a xlink:title=" ">
<polygon fill="#999999" stroke="#666666" points="637,-30 459,-30 459,0 637,0 637,-30"/>
<text text-anchor="start" x="467" y="-18" font-family="Helvetica,sans-Serif" font-size="10.00">repository.AssetGraphRepository.</text>
<text text-anchor="middle" x="548" y="-7" font-family="Helvetica,sans-Serif" font-size="10.00">_to_asset_model</text>
</a>
</g>
</g>
<!-- Node2 -->
<g id="Node000002" class="node">
<title>Node2</title>
<g id="a_Node000002"><a xlink:href="classrepository_1_1AssetGraphRepository.html#a643bab13cf5d00966bd8ecb14e7976fd" target="_top" xlink:title=" ">
<polygon fill="white" stroke="#666666" points="423,-30 230,-30 230,0 423,0 423,-30"/>
<text text-anchor="start" x="238" y="-18" font-family="Helvetica,sans-Serif" font-size="10.00">repository.AssetGraphRepository.list</text>
<text text-anchor="middle" x="326.5" y="-7" font-family="Helvetica,sans-Serif" font-size="10.00">_assets</text>
</a>
</g>
</g>
<!-- Node1&#45;&gt;Node2 -->
<g id="edge1_Node000001_Node000002" class="edge">
<title>Node1&#45;&gt;Node2</title>
<g id="a_edge1_Node000001_Node000002"><a xlink:title=" ">
<path fill="none" stroke="#63b8ff" d="M448.95,-15C440.36,-15 431.67,-15 423.09,-15"/>
<polygon fill="#63b8ff" stroke="#63b8ff" points="448.99,-18.5 458.99,-15 448.99,-11.5 448.99,-18.5"/>
</a>
</g>
</g>
<!-- Node3 -->
<g id="Node000003" class="node">
<title>Node3</title>
<g id="a_Node000003"><a xlink:href="classrepository_1_1AssetGraphRepository.html#a67b3df23f579645b960c7ceb152e64e4" target="_top" xlink:title=" ">
<polygon fill="white" stroke="#666666" points="194,-30 0,-30 0,0 194,0 194,-30"/>
<text text-anchor="start" x="8" y="-18" font-family="Helvetica,sans-Serif" font-size="10.00">repository.AssetGraphRepository.get</text>
<text text-anchor="middle" x="97" y="-7" font-family="Helvetica,sans-Serif" font-size="10.00">_assets_map</text>
</a>
</g>
</g>
<!-- Node2&#45;&gt;Node3 -->
<g id="edge2_Node000002_Node000003" class="edge">
<title>Node2&#45;&gt;Node3</title>
<g id="a_edge2_Node000002_Node000003"><a xlink:title=" ">
<path fill="none" stroke="#63b8ff" d="M219.41,-15C210.96,-15 202.45,-15 194.07,-15"/>
<polygon fill="#63b8ff" stroke="#63b8ff" points="219.68,-18.5 229.68,-15 219.68,-11.5 219.68,-18.5"/>
</a>
</g>
</g>
</g>
</svg>
