<?xml version="1.0" encoding="UTF-8" standalone="no"?>
<!DOCTYPE svg PUBLIC "-//W3C//DTD SVG 1.1//EN"
 "http://www.w3.org/Graphics/SVG/1.1/DTD/svg11.dtd">
<!-- Generated by graphviz version 2.43.0 (0)
 -->
<!-- Title: /app/doc_state/github_reposRepoArchDocGenContext/DashFin&#45;FarDb/financial&#45;asset&#45;relationship&#45;db/src Pages: 1 -->
<!--zoomable 94 -->

<svg id="main" version="1.1" xmlns="http://www.w3.org/2000/svg" xmlns:xlink="http://www.w3.org/1999/xlink" xml:space="preserve" onload="init(evt)">

<style type="text/css"><![CDATA[
.node, .edge {opacity: 0.7;}
.node.selected, .edge.selected {opacity: 1;}
.edge:hover path { stroke: red; }
.edge:hover polygon { stroke: red; fill: red; }
]]></style>

<defs>
  <circle id="rim" cx="0" cy="0" r="7"/>
  <circle id="rim2" cx="0" cy="0" r="3.5"/>
  <g id="zoomPlus">
    <use xlink:href="#rim" fill="#404040"><set attributeName="fill" to="#808080" begin="zoomplus.mouseover" end="zoomplus.mouseout"/></use>
    <path d="M-4,0h8M0,-4v8" fill="none" stroke="white" stroke-width="1.5" pointer-events="none"/>
  </g>
  <g id="zoomMin">
    <use xlink:href="#rim" fill="#404040"><set attributeName="fill" to="#808080" begin="zoomminus.mouseover" end="zoomminus.mouseout"/></use>
    <path d="M-4,0h8" fill="none" stroke="white" stroke-width="1.5" pointer-events="none"/>
  </g>
  <g id="arrowUp" transform="translate(30 24)">
    <use xlink:href="#rim"/>
    <path pointer-events="none" fill="none" stroke="white" stroke-width="1.5" d="M0,-3.0v7 M-2.5,-0.5L0,-3.0L2.5,-0.5"/>
  </g>
  <g id="arrowRight" transform="rotate(90) translate(36 -43)">
    <use xlink:href="#rim"/>
    <path pointer-events="none" fill="none" stroke="white" stroke-width="1.5" d="M0,-3.0v7 M-2.5,-0.5L0,-3.0L2.5,-0.5"/>
  </g>
  <g id="arrowDown" transform="rotate(180) translate(-30 -48)">
    <use xlink:href="#rim"/>
    <path pointer-events="none" fill="none" stroke="white" stroke-width="1.5" d="M0,-3.0v7 M-2.5,-0.5L0,-3.0L2.5,-0.5"/>
  </g>
  <g id="arrowLeft" transform="rotate(270) translate(-36 17)">
    <use xlink:href="#rim"/>
    <path pointer-events="none" fill="none" stroke="white" stroke-width="1.5" d="M0,-3.0v7 M-2.5,-0.5L0,-3.0L2.5,-0.5"/>
  </g>
  <g id="resetDef">
    <use xlink:href="#rim2" fill="#404040"><set attributeName="fill" to="#808080" begin="reset.mouseover" end="reset.mouseout"/></use>
  </g>
</defs>
<script type="application/ecmascript">
var viewWidth = 519;
var viewHeight = 94;
var sectionId = 'dynsection-0';
</script>
<script type="application/ecmascript" xlink:href="svg.min.js"/>
<svg id="graph" class="graph">
<g id="viewport">
<title>/app/doc_state/github_reposRepoArchDocGenContext/DashFin&#45;FarDb/financial&#45;asset&#45;relationship&#45;db/src</title>
<g id="clust1" class="cluster">
<title>clusterdir_c8d8c841f67412f706b66187e177f788</title>
<g id="a_clust1"><a xlink:href="dir_c8d8c841f67412f706b66187e177f788.html" target="_top" xlink:title="financial&#45;asset&#45;relationship&#45;db">
<polygon fill="#edf0f7" stroke="#404040" stroke-dasharray="5,2" points="8,-8 8,-78 503,-78 503,-8 8,-8"/>
<text text-anchor="middle" x="255.5" y="-66" font-family="Helvetica,sans-Serif" font-size="10.00">financial&#45;asset&#45;relationship&#45;db</text>
</a>
</g>
</g>
<g id="clust2" class="cluster">
<title>clusterdir_7c34897c8f57ffe14cb4838ff9fc8e78</title>
<g id="a_clust2"><a xlink:href="dir_7c34897c8f57ffe14cb4838ff9fc8e78.html" target="_top">
<polygon fill="#edf0f7" stroke="#404040" stroke-width="2" points="16,-16 16,-51 495,-51 495,-16 16,-16"/>
</a>
</g>
</g>
<!-- dir_7c34897c8f57ffe14cb4838ff9fc8e78 -->
<g id="node1" class="node">
<title>dir_7c34897c8f57ffe14cb4838ff9fc8e78</title>
<text text-anchor="middle" x="471" y="-31" font-family="Helvetica,sans-Serif" font-size="10.00">src</text>
</g>
<!-- dir_67ca91fbedd5b82a2fc6e320839e6843 -->
<g id="node2" class="node">
<title>dir_67ca91fbedd5b82a2fc6e320839e6843</title>
<g id="a_node2"><a xlink:href="dir_67ca91fbedd5b82a2fc6e320839e6843.html" target="_top" xlink:title="analysis">
<polygon fill="#a2b4d6" stroke="#404040" points="437.5,-43 380.5,-43 380.5,-24 437.5,-24 437.5,-43"/>
<text text-anchor="middle" x="409" y="-31" font-family="Helvetica,sans-Serif" font-size="10.00">analysis</text>
</a>
</g>
</g>
<!-- dir_27e26914432b5552a4f8f5e7a1026a76 -->
<g id="node3" class="node">
<title>dir_27e26914432b5552a4f8f5e7a1026a76</title>
<g id="a_node3"><a xlink:href="dir_27e26914432b5552a4f8f5e7a1026a76.html" target="_top" xlink:title="data">
<polygon fill="#a2b4d6" stroke="#404040" points="362,-43 324,-43 324,-24 362,-24 362,-43"/>
<text text-anchor="middle" x="343" y="-31" font-family="Helvetica,sans-Serif" font-size="10.00">data</text>
</a>
</g>
</g>
<!-- dir_6d26ba6592f2ae8927937d888c36a904 -->
<g id="node4" class="node">
<title>dir_6d26ba6592f2ae8927937d888c36a904</title>
<g id="a_node4"><a xlink:href="dir_6d26ba6592f2ae8927937d888c36a904.html" target="_top" xlink:title="logic">
<polygon fill="#a2b4d6" stroke="#404040" points="306,-43 266,-43 266,-24 306,-24 306,-43"/>
<text text-anchor="middle" x="286" y="-31" font-family="Helvetica,sans-Serif" font-size="10.00">logic</text>
</a>
</g>
</g>
<!-- dir_91e3694177af8d7c54209a16e3ca9eb8 -->
<g id="node5" class="node">
<title>dir_91e3694177af8d7c54209a16e3ca9eb8</title>
<g id="a_node5"><a xlink:href="dir_91e3694177af8d7c54209a16e3ca9eb8.html" target="_top" xlink:title="models">
<polygon fill="#a2b4d6" stroke="#404040" points="247.5,-43 194.5,-43 194.5,-24 247.5,-24 247.5,-43"/>
<text text-anchor="middle" x="221" y="-31" font-family="Helvetica,sans-Serif" font-size="10.00">models</text>
</a>
</g>
</g>
<!-- dir_4c0cd0b5b5cffd6385ee0c932139101b -->
<g id="node6" class="node">
<title>dir_4c0cd0b5b5cffd6385ee0c932139101b</title>
<g id="a_node6"><a xlink:href="dir_4c0cd0b5b5cffd6385ee0c932139101b.html" target="_top" xlink:title="reports">
<polygon fill="#a2b4d6" stroke="#404040" points="176.5,-43 125.5,-43 125.5,-24 176.5,-24 176.5,-43"/>
<text text-anchor="middle" x="151" y="-31" font-family="Helvetica,sans-Serif" font-size="10.00">reports</text>
</a>
</g>
</g>
<!-- dir_66621faf7e6c55406e9bedecba43a928 -->
<g id="node7" class="node">
<title>dir_66621faf7e6c55406e9bedecba43a928</title>
<g id="a_node7"><a xlink:href="dir_66621faf7e6c55406e9bedecba43a928.html" target="_top" xlink:title="visualizations">
<polygon fill="#a2b4d6" stroke="#404040" points="108,-43 24,-43 24,-24 108,-24 108,-43"/>
<text text-anchor="middle" x="66" y="-31" font-family="Helvetica,sans-Serif" font-size="10.00">visualizations</text>
</a>
</g>
</g>
</g>
</svg>

<g id="navigator" transform="translate(0 0)" fill="#404254">
  <rect fill="#f2f5e9" fill-opacity="0.5" stroke="#606060" stroke-width=".5" x="0" y="0" width="60" height="60"/>
  <use id="zoomplus" xlink:href="#zoomPlus" x="17" y="9" onmousedown="handleZoom(evt,'in')"/>
  <use id="zoomminus" xlink:href="#zoomMin" x="42" y="9" onmousedown="handleZoom(evt,'out')"/>
  <use id="reset" xlink:href="#resetDef" x="30" y="36" onmousedown="handleReset()"/>
   <use id="arrowup" xlink:href="#arrowUp" x="0" y="0" onmousedown="handlePan(0,-1)"/>
  <use id="arrowright" xlink:href="#arrowRight" x="0" y="0" onmousedown="handlePan(1,0)"/>
  <use id="arrowdown" xlink:href="#arrowDown" x="0" y="0" onmousedown="handlePan(0,1)"/>
  <use id="arrowleft" xlink:href="#arrowLeft" x="0" y="0" onmousedown="handlePan(-1,0)"/>
</g>
<svg viewBox="0 0 15 15" width="100%" height="30px" preserveAspectRatio="xMaxYMin meet">
 <g id="arrow_out" transform="scale(0.3 0.3)">
  <a xlink:href="dir_7c34897c8f57ffe14cb4838ff9fc8e78_dep_org.svg" target="_base">
   <rect id="button" ry="5" rx="5" y="6" x="6" height="38" width="38"
        fill="#f2f5e9" fill-opacity="0.5" stroke="#606060" stroke-width="1.0"/>
   <path id="arrow"
     d="M 11.500037,31.436501 C 11.940474,20.09759 22.043105,11.32322 32.158766,21.979434 L 37.068811,17.246167 C 37.068811,17.246167 37.088388,32 37.088388,32 L 22.160133,31.978069 C 22.160133,31.978069 26.997745,27.140456 26.997745,27.140456 C 18.528582,18.264221 13.291696,25.230495 11.500037,31.436501 z"
     style="fill:#404040;"/>
  </a>
 </g>
</svg>

<style type='text/css'>
<![CDATA[
[data-mouse-over-selected='false'] { opacity: 0.7; }
[data-mouse-over-selected='true']  { opacity: 1.0; }
]]>
</style>
<script type="application/ecmascript"><![CDATA[
document.addEventListener('DOMContentLoaded', (event) => {
  highlightEdges();
  highlightAdjacentNodes();
});
]]></script>
</svg>
