<?xml version="1.0" encoding="UTF-8" standalone="no"?>
<!DOCTYPE svg PUBLIC "-//W3C//DTD SVG 1.1//EN"
 "http://www.w3.org/Graphics/SVG/1.1/DTD/svg11.dtd">
<!-- Generated by graphviz version 2.43.0 (0)
 -->
<!-- Title: Graphical Class Hierarchy Pages: 1 -->
<svg width="425pt" height="86pt"
 viewBox="0.00 0.00 425.00 86.00" xmlns="http://www.w3.org/2000/svg" xmlns:xlink="http://www.w3.org/1999/xlink">
<g id="graph0" class="graph" transform="scale(1 1) rotate(0) translate(4 82)">
<title>Graphical Class Hierarchy</title>
<!-- Node0 -->
<g id="Node000000" class="node">
<title>Node0</title>
<g id="a_Node000000"><a xlink:href="classtests_1_1unit_1_1test__microagent__validation_1_1TestMicroagentValidation.html" target="_top" xlink:title=" ">
<polygon fill="white" stroke="#666666" points="197,-54 0,-54 0,-24 197,-24 197,-54"/>
<text text-anchor="start" x="8" y="-42" font-family="Helvetica,sans-Serif" font-size="10.00">tests.unit.test_microagent</text>
<text text-anchor="middle" x="98.5" y="-31" font-family="Helvetica,sans-Serif" font-size="10.00">_validation.TestMicroagentValidation</text>
</a>
</g>
</g>
<!-- Node1 -->
<g id="Node000001" class="node">
<title>Node1</title>
<g id="a_Node000001"><a xlink:href="classtests_1_1unit_1_1test__microagent__validation_1_1TestAllMicroagents.html" target="_top" xlink:title=" ">
<polygon fill="white" stroke="#666666" points="408,-78 242,-78 242,-48 408,-48 408,-78"/>
<text text-anchor="start" x="250" y="-66" font-family="Helvetica,sans-Serif" font-size="10.00">tests.unit.test_microagent</text>
<text text-anchor="middle" x="325" y="-55" font-family="Helvetica,sans-Serif" font-size="10.00">_validation.TestAllMicroagents</text>
</a>
</g>
</g>
<!-- Node0&#45;&gt;Node1 -->
<g id="edge19_Node000000_Node000001" class="edge">
<title>Node0&#45;&gt;Node1</title>
<g id="a_edge19_Node000000_Node000001"><a xlink:title=" ">
<path fill="none" stroke="#63b8ff" d="M207.48,-50.54C219.07,-51.78 230.72,-53.03 241.94,-54.23"/>
<polygon fill="#63b8ff" stroke="#63b8ff" points="207.63,-47.04 197.32,-49.46 206.89,-54 207.63,-47.04"/>
</a>
</g>
</g>
<!-- Node2 -->
<g id="Node000002" class="node">
<title>Node2</title>
<g id="a_Node000002"><a xlink:href="classtests_1_1unit_1_1test__microagent__validation_1_1TestRepoEngineerLead.html" target="_top" xlink:title=" ">
<polygon fill="white" stroke="#666666" points="417,-30 233,-30 233,0 417,0 417,-30"/>
<text text-anchor="start" x="241" y="-18" font-family="Helvetica,sans-Serif" font-size="10.00">tests.unit.test_microagent</text>
<text text-anchor="middle" x="325" y="-7" font-family="Helvetica,sans-Serif" font-size="10.00">_validation.TestRepoEngineerLead</text>
</a>
</g>
</g>
<!-- Node0&#45;&gt;Node2 -->
<g id="edge20_Node000000_Node000002" class="edge">
<title>Node0&#45;&gt;Node2</title>
<g id="a_edge20_Node000000_Node000002"><a xlink:title=" ">
<path fill="none" stroke="#63b8ff" d="M207.33,-27.47C215.88,-26.56 224.46,-25.64 232.88,-24.74"/>
<polygon fill="#63b8ff" stroke="#63b8ff" points="206.89,-24 197.32,-28.54 207.63,-30.96 206.89,-24"/>
</a>
</g>
</g>
</g>
</svg>
