<?xml version="1.0" encoding="UTF-8" standalone="no"?>
<!DOCTYPE svg PUBLIC "-//W3C//DTD SVG 1.1//EN"
 "http://www.w3.org/Graphics/SVG/1.1/DTD/svg11.dtd">
<!-- Generated by graphviz version 2.43.0 (0)
 -->
<!-- Title: Graphical Class Hierarchy Pages: 1 -->
<svg width="332pt" height="138pt"
 viewBox="0.00 0.00 332.00 138.00" xmlns="http://www.w3.org/2000/svg" xmlns:xlink="http://www.w3.org/1999/xlink">
<g id="graph0" class="graph" transform="scale(1 1) rotate(0) translate(4 134)">
<title>Graphical Class Hierarchy</title>
<!-- Node0 -->
<g id="Node000000" class="node">
<title>Node0</title>
<g id="a_Node000000"><a xlink:href="classfinancial__models_1_1Asset.html" target="_top" xlink:title=" ">
<polygon fill="white" stroke="#666666" points="129,-74 0,-74 0,-55 129,-55 129,-74"/>
<text text-anchor="middle" x="64.5" y="-62" font-family="Helvetica,sans-Serif" font-size="10.00">financial_models.Asset</text>
</a>
</g>
</g>
<!-- Node1 -->
<g id="Node000001" class="node">
<title>Node1</title>
<g id="a_Node000001"><a xlink:href="classfinancial__models_1_1Bond.html" target="_top" xlink:title=" ">
<polygon fill="white" stroke="#666666" points="308,-130 181,-130 181,-111 308,-111 308,-130"/>
<text text-anchor="middle" x="244.5" y="-118" font-family="Helvetica,sans-Serif" font-size="10.00">financial_models.Bond</text>
</a>
</g>
</g>
<!-- Node0&#45;&gt;Node1 -->
<g id="edge15_Node000000_Node000001" class="edge">
<title>Node0&#45;&gt;Node1</title>
<g id="a_edge15_Node000000_Node000001"><a xlink:title=" ">
<path fill="none" stroke="#63b8ff" d="M96.97,-77.81C116.36,-85.69 141.84,-95.46 165,-102.5 175.3,-105.63 186.51,-108.51 197.14,-111"/>
<polygon fill="#63b8ff" stroke="#63b8ff" points="98.29,-74.57 87.71,-74.01 95.63,-81.05 98.29,-74.57"/>
</a>
</g>
</g>
<!-- Node2 -->
<g id="Node000002" class="node">
<title>Node2</title>
<g id="a_Node000002"><a xlink:href="classfinancial__models_1_1Commodity.html" target="_top" xlink:title=" ">
<polygon fill="white" stroke="#666666" points="324,-93 165,-93 165,-74 324,-74 324,-93"/>
<text text-anchor="middle" x="244.5" y="-81" font-family="Helvetica,sans-Serif" font-size="10.00">financial_models.Commodity</text>
</a>
</g>
</g>
<!-- Node0&#45;&gt;Node2 -->
<g id="edge16_Node000000_Node000002" class="edge">
<title>Node0&#45;&gt;Node2</title>
<g id="a_edge16_Node000000_Node000002"><a xlink:title=" ">
<path fill="none" stroke="#63b8ff" d="M139.19,-72.37C147.63,-73.27 156.26,-74.19 164.76,-75.1"/>
<polygon fill="#63b8ff" stroke="#63b8ff" points="139.32,-68.86 129.01,-71.28 138.58,-75.82 139.32,-68.86"/>
</a>
</g>
</g>
<!-- Node3 -->
<g id="Node000003" class="node">
<title>Node3</title>
<g id="a_Node000003"><a xlink:href="classfinancial__models_1_1Currency.html" target="_top" xlink:title=" ">
<polygon fill="white" stroke="#666666" points="317.5,-56 171.5,-56 171.5,-37 317.5,-37 317.5,-56"/>
<text text-anchor="middle" x="244.5" y="-44" font-family="Helvetica,sans-Serif" font-size="10.00">financial_models.Currency</text>
</a>
</g>
</g>
<!-- Node0&#45;&gt;Node3 -->
<g id="edge17_Node000000_Node000003" class="edge">
<title>Node0&#45;&gt;Node3</title>
<g id="a_edge17_Node000000_Node000003"><a xlink:title=" ">
<path fill="none" stroke="#63b8ff" d="M139.08,-57.06C149.7,-55.99 160.63,-54.88 171.23,-53.81"/>
<polygon fill="#63b8ff" stroke="#63b8ff" points="138.61,-53.59 129.01,-58.08 139.31,-60.55 138.61,-53.59"/>
</a>
</g>
</g>
<!-- Node4 -->
<g id="Node000004" class="node">
<title>Node4</title>
<g id="a_Node000004"><a xlink:href="classfinancial__models_1_1Equity.html" target="_top" xlink:title=" ">
<polygon fill="white" stroke="#666666" points="311,-19 178,-19 178,0 311,0 311,-19"/>
<text text-anchor="middle" x="244.5" y="-7" font-family="Helvetica,sans-Serif" font-size="10.00">financial_models.Equity</text>
</a>
</g>
</g>
<!-- Node0&#45;&gt;Node4 -->
<g id="edge18_Node000000_Node000004" class="edge">
<title>Node0&#45;&gt;Node4</title>
<g id="a_edge18_Node000000_Node000004"><a xlink:title=" ">
<path fill="none" stroke="#63b8ff" d="M99.25,-51.24C118.37,-44 142.83,-35.17 165,-28.5 176.41,-25.07 188.9,-21.82 200.49,-19.01"/>
<polygon fill="#63b8ff" stroke="#63b8ff" points="97.87,-48.02 89.78,-54.87 100.37,-54.56 97.87,-48.02"/>
</a>
</g>
</g>
</g>
</svg>
