<?xml version="1.0" encoding="UTF-8" standalone="no"?>
<!DOCTYPE svg PUBLIC "-//W3C//DTD SVG 1.1//EN"
 "http://www.w3.org/Graphics/SVG/1.1/DTD/svg11.dtd">
<!-- Generated by graphviz version 2.43.0 (0)
 -->
<!-- Title: Graphical Class Hierarchy Pages: 1 -->
<svg width="243pt" height="76pt"
 viewBox="0.00 0.00 243.00 75.50" xmlns="http://www.w3.org/2000/svg" xmlns:xlink="http://www.w3.org/1999/xlink">
<g id="graph0" class="graph" transform="scale(1 1) rotate(0) translate(4 71.5)">
<title>Graphical Class Hierarchy</title>
<!-- Node0 -->
<g id="Node000000" class="node">
<title>Node0</title>
<g id="a_Node000000"><a xlink:href="classEnum.html" target="_top" xlink:title=" ">
<polygon fill="white" stroke="#666666" points="44,-45.5 0,-45.5 0,-26.5 44,-26.5 44,-45.5"/>
<text text-anchor="middle" x="22" y="-33.5" font-family="Helvetica,sans-Serif" font-size="10.00">Enum</text>
</a>
</g>
</g>
<!-- Node1 -->
<g id="Node000001" class="node">
<title>Node1</title>
<g id="a_Node000001"><a xlink:href="classfinancial__models_1_1AssetClass.html" target="_top" xlink:title=" ">
<polygon fill="white" stroke="#666666" points="235,-67.5 80,-67.5 80,-48.5 235,-48.5 235,-67.5"/>
<text text-anchor="middle" x="157.5" y="-55.5" font-family="Helvetica,sans-Serif" font-size="10.00">financial_models.AssetClass</text>
</a>
</g>
</g>
<!-- Node0&#45;&gt;Node1 -->
<g id="edge13_Node000000_Node000001" class="edge">
<title>Node0&#45;&gt;Node1</title>
<g id="a_edge13_Node000000_Node000001"><a xlink:title=" ">
<path fill="none" stroke="#63b8ff" d="M54.15,-41.13C67.4,-43.32 83.3,-45.94 98.57,-48.45"/>
<polygon fill="#63b8ff" stroke="#63b8ff" points="54.59,-37.66 44.15,-39.49 53.45,-44.57 54.59,-37.66"/>
</a>
</g>
</g>
<!-- Node2 -->
<g id="Node000002" class="node">
<title>Node2</title>
<g id="a_Node000002"><a xlink:href="classfinancial__models_1_1RegulatoryActivity.html" target="_top" xlink:title=" ">
<polygon fill="white" stroke="#666666" points="235,-30 80,-30 80,0 235,0 235,-30"/>
<text text-anchor="start" x="88" y="-18" font-family="Helvetica,sans-Serif" font-size="10.00">financial_models.Regulatory</text>
<text text-anchor="middle" x="157.5" y="-7" font-family="Helvetica,sans-Serif" font-size="10.00">Activity</text>
</a>
</g>
</g>
<!-- Node0&#45;&gt;Node2 -->
<g id="edge14_Node000000_Node000002" class="edge">
<title>Node0&#45;&gt;Node2</title>
<g id="a_edge14_Node000000_Node000002"><a xlink:title=" ">
<path fill="none" stroke="#63b8ff" d="M54.23,-31.09C62.09,-29.85 70.87,-28.47 79.9,-27.05"/>
<polygon fill="#63b8ff" stroke="#63b8ff" points="53.49,-27.66 44.15,-32.67 54.58,-34.58 53.49,-27.66"/>
</a>
</g>
</g>
</g>
</svg>
