<?xml version="1.0" encoding="UTF-8" standalone="no"?>
<!DOCTYPE svg PUBLIC "-//W3C//DTD SVG 1.1//EN"
 "http://www.w3.org/Graphics/SVG/1.1/DTD/svg11.dtd">
<!-- Generated by graphviz version 2.43.0 (0)
 -->
<!-- Title: Graphical Class Hierarchy Pages: 1 -->
<svg width="285pt" height="261pt"
 viewBox="0.00 0.00 285.00 260.50" xmlns="http://www.w3.org/2000/svg" xmlns:xlink="http://www.w3.org/1999/xlink">
<g id="graph0" class="graph" transform="scale(1 1) rotate(0) translate(4 256.5)">
<title>Graphical Class Hierarchy</title>
<!-- Node0 -->
<g id="Node000000" class="node">
<title>Node0</title>
<g id="a_Node000000"><a xlink:href="classBaseModel.html" target="_top" xlink:title=" ">
<polygon fill="white" stroke="#666666" points="71,-141.5 0,-141.5 0,-122.5 71,-122.5 71,-141.5"/>
<text text-anchor="middle" x="35.5" y="-129.5" font-family="Helvetica,sans-Serif" font-size="10.00">BaseModel</text>
</a>
</g>
</g>
<!-- Node1 -->
<g id="Node000001" class="node">
<title>Node1</title>
<g id="a_Node000001"><a xlink:href="classapi_1_1auth_1_1Token.html" target="_top" xlink:title=" ">
<polygon fill="white" stroke="#666666" points="235.5,-252.5 148.5,-252.5 148.5,-233.5 235.5,-233.5 235.5,-252.5"/>
<text text-anchor="middle" x="192" y="-240.5" font-family="Helvetica,sans-Serif" font-size="10.00">api.auth.Token</text>
</a>
</g>
</g>
<!-- Node0&#45;&gt;Node1 -->
<g id="edge6_Node000000_Node000001" class="edge">
<title>Node0&#45;&gt;Node1</title>
<g id="a_edge6_Node000000_Node000001"><a xlink:title=" ">
<path fill="none" stroke="#63b8ff" d="M45.52,-150.81C56.81,-172.25 78.22,-206.69 107,-225 119.21,-232.77 134.22,-237.23 148.17,-239.78"/>
<polygon fill="#63b8ff" stroke="#63b8ff" points="48.56,-149.06 40.92,-141.71 42.31,-152.22 48.56,-149.06"/>
</a>
</g>
</g>
<!-- Node2 -->
<g id="Node000002" class="node">
<title>Node2</title>
<g id="a_Node000002"><a xlink:href="classapi_1_1auth_1_1TokenData.html" target="_top" xlink:title=" ">
<polygon fill="white" stroke="#666666" points="247,-215.5 137,-215.5 137,-196.5 247,-196.5 247,-215.5"/>
<text text-anchor="middle" x="192" y="-203.5" font-family="Helvetica,sans-Serif" font-size="10.00">api.auth.TokenData</text>
</a>
</g>
</g>
<!-- Node0&#45;&gt;Node2 -->
<g id="edge7_Node000000_Node000002" class="edge">
<title>Node0&#45;&gt;Node2</title>
<g id="a_edge7_Node000000_Node000002"><a xlink:title=" ">
<path fill="none" stroke="#63b8ff" d="M53,-148.8C66.4,-161.47 86.4,-178.27 107,-188 116.31,-192.39 126.7,-195.73 136.91,-198.25"/>
<polygon fill="#63b8ff" stroke="#63b8ff" points="55.17,-146.02 45.56,-141.55 50.28,-151.03 55.17,-146.02"/>
</a>
</g>
</g>
<!-- Node3 -->
<g id="Node000003" class="node">
<title>Node3</title>
<g id="a_Node000003"><a xlink:href="classapi_1_1auth_1_1User.html" target="_top" xlink:title=" ">
<polygon fill="white" stroke="#666666" points="233,-178.5 151,-178.5 151,-159.5 233,-159.5 233,-178.5"/>
<text text-anchor="middle" x="192" y="-166.5" font-family="Helvetica,sans-Serif" font-size="10.00">api.auth.User</text>
</a>
</g>
</g>
<!-- Node0&#45;&gt;Node3 -->
<g id="edge8_Node000000_Node000003" class="edge">
<title>Node0&#45;&gt;Node3</title>
<g id="a_edge8_Node000000_Node000003"><a xlink:title=" ">
<path fill="none" stroke="#63b8ff" d="M80.23,-144.17C89.07,-146.52 98.32,-148.9 107,-151 121.21,-154.43 136.85,-157.88 150.74,-160.82"/>
<polygon fill="#63b8ff" stroke="#63b8ff" points="81.04,-140.76 70.47,-141.54 79.22,-147.52 81.04,-140.76"/>
</a>
</g>
</g>
<!-- Node4 -->
<g id="Node000004" class="node">
<title>Node4</title>
<g id="a_Node000004"><a xlink:href="classapi_1_1main_1_1AssetResponse.html" target="_top" xlink:title=" ">
<polygon fill="white" stroke="#666666" points="260.5,-141.5 123.5,-141.5 123.5,-122.5 260.5,-122.5 260.5,-141.5"/>
<text text-anchor="middle" x="192" y="-129.5" font-family="Helvetica,sans-Serif" font-size="10.00">api.main.AssetResponse</text>
</a>
</g>
</g>
<!-- Node0&#45;&gt;Node4 -->
<g id="edge9_Node000000_Node000004" class="edge">
<title>Node0&#45;&gt;Node4</title>
<g id="a_edge9_Node000000_Node000004"><a xlink:title=" ">
<path fill="none" stroke="#63b8ff" d="M81.31,-132C94.41,-132 109.03,-132 123.21,-132"/>
<polygon fill="#63b8ff" stroke="#63b8ff" points="81.17,-128.5 71.17,-132 81.17,-135.5 81.17,-128.5"/>
</a>
</g>
</g>
<!-- Node5 -->
<g id="Node000005" class="node">
<title>Node5</title>
<g id="a_Node000005"><a xlink:href="classapi_1_1main_1_1MetricsResponse.html" target="_top" xlink:title=" ">
<polygon fill="white" stroke="#666666" points="265,-104.5 119,-104.5 119,-85.5 265,-85.5 265,-104.5"/>
<text text-anchor="middle" x="192" y="-92.5" font-family="Helvetica,sans-Serif" font-size="10.00">api.main.MetricsResponse</text>
</a>
</g>
</g>
<!-- Node0&#45;&gt;Node5 -->
<g id="edge10_Node000000_Node000005" class="edge">
<title>Node0&#45;&gt;Node5</title>
<g id="a_edge10_Node000000_Node000005"><a xlink:title=" ">
<path fill="none" stroke="#63b8ff" d="M81.1,-120.41C89.69,-118.24 98.61,-116.02 107,-114 120.23,-110.82 134.67,-107.49 147.78,-104.54"/>
<polygon fill="#63b8ff" stroke="#63b8ff" points="80.06,-117.07 71.24,-122.93 81.79,-123.85 80.06,-117.07"/>
</a>
</g>
</g>
<!-- Node6 -->
<g id="Node000006" class="node">
<title>Node6</title>
<g id="a_Node000006"><a xlink:href="classapi_1_1main_1_1RelationshipResponse.html" target="_top" xlink:title=" ">
<polygon fill="white" stroke="#666666" points="277,-67.5 107,-67.5 107,-48.5 277,-48.5 277,-67.5"/>
<text text-anchor="middle" x="192" y="-55.5" font-family="Helvetica,sans-Serif" font-size="10.00">api.main.RelationshipResponse</text>
</a>
</g>
</g>
<!-- Node0&#45;&gt;Node6 -->
<g id="edge11_Node000000_Node000006" class="edge">
<title>Node0&#45;&gt;Node6</title>
<g id="a_edge11_Node000000_Node000006"><a xlink:title=" ">
<path fill="none" stroke="#63b8ff" d="M53.55,-115.15C66.99,-102.8 86.79,-86.58 107,-77 115.11,-73.16 124.03,-70.07 132.94,-67.6"/>
<polygon fill="#63b8ff" stroke="#63b8ff" points="50.91,-112.83 46.05,-122.25 55.72,-117.91 50.91,-112.83"/>
</a>
</g>
</g>
<!-- Node7 -->
<g id="Node000007" class="node">
<title>Node7</title>
<g id="a_Node000007"><a xlink:href="classapi_1_1main_1_1VisualizationDataResponse.html" target="_top" xlink:title=" ">
<polygon fill="white" stroke="#666666" points="266.5,-30 117.5,-30 117.5,0 266.5,0 266.5,-30"/>
<text text-anchor="start" x="125.5" y="-18" font-family="Helvetica,sans-Serif" font-size="10.00">api.main.VisualizationData</text>
<text text-anchor="middle" x="192" y="-7" font-family="Helvetica,sans-Serif" font-size="10.00">Response</text>
</a>
</g>
</g>
<!-- Node0&#45;&gt;Node7 -->
<g id="edge12_Node000000_Node000007" class="edge">
<title>Node0&#45;&gt;Node7</title>
<g id="a_edge12_Node000000_Node000007"><a xlink:title=" ">
<path fill="none" stroke="#63b8ff" d="M46,-113.46C57.63,-92.59 79.24,-59.12 107,-40 112.64,-36.12 118.89,-32.83 125.37,-30.04"/>
<polygon fill="#63b8ff" stroke="#63b8ff" points="42.89,-111.86 41.25,-122.32 49.06,-115.17 42.89,-111.86"/>
</a>
</g>
</g>
</g>
</svg>
