<?xml version="1.0" encoding="UTF-8" standalone="no"?>
<!DOCTYPE svg PUBLIC "-//W3C//DTD SVG 1.1//EN"
 "http://www.w3.org/Graphics/SVG/1.1/DTD/svg11.dtd">
<!-- Generated by graphviz version 2.43.0 (0)
 -->
<!-- Title: Graphical Class Hierarchy Pages: 1 -->
<svg width="269pt" height="150pt"
 viewBox="0.00 0.00 269.00 150.00" xmlns="http://www.w3.org/2000/svg" xmlns:xlink="http://www.w3.org/1999/xlink">
<g id="graph0" class="graph" transform="scale(1 1) rotate(0) translate(4 146)">
<title>Graphical Class Hierarchy</title>
<!-- Node0 -->
<g id="Node000000" class="node">
<title>Node0</title>
<g id="a_Node000000"><a xlink:href="classBase.html" target="_top" xlink:title=" ">
<polygon fill="white" stroke="#666666" points="41,-83 0,-83 0,-64 41,-64 41,-83"/>
<text text-anchor="middle" x="20.5" y="-71" font-family="Helvetica,sans-Serif" font-size="10.00">Base</text>
</a>
</g>
</g>
<!-- Node1 -->
<g id="Node000001" class="node">
<title>Node1</title>
<g id="a_Node000001"><a xlink:href="classdb__models_1_1AssetORM.html" target="_top" xlink:title=" ">
<polygon fill="white" stroke="#666666" points="230.5,-142 107.5,-142 107.5,-123 230.5,-123 230.5,-142"/>
<text text-anchor="middle" x="169" y="-130" font-family="Helvetica,sans-Serif" font-size="10.00">db_models.AssetORM</text>
</a>
</g>
</g>
<!-- Node0&#45;&gt;Node1 -->
<g id="edge2_Node000000_Node000001" class="edge">
<title>Node0&#45;&gt;Node1</title>
<g id="a_edge2_Node000000_Node000001"><a xlink:title=" ">
<path fill="none" stroke="#63b8ff" d="M39.46,-89.97C49.75,-98.54 63.3,-108.45 77,-114.5 86.43,-118.66 96.83,-121.87 107.13,-124.34"/>
<polygon fill="#63b8ff" stroke="#63b8ff" points="41.51,-87.11 31.66,-83.21 36.93,-92.4 41.51,-87.11"/>
</a>
</g>
</g>
<!-- Node2 -->
<g id="Node000002" class="node">
<title>Node2</title>
<g id="a_Node000002"><a xlink:href="classdb__models_1_1AssetRelationshipORM.html" target="_top" xlink:title=" ">
<polygon fill="white" stroke="#666666" points="261,-105 77,-105 77,-86 261,-86 261,-105"/>
<text text-anchor="middle" x="169" y="-93" font-family="Helvetica,sans-Serif" font-size="10.00">db_models.AssetRelationshipORM</text>
</a>
</g>
</g>
<!-- Node0&#45;&gt;Node2 -->
<g id="edge3_Node000000_Node000002" class="edge">
<title>Node0&#45;&gt;Node2</title>
<g id="a_edge3_Node000000_Node000002"><a xlink:title=" ">
<path fill="none" stroke="#63b8ff" d="M51.2,-77.96C66.58,-80.27 85.98,-83.18 104.52,-85.97"/>
<polygon fill="#63b8ff" stroke="#63b8ff" points="51.67,-74.49 41.26,-76.47 50.63,-81.41 51.67,-74.49"/>
</a>
</g>
</g>
<!-- Node3 -->
<g id="Node000003" class="node">
<title>Node3</title>
<g id="a_Node000003"><a xlink:href="classdb__models_1_1RegulatoryEventAssetORM.html" target="_top" xlink:title=" ">
<polygon fill="white" stroke="#666666" points="246,-67.5 92,-67.5 92,-37.5 246,-37.5 246,-67.5"/>
<text text-anchor="start" x="100" y="-55.5" font-family="Helvetica,sans-Serif" font-size="10.00">db_models.RegulatoryEvent</text>
<text text-anchor="middle" x="169" y="-44.5" font-family="Helvetica,sans-Serif" font-size="10.00">AssetORM</text>
</a>
</g>
</g>
<!-- Node0&#45;&gt;Node3 -->
<g id="edge4_Node000000_Node000003" class="edge">
<title>Node0&#45;&gt;Node3</title>
<g id="a_edge4_Node000000_Node000003"><a xlink:title=" ">
<path fill="none" stroke="#63b8ff" d="M51.44,-69.21C63.33,-67.5 77.59,-65.46 92,-63.39"/>
<polygon fill="#63b8ff" stroke="#63b8ff" points="50.66,-65.78 41.26,-70.67 51.65,-72.71 50.66,-65.78"/>
</a>
</g>
</g>
<!-- Node4 -->
<g id="Node000004" class="node">
<title>Node4</title>
<g id="a_Node000004"><a xlink:href="classdb__models_1_1RegulatoryEventORM.html" target="_top" xlink:title=" ">
<polygon fill="white" stroke="#666666" points="257.5,-19 80.5,-19 80.5,0 257.5,0 257.5,-19"/>
<text text-anchor="middle" x="169" y="-7" font-family="Helvetica,sans-Serif" font-size="10.00">db_models.RegulatoryEventORM</text>
</a>
</g>
</g>
<!-- Node0&#45;&gt;Node4 -->
<g id="edge5_Node000000_Node000004" class="edge">
<title>Node0&#45;&gt;Node4</title>
<g id="a_edge5_Node000000_Node000004"><a xlink:title=" ">
<path fill="none" stroke="#63b8ff" d="M38.16,-56.42C48.48,-46.81 62.5,-35.39 77,-28.5 85.16,-24.62 94.11,-21.53 103.11,-19.07"/>
<polygon fill="#63b8ff" stroke="#63b8ff" points="35.47,-54.15 30.73,-63.62 40.35,-59.18 35.47,-54.15"/>
</a>
</g>
</g>
</g>
</svg>
