<?xml version="1.0" encoding="UTF-8" standalone="no"?>
<!DOCTYPE svg PUBLIC "-//W3C//DTD SVG 1.1//EN"
 "http://www.w3.org/Graphics/SVG/1.1/DTD/svg11.dtd">
<!-- Generated by graphviz version 2.43.0 (0)
 -->
<!-- Title: api.main.get_assets Pages: 1 -->
<svg width="574pt" height="81pt"
 viewBox="0.00 0.00 574.00 81.00" xmlns="http://www.w3.org/2000/svg" xmlns:xlink="http://www.w3.org/1999/xlink">
<g id="graph0" class="graph" transform="scale(1 1) rotate(0) translate(4 77)">
<title>api.main.get_assets</title>
<!-- Node1 -->
<g id="Node000001" class="node">
<title>Node1</title>
<g id="a_Node000001"><a xlink:title=" ">
<polygon fill="#999999" stroke="#666666" points="115,-45.5 0,-45.5 0,-26.5 115,-26.5 115,-45.5"/>
<text text-anchor="middle" x="57.5" y="-33.5" font-family="Helvetica,sans-Serif" font-size="10.00">api.main.get_assets</text>
</a>
</g>
</g>
<!-- Node2 -->
<g id="Node000002" class="node">
<title>Node2</title>
<g id="a_Node000002"><a xlink:href="namespaceapi_1_1main.html#a36e38405e838cf6847b86f3ef103e262" target="_top" xlink:title=" ">
<polygon fill="white" stroke="#666666" points="262,-67.5 151,-67.5 151,-48.5 262,-48.5 262,-67.5"/>
<text text-anchor="middle" x="206.5" y="-55.5" font-family="Helvetica,sans-Serif" font-size="10.00">api.main.get_graph</text>
</a>
</g>
</g>
<!-- Node1&#45;&gt;Node2 -->
<g id="edge1_Node000001_Node000002" class="edge">
<title>Node1&#45;&gt;Node2</title>
<g id="a_edge1_Node000001_Node000002"><a xlink:title=" ">
<path fill="none" stroke="#63b8ff" d="M115.33,-44.51C123.61,-45.74 132.17,-47.03 140.59,-48.29"/>
<polygon fill="#63b8ff" stroke="#63b8ff" points="140.34,-51.79 150.75,-49.81 141.38,-44.86 140.34,-51.79"/>
</a>
</g>
</g>
<!-- Node5 -->
<g id="Node000005" class="node">
<title>Node5</title>
<g id="a_Node000005"><a xlink:href="namespaceapi_1_1main.html#a01d5b997c7c518457e2a8503526bf65a" target="_top" xlink:title=" ">
<polygon fill="white" stroke="#666666" points="258.5,-30 154.5,-30 154.5,0 258.5,0 258.5,-30"/>
<text text-anchor="start" x="162.5" y="-18" font-family="Helvetica,sans-Serif" font-size="10.00">api.main.serialize</text>
<text text-anchor="middle" x="206.5" y="-7" font-family="Helvetica,sans-Serif" font-size="10.00">_asset</text>
</a>
</g>
</g>
<!-- Node1&#45;&gt;Node5 -->
<g id="edge4_Node000001_Node000005" class="edge">
<title>Node1&#45;&gt;Node5</title>
<g id="a_edge4_Node000001_Node000005"><a xlink:title=" ">
<path fill="none" stroke="#63b8ff" d="M115.33,-27.88C124.71,-26.54 134.46,-25.15 143.95,-23.79"/>
<polygon fill="#63b8ff" stroke="#63b8ff" points="144.7,-27.22 154.1,-22.34 143.71,-20.29 144.7,-27.22"/>
</a>
</g>
</g>
<!-- Node3 -->
<g id="Node000003" class="node">
<title>Node3</title>
<g id="a_Node000003"><a xlink:href="namespaceapi_1_1main.html#ae01417ef61271933f6fa186011018274" target="_top" xlink:title=" ">
<polygon fill="white" stroke="#666666" points="408,-73 298,-73 298,-43 408,-43 408,-73"/>
<text text-anchor="start" x="306" y="-61" font-family="Helvetica,sans-Serif" font-size="10.00">api.main._initialize</text>
<text text-anchor="middle" x="353" y="-50" font-family="Helvetica,sans-Serif" font-size="10.00">_graph</text>
</a>
</g>
</g>
<!-- Node2&#45;&gt;Node3 -->
<g id="edge2_Node000002_Node000003" class="edge">
<title>Node2&#45;&gt;Node3</title>
<g id="a_edge2_Node000002_Node000003"><a xlink:title=" ">
<path fill="none" stroke="#63b8ff" d="M262.13,-58C270.42,-58 279.05,-58 287.53,-58"/>
<polygon fill="#63b8ff" stroke="#63b8ff" points="287.77,-61.5 297.77,-58 287.77,-54.5 287.77,-61.5"/>
</a>
</g>
</g>
<!-- Node4 -->
<g id="Node000004" class="node">
<title>Node4</title>
<g id="a_Node000004"><a xlink:href="namespaceapi_1_1main.html#ac3285016e88cfbffb67e774549fc3a33" target="_top" xlink:title=" ">
<polygon fill="white" stroke="#666666" points="566,-73 444,-73 444,-43 566,-43 566,-73"/>
<text text-anchor="start" x="452" y="-61" font-family="Helvetica,sans-Serif" font-size="10.00">api.main._should_use</text>
<text text-anchor="middle" x="505" y="-50" font-family="Helvetica,sans-Serif" font-size="10.00">_real_data_fetcher</text>
</a>
</g>
</g>
<!-- Node3&#45;&gt;Node4 -->
<g id="edge3_Node000003_Node000004" class="edge">
<title>Node3&#45;&gt;Node4</title>
<g id="a_edge3_Node000003_Node000004"><a xlink:title=" ">
<path fill="none" stroke="#63b8ff" d="M408.15,-58C416.48,-58 425.17,-58 433.78,-58"/>
<polygon fill="#63b8ff" stroke="#63b8ff" points="433.83,-61.5 443.83,-58 433.83,-54.5 433.83,-61.5"/>
</a>
</g>
</g>
</g>
</svg>
