<?xml version="1.0" encoding="UTF-8" standalone="no"?>
<!DOCTYPE svg PUBLIC "-//W3C//DTD SVG 1.1//EN"
 "http://www.w3.org/Graphics/SVG/1.1/DTD/svg11.dtd">
<!-- Generated by graphviz version 2.43.0 (0)
 -->
<!-- Title: conftest.pytest_load_initial_conftests Pages: 1 -->
<svg width="362pt" height="1478pt"
 viewBox="0.00 0.00 362.00 1477.50" xmlns="http://www.w3.org/2000/svg" xmlns:xlink="http://www.w3.org/1999/xlink">
<g id="graph0" class="graph" transform="scale(1 1) rotate(0) translate(4 1473.5)">
<title>conftest.pytest_load_initial_conftests</title>
<!-- Node1 -->
<g id="Node000001" class="node">
<title>Node1</title>
<g id="a_Node000001"><a xlink:title=" ">
<polygon fill="#999999" stroke="#666666" points="354,-741.5 238,-741.5 238,-711.5 354,-711.5 354,-741.5"/>
<text text-anchor="start" x="246" y="-729.5" font-family="Helvetica,sans-Serif" font-size="10.00">conftest.pytest_load</text>
<text text-anchor="middle" x="296" y="-718.5" font-family="Helvetica,sans-Serif" font-size="10.00">_initial_conftests</text>
</a>
</g>
</g>
<!-- Node2 -->
<g id="Node000002" class="node">
<title>Node2</title>
<g id="a_Node000002"><a xlink:href="classtests_1_1unit_1_1test__root__conftest_1_1TestPytestLoadInitialConftests.html#a48d64ac903f416416d01393be6b8a03f" target="_top" xlink:title=" ">
<polygon fill="white" stroke="#666666" points="183.5,-1469.5 18.5,-1469.5 18.5,-1417.5 183.5,-1417.5 183.5,-1469.5"/>
<text text-anchor="start" x="26.5" y="-1457.5" font-family="Helvetica,sans-Serif" font-size="10.00">tests.unit.test_root</text>
<text text-anchor="start" x="26.5" y="-1446.5" font-family="Helvetica,sans-Serif" font-size="10.00">_conftest.TestPytestLoadInitial</text>
<text text-anchor="start" x="26.5" y="-1435.5" font-family="Helvetica,sans-Serif" font-size="10.00">Conftests.test_does_nothing</text>
<text text-anchor="middle" x="101" y="-1424.5" font-family="Helvetica,sans-Serif" font-size="10.00">_when_cov_plugin_available</text>
</a>
</g>
</g>
<!-- Node1&#45;&gt;Node2 -->
<g id="edge1_Node000001_Node000002" class="edge">
<title>Node1&#45;&gt;Node2</title>
<g id="a_edge1_Node000001_Node000002"><a xlink:title=" ">
<path fill="none" stroke="#63b8ff" d="M294.97,-751.94C294.32,-863.08 286.4,-1305.15 202,-1408.5 196.88,-1414.77 190.57,-1419.92 183.62,-1424.14"/>
<polygon fill="#63b8ff" stroke="#63b8ff" points="298.47,-751.7 295.01,-741.68 291.47,-751.67 298.47,-751.7"/>
</a>
</g>
</g>
<!-- Node3 -->
<g id="Node000003" class="node">
<title>Node3</title>
<g id="a_Node000003"><a xlink:href="classtests_1_1unit_1_1test__root__conftest_1_1TestPytestLoadInitialConftests.html#a0c145922f69b91a3fb6f17d933728880" target="_top" xlink:title=" ">
<polygon fill="white" stroke="#666666" points="183.5,-1399.5 18.5,-1399.5 18.5,-1347.5 183.5,-1347.5 183.5,-1399.5"/>
<text text-anchor="start" x="26.5" y="-1387.5" font-family="Helvetica,sans-Serif" font-size="10.00">tests.unit.test_root</text>
<text text-anchor="start" x="26.5" y="-1376.5" font-family="Helvetica,sans-Serif" font-size="10.00">_conftest.TestPytestLoadInitial</text>
<text text-anchor="start" x="26.5" y="-1365.5" font-family="Helvetica,sans-Serif" font-size="10.00">Conftests.test_handles_args</text>
<text text-anchor="middle" x="101" y="-1354.5" font-family="Helvetica,sans-Serif" font-size="10.00">_with_only_coverage_flags</text>
</a>
</g>
</g>
<!-- Node1&#45;&gt;Node3 -->
<g id="edge2_Node000001_Node000003" class="edge">
<title>Node1&#45;&gt;Node3</title>
<g id="a_edge2_Node000001_Node000003"><a xlink:title=" ">
<path fill="none" stroke="#63b8ff" d="M294.53,-751.95C292.1,-855.89 277.96,-1246.92 202,-1338.5 196.83,-1344.73 190.49,-1349.85 183.52,-1354.06"/>
<polygon fill="#63b8ff" stroke="#63b8ff" points="298.03,-751.84 294.75,-741.76 291.03,-751.69 298.03,-751.84"/>
</a>
</g>
</g>
<!-- Node4 -->
<g id="Node000004" class="node">
<title>Node4</title>
<g id="a_Node000004"><a xlink:href="classtests_1_1unit_1_1test__root__conftest_1_1TestCoverageFilteringEdgeCases.html#aab14eb5cb2f1b34b39b2336c87ac4a8c" target="_top" xlink:title=" ">
<polygon fill="white" stroke="#666666" points="200.5,-1329.5 1.5,-1329.5 1.5,-1277.5 200.5,-1277.5 200.5,-1329.5"/>
<text text-anchor="start" x="9.5" y="-1317.5" font-family="Helvetica,sans-Serif" font-size="10.00">tests.unit.test_root</text>
<text text-anchor="start" x="9.5" y="-1306.5" font-family="Helvetica,sans-Serif" font-size="10.00">_conftest.TestCoverageFiltering</text>
<text text-anchor="start" x="9.5" y="-1295.5" font-family="Helvetica,sans-Serif" font-size="10.00">EdgeCases.test_handles_consecutive</text>
<text text-anchor="middle" x="101" y="-1284.5" font-family="Helvetica,sans-Serif" font-size="10.00">_coverage_flags</text>
</a>
</g>
</g>
<!-- Node1&#45;&gt;Node4 -->
<g id="edge3_Node000001_Node000004" class="edge">
<title>Node1&#45;&gt;Node4</title>
<g id="a_edge3_Node000001_Node000004"><a xlink:title=" ">
<path fill="none" stroke="#63b8ff" d="M293.98,-751.77C289.63,-847.79 269.61,-1188.56 202,-1268.5 199.27,-1271.73 196.22,-1274.66 192.93,-1277.32"/>
<polygon fill="#63b8ff" stroke="#63b8ff" points="297.49,-751.69 294.43,-741.55 290.5,-751.39 297.49,-751.69"/>
</a>
</g>
</g>
<!-- Node5 -->
<g id="Node000005" class="node">
<title>Node5</title>
<g id="a_Node000005"><a xlink:href="classtests_1_1unit_1_1test__root__conftest_1_1TestCoverageFilteringEdgeCases.html#a4a8a6645cf3262819eaddedf4a5692af" target="_top" xlink:title=" ">
<polygon fill="white" stroke="#666666" points="186,-1259.5 16,-1259.5 16,-1207.5 186,-1207.5 186,-1259.5"/>
<text text-anchor="start" x="24" y="-1247.5" font-family="Helvetica,sans-Serif" font-size="10.00">tests.unit.test_root</text>
<text text-anchor="start" x="24" y="-1236.5" font-family="Helvetica,sans-Serif" font-size="10.00">_conftest.TestCoverageFiltering</text>
<text text-anchor="start" x="24" y="-1225.5" font-family="Helvetica,sans-Serif" font-size="10.00">EdgeCases.test_handles_cov</text>
<text text-anchor="middle" x="101" y="-1214.5" font-family="Helvetica,sans-Serif" font-size="10.00">_flag_at_end_with_no_value</text>
</a>
</g>
</g>
<!-- Node1&#45;&gt;Node5 -->
<g id="edge4_Node000001_Node000005" class="edge">
<title>Node1&#45;&gt;Node5</title>
<g id="a_edge4_Node000001_Node000005"><a xlink:title=" ">
<path fill="none" stroke="#63b8ff" d="M293.25,-752.17C286.73,-840.51 261.16,-1130.27 202,-1198.5 197.42,-1203.78 192,-1208.27 186.08,-1212.07"/>
<polygon fill="#63b8ff" stroke="#63b8ff" points="296.76,-752.2 293.98,-741.97 289.77,-751.7 296.76,-752.2"/>
</a>
</g>
</g>
<!-- Node6 -->
<g id="Node000006" class="node">
<title>Node6</title>
<g id="a_Node000006"><a xlink:href="classtests_1_1unit_1_1test__root__conftest_1_1TestCoverageFilteringEdgeCases.html#a54e76345fbf87ec28d17d14bd4ce53c7" target="_top" xlink:title=" ">
<polygon fill="white" stroke="#666666" points="186,-1189.5 16,-1189.5 16,-1137.5 186,-1137.5 186,-1189.5"/>
<text text-anchor="start" x="24" y="-1177.5" font-family="Helvetica,sans-Serif" font-size="10.00">tests.unit.test_root</text>
<text text-anchor="start" x="24" y="-1166.5" font-family="Helvetica,sans-Serif" font-size="10.00">_conftest.TestCoverageFiltering</text>
<text text-anchor="start" x="24" y="-1155.5" font-family="Helvetica,sans-Serif" font-size="10.00">EdgeCases.test_handles_cov</text>
<text text-anchor="middle" x="101" y="-1144.5" font-family="Helvetica,sans-Serif" font-size="10.00">_flags_with_complex_values</text>
</a>
</g>
</g>
<!-- Node1&#45;&gt;Node6 -->
<g id="edge5_Node000001_Node000006" class="edge">
<title>Node1&#45;&gt;Node6</title>
<g id="a_edge5_Node000001_Node000006"><a xlink:title=" ">
<path fill="none" stroke="#63b8ff" d="M292.32,-751.93C283.48,-831.16 252.91,-1071.69 202,-1128.5 197.46,-1133.57 192.14,-1137.9 186.36,-1141.61"/>
<polygon fill="#63b8ff" stroke="#63b8ff" points="295.81,-752.17 293.42,-741.85 288.85,-751.41 295.81,-752.17"/>
</a>
</g>
</g>
<!-- Node7 -->
<g id="Node000007" class="node">
<title>Node7</title>
<g id="a_Node000007"><a xlink:href="classtests_1_1unit_1_1test__root__conftest_1_1TestCoverageFilteringEdgeCases.html#a5b96abd9e3e492ad0a50480b9fd5ff22" target="_top" xlink:title=" ">
<polygon fill="white" stroke="#666666" points="186,-1119.5 16,-1119.5 16,-1067.5 186,-1067.5 186,-1119.5"/>
<text text-anchor="start" x="24" y="-1107.5" font-family="Helvetica,sans-Serif" font-size="10.00">tests.unit.test_root</text>
<text text-anchor="start" x="24" y="-1096.5" font-family="Helvetica,sans-Serif" font-size="10.00">_conftest.TestCoverageFiltering</text>
<text text-anchor="start" x="24" y="-1085.5" font-family="Helvetica,sans-Serif" font-size="10.00">EdgeCases.test_handles_cov</text>
<text text-anchor="middle" x="101" y="-1074.5" font-family="Helvetica,sans-Serif" font-size="10.00">_in_test_path</text>
</a>
</g>
</g>
<!-- Node1&#45;&gt;Node7 -->
<g id="edge6_Node000001_Node000007" class="edge">
<title>Node1&#45;&gt;Node7</title>
<g id="a_edge6_Node000001_Node000007"><a xlink:title=" ">
<path fill="none" stroke="#63b8ff" d="M295.38,-752.02C294.89,-813.25 285.1,-969.95 202,-1058.5 197.34,-1063.46 191.94,-1067.72 186.11,-1071.38"/>
<polygon fill="#63b8ff" stroke="#63b8ff" points="298.88,-751.74 295.38,-741.74 291.88,-751.74 298.88,-751.74"/>
</a>
</g>
</g>
<!-- Node8 -->
<g id="Node000008" class="node">
<title>Node8</title>
<g id="a_Node000008"><a xlink:href="classtests_1_1unit_1_1test__root__conftest_1_1TestCoverageFilteringEdgeCases.html#a1aefac2e1996b70a5138c7a99ada09bf" target="_top" xlink:title=" ">
<polygon fill="white" stroke="#666666" points="186,-1049.5 16,-1049.5 16,-997.5 186,-997.5 186,-1049.5"/>
<text text-anchor="start" x="24" y="-1037.5" font-family="Helvetica,sans-Serif" font-size="10.00">tests.unit.test_root</text>
<text text-anchor="start" x="24" y="-1026.5" font-family="Helvetica,sans-Serif" font-size="10.00">_conftest.TestCoverageFiltering</text>
<text text-anchor="start" x="24" y="-1015.5" font-family="Helvetica,sans-Serif" font-size="10.00">EdgeCases.test_handles_cov</text>
<text text-anchor="middle" x="101" y="-1004.5" font-family="Helvetica,sans-Serif" font-size="10.00">_report_at_end_with_no_value</text>
</a>
</g>
</g>
<!-- Node1&#45;&gt;Node8 -->
<g id="edge7_Node000001_Node000008" class="edge">
<title>Node1&#45;&gt;Node8</title>
<g id="a_edge7_Node000001_Node000008"><a xlink:title=" ">
<path fill="none" stroke="#63b8ff" d="M293.13,-751.84C287.96,-803.5 269.08,-921.72 202,-988.5 197.31,-993.17 191.96,-997.22 186.23,-1000.73"/>
<polygon fill="#63b8ff" stroke="#63b8ff" points="296.64,-751.87 294.05,-741.59 289.67,-751.24 296.64,-751.87"/>
</a>
</g>
</g>
<!-- Node9 -->
<g id="Node000009" class="node">
<title>Node9</title>
<g id="a_Node000009"><a xlink:href="classtests_1_1unit_1_1test__root__conftest_1_1TestPytestLoadInitialConftests.html#a8f111009e8b2e0fe37b5f45ae5bb403a" target="_top" xlink:title=" ">
<polygon fill="white" stroke="#666666" points="183.5,-979.5 18.5,-979.5 18.5,-927.5 183.5,-927.5 183.5,-979.5"/>
<text text-anchor="start" x="26.5" y="-967.5" font-family="Helvetica,sans-Serif" font-size="10.00">tests.unit.test_root</text>
<text text-anchor="start" x="26.5" y="-956.5" font-family="Helvetica,sans-Serif" font-size="10.00">_conftest.TestPytestLoadInitial</text>
<text text-anchor="start" x="26.5" y="-945.5" font-family="Helvetica,sans-Serif" font-size="10.00">Conftests.test_handles_empty</text>
<text text-anchor="middle" x="101" y="-934.5" font-family="Helvetica,sans-Serif" font-size="10.00">_args_list</text>
</a>
</g>
</g>
<!-- Node1&#45;&gt;Node9 -->
<g id="edge8_Node000001_Node000009" class="edge">
<title>Node1&#45;&gt;Node9</title>
<g id="a_edge8_Node000001_Node000009"><a xlink:title=" ">
<path fill="none" stroke="#63b8ff" d="M289.46,-751.5C279.18,-792.17 253.39,-872.68 202,-918.5 196.51,-923.4 190.29,-927.62 183.71,-931.25"/>
<polygon fill="#63b8ff" stroke="#63b8ff" points="292.9,-752.15 291.85,-741.61 286.1,-750.51 292.9,-752.15"/>
</a>
</g>
</g>
<!-- Node10 -->
<g id="Node000010" class="node">
<title>Node10</title>
<g id="a_Node000010"><a xlink:href="classtests_1_1unit_1_1test__root__conftest_1_1TestCoverageFilteringEdgeCases.html#a57b56cd4326d60bd67a029f9115e2142" target="_top" xlink:title=" ">
<polygon fill="white" stroke="#666666" points="186,-909.5 16,-909.5 16,-857.5 186,-857.5 186,-909.5"/>
<text text-anchor="start" x="24" y="-897.5" font-family="Helvetica,sans-Serif" font-size="10.00">tests.unit.test_root</text>
<text text-anchor="start" x="24" y="-886.5" font-family="Helvetica,sans-Serif" font-size="10.00">_conftest.TestCoverageFiltering</text>
<text text-anchor="start" x="24" y="-875.5" font-family="Helvetica,sans-Serif" font-size="10.00">EdgeCases.test_handles_mixed</text>
<text text-anchor="middle" x="101" y="-864.5" font-family="Helvetica,sans-Serif" font-size="10.00">_equals_and_space_syntax</text>
</a>
</g>
</g>
<!-- Node1&#45;&gt;Node10 -->
<g id="edge9_Node000001_Node000010" class="edge">
<title>Node1&#45;&gt;Node10</title>
<g id="a_edge9_Node000001_Node000010"><a xlink:title=" ">
<path fill="none" stroke="#63b8ff" d="M282.47,-750.43C267,-777.79 238.24,-822.18 202,-848.5 197.01,-852.12 191.62,-855.39 186.01,-858.35"/>
<polygon fill="#63b8ff" stroke="#63b8ff" points="285.62,-751.97 287.38,-741.52 279.49,-748.59 285.62,-751.97"/>
</a>
</g>
</g>
<!-- Node11 -->
<g id="Node000011" class="node">
<title>Node11</title>
<g id="a_Node000011"><a xlink:href="classtests_1_1unit_1_1test__root__conftest_1_1TestRealWorldScenarios.html#aefa613792dabfb4d4022cc2912c22611" target="_top" xlink:title=" ">
<polygon fill="white" stroke="#666666" points="202,-839 0,-839 0,-798 202,-798 202,-839"/>
<text text-anchor="start" x="8" y="-827" font-family="Helvetica,sans-Serif" font-size="10.00">tests.unit.test_root</text>
<text text-anchor="start" x="8" y="-816" font-family="Helvetica,sans-Serif" font-size="10.00">_conftest.TestRealWorldScenarios.test</text>
<text text-anchor="middle" x="101" y="-805" font-family="Helvetica,sans-Serif" font-size="10.00">_local_development_without_cov</text>
</a>
</g>
</g>
<!-- Node1&#45;&gt;Node11 -->
<g id="edge10_Node000001_Node000011" class="edge">
<title>Node1&#45;&gt;Node11</title>
<g id="a_edge10_Node000001_Node000011"><a xlink:title=" ">
<path fill="none" stroke="#63b8ff" d="M268.25,-747.94C250.36,-761.43 225.82,-778.32 202,-789.5 195.45,-792.57 188.51,-795.39 181.46,-797.96"/>
<polygon fill="#63b8ff" stroke="#63b8ff" points="270.66,-750.51 276.47,-741.64 266.4,-744.95 270.66,-750.51"/>
</a>
</g>
</g>
<!-- Node12 -->
<g id="Node000012" class="node">
<title>Node12</title>
<g id="a_Node000012"><a xlink:href="classtests_1_1unit_1_1test__root__conftest_1_1TestRealWorldScenarios.html#a979c17298769fc22ce2a3501892e79d6" target="_top" xlink:title=" ">
<polygon fill="white" stroke="#666666" points="202,-780 0,-780 0,-739 202,-739 202,-780"/>
<text text-anchor="start" x="8" y="-768" font-family="Helvetica,sans-Serif" font-size="10.00">tests.unit.test_root</text>
<text text-anchor="start" x="8" y="-757" font-family="Helvetica,sans-Serif" font-size="10.00">_conftest.TestRealWorldScenarios.test</text>
<text text-anchor="middle" x="101" y="-746" font-family="Helvetica,sans-Serif" font-size="10.00">_mixed_short_and_long_flags</text>
</a>
</g>
</g>
<!-- Node1&#45;&gt;Node12 -->
<g id="edge11_Node000001_Node000012" class="edge">
<title>Node1&#45;&gt;Node12</title>
<g id="a_edge11_Node000001_Node000012"><a xlink:title=" ">
<path fill="none" stroke="#63b8ff" d="M227.84,-737.98C219.47,-739.41 210.77,-740.9 202.04,-742.4"/>
<polygon fill="#63b8ff" stroke="#63b8ff" points="228.61,-741.4 237.88,-736.27 227.43,-734.5 228.61,-741.4"/>
</a>
</g>
</g>
<!-- Node13 -->
<g id="Node000013" class="node">
<title>Node13</title>
<g id="a_Node000013"><a xlink:href="classtests_1_1unit_1_1test__root__conftest_1_1TestPytestLoadInitialConftests.html#a99cf3217e502f06af8f96ed9ca3fe128" target="_top" xlink:title=" ">
<polygon fill="white" stroke="#666666" points="183.5,-720.5 18.5,-720.5 18.5,-668.5 183.5,-668.5 183.5,-720.5"/>
<text text-anchor="start" x="26.5" y="-708.5" font-family="Helvetica,sans-Serif" font-size="10.00">tests.unit.test_root</text>
<text text-anchor="start" x="26.5" y="-697.5" font-family="Helvetica,sans-Serif" font-size="10.00">_conftest.TestPytestLoadInitial</text>
<text text-anchor="start" x="26.5" y="-686.5" font-family="Helvetica,sans-Serif" font-size="10.00">Conftests.test_modifies_args</text>
<text text-anchor="middle" x="101" y="-675.5" font-family="Helvetica,sans-Serif" font-size="10.00">_in_place</text>
</a>
</g>
</g>
<!-- Node1&#45;&gt;Node13 -->
<g id="edge12_Node000001_Node000013" class="edge">
<title>Node1&#45;&gt;Node13</title>
<g id="a_edge12_Node000001_Node000013"><a xlink:title=" ">
<path fill="none" stroke="#63b8ff" d="M227.71,-715.34C213.49,-712.98 198.33,-710.47 183.64,-708.04"/>
<polygon fill="#63b8ff" stroke="#63b8ff" points="227.44,-718.85 237.88,-717.03 228.58,-711.94 227.44,-718.85"/>
</a>
</g>
</g>
<!-- Node14 -->
<g id="Node000014" class="node">
<title>Node14</title>
<g id="a_Node000014"><a xlink:href="classtests_1_1unit_1_1test__root__conftest_1_1TestRealWorldScenarios.html#a223071515e0ea371fa9ab6eccc74a415" target="_top" xlink:title=" ">
<polygon fill="white" stroke="#666666" points="202,-650 0,-650 0,-609 202,-609 202,-650"/>
<text text-anchor="start" x="8" y="-638" font-family="Helvetica,sans-Serif" font-size="10.00">tests.unit.test_root</text>
<text text-anchor="start" x="8" y="-627" font-family="Helvetica,sans-Serif" font-size="10.00">_conftest.TestRealWorldScenarios.test</text>
<text text-anchor="middle" x="101" y="-616" font-family="Helvetica,sans-Serif" font-size="10.00">_multiple_coverage_sources</text>
</a>
</g>
</g>
<!-- Node1&#45;&gt;Node14 -->
<g id="edge13_Node000001_Node000014" class="edge">
<title>Node1&#45;&gt;Node14</title>
<g id="a_edge13_Node000001_Node000014"><a xlink:title=" ">
<path fill="none" stroke="#63b8ff" d="M269.44,-704.5C251.55,-690.03 226.54,-671.6 202,-659.5 195.01,-656.05 187.54,-652.92 179.96,-650.09"/>
<polygon fill="#63b8ff" stroke="#63b8ff" points="267.68,-707.58 277.62,-711.24 272.13,-702.18 267.68,-707.58"/>
</a>
</g>
</g>
<!-- Node15 -->
<g id="Node000015" class="node">
<title>Node15</title>
<g id="a_Node000015"><a xlink:href="classtests_1_1unit_1_1test__root__conftest_1_1TestPytestLoadInitialConftests.html#ad74bcea2c2ad70645a6ebf0f2c318d7d" target="_top" xlink:title=" ">
<polygon fill="white" stroke="#666666" points="199.5,-591 2.5,-591 2.5,-550 199.5,-550 199.5,-591"/>
<text text-anchor="start" x="10.5" y="-579" font-family="Helvetica,sans-Serif" font-size="10.00">tests.unit.test_root</text>
<text text-anchor="start" x="10.5" y="-568" font-family="Helvetica,sans-Serif" font-size="10.00">_conftest.TestPytestLoadInitial</text>
<text text-anchor="middle" x="101" y="-557" font-family="Helvetica,sans-Serif" font-size="10.00">Conftests.test_preserves_other_flags</text>
</a>
</g>
</g>
<!-- Node1&#45;&gt;Node15 -->
<g id="edge14_Node000001_Node000015" class="edge">
<title>Node1&#45;&gt;Node15</title>
<g id="a_edge14_Node000001_Node000015"><a xlink:title=" ">
<path fill="none" stroke="#63b8ff" d="M283.12,-701.93C268.09,-673.42 239.59,-626.95 202,-600.5 196.96,-596.95 191.5,-593.82 185.81,-591.05"/>
<polygon fill="#63b8ff" stroke="#63b8ff" points="280.19,-703.89 287.86,-711.2 286.42,-700.71 280.19,-703.89"/>
</a>
</g>
</g>
<!-- Node16 -->
<g id="Node000016" class="node">
<title>Node16</title>
<g id="a_Node000016"><a xlink:href="classtests_1_1unit_1_1test__root__conftest_1_1TestCoverageFilteringEdgeCases.html#a154fdde32fd4cda2d02ad88e1fb680a4" target="_top" xlink:title=" ">
<polygon fill="white" stroke="#666666" points="193,-531.5 9,-531.5 9,-479.5 193,-479.5 193,-531.5"/>
<text text-anchor="start" x="17" y="-519.5" font-family="Helvetica,sans-Serif" font-size="10.00">tests.unit.test_root</text>
<text text-anchor="start" x="17" y="-508.5" font-family="Helvetica,sans-Serif" font-size="10.00">_conftest.TestCoverageFiltering</text>
<text text-anchor="start" x="17" y="-497.5" font-family="Helvetica,sans-Serif" font-size="10.00">EdgeCases.test_preserves_similar</text>
<text text-anchor="middle" x="101" y="-486.5" font-family="Helvetica,sans-Serif" font-size="10.00">_but_different_flags</text>
</a>
</g>
</g>
<!-- Node1&#45;&gt;Node16 -->
<g id="edge15_Node000001_Node000016" class="edge">
<title>Node1&#45;&gt;Node16</title>
<g id="a_edge15_Node000001_Node000016"><a xlink:title=" ">
<path fill="none" stroke="#63b8ff" d="M288.92,-701.61C278.05,-662.23 251.65,-585.51 202,-541.5 197.86,-537.83 193.31,-534.52 188.52,-531.55"/>
<polygon fill="#63b8ff" stroke="#63b8ff" points="285.58,-702.68 291.52,-711.45 292.35,-700.89 285.58,-702.68"/>
</a>
</g>
</g>
<!-- Node17 -->
<g id="Node000017" class="node">
<title>Node17</title>
<g id="a_Node000017"><a xlink:href="classtests_1_1unit_1_1test__root__conftest_1_1TestPytestLoadInitialConftests.html#a2ebe1f60aa7c2202c6318400c2d98538" target="_top" xlink:title=" ">
<polygon fill="white" stroke="#666666" points="183.5,-461.5 18.5,-461.5 18.5,-409.5 183.5,-409.5 183.5,-461.5"/>
<text text-anchor="start" x="26.5" y="-449.5" font-family="Helvetica,sans-Serif" font-size="10.00">tests.unit.test_root</text>
<text text-anchor="start" x="26.5" y="-438.5" font-family="Helvetica,sans-Serif" font-size="10.00">_conftest.TestPytestLoadInitial</text>
<text text-anchor="start" x="26.5" y="-427.5" font-family="Helvetica,sans-Serif" font-size="10.00">Conftests.test_removes_cov</text>
<text text-anchor="middle" x="101" y="-416.5" font-family="Helvetica,sans-Serif" font-size="10.00">_flag_with_equals_syntax</text>
</a>
</g>
</g>
<!-- Node1&#45;&gt;Node17 -->
<g id="edge16_Node000001_Node000017" class="edge">
<title>Node1&#45;&gt;Node17</title>
<g id="a_edge16_Node000001_Node000017"><a xlink:title=" ">
<path fill="none" stroke="#63b8ff" d="M292.9,-701.36C287.34,-650.68 267.8,-535.53 202,-470.5 196.64,-465.2 190.43,-460.7 183.78,-456.88"/>
<polygon fill="#63b8ff" stroke="#63b8ff" points="289.43,-701.83 293.91,-711.43 296.4,-701.14 289.43,-701.83"/>
</a>
</g>
</g>
<!-- Node18 -->
<g id="Node000018" class="node">
<title>Node18</title>
<g id="a_Node000018"><a xlink:href="classtests_1_1unit_1_1test__root__conftest_1_1TestPytestLoadInitialConftests.html#a3362897d8d01b7dde74eb739339d36d4" target="_top" xlink:title=" ">
<polygon fill="white" stroke="#666666" points="183.5,-391.5 18.5,-391.5 18.5,-339.5 183.5,-339.5 183.5,-391.5"/>
<text text-anchor="start" x="26.5" y="-379.5" font-family="Helvetica,sans-Serif" font-size="10.00">tests.unit.test_root</text>
<text text-anchor="start" x="26.5" y="-368.5" font-family="Helvetica,sans-Serif" font-size="10.00">_conftest.TestPytestLoadInitial</text>
<text text-anchor="start" x="26.5" y="-357.5" font-family="Helvetica,sans-Serif" font-size="10.00">Conftests.test_removes_cov</text>
<text text-anchor="middle" x="101" y="-346.5" font-family="Helvetica,sans-Serif" font-size="10.00">_flag_with_value</text>
</a>
</g>
</g>
<!-- Node1&#45;&gt;Node18 -->
<g id="edge17_Node000001_Node000018" class="edge">
<title>Node1&#45;&gt;Node18</title>
<g id="a_edge17_Node000001_Node000018"><a xlink:title=" ">
<path fill="none" stroke="#63b8ff" d="M295.22,-701.01C294.35,-640.58 283.72,-487.17 202,-400.5 196.7,-394.88 190.45,-390.16 183.7,-386.2"/>
<polygon fill="#63b8ff" stroke="#63b8ff" points="291.72,-701.2 295.29,-711.18 298.72,-701.16 291.72,-701.2"/>
</a>
</g>
</g>
<!-- Node19 -->
<g id="Node000019" class="node">
<title>Node19</title>
<g id="a_Node000019"><a xlink:href="classtests_1_1unit_1_1test__root__conftest_1_1TestPytestLoadInitialConftests.html#a71de15d3113281e24c0cb3c013270bd3" target="_top" xlink:title=" ">
<polygon fill="white" stroke="#666666" points="189,-321.5 13,-321.5 13,-269.5 189,-269.5 189,-321.5"/>
<text text-anchor="start" x="21" y="-309.5" font-family="Helvetica,sans-Serif" font-size="10.00">tests.unit.test_root</text>
<text text-anchor="start" x="21" y="-298.5" font-family="Helvetica,sans-Serif" font-size="10.00">_conftest.TestPytestLoadInitial</text>
<text text-anchor="start" x="21" y="-287.5" font-family="Helvetica,sans-Serif" font-size="10.00">Conftests.test_removes_cov</text>
<text text-anchor="middle" x="101" y="-276.5" font-family="Helvetica,sans-Serif" font-size="10.00">_report_flag_with_equals_syntax</text>
</a>
</g>
</g>
<!-- Node1&#45;&gt;Node19 -->
<g id="edge18_Node000001_Node000019" class="edge">
<title>Node1&#45;&gt;Node19</title>
<g id="a_edge18_Node000001_Node000019"><a xlink:title=" ">
<path fill="none" stroke="#63b8ff" d="M292.21,-700.97C283.14,-622.42 252.18,-386.31 202,-330.5 198.19,-326.26 193.83,-322.53 189.12,-319.26"/>
<polygon fill="#63b8ff" stroke="#63b8ff" points="288.78,-701.83 293.39,-711.37 295.74,-701.04 288.78,-701.83"/>
</a>
</g>
</g>
<!-- Node20 -->
<g id="Node000020" class="node">
<title>Node20</title>
<g id="a_Node000020"><a xlink:href="classtests_1_1unit_1_1test__root__conftest_1_1TestPytestLoadInitialConftests.html#a6c38ba0736c1591881c980aa9c1662ea" target="_top" xlink:title=" ">
<polygon fill="white" stroke="#666666" points="183.5,-251.5 18.5,-251.5 18.5,-199.5 183.5,-199.5 183.5,-251.5"/>
<text text-anchor="start" x="26.5" y="-239.5" font-family="Helvetica,sans-Serif" font-size="10.00">tests.unit.test_root</text>
<text text-anchor="start" x="26.5" y="-228.5" font-family="Helvetica,sans-Serif" font-size="10.00">_conftest.TestPytestLoadInitial</text>
<text text-anchor="start" x="26.5" y="-217.5" font-family="Helvetica,sans-Serif" font-size="10.00">Conftests.test_removes_cov</text>
<text text-anchor="middle" x="101" y="-206.5" font-family="Helvetica,sans-Serif" font-size="10.00">_report_flag_with_value</text>
</a>
</g>
</g>
<!-- Node1&#45;&gt;Node20 -->
<g id="edge19_Node000001_Node000020" class="edge">
<title>Node1&#45;&gt;Node20</title>
<g id="a_edge19_Node000001_Node000020"><a xlink:title=" ">
<path fill="none" stroke="#63b8ff" d="M293.2,-701.15C286.53,-613.93 260.52,-327.82 202,-260.5 196.81,-254.53 190.54,-249.58 183.71,-245.47"/>
<polygon fill="#63b8ff" stroke="#63b8ff" points="289.72,-701.51 293.95,-711.22 296.7,-700.99 289.72,-701.51"/>
</a>
</g>
</g>
<!-- Node21 -->
<g id="Node000021" class="node">
<title>Node21</title>
<g id="a_Node000021"><a xlink:href="classtests_1_1unit_1_1test__root__conftest_1_1TestPytestLoadInitialConftests.html#a3b81785cc186963377ae286b8281e7e1" target="_top" xlink:title=" ">
<polygon fill="white" stroke="#666666" points="190,-181.5 12,-181.5 12,-129.5 190,-129.5 190,-181.5"/>
<text text-anchor="start" x="20" y="-169.5" font-family="Helvetica,sans-Serif" font-size="10.00">tests.unit.test_root</text>
<text text-anchor="start" x="20" y="-158.5" font-family="Helvetica,sans-Serif" font-size="10.00">_conftest.TestPytestLoadInitial</text>
<text text-anchor="start" x="20" y="-147.5" font-family="Helvetica,sans-Serif" font-size="10.00">Conftests.test_removes_multiple</text>
<text text-anchor="middle" x="101" y="-136.5" font-family="Helvetica,sans-Serif" font-size="10.00">_coverage_flags</text>
</a>
</g>
</g>
<!-- Node1&#45;&gt;Node21 -->
<g id="edge20_Node000001_Node000021" class="edge">
<title>Node1&#45;&gt;Node21</title>
<g id="a_edge20_Node000001_Node000021"><a xlink:title=" ">
<path fill="none" stroke="#63b8ff" d="M293.93,-701.19C289.4,-605.8 268.88,-269.43 202,-190.5 198.55,-186.43 194.6,-182.83 190.31,-179.65"/>
<polygon fill="#63b8ff" stroke="#63b8ff" points="290.44,-701.53 294.39,-711.36 297.43,-701.21 290.44,-701.53"/>
</a>
</g>
</g>
<!-- Node22 -->
<g id="Node000022" class="node">
<title>Node22</title>
<g id="a_Node000022"><a xlink:href="classtests_1_1unit_1_1test__root__conftest_1_1TestCoverageFilteringEdgeCases.html#a03d050747ba55dc24aefb067b3b773b3" target="_top" xlink:title=" ">
<polygon fill="white" stroke="#666666" points="186,-111.5 16,-111.5 16,-59.5 186,-59.5 186,-111.5"/>
<text text-anchor="start" x="24" y="-99.5" font-family="Helvetica,sans-Serif" font-size="10.00">tests.unit.test_root</text>
<text text-anchor="start" x="24" y="-88.5" font-family="Helvetica,sans-Serif" font-size="10.00">_conftest.TestCoverageFiltering</text>
<text text-anchor="start" x="24" y="-77.5" font-family="Helvetica,sans-Serif" font-size="10.00">EdgeCases.test_skip_next_flag</text>
<text text-anchor="middle" x="101" y="-66.5" font-family="Helvetica,sans-Serif" font-size="10.00">_resets_correctly</text>
</a>
</g>
</g>
<!-- Node1&#45;&gt;Node22 -->
<g id="edge21_Node000001_Node000022" class="edge">
<title>Node1&#45;&gt;Node22</title>
<g id="a_edge21_Node000001_Node000022"><a xlink:title=" ">
<path fill="none" stroke="#63b8ff" d="M294.49,-701.29C291.92,-598.37 277.3,-211.15 202,-120.5 197.53,-115.12 192.19,-110.57 186.33,-106.72"/>
<polygon fill="#63b8ff" stroke="#63b8ff" points="290.99,-701.47 294.73,-711.38 297.99,-701.3 290.99,-701.47"/>
</a>
</g>
</g>
<!-- Node23 -->
<g id="Node000023" class="node">
<title>Node23</title>
<g id="a_Node000023"><a xlink:href="classtests_1_1unit_1_1test__root__conftest_1_1TestRealWorldScenarios.html#a95a8aabbc98e6aea19d6cd613dc4511e" target="_top" xlink:title=" ">
<polygon fill="white" stroke="#666666" points="202,-41 0,-41 0,0 202,0 202,-41"/>
<text text-anchor="start" x="8" y="-29" font-family="Helvetica,sans-Serif" font-size="10.00">tests.unit.test_root</text>
<text text-anchor="start" x="8" y="-18" font-family="Helvetica,sans-Serif" font-size="10.00">_conftest.TestRealWorldScenarios.test</text>
<text text-anchor="middle" x="101" y="-7" font-family="Helvetica,sans-Serif" font-size="10.00">_typical_ci_environment_args</text>
</a>
</g>
</g>
<!-- Node1&#45;&gt;Node23 -->
<g id="edge22_Node000001_Node000023" class="edge">
<title>Node1&#45;&gt;Node23</title>
<g id="a_edge22_Node000001_Node000023"><a xlink:title=" ">
<path fill="none" stroke="#63b8ff" d="M295.05,-701.19C294.74,-590.62 288.03,-150.99 202,-50.5 199.05,-47.06 195.73,-44 192.13,-41.29"/>
<polygon fill="#63b8ff" stroke="#63b8ff" points="291.55,-701.4 295.06,-711.39 298.55,-701.39 291.55,-701.4"/>
</a>
</g>
</g>
</g>
</svg>
