<?xml version="1.0" encoding="UTF-8" standalone="no"?>
<!DOCTYPE svg PUBLIC "-//W3C//DTD SVG 1.1//EN"
 "http://www.w3.org/Graphics/SVG/1.1/DTD/svg11.dtd">
<!-- Generated by graphviz version 2.43.0 (0)
 -->
<!-- Title: api.auth._seed_credentials_from_env Pages: 1 -->
<svg width="346pt" height="69pt"
 viewBox="0.00 0.00 346.00 68.50" xmlns="http://www.w3.org/2000/svg" xmlns:xlink="http://www.w3.org/1999/xlink">
<g id="graph0" class="graph" transform="scale(1 1) rotate(0) translate(4 64.5)">
<title>api.auth._seed_credentials_from_env</title>
<!-- Node1 -->
<g id="Node000001" class="node">
<title>Node1</title>
<g id="a_Node000001"><a xlink:title=" ">
<polygon fill="#999999" stroke="#666666" points="147,-42.5 0,-42.5 0,-12.5 147,-12.5 147,-42.5"/>
<text text-anchor="start" x="8" y="-30.5" font-family="Helvetica,sans-Serif" font-size="10.00">api.auth._seed_credentials</text>
<text text-anchor="middle" x="73.5" y="-19.5" font-family="Helvetica,sans-Serif" font-size="10.00">_from_env</text>
</a>
</g>
</g>
<!-- Node1&#45;&gt;Node1 -->
<g id="edge2_Node000001_Node000001" class="edge">
<title>Node1&#45;&gt;Node1</title>
<g id="a_edge2_Node000001_Node000001"><a xlink:title=" ">
<path fill="none" stroke="#63b8ff" d="M40.8,-42.78C33.54,-51.91 44.44,-60.5 73.5,-60.5 90.76,-60.5 101.61,-57.47 106.06,-53.1"/>
<polygon fill="#63b8ff" stroke="#63b8ff" points="109.56,-52.82 106.2,-42.78 102.56,-52.73 109.56,-52.82"/>
</a>
</g>
</g>
<!-- Node2 -->
<g id="Node000002" class="node">
<title>Node2</title>
<g id="a_Node000002"><a xlink:href="namespaceapi_1_1auth.html#a4b72d63ef8f4087e0b511d807a1c0637" target="_top" xlink:title=" ">
<polygon fill="white" stroke="#666666" points="314,-56 207,-56 207,-37 314,-37 314,-56"/>
<text text-anchor="middle" x="260.5" y="-44" font-family="Helvetica,sans-Serif" font-size="10.00">api.auth._is_truthy</text>
</a>
</g>
</g>
<!-- Node1&#45;&gt;Node2 -->
<g id="edge1_Node000001_Node000002" class="edge">
<title>Node1&#45;&gt;Node2</title>
<g id="a_edge1_Node000001_Node000002"><a xlink:title=" ">
<path fill="none" stroke="#63b8ff" d="M147.09,-34.95C163.44,-36.63 180.68,-38.4 196.6,-40.04"/>
<polygon fill="#63b8ff" stroke="#63b8ff" points="196.55,-43.55 206.85,-41.09 197.26,-36.59 196.55,-43.55"/>
</a>
</g>
</g>
<!-- Node3 -->
<g id="Node000003" class="node">
<title>Node3</title>
<g id="a_Node000003"><a xlink:href="namespaceapi_1_1auth.html#af93dff0b7760a50336e6702283294fc9" target="_top" xlink:title=" ">
<polygon fill="white" stroke="#666666" points="338,-19 183,-19 183,0 338,0 338,-19"/>
<text text-anchor="middle" x="260.5" y="-7" font-family="Helvetica,sans-Serif" font-size="10.00">api.auth.get_password_hash</text>
</a>
</g>
</g>
<!-- Node1&#45;&gt;Node3 -->
<g id="edge3_Node000001_Node000003" class="edge">
<title>Node1&#45;&gt;Node3</title>
<g id="a_edge3_Node000001_Node000003"><a xlink:title=" ">
<path fill="none" stroke="#63b8ff" d="M147.09,-20.44C155.53,-19.62 164.2,-18.77 172.8,-17.94"/>
<polygon fill="#63b8ff" stroke="#63b8ff" points="173.24,-21.41 182.86,-16.96 172.56,-14.44 173.24,-21.41"/>
</a>
</g>
</g>
</g>
</svg>
