<?xml version="1.0" encoding="UTF-8" standalone="no"?>
<!DOCTYPE svg PUBLIC "-//W3C//DTD SVG 1.1//EN"
 "http://www.w3.org/Graphics/SVG/1.1/DTD/svg11.dtd">
<!-- Generated by graphviz version 2.43.0 (0)
 -->
<!-- Title: graph_visuals._create_node_trace Pages: 1 -->
<!--zoomable 386 -->

<svg id="main" version="1.1" xmlns="http://www.w3.org/2000/svg" xmlns:xlink="http://www.w3.org/1999/xlink" xml:space="preserve" onload="init(evt)">

<style type="text/css"><![CDATA[
.node, .edge {opacity: 0.7;}
.node.selected, .edge.selected {opacity: 1;}
.edge:hover path { stroke: red; }
.edge:hover polygon { stroke: red; fill: red; }
]]></style>

<defs>
  <circle id="rim" cx="0" cy="0" r="7"/>
  <circle id="rim2" cx="0" cy="0" r="3.5"/>
  <g id="zoomPlus">
    <use xlink:href="#rim" fill="#404040"><set attributeName="fill" to="#808080" begin="zoomplus.mouseover" end="zoomplus.mouseout"/></use>
    <path d="M-4,0h8M0,-4v8" fill="none" stroke="white" stroke-width="1.5" pointer-events="none"/>
  </g>
  <g id="zoomMin">
    <use xlink:href="#rim" fill="#404040"><set attributeName="fill" to="#808080" begin="zoomminus.mouseover" end="zoomminus.mouseout"/></use>
    <path d="M-4,0h8" fill="none" stroke="white" stroke-width="1.5" pointer-events="none"/>
  </g>
  <g id="arrowUp" transform="translate(30 24)">
    <use xlink:href="#rim"/>
    <path pointer-events="none" fill="none" stroke="white" stroke-width="1.5" d="M0,-3.0v7 M-2.5,-0.5L0,-3.0L2.5,-0.5"/>
  </g>
  <g id="arrowRight" transform="rotate(90) translate(36 -43)">
    <use xlink:href="#rim"/>
    <path pointer-events="none" fill="none" stroke="white" stroke-width="1.5" d="M0,-3.0v7 M-2.5,-0.5L0,-3.0L2.5,-0.5"/>
  </g>
  <g id="arrowDown" transform="rotate(180) translate(-30 -48)">
    <use xlink:href="#rim"/>
    <path pointer-events="none" fill="none" stroke="white" stroke-width="1.5" d="M0,-3.0v7 M-2.5,-0.5L0,-3.0L2.5,-0.5"/>
  </g>
  <g id="arrowLeft" transform="rotate(270) translate(-36 17)">
    <use xlink:href="#rim"/>
    <path pointer-events="none" fill="none" stroke="white" stroke-width="1.5" d="M0,-3.0v7 M-2.5,-0.5L0,-3.0L2.5,-0.5"/>
  </g>
  <g id="resetDef">
    <use xlink:href="#rim2" fill="#404040"><set attributeName="fill" to="#808080" begin="reset.mouseover" end="reset.mouseout"/></use>
  </g>
</defs>
<script type="application/ecmascript">
var viewWidth = 1012;
var viewHeight = 386;
var sectionId = 'dynsection-11';
</script>
<script type="application/ecmascript" xlink:href="svg.min.js"/>
<svg id="graph" class="graph">
<g id="viewport">
<title>graph_visuals._create_node_trace</title>
<!-- Node1 -->
<g id="Node000001" class="node">
<title>Node1</title>
<g id="a_Node000001"><a xlink:title=" ">
<polygon fill="#999999" stroke="#666666" points="123,-188 0,-188 0,-158 123,-158 123,-188"/>
<text text-anchor="start" x="8" y="-176" font-family="Helvetica,sans-Serif" font-size="10.00">graph_visuals._create</text>
<text text-anchor="middle" x="61.5" y="-165" font-family="Helvetica,sans-Serif" font-size="10.00">_node_trace</text>
</a>
</g>
</g>
<!-- Node2 -->
<g id="Node000002" class="node">
<title>Node2</title>
<g id="a_Node000002"><a xlink:href="namespacegraph__visuals.html#a870c69decb3e9db3ed97f279c6121748" target="_top" xlink:title=" ">
<polygon fill="white" stroke="#666666" points="291,-188 159,-188 159,-158 291,-158 291,-188"/>
<text text-anchor="start" x="167" y="-176" font-family="Helvetica,sans-Serif" font-size="10.00">graph_visuals._validate</text>
<text text-anchor="middle" x="225" y="-165" font-family="Helvetica,sans-Serif" font-size="10.00">_visualization_data</text>
</a>
</g>
</g>
<!-- Node1&#45;&gt;Node2 -->
<g id="edge1_Node000001_Node000002" class="edge">
<title>Node1&#45;&gt;Node2</title>
<g id="a_edge1_Node000001_Node000002"><a xlink:title=" ">
<path fill="none" stroke="#63b8ff" d="M123.1,-166.44C131.46,-166.28 140.13,-166.22 148.72,-166.26"/>
<polygon fill="#63b8ff" stroke="#63b8ff" points="148.71,-169.76 158.74,-166.36 148.77,-162.76 148.71,-169.76"/>
</a>
</g>
</g>
<!-- Node2&#45;&gt;Node1 -->
<g id="edge5_Node000002_Node000001" class="edge">
<title>Node2&#45;&gt;Node1</title>
<g id="a_edge5_Node000002_Node000001"><a xlink:title=" ">
<path fill="none" stroke="#63b8ff" d="M158.74,-179.64C150.37,-179.76 141.77,-179.78 133.31,-179.7"/>
<polygon fill="#63b8ff" stroke="#63b8ff" points="133.14,-176.2 123.1,-179.56 133.05,-183.2 133.14,-176.2"/>
</a>
</g>
</g>
<!-- Node2&#45;&gt;Node2 -->
<g id="edge23_Node000002_Node000002" class="edge">
<title>Node2&#45;&gt;Node2</title>
<g id="a_edge23_Node000002_Node000002"><a xlink:title=" ">
<path fill="none" stroke="#63b8ff" d="M196.52,-188.28C190.2,-197.41 199.69,-206 225,-206 240.03,-206 249.48,-202.97 253.36,-198.6"/>
<polygon fill="#63b8ff" stroke="#63b8ff" points="256.86,-198.32 253.48,-188.28 249.86,-198.23 256.86,-198.32"/>
</a>
</g>
</g>
<!-- Node3 -->
<g id="Node000003" class="node">
<title>Node3</title>
<g id="a_Node000003"><a xlink:href="namespacegraph__visuals.html#a41e2aa4282d406d57e0c1b69abc42480" target="_top" xlink:title=" ">
<polygon fill="white" stroke="#666666" points="456.5,-356 333.5,-356 333.5,-326 456.5,-326 456.5,-356"/>
<text text-anchor="start" x="341.5" y="-344" font-family="Helvetica,sans-Serif" font-size="10.00">graph_visuals._create</text>
<text text-anchor="middle" x="395" y="-333" font-family="Helvetica,sans-Serif" font-size="10.00">_directional_arrows</text>
</a>
</g>
</g>
<!-- Node2&#45;&gt;Node3 -->
<g id="edge2_Node000002_Node000003" class="edge">
<title>Node2&#45;&gt;Node3</title>
<g id="a_edge2_Node000002_Node000003"><a xlink:title=" ">
<path fill="none" stroke="#63b8ff" d="M232.83,-188.38C246.53,-217.56 280.14,-281.26 327,-317 328.8,-318.37 330.68,-319.67 332.62,-320.89"/>
<polygon fill="#63b8ff" stroke="#63b8ff" points="331.05,-324.03 341.49,-325.84 334.46,-317.91 331.05,-324.03"/>
</a>
</g>
</g>
<!-- Node6 -->
<g id="Node000006" class="node">
<title>Node6</title>
<g id="a_Node000006"><a xlink:href="namespacegraph__visuals.html#a126c97a3aa996be29f948301ee861806" target="_top" xlink:title=" ">
<polygon fill="white" stroke="#666666" points="456.5,-308 333.5,-308 333.5,-278 456.5,-278 456.5,-308"/>
<text text-anchor="start" x="341.5" y="-296" font-family="Helvetica,sans-Serif" font-size="10.00">graph_visuals._create</text>
<text text-anchor="middle" x="395" y="-285" font-family="Helvetica,sans-Serif" font-size="10.00">_relationship_traces</text>
</a>
</g>
</g>
<!-- Node2&#45;&gt;Node6 -->
<g id="edge6_Node000002_Node000006" class="edge">
<title>Node2&#45;&gt;Node6</title>
<g id="a_edge6_Node000002_Node000006"><a xlink:title=" ">
<path fill="none" stroke="#63b8ff" d="M238.2,-188.02C255.83,-208.83 290.33,-246.42 327,-269 329.65,-270.63 332.43,-272.18 335.28,-273.63"/>
<polygon fill="#63b8ff" stroke="#63b8ff" points="334.05,-276.92 344.59,-277.99 337.02,-270.58 334.05,-276.92"/>
</a>
</g>
</g>
<!-- Node14 -->
<g id="Node000014" class="node">
<title>Node14</title>
<g id="a_Node000014"><a xlink:href="namespacegraph__visuals.html#a3aba8b14bed184d9ab46de2e8f0b3fa5" target="_top" xlink:title=" ">
<polygon fill="white" stroke="#666666" points="463,-260 327,-260 327,-230 463,-230 463,-260"/>
<text text-anchor="start" x="335" y="-248" font-family="Helvetica,sans-Serif" font-size="10.00">graph_visuals._generate</text>
<text text-anchor="middle" x="395" y="-237" font-family="Helvetica,sans-Serif" font-size="10.00">_dynamic_title</text>
</a>
</g>
</g>
<!-- Node2&#45;&gt;Node14 -->
<g id="edge16_Node000002_Node000014" class="edge">
<title>Node2&#45;&gt;Node14</title>
<g id="a_edge16_Node000002_Node000014"><a xlink:title=" ">
<path fill="none" stroke="#63b8ff" d="M255.7,-188.07C275.64,-197.96 302.62,-210.87 327,-221 331.34,-222.8 335.86,-224.6 340.42,-226.35"/>
<polygon fill="#63b8ff" stroke="#63b8ff" points="339.2,-229.63 349.79,-229.87 341.66,-223.08 339.2,-229.63"/>
</a>
</g>
</g>
<!-- Node15 -->
<g id="Node000015" class="node">
<title>Node15</title>
<g id="a_Node000015"><a xlink:href="namespacegraph__visuals.html#a5d2b6e0ace20321ddff80afa16911f60" target="_top" xlink:title=" ">
<polygon fill="white" stroke="#666666" points="461,-212 329,-212 329,-182 461,-182 461,-212"/>
<text text-anchor="start" x="337" y="-200" font-family="Helvetica,sans-Serif" font-size="10.00">graph_visuals._validate</text>
<text text-anchor="middle" x="395" y="-189" font-family="Helvetica,sans-Serif" font-size="10.00">_asset_ids_list</text>
</a>
</g>
</g>
<!-- Node2&#45;&gt;Node15 -->
<g id="edge17_Node000002_Node000015" class="edge">
<title>Node2&#45;&gt;Node15</title>
<g id="a_edge17_Node000002_Node000015"><a xlink:title=" ">
<path fill="none" stroke="#63b8ff" d="M291.43,-182.35C300.34,-183.62 309.53,-184.93 318.59,-186.23"/>
<polygon fill="#63b8ff" stroke="#63b8ff" points="318.35,-189.73 328.74,-187.68 319.34,-182.8 318.35,-189.73"/>
</a>
</g>
</g>
<!-- Node16 -->
<g id="Node000016" class="node">
<title>Node16</title>
<g id="a_Node000016"><a xlink:href="namespacegraph__visuals.html#a372e2fa2aab88734f03d83259f58c597" target="_top" xlink:title=" ">
<polygon fill="white" stroke="#666666" points="461,-164 329,-164 329,-134 461,-134 461,-164"/>
<text text-anchor="start" x="337" y="-152" font-family="Helvetica,sans-Serif" font-size="10.00">graph_visuals._validate</text>
<text text-anchor="middle" x="395" y="-141" font-family="Helvetica,sans-Serif" font-size="10.00">_asset_ids_uniqueness</text>
</a>
</g>
</g>
<!-- Node2&#45;&gt;Node16 -->
<g id="edge18_Node000002_Node000016" class="edge">
<title>Node2&#45;&gt;Node16</title>
<g id="a_edge18_Node000002_Node000016"><a xlink:title=" ">
<path fill="none" stroke="#63b8ff" d="M291.43,-163.65C300.34,-162.38 309.53,-161.07 318.59,-159.77"/>
<polygon fill="#63b8ff" stroke="#63b8ff" points="319.34,-163.2 328.74,-158.32 318.35,-156.27 319.34,-163.2"/>
</a>
</g>
</g>
<!-- Node17 -->
<g id="Node000017" class="node">
<title>Node17</title>
<g id="a_Node000017"><a xlink:href="namespacegraph__visuals.html#aa96bbd15e68187307b2af5f94fd0d364" target="_top" xlink:title=" ">
<polygon fill="white" stroke="#666666" points="635.5,-121 503.5,-121 503.5,-91 635.5,-91 635.5,-121"/>
<text text-anchor="start" x="511.5" y="-109" font-family="Helvetica,sans-Serif" font-size="10.00">graph_visuals._validate</text>
<text text-anchor="middle" x="569.5" y="-98" font-family="Helvetica,sans-Serif" font-size="10.00">_colors_list</text>
</a>
</g>
</g>
<!-- Node2&#45;&gt;Node17 -->
<g id="edge19_Node000002_Node000017" class="edge">
<title>Node2&#45;&gt;Node17</title>
<g id="a_edge19_Node000002_Node000017"><a xlink:title=" ">
<path fill="none" stroke="#63b8ff" d="M251.16,-157.85C271.01,-146.7 299.8,-132.27 327,-125 381.43,-110.46 445.03,-105.93 493.3,-104.92"/>
<polygon fill="#63b8ff" stroke="#63b8ff" points="493.41,-108.42 503.36,-104.76 493.3,-101.42 493.41,-108.42"/>
</a>
</g>
</g>
<!-- Node18 -->
<g id="Node000018" class="node">
<title>Node18</title>
<g id="a_Node000018"><a xlink:href="namespacegraph__visuals.html#a8c595f8085bc0ca1f3adf6d2708657f4" target="_top" xlink:title=" ">
<polygon fill="white" stroke="#666666" points="461,-78 329,-78 329,-48 461,-48 461,-78"/>
<text text-anchor="start" x="337" y="-66" font-family="Helvetica,sans-Serif" font-size="10.00">graph_visuals._validate</text>
<text text-anchor="middle" x="395" y="-55" font-family="Helvetica,sans-Serif" font-size="10.00">_hover_texts_list</text>
</a>
</g>
</g>
<!-- Node2&#45;&gt;Node18 -->
<g id="edge21_Node000002_Node000018" class="edge">
<title>Node2&#45;&gt;Node18</title>
<g id="a_edge21_Node000002_Node000018"><a xlink:title=" ">
<path fill="none" stroke="#63b8ff" d="M242.13,-157.77C261.27,-140.28 294.65,-111.49 327,-92 332.76,-88.53 339.02,-85.25 345.31,-82.23"/>
<polygon fill="#63b8ff" stroke="#63b8ff" points="346.88,-85.36 354.5,-78.01 343.96,-79 346.88,-85.36"/>
</a>
</g>
</g>
<!-- Node19 -->
<g id="Node000019" class="node">
<title>Node19</title>
<g id="a_Node000019"><a xlink:href="namespacegraph__visuals.html#ab2c4f4a71bd4ac0c27552e84e6118eab" target="_top" xlink:title=" ">
<polygon fill="white" stroke="#666666" points="461,-30 329,-30 329,0 461,0 461,-30"/>
<text text-anchor="start" x="337" y="-18" font-family="Helvetica,sans-Serif" font-size="10.00">graph_visuals._validate</text>
<text text-anchor="middle" x="395" y="-7" font-family="Helvetica,sans-Serif" font-size="10.00">_positions_array</text>
</a>
</g>
</g>
<!-- Node2&#45;&gt;Node19 -->
<g id="edge22_Node000002_Node000019" class="edge">
<title>Node2&#45;&gt;Node19</title>
<g id="a_edge22_Node000002_Node000019"><a xlink:title=" ">
<path fill="none" stroke="#63b8ff" d="M233.56,-157.85C248.02,-130.34 282.19,-71.98 327,-39 328.86,-37.63 330.8,-36.33 332.81,-35.11"/>
<polygon fill="#63b8ff" stroke="#63b8ff" points="334.83,-38 341.95,-30.15 331.49,-31.84 334.83,-38"/>
</a>
</g>
</g>
<!-- Node4 -->
<g id="Node000004" class="node">
<title>Node4</title>
<g id="a_Node000004"><a xlink:href="namespacegraph__visuals.html#a0b234963e74afc0d696565e612ad410c" target="_top" xlink:title=" ">
<polygon fill="white" stroke="#666666" points="627.5,-356 511.5,-356 511.5,-326 627.5,-326 627.5,-356"/>
<text text-anchor="start" x="519.5" y="-344" font-family="Helvetica,sans-Serif" font-size="10.00">graph_visuals._build</text>
<text text-anchor="middle" x="569.5" y="-333" font-family="Helvetica,sans-Serif" font-size="10.00">_asset_id_index</text>
</a>
</g>
</g>
<!-- Node3&#45;&gt;Node4 -->
<g id="edge3_Node000003_Node000004" class="edge">
<title>Node3&#45;&gt;Node4</title>
<g id="a_edge3_Node000003_Node000004"><a xlink:title=" ">
<path fill="none" stroke="#63b8ff" d="M456.82,-341C471.24,-341 486.7,-341 501.39,-341"/>
<polygon fill="#63b8ff" stroke="#63b8ff" points="501.41,-344.5 511.41,-341 501.41,-337.5 501.41,-344.5"/>
</a>
</g>
</g>
<!-- Node5 -->
<g id="Node000005" class="node">
<title>Node5</title>
<g id="a_Node000005"><a xlink:href="namespacegraph__visuals.html#a632734f64a969060dc90f97e0f207d59" target="_top" xlink:title=" ">
<polygon fill="white" stroke="#666666" points="815,-378 699,-378 699,-348 815,-348 815,-378"/>
<text text-anchor="start" x="707" y="-366" font-family="Helvetica,sans-Serif" font-size="10.00">graph_visuals._build</text>
<text text-anchor="middle" x="757" y="-355" font-family="Helvetica,sans-Serif" font-size="10.00">_relationship_index</text>
</a>
</g>
</g>
<!-- Node3&#45;&gt;Node5 -->
<g id="edge4_Node000003_Node000005" class="edge">
<title>Node3&#45;&gt;Node5</title>
<g id="a_edge4_Node000003_Node000005"><a xlink:title=" ">
<path fill="none" stroke="#63b8ff" d="M450.12,-356.06C465.76,-359.74 482.95,-363.15 499,-365 563.1,-372.37 636.79,-370.77 688.78,-367.99"/>
<polygon fill="#63b8ff" stroke="#63b8ff" points="689.09,-371.48 698.88,-367.42 688.7,-364.49 689.09,-371.48"/>
</a>
</g>
</g>
<!-- Node6&#45;&gt;Node4 -->
<g id="edge7_Node000006_Node000004" class="edge">
<title>Node6&#45;&gt;Node4</title>
<g id="a_edge7_Node000006_Node000004"><a xlink:title=" ">
<path fill="none" stroke="#63b8ff" d="M450.11,-308.06C467.45,-312.88 486.81,-318.27 504.77,-323.27"/>
<polygon fill="#63b8ff" stroke="#63b8ff" points="504.01,-326.69 514.59,-326 505.89,-319.94 504.01,-326.69"/>
</a>
</g>
</g>
<!-- Node7 -->
<g id="Node000007" class="node">
<title>Node7</title>
<g id="a_Node000007"><a xlink:href="namespacegraph__visuals.html#a7f6044587769ab8335e37ea20279fd8a" target="_top" xlink:title=" ">
<polygon fill="white" stroke="#666666" points="640,-308 499,-308 499,-278 640,-278 640,-308"/>
<text text-anchor="start" x="507" y="-296" font-family="Helvetica,sans-Serif" font-size="10.00">graph_visuals._collect</text>
<text text-anchor="middle" x="569.5" y="-285" font-family="Helvetica,sans-Serif" font-size="10.00">_and_group_relationships</text>
</a>
</g>
</g>
<!-- Node6&#45;&gt;Node7 -->
<g id="edge8_Node000006_Node000007" class="edge">
<title>Node6&#45;&gt;Node7</title>
<g id="a_edge8_Node000006_Node000007"><a xlink:title=" ">
<path fill="none" stroke="#63b8ff" d="M456.82,-293C467.11,-293 477.93,-293 488.62,-293"/>
<polygon fill="#63b8ff" stroke="#63b8ff" points="488.81,-296.5 498.81,-293 488.81,-289.5 488.81,-296.5"/>
</a>
</g>
</g>
<!-- Node8 -->
<g id="Node000008" class="node">
<title>Node8</title>
<g id="a_Node000008"><a xlink:href="namespacegraph__visuals.html#a89feb243f069a64c954d913babcc0284" target="_top" xlink:title=" ">
<polygon fill="white" stroke="#666666" points="631,-260 508,-260 508,-230 631,-230 631,-260"/>
<text text-anchor="start" x="516" y="-248" font-family="Helvetica,sans-Serif" font-size="10.00">graph_visuals._create</text>
<text text-anchor="middle" x="569.5" y="-237" font-family="Helvetica,sans-Serif" font-size="10.00">_trace_for_group</text>
</a>
</g>
</g>
<!-- Node6&#45;&gt;Node8 -->
<g id="edge10_Node000006_Node000008" class="edge">
<title>Node6&#45;&gt;Node8</title>
<g id="a_edge10_Node000006_Node000008"><a xlink:title=" ">
<path fill="none" stroke="#63b8ff" d="M450.11,-277.94C467.45,-273.12 486.81,-267.73 504.77,-262.73"/>
<polygon fill="#63b8ff" stroke="#63b8ff" points="505.89,-266.06 514.59,-260 504.01,-259.31 505.89,-266.06"/>
</a>
</g>
</g>
<!-- Node7&#45;&gt;Node5 -->
<g id="edge9_Node000007_Node000005" class="edge">
<title>Node7&#45;&gt;Node5</title>
<g id="a_edge9_Node000007_Node000005"><a xlink:title=" ">
<path fill="none" stroke="#63b8ff" d="M615.1,-308.07C623.4,-310.97 631.98,-314.03 640,-317 663.16,-325.59 688.71,-335.65 709.92,-344.17"/>
<polygon fill="#63b8ff" stroke="#63b8ff" points="708.75,-347.48 719.33,-347.97 711.37,-340.98 708.75,-347.48"/>
</a>
</g>
</g>
<!-- Node9 -->
<g id="Node000009" class="node">
<title>Node9</title>
<g id="a_Node000009"><a xlink:href="namespacegraph__visuals.html#ae0f9ab07f0f1d5aeb10cc8a8bf4a0da6" target="_top" xlink:title=" ">
<polygon fill="white" stroke="#666666" points="838,-308 676,-308 676,-278 838,-278 838,-308"/>
<text text-anchor="start" x="684" y="-296" font-family="Helvetica,sans-Serif" font-size="10.00">graph_visuals._build</text>
<text text-anchor="middle" x="757" y="-285" font-family="Helvetica,sans-Serif" font-size="10.00">_edge_coordinates_optimized</text>
</a>
</g>
</g>
<!-- Node8&#45;&gt;Node9 -->
<g id="edge11_Node000008_Node000009" class="edge">
<title>Node8&#45;&gt;Node9</title>
<g id="a_edge11_Node000008_Node000009"><a xlink:title=" ">
<path fill="none" stroke="#63b8ff" d="M628.68,-260.06C647.59,-264.95 668.73,-270.42 688.27,-275.48"/>
<polygon fill="#63b8ff" stroke="#63b8ff" points="687.46,-278.88 698.02,-278 689.22,-272.1 687.46,-278.88"/>
</a>
</g>
</g>
<!-- Node10 -->
<g id="Node000010" class="node">
<title>Node10</title>
<g id="a_Node000010"><a xlink:href="namespacegraph__visuals.html#ac5edbf171a6ddb6e1e3a8f61971ad627" target="_top" xlink:title=" ">
<polygon fill="white" stroke="#666666" points="815,-260 699,-260 699,-230 815,-230 815,-260"/>
<text text-anchor="start" x="707" y="-248" font-family="Helvetica,sans-Serif" font-size="10.00">graph_visuals._build</text>
<text text-anchor="middle" x="757" y="-237" font-family="Helvetica,sans-Serif" font-size="10.00">_hover_texts</text>
</a>
</g>
</g>
<!-- Node8&#45;&gt;Node10 -->
<g id="edge12_Node000008_Node000010" class="edge">
<title>Node8&#45;&gt;Node10</title>
<g id="a_edge12_Node000008_Node000010"><a xlink:title=" ">
<path fill="none" stroke="#63b8ff" d="M631.24,-245C649.61,-245 669.88,-245 688.65,-245"/>
<polygon fill="#63b8ff" stroke="#63b8ff" points="688.9,-248.5 698.9,-245 688.9,-241.5 688.9,-248.5"/>
</a>
</g>
</g>
<!-- Node11 -->
<g id="Node000011" class="node">
<title>Node11</title>
<g id="a_Node000011"><a xlink:href="namespacegraph__visuals.html#aa4d02d3595ef8a27dd8ccc870d692749" target="_top" xlink:title=" ">
<polygon fill="white" stroke="#666666" points="819.5,-212 694.5,-212 694.5,-182 819.5,-182 819.5,-212"/>
<text text-anchor="start" x="702.5" y="-200" font-family="Helvetica,sans-Serif" font-size="10.00">graph_visuals._format</text>
<text text-anchor="middle" x="757" y="-189" font-family="Helvetica,sans-Serif" font-size="10.00">_trace_name</text>
</a>
</g>
</g>
<!-- Node8&#45;&gt;Node11 -->
<g id="edge13_Node000008_Node000011" class="edge">
<title>Node8&#45;&gt;Node11</title>
<g id="a_edge13_Node000008_Node000011"><a xlink:title=" ">
<path fill="none" stroke="#63b8ff" d="M628.68,-229.94C647.59,-225.05 668.73,-219.58 688.27,-214.52"/>
<polygon fill="#63b8ff" stroke="#63b8ff" points="689.22,-217.9 698.02,-212 687.46,-211.12 689.22,-217.9"/>
</a>
</g>
</g>
<!-- Node12 -->
<g id="Node000012" class="node">
<title>Node12</title>
<g id="a_Node000012"><a xlink:href="namespacegraph__visuals.html#a553f122c8516e6a12814996a7cd1a13e" target="_top" xlink:title=" ">
<polygon fill="white" stroke="#666666" points="811,-164 703,-164 703,-134 811,-134 811,-164"/>
<text text-anchor="start" x="711" y="-152" font-family="Helvetica,sans-Serif" font-size="10.00">graph_visuals._get</text>
<text text-anchor="middle" x="757" y="-141" font-family="Helvetica,sans-Serif" font-size="10.00">_line_style</text>
</a>
</g>
</g>
<!-- Node8&#45;&gt;Node12 -->
<g id="edge14_Node000008_Node000012" class="edge">
<title>Node8&#45;&gt;Node12</title>
<g id="a_edge14_Node000008_Node000012"><a xlink:title=" ">
<path fill="none" stroke="#63b8ff" d="M588.87,-229.85C609.11,-213.8 643.18,-188.66 676,-173 681.37,-170.44 687.06,-168.08 692.85,-165.93"/>
<polygon fill="#63b8ff" stroke="#63b8ff" points="694.35,-169.12 702.63,-162.51 692.04,-162.51 694.35,-169.12"/>
</a>
</g>
</g>
<!-- Node13 -->
<g id="Node000013" class="node">
<title>Node13</title>
<g id="a_Node000013"><a xlink:href="namespacegraph__visuals.html#af2a815c0bdaadc2b6aa339387795f4bb" target="_top" xlink:title=" ">
<polygon fill="white" stroke="#666666" points="1004,-142 874,-142 874,-112 1004,-112 1004,-142"/>
<text text-anchor="start" x="882" y="-130" font-family="Helvetica,sans-Serif" font-size="10.00">graph_visuals._is_valid</text>
<text text-anchor="middle" x="939" y="-119" font-family="Helvetica,sans-Serif" font-size="10.00">_color_format</text>
</a>
</g>
</g>
<!-- Node12&#45;&gt;Node13 -->
<g id="edge15_Node000012_Node000013" class="edge">
<title>Node12&#45;&gt;Node13</title>
<g id="a_edge15_Node000012_Node000013"><a xlink:title=" ">
<path fill="none" stroke="#63b8ff" d="M811.03,-142.52C827.5,-140.51 845.97,-138.25 863.62,-136.09"/>
<polygon fill="#63b8ff" stroke="#63b8ff" points="864.39,-139.52 873.89,-134.84 863.54,-132.57 864.39,-139.52"/>
</a>
</g>
</g>
<!-- Node17&#45;&gt;Node13 -->
<g id="edge20_Node000017_Node000013" class="edge">
<title>Node17&#45;&gt;Node13</title>
<g id="a_edge20_Node000017_Node000013"><a xlink:title=" ">
<path fill="none" stroke="#63b8ff" d="M635.78,-109.73C699.74,-113.38 797.07,-118.95 863.9,-122.77"/>
<polygon fill="#63b8ff" stroke="#63b8ff" points="863.76,-126.26 873.95,-123.34 864.16,-119.27 863.76,-126.26"/>
</a>
</g>
</g>
</g>
</svg>

<g id="navigator" transform="translate(0 0)" fill="#404254">
  <rect fill="#f2f5e9" fill-opacity="0.5" stroke="#606060" stroke-width=".5" x="0" y="0" width="60" height="60"/>
  <use id="zoomplus" xlink:href="#zoomPlus" x="17" y="9" onmousedown="handleZoom(evt,'in')"/>
  <use id="zoomminus" xlink:href="#zoomMin" x="42" y="9" onmousedown="handleZoom(evt,'out')"/>
  <use id="reset" xlink:href="#resetDef" x="30" y="36" onmousedown="handleReset()"/>
   <use id="arrowup" xlink:href="#arrowUp" x="0" y="0" onmousedown="handlePan(0,-1)"/>
  <use id="arrowright" xlink:href="#arrowRight" x="0" y="0" onmousedown="handlePan(1,0)"/>
  <use id="arrowdown" xlink:href="#arrowDown" x="0" y="0" onmousedown="handlePan(0,1)"/>
  <use id="arrowleft" xlink:href="#arrowLeft" x="0" y="0" onmousedown="handlePan(-1,0)"/>
</g>
<svg viewBox="0 0 15 15" width="100%" height="30px" preserveAspectRatio="xMaxYMin meet">
 <g id="arrow_out" transform="scale(0.3 0.3)">
  <a xlink:href="namespacegraph__visuals_a345ff70d680ece5d645ee7c9501d2a4a_cgraph_org.svg" target="_base">
   <rect id="button" ry="5" rx="5" y="6" x="6" height="38" width="38"
        fill="#f2f5e9" fill-opacity="0.5" stroke="#606060" stroke-width="1.0"/>
   <path id="arrow"
     d="M 11.500037,31.436501 C 11.940474,20.09759 22.043105,11.32322 32.158766,21.979434 L 37.068811,17.246167 C 37.068811,17.246167 37.088388,32 37.088388,32 L 22.160133,31.978069 C 22.160133,31.978069 26.997745,27.140456 26.997745,27.140456 C 18.528582,18.264221 13.291696,25.230495 11.500037,31.436501 z"
     style="fill:#404040;"/>
  </a>
 </g>
</svg>

<style type='text/css'>
<![CDATA[
[data-mouse-over-selected='false'] { opacity: 0.7; }
[data-mouse-over-selected='true']  { opacity: 1.0; }
]]>
</style>
<script type="application/ecmascript"><![CDATA[
document.addEventListener('DOMContentLoaded', (event) => {
  highlightEdges();
  highlightAdjacentNodes();
});
]]></script>
</svg>
