<?xml version="1.0" encoding="UTF-8" standalone="no"?>
<!DOCTYPE svg PUBLIC "-//W3C//DTD SVG 1.1//EN"
 "http://www.w3.org/Graphics/SVG/1.1/DTD/svg11.dtd">
<!-- Generated by graphviz version 2.43.0 (0)
 -->
<!-- Title: graph_visuals._create_relationship_traces Pages: 1 -->
<svg width="672pt" height="254pt"
 viewBox="0.00 0.00 672.00 254.00" xmlns="http://www.w3.org/2000/svg" xmlns:xlink="http://www.w3.org/1999/xlink">
<g id="graph0" class="graph" transform="scale(1 1) rotate(0) translate(4 250)">
<title>graph_visuals._create_relationship_traces</title>
<!-- Node1 -->
<g id="Node000001" class="node">
<title>Node1</title>
<g id="a_Node000001"><a xlink:title=" ">
<polygon fill="#999999" stroke="#666666" points="123,-198 0,-198 0,-168 123,-168 123,-198"/>
<text text-anchor="start" x="8" y="-186" font-family="Helvetica,sans-Serif" font-size="10.00">graph_visuals._create</text>
<text text-anchor="middle" x="61.5" y="-175" font-family="Helvetica,sans-Serif" font-size="10.00">_relationship_traces</text>
</a>
</g>
</g>
<!-- Node2 -->
<g id="Node000002" class="node">
<title>Node2</title>
<g id="a_Node000002"><a xlink:href="namespacegraph__visuals.html#a0b234963e74afc0d696565e612ad410c" target="_top" xlink:title=" ">
<polygon fill="white" stroke="#666666" points="287.5,-246 171.5,-246 171.5,-216 287.5,-216 287.5,-246"/>
<text text-anchor="start" x="179.5" y="-234" font-family="Helvetica,sans-Serif" font-size="10.00">graph_visuals._build</text>
<text text-anchor="middle" x="229.5" y="-223" font-family="Helvetica,sans-Serif" font-size="10.00">_asset_id_index</text>
</a>
</g>
</g>
<!-- Node1&#45;&gt;Node2 -->
<g id="edge1_Node000001_Node000002" class="edge">
<title>Node1&#45;&gt;Node2</title>
<g id="a_edge1_Node000001_Node000002"><a xlink:title=" ">
<path fill="none" stroke="#63b8ff" d="M114.57,-198.06C131.1,-202.84 149.54,-208.17 166.69,-213.13"/>
<polygon fill="#63b8ff" stroke="#63b8ff" points="166.04,-216.58 176.62,-216 167.98,-209.86 166.04,-216.58"/>
</a>
</g>
</g>
<!-- Node3 -->
<g id="Node000003" class="node">
<title>Node3</title>
<g id="a_Node000003"><a xlink:href="namespacegraph__visuals.html#a7f6044587769ab8335e37ea20279fd8a" target="_top" xlink:title=" ">
<polygon fill="white" stroke="#666666" points="300,-198 159,-198 159,-168 300,-168 300,-198"/>
<text text-anchor="start" x="167" y="-186" font-family="Helvetica,sans-Serif" font-size="10.00">graph_visuals._collect</text>
<text text-anchor="middle" x="229.5" y="-175" font-family="Helvetica,sans-Serif" font-size="10.00">_and_group_relationships</text>
</a>
</g>
</g>
<!-- Node1&#45;&gt;Node3 -->
<g id="edge2_Node000001_Node000003" class="edge">
<title>Node1&#45;&gt;Node3</title>
<g id="a_edge2_Node000001_Node000003"><a xlink:title=" ">
<path fill="none" stroke="#63b8ff" d="M123.37,-183C131.68,-183 140.32,-183 148.9,-183"/>
<polygon fill="#63b8ff" stroke="#63b8ff" points="148.93,-186.5 158.93,-183 148.93,-179.5 148.93,-186.5"/>
</a>
</g>
</g>
<!-- Node5 -->
<g id="Node000005" class="node">
<title>Node5</title>
<g id="a_Node000005"><a xlink:href="namespacegraph__visuals.html#a89feb243f069a64c954d913babcc0284" target="_top" xlink:title=" ">
<polygon fill="white" stroke="#666666" points="291,-126 168,-126 168,-96 291,-96 291,-126"/>
<text text-anchor="start" x="176" y="-114" font-family="Helvetica,sans-Serif" font-size="10.00">graph_visuals._create</text>
<text text-anchor="middle" x="229.5" y="-103" font-family="Helvetica,sans-Serif" font-size="10.00">_trace_for_group</text>
</a>
</g>
</g>
<!-- Node1&#45;&gt;Node5 -->
<g id="edge4_Node000001_Node000005" class="edge">
<title>Node1&#45;&gt;Node5</title>
<g id="a_edge4_Node000001_Node000005"><a xlink:title=" ">
<path fill="none" stroke="#63b8ff" d="M97.3,-167.91C122.64,-156.91 157.16,-141.94 184.43,-130.11"/>
<polygon fill="#63b8ff" stroke="#63b8ff" points="185.97,-133.26 193.75,-126.07 183.18,-126.84 185.97,-133.26"/>
</a>
</g>
</g>
<!-- Node4 -->
<g id="Node000004" class="node">
<title>Node4</title>
<g id="a_Node000004"><a xlink:href="namespacegraph__visuals.html#a632734f64a969060dc90f97e0f207d59" target="_top" xlink:title=" ">
<polygon fill="white" stroke="#666666" points="475,-222 359,-222 359,-192 475,-192 475,-222"/>
<text text-anchor="start" x="367" y="-210" font-family="Helvetica,sans-Serif" font-size="10.00">graph_visuals._build</text>
<text text-anchor="middle" x="417" y="-199" font-family="Helvetica,sans-Serif" font-size="10.00">_relationship_index</text>
</a>
</g>
</g>
<!-- Node3&#45;&gt;Node4 -->
<g id="edge3_Node000003_Node000004" class="edge">
<title>Node3&#45;&gt;Node4</title>
<g id="a_edge3_Node000003_Node000004"><a xlink:title=" ">
<path fill="none" stroke="#63b8ff" d="M300.1,-192C315.96,-194.06 332.77,-196.23 348.54,-198.27"/>
<polygon fill="#63b8ff" stroke="#63b8ff" points="348.36,-201.78 358.72,-199.59 349.26,-194.84 348.36,-201.78"/>
</a>
</g>
</g>
<!-- Node6 -->
<g id="Node000006" class="node">
<title>Node6</title>
<g id="a_Node000006"><a xlink:href="namespacegraph__visuals.html#ae0f9ab07f0f1d5aeb10cc8a8bf4a0da6" target="_top" xlink:title=" ">
<polygon fill="white" stroke="#666666" points="498,-174 336,-174 336,-144 498,-144 498,-174"/>
<text text-anchor="start" x="344" y="-162" font-family="Helvetica,sans-Serif" font-size="10.00">graph_visuals._build</text>
<text text-anchor="middle" x="417" y="-151" font-family="Helvetica,sans-Serif" font-size="10.00">_edge_coordinates_optimized</text>
</a>
</g>
</g>
<!-- Node5&#45;&gt;Node6 -->
<g id="edge5_Node000005_Node000006" class="edge">
<title>Node5&#45;&gt;Node6</title>
<g id="a_edge5_Node000005_Node000006"><a xlink:title=" ">
<path fill="none" stroke="#63b8ff" d="M288.68,-126.06C307.59,-130.95 328.73,-136.42 348.27,-141.48"/>
<polygon fill="#63b8ff" stroke="#63b8ff" points="347.46,-144.88 358.02,-144 349.22,-138.1 347.46,-144.88"/>
</a>
</g>
</g>
<!-- Node7 -->
<g id="Node000007" class="node">
<title>Node7</title>
<g id="a_Node000007"><a xlink:href="namespacegraph__visuals.html#ac5edbf171a6ddb6e1e3a8f61971ad627" target="_top" xlink:title=" ">
<polygon fill="white" stroke="#666666" points="475,-126 359,-126 359,-96 475,-96 475,-126"/>
<text text-anchor="start" x="367" y="-114" font-family="Helvetica,sans-Serif" font-size="10.00">graph_visuals._build</text>
<text text-anchor="middle" x="417" y="-103" font-family="Helvetica,sans-Serif" font-size="10.00">_hover_texts</text>
</a>
</g>
</g>
<!-- Node5&#45;&gt;Node7 -->
<g id="edge6_Node000005_Node000007" class="edge">
<title>Node5&#45;&gt;Node7</title>
<g id="a_edge6_Node000005_Node000007"><a xlink:title=" ">
<path fill="none" stroke="#63b8ff" d="M291.24,-111C309.61,-111 329.88,-111 348.65,-111"/>
<polygon fill="#63b8ff" stroke="#63b8ff" points="348.9,-114.5 358.9,-111 348.9,-107.5 348.9,-114.5"/>
</a>
</g>
</g>
<!-- Node8 -->
<g id="Node000008" class="node">
<title>Node8</title>
<g id="a_Node000008"><a xlink:href="namespacegraph__visuals.html#aa4d02d3595ef8a27dd8ccc870d692749" target="_top" xlink:title=" ">
<polygon fill="white" stroke="#666666" points="479.5,-78 354.5,-78 354.5,-48 479.5,-48 479.5,-78"/>
<text text-anchor="start" x="362.5" y="-66" font-family="Helvetica,sans-Serif" font-size="10.00">graph_visuals._format</text>
<text text-anchor="middle" x="417" y="-55" font-family="Helvetica,sans-Serif" font-size="10.00">_trace_name</text>
</a>
</g>
</g>
<!-- Node5&#45;&gt;Node8 -->
<g id="edge7_Node000005_Node000008" class="edge">
<title>Node5&#45;&gt;Node8</title>
<g id="a_edge7_Node000005_Node000008"><a xlink:title=" ">
<path fill="none" stroke="#63b8ff" d="M288.68,-95.94C307.59,-91.05 328.73,-85.58 348.27,-80.52"/>
<polygon fill="#63b8ff" stroke="#63b8ff" points="349.22,-83.9 358.02,-78 347.46,-77.12 349.22,-83.9"/>
</a>
</g>
</g>
<!-- Node9 -->
<g id="Node000009" class="node">
<title>Node9</title>
<g id="a_Node000009"><a xlink:href="namespacegraph__visuals.html#a553f122c8516e6a12814996a7cd1a13e" target="_top" xlink:title=" ">
<polygon fill="white" stroke="#666666" points="471,-30 363,-30 363,0 471,0 471,-30"/>
<text text-anchor="start" x="371" y="-18" font-family="Helvetica,sans-Serif" font-size="10.00">graph_visuals._get</text>
<text text-anchor="middle" x="417" y="-7" font-family="Helvetica,sans-Serif" font-size="10.00">_line_style</text>
</a>
</g>
</g>
<!-- Node5&#45;&gt;Node9 -->
<g id="edge8_Node000005_Node000009" class="edge">
<title>Node5&#45;&gt;Node9</title>
<g id="a_edge8_Node000005_Node000009"><a xlink:title=" ">
<path fill="none" stroke="#63b8ff" d="M248.87,-95.85C269.11,-79.8 303.18,-54.66 336,-39 341.37,-36.44 347.06,-34.08 352.85,-31.93"/>
<polygon fill="#63b8ff" stroke="#63b8ff" points="354.35,-35.12 362.63,-28.51 352.04,-28.51 354.35,-35.12"/>
</a>
</g>
</g>
<!-- Node10 -->
<g id="Node000010" class="node">
<title>Node10</title>
<g id="a_Node000010"><a xlink:href="namespacegraph__visuals.html#af2a815c0bdaadc2b6aa339387795f4bb" target="_top" xlink:title=" ">
<polygon fill="white" stroke="#666666" points="664,-30 534,-30 534,0 664,0 664,-30"/>
<text text-anchor="start" x="542" y="-18" font-family="Helvetica,sans-Serif" font-size="10.00">graph_visuals._is_valid</text>
<text text-anchor="middle" x="599" y="-7" font-family="Helvetica,sans-Serif" font-size="10.00">_color_format</text>
</a>
</g>
</g>
<!-- Node9&#45;&gt;Node10 -->
<g id="edge9_Node000009_Node000010" class="edge">
<title>Node9&#45;&gt;Node10</title>
<g id="a_edge9_Node000009_Node000010"><a xlink:title=" ">
<path fill="none" stroke="#63b8ff" d="M471.03,-15C487.5,-15 505.97,-15 523.62,-15"/>
<polygon fill="#63b8ff" stroke="#63b8ff" points="523.89,-18.5 533.89,-15 523.89,-11.5 523.89,-18.5"/>
</a>
</g>
</g>
</g>
</svg>
