<?xml version="1.0" encoding="UTF-8" standalone="no"?>
<!DOCTYPE svg PUBLIC "-//W3C//DTD SVG 1.1//EN"
 "http://www.w3.org/Graphics/SVG/1.1/DTD/svg11.dtd">
<!-- Generated by graphviz version 2.43.0 (0)
 -->
<!-- Title: api.database.execute Pages: 1 -->
<svg width="680pt" height="46pt"
 viewBox="0.00 0.00 680.00 46.00" xmlns="http://www.w3.org/2000/svg" xmlns:xlink="http://www.w3.org/1999/xlink">
<g id="graph0" class="graph" transform="scale(1 1) rotate(0) translate(4 42)">
<title>api.database.execute</title>
<!-- Node1 -->
<g id="Node000001" class="node">
<title>Node1</title>
<g id="a_Node000001"><a xlink:title=" ">
<polygon fill="#999999" stroke="#666666" points="121,-19 0,-19 0,0 121,0 121,-19"/>
<text text-anchor="middle" x="60.5" y="-7" font-family="Helvetica,sans-Serif" font-size="10.00">api.database.execute</text>
</a>
</g>
</g>
<!-- Node2 -->
<g id="Node000002" class="node">
<title>Node2</title>
<g id="a_Node000002"><a xlink:href="namespaceapi_1_1database.html#a6e6aa213df0f9401217ec521935184c5" target="_top" xlink:title=" ">
<polygon fill="white" stroke="#666666" points="314,-19 157,-19 157,0 314,0 314,-19"/>
<text text-anchor="middle" x="235.5" y="-7" font-family="Helvetica,sans-Serif" font-size="10.00">api.database.get_connection</text>
</a>
</g>
</g>
<!-- Node1&#45;&gt;Node2 -->
<g id="edge1_Node000001_Node000002" class="edge">
<title>Node1&#45;&gt;Node2</title>
<g id="a_edge1_Node000001_Node000002"><a xlink:title=" ">
<path fill="none" stroke="#63b8ff" d="M121.04,-9.5C129.33,-9.5 137.98,-9.5 146.66,-9.5"/>
<polygon fill="#63b8ff" stroke="#63b8ff" points="146.83,-13 156.83,-9.5 146.83,-6 146.83,-13"/>
</a>
</g>
</g>
<!-- Node3 -->
<g id="Node000003" class="node">
<title>Node3</title>
<g id="a_Node000003"><a xlink:href="namespaceapi_1_1database.html#add5bd37c7ccad20f0844cf169de107d2" target="_top" xlink:title=" ">
<polygon fill="white" stroke="#666666" points="476,-38 350,-38 350,-19 476,-19 476,-38"/>
<text text-anchor="middle" x="413" y="-26" font-family="Helvetica,sans-Serif" font-size="10.00">api.database._connect</text>
</a>
</g>
</g>
<!-- Node2&#45;&gt;Node3 -->
<g id="edge2_Node000002_Node000003" class="edge">
<title>Node2&#45;&gt;Node3</title>
<g id="a_edge2_Node000002_Node000003"><a xlink:title=" ">
<path fill="none" stroke="#63b8ff" d="M314.24,-17.92C322.72,-18.83 331.32,-19.77 339.72,-20.67"/>
<polygon fill="#63b8ff" stroke="#63b8ff" points="339.54,-24.18 349.85,-21.77 340.29,-17.22 339.54,-24.18"/>
</a>
</g>
</g>
<!-- Node4 -->
<g id="Node000004" class="node">
<title>Node4</title>
<g id="a_Node000004"><a xlink:href="namespaceapi_1_1database.html#a2b55d2e5b55f35ea1fdaefbf1fd87ac3" target="_top" xlink:title=" ">
<polygon fill="white" stroke="#666666" points="672,-19 512,-19 512,0 672,0 672,-19"/>
<text text-anchor="middle" x="592" y="-7" font-family="Helvetica,sans-Serif" font-size="10.00">api.database._is_memory_db</text>
</a>
</g>
</g>
<!-- Node2&#45;&gt;Node4 -->
<g id="edge4_Node000002_Node000004" class="edge">
<title>Node2&#45;&gt;Node4</title>
<g id="a_edge4_Node000002_Node000004"><a xlink:title=" ">
<path fill="none" stroke="#63b8ff" d="M314.3,-9.5C369.57,-9.5 443.93,-9.5 501.64,-9.5"/>
<polygon fill="#63b8ff" stroke="#63b8ff" points="501.85,-13 511.85,-9.5 501.85,-6 501.85,-13"/>
</a>
</g>
</g>
<!-- Node3&#45;&gt;Node4 -->
<g id="edge3_Node000003_Node000004" class="edge">
<title>Node3&#45;&gt;Node4</title>
<g id="a_edge3_Node000003_Node000004"><a xlink:title=" ">
<path fill="none" stroke="#63b8ff" d="M476.4,-21.8C484.63,-20.92 493.19,-20 501.75,-19.08"/>
<polygon fill="#63b8ff" stroke="#63b8ff" points="502.23,-22.55 511.8,-18 501.48,-15.59 502.23,-22.55"/>
</a>
</g>
</g>
</g>
</svg>
