<?xml version="1.0" encoding="UTF-8" standalone="no"?>
<!DOCTYPE svg PUBLIC "-//W3C//DTD SVG 1.1//EN"
 "http://www.w3.org/Graphics/SVG/1.1/DTD/svg11.dtd">
<!-- Generated by graphviz version 2.43.0 (0)
 -->
<!-- Title: graph_visuals._validate_visualization_data Pages: 1 -->
<svg width="466pt" height="78pt"
 viewBox="0.00 0.00 466.00 78.00" xmlns="http://www.w3.org/2000/svg" xmlns:xlink="http://www.w3.org/1999/xlink">

<svg id="main" version="1.1" xmlns="http://www.w3.org/2000/svg" xmlns:xlink="http://www.w3.org/1999/xlink" xml:space="preserve">

<style type="text/css"><![CDATA[
.node, .edge {opacity: 0.7;}
.node.selected, .edge.selected {opacity: 1;}
.edge:hover path { stroke: red; }
.edge:hover polygon { stroke: red; fill: red; }
]]></style>
<script type="application/ecmascript" xlink:href="svg.min.js"/>
<svg id="graph" class="graph">
<g id="graph0" class="graph" transform="scale(1 1) rotate(0) translate(4 74)">
<title>graph_visuals._validate_visualization_data</title>
<!-- Node1 -->
<g id="Node000001" class="node">
<title>Node1</title>
<g id="a_Node000001"><a xlink:title=" ">
<polygon fill="#999999" stroke="#666666" points="458,-52 326,-52 326,-22 458,-22 458,-52"/>
<text text-anchor="start" x="334" y="-40" font-family="Helvetica,sans-Serif" font-size="10.00">graph_visuals._validate</text>
<text text-anchor="middle" x="392" y="-29" font-family="Helvetica,sans-Serif" font-size="10.00">_visualization_data</text>
</a>
</g>
</g>
<!-- Node1&#45;&gt;Node1 -->
<g id="edge4_Node000001_Node000001" class="edge">
<title>Node1&#45;&gt;Node1</title>
<g id="a_edge4_Node000001_Node000001"><a xlink:title=" ">
<path fill="none" stroke="#63b8ff" d="M420.36,-62.6C416.48,-66.97 407.03,-70 392,-70 366.69,-70 357.2,-61.41 363.52,-52.28"/>
<polygon fill="#63b8ff" stroke="#63b8ff" points="423.86,-62.32 420.48,-52.28 416.86,-62.23 423.86,-62.32"/>
</a>
</g>
</g>
<!-- Node2 -->
<g id="Node000002" class="node">
<title>Node2</title>
<g id="a_Node000002"><a xlink:href="namespacegraph__visuals.html#a345ff70d680ece5d645ee7c9501d2a4a" target="_top" xlink:title=" ">
<polygon fill="white" stroke="#666666" points="290,-52 167,-52 167,-22 290,-22 290,-52"/>
<text text-anchor="start" x="175" y="-40" font-family="Helvetica,sans-Serif" font-size="10.00">graph_visuals._create</text>
<text text-anchor="middle" x="228.5" y="-29" font-family="Helvetica,sans-Serif" font-size="10.00">_node_trace</text>
</a>
</g>
</g>
<!-- Node1&#45;&gt;Node2 -->
<g id="edge1_Node000001_Node000002" class="edge">
<title>Node1&#45;&gt;Node2</title>
<g id="a_edge1_Node000001_Node000002"><a xlink:title=" ">
<path fill="none" stroke="#63b8ff" d="M315.72,-30.26C307.1,-30.22 298.4,-30.28 290,-30.44"/>
<polygon fill="#63b8ff" stroke="#63b8ff" points="315.74,-33.76 325.78,-30.36 315.81,-26.76 315.74,-33.76"/>
</a>
</g>
</g>
<!-- Node3 -->
<g id="Node000003" class="node">
<title>Node3</title>
<g id="a_Node000003"><a xlink:href="namespacegraph__visuals.html#a828bdcb4c7a34d98e2a555a154c74576" target="_top" xlink:title=" ">
<polygon fill="white" stroke="#666666" points="131,-30 0,-30 0,0 131,0 131,-30"/>
<text text-anchor="start" x="8" y="-18" font-family="Helvetica,sans-Serif" font-size="10.00">graph_visuals.visualize</text>
<text text-anchor="middle" x="65.5" y="-7" font-family="Helvetica,sans-Serif" font-size="10.00">_3d_graph_with_filters</text>
</a>
</g>
</g>
<!-- Node1&#45;&gt;Node3 -->
<g id="edge5_Node000001_Node000003" class="edge">
<title>Node1&#45;&gt;Node3</title>
<g id="a_edge5_Node000001_Node000003"><a xlink:title=" ">
<path fill="none" stroke="#63b8ff" d="M328.06,-19.66C315.55,-16.89 302.43,-14.46 290,-13 236.81,-6.77 176.02,-7.84 131.28,-10.14"/>
<polygon fill="#63b8ff" stroke="#63b8ff" points="327.42,-23.1 337.95,-21.94 328.99,-16.28 327.42,-23.1"/>
</a>
</g>
</g>
<!-- Node2&#45;&gt;Node1 -->
<g id="edge2_Node000002_Node000001" class="edge">
<title>Node2&#45;&gt;Node1</title>
<g id="a_edge2_Node000002_Node000001"><a xlink:title=" ">
<path fill="none" stroke="#63b8ff" d="M300.25,-43.7C308.74,-43.78 317.38,-43.76 325.78,-43.64"/>
<polygon fill="#63b8ff" stroke="#63b8ff" points="300.05,-40.2 290,-43.56 299.95,-47.2 300.05,-40.2"/>
</a>
</g>
</g>
<!-- Node2&#45;&gt;Node3 -->
<g id="edge3_Node000002_Node000003" class="edge">
<title>Node2&#45;&gt;Node3</title>
<g id="a_edge3_Node000002_Node000003"><a xlink:title=" ">
<path fill="none" stroke="#63b8ff" d="M156.47,-27.29C148.07,-26.15 139.52,-24.98 131.21,-23.84"/>
<polygon fill="#63b8ff" stroke="#63b8ff" points="156.25,-30.8 166.63,-28.68 157.2,-23.86 156.25,-30.8"/>
</a>
</g>
</g>
</g>
</svg>
</svg>

<style type='text/css'>
<![CDATA[
[data-mouse-over-selected='false'] { opacity: 0.7; }
[data-mouse-over-selected='true']  { opacity: 1.0; }
]]>
</style>
<script type="application/ecmascript"><![CDATA[
document.addEventListener('DOMContentLoaded', (event) => {
  highlightEdges();
  highlightAdjacentNodes();
});
]]></script>
</svg>
