<?xml version="1.0" encoding="UTF-8" standalone="no"?>
<!DOCTYPE svg PUBLIC "-//W3C//DTD SVG 1.1//EN"
 "http://www.w3.org/Graphics/SVG/1.1/DTD/svg11.dtd">
<!-- Generated by graphviz version 2.43.0 (0)
 -->
<!-- Title: graph_visuals.visualize_3d_graph_with_filters Pages: 1 -->
<svg width="1198pt" height="465pt"
 viewBox="0.00 0.00 1198.00 465.00" xmlns="http://www.w3.org/2000/svg" xmlns:xlink="http://www.w3.org/1999/xlink">
<g id="graph0" class="graph" transform="scale(1 1) rotate(0) translate(4 461)">
<title>graph_visuals.visualize_3d_graph_with_filters</title>
<!-- Node1 -->
<g id="Node000001" class="node">
<title>Node1</title>
<g id="a_Node000001"><a xlink:title=" ">
<polygon fill="#999999" stroke="#666666" points="131,-233 0,-233 0,-203 131,-203 131,-233"/>
<text text-anchor="start" x="8" y="-221" font-family="Helvetica,sans-Serif" font-size="10.00">graph_visuals.visualize</text>
<text text-anchor="middle" x="65.5" y="-210" font-family="Helvetica,sans-Serif" font-size="10.00">_3d_graph_with_filters</text>
</a>
</g>
</g>
<!-- Node2 -->
<g id="Node000002" class="node">
<title>Node2</title>
<g id="a_Node000002"><a xlink:href="namespacegraph__visuals.html#a0ac5eba53e8e0b8218c2b7ccf5072f82" target="_top" xlink:title=" ">
<polygon fill="white" stroke="#666666" points="304,-374 167,-374 167,-344 304,-344 304,-374"/>
<text text-anchor="start" x="175" y="-362" font-family="Helvetica,sans-Serif" font-size="10.00">graph_visuals._configure</text>
<text text-anchor="middle" x="235.5" y="-351" font-family="Helvetica,sans-Serif" font-size="10.00">_3d_layout</text>
</a>
</g>
</g>
<!-- Node1&#45;&gt;Node2 -->
<g id="edge1_Node000001_Node000002" class="edge">
<title>Node1&#45;&gt;Node2</title>
<g id="a_edge1_Node000001_Node000002"><a xlink:title=" ">
<path fill="none" stroke="#63b8ff" d="M76.88,-233.33C93.49,-256.87 128.16,-302.12 167,-330 171.78,-333.43 177.03,-336.57 182.42,-339.4"/>
<polygon fill="#63b8ff" stroke="#63b8ff" points="181.06,-342.63 191.58,-343.89 184.14,-336.35 181.06,-342.63"/>
</a>
</g>
</g>
<!-- Node3 -->
<g id="Node000003" class="node">
<title>Node3</title>
<g id="a_Node000003"><a xlink:href="namespacegraph__visuals.html#a41e2aa4282d406d57e0c1b69abc42480" target="_top" xlink:title=" ">
<polygon fill="white" stroke="#666666" points="642.5,-308 519.5,-308 519.5,-278 642.5,-278 642.5,-308"/>
<text text-anchor="start" x="527.5" y="-296" font-family="Helvetica,sans-Serif" font-size="10.00">graph_visuals._create</text>
<text text-anchor="middle" x="581" y="-285" font-family="Helvetica,sans-Serif" font-size="10.00">_directional_arrows</text>
</a>
</g>
</g>
<!-- Node1&#45;&gt;Node3 -->
<g id="edge2_Node000001_Node000003" class="edge">
<title>Node1&#45;&gt;Node3</title>
<g id="a_edge2_Node000001_Node000003"><a xlink:title=" ">
<path fill="none" stroke="#63b8ff" d="M131.02,-230.71C142.96,-232.92 155.34,-235.11 167,-237 286.82,-256.44 426.95,-274.45 509.32,-284.55"/>
<polygon fill="#63b8ff" stroke="#63b8ff" points="508.97,-288.04 519.32,-285.78 509.82,-281.09 508.97,-288.04"/>
</a>
</g>
</g>
<!-- Node6 -->
<g id="Node000006" class="node">
<title>Node6</title>
<g id="a_Node000006"><a xlink:href="namespacegraph__visuals.html#a345ff70d680ece5d645ee7c9501d2a4a" target="_top" xlink:title=" ">
<polygon fill="white" stroke="#666666" points="297,-212 174,-212 174,-182 297,-182 297,-212"/>
<text text-anchor="start" x="182" y="-200" font-family="Helvetica,sans-Serif" font-size="10.00">graph_visuals._create</text>
<text text-anchor="middle" x="235.5" y="-189" font-family="Helvetica,sans-Serif" font-size="10.00">_node_trace</text>
</a>
</g>
</g>
<!-- Node1&#45;&gt;Node6 -->
<g id="edge5_Node000001_Node000006" class="edge">
<title>Node1&#45;&gt;Node6</title>
<g id="a_edge5_Node000001_Node000006"><a xlink:title=" ">
<path fill="none" stroke="#63b8ff" d="M131.45,-209.88C142.02,-208.56 153.01,-207.19 163.71,-205.85"/>
<polygon fill="#63b8ff" stroke="#63b8ff" points="164.36,-209.29 173.85,-204.58 163.49,-202.35 164.36,-209.29"/>
</a>
</g>
</g>
<!-- Node7 -->
<g id="Node000007" class="node">
<title>Node7</title>
<g id="a_Node000007"><a xlink:href="namespacegraph__visuals.html#a870c69decb3e9db3ed97f279c6121748" target="_top" xlink:title=" ">
<polygon fill="white" stroke="#666666" points="474.5,-212 342.5,-212 342.5,-182 474.5,-182 474.5,-212"/>
<text text-anchor="start" x="350.5" y="-200" font-family="Helvetica,sans-Serif" font-size="10.00">graph_visuals._validate</text>
<text text-anchor="middle" x="408.5" y="-189" font-family="Helvetica,sans-Serif" font-size="10.00">_visualization_data</text>
</a>
</g>
</g>
<!-- Node1&#45;&gt;Node7 -->
<g id="edge33_Node000001_Node000007" class="edge">
<title>Node1&#45;&gt;Node7</title>
<g id="a_edge33_Node000001_Node000007"><a xlink:title=" ">
<path fill="none" stroke="#63b8ff" d="M131.24,-223.22C179.11,-226.01 245.82,-227.66 304,-221 316.73,-219.54 330.16,-217.11 342.99,-214.34"/>
<polygon fill="#63b8ff" stroke="#63b8ff" points="344.13,-217.67 353.12,-212.06 342.59,-210.84 344.13,-217.67"/>
</a>
</g>
</g>
<!-- Node8 -->
<g id="Node000008" class="node">
<title>Node8</title>
<g id="a_Node000008"><a xlink:href="namespacegraph__visuals.html#a126c97a3aa996be29f948301ee861806" target="_top" xlink:title=" ">
<polygon fill="white" stroke="#666666" points="642.5,-356 519.5,-356 519.5,-326 642.5,-326 642.5,-356"/>
<text text-anchor="start" x="527.5" y="-344" font-family="Helvetica,sans-Serif" font-size="10.00">graph_visuals._create</text>
<text text-anchor="middle" x="581" y="-333" font-family="Helvetica,sans-Serif" font-size="10.00">_relationship_traces</text>
</a>
</g>
</g>
<!-- Node1&#45;&gt;Node8 -->
<g id="edge27_Node000001_Node000008" class="edge">
<title>Node1&#45;&gt;Node8</title>
<g id="a_edge27_Node000001_Node000008"><a xlink:title=" ">
<path fill="none" stroke="#63b8ff" d="M98.03,-233.11C117.53,-241.97 143.3,-252.8 167,-260 284.62,-295.71 426.01,-319.47 509.13,-331.56"/>
<polygon fill="#63b8ff" stroke="#63b8ff" points="508.82,-335.05 519.22,-333.01 509.82,-328.12 508.82,-335.05"/>
</a>
</g>
</g>
<!-- Node22 -->
<g id="Node000022" class="node">
<title>Node22</title>
<g id="a_Node000022"><a xlink:href="namespacegraph__visuals.html#a268f24b662cc93d2049a92711703834c" target="_top" xlink:title=" ">
<polygon fill="white" stroke="#666666" points="300.5,-164 170.5,-164 170.5,-134 300.5,-134 300.5,-164"/>
<text text-anchor="start" x="178.5" y="-152" font-family="Helvetica,sans-Serif" font-size="10.00">graph_visuals._prepare</text>
<text text-anchor="middle" x="235.5" y="-141" font-family="Helvetica,sans-Serif" font-size="10.00">_layout_config</text>
</a>
</g>
</g>
<!-- Node1&#45;&gt;Node22 -->
<g id="edge28_Node000001_Node000022" class="edge">
<title>Node1&#45;&gt;Node22</title>
<g id="a_edge28_Node000001_Node000022"><a xlink:title=" ">
<path fill="none" stroke="#63b8ff" d="M98.36,-202.96C117.98,-193.88 143.76,-182.32 167,-173 171.46,-171.21 176.1,-169.42 180.78,-167.66"/>
<polygon fill="#63b8ff" stroke="#63b8ff" points="182.21,-170.87 190.38,-164.12 179.78,-164.3 182.21,-170.87"/>
</a>
</g>
</g>
<!-- Node24 -->
<g id="Node000024" class="node">
<title>Node24</title>
<g id="a_Node000024"><a xlink:href="namespacegraph__visuals.html#aadaf25f110e332612e1de8ce383cf8ce" target="_top" xlink:title=" ">
<polygon fill="white" stroke="#666666" points="301.5,-116 169.5,-116 169.5,-86 301.5,-86 301.5,-116"/>
<text text-anchor="start" x="177.5" y="-104" font-family="Helvetica,sans-Serif" font-size="10.00">graph_visuals._validate</text>
<text text-anchor="middle" x="235.5" y="-93" font-family="Helvetica,sans-Serif" font-size="10.00">_filter_parameters</text>
</a>
</g>
</g>
<!-- Node1&#45;&gt;Node24 -->
<g id="edge31_Node000001_Node000024" class="edge">
<title>Node1&#45;&gt;Node24</title>
<g id="a_edge31_Node000001_Node000024"><a xlink:title=" ">
<path fill="none" stroke="#63b8ff" d="M79.32,-202.78C97.13,-182.49 131.2,-146.66 167,-125 169.77,-123.33 172.67,-121.74 175.65,-120.25"/>
<polygon fill="#63b8ff" stroke="#63b8ff" points="177.15,-123.42 184.76,-116.05 174.22,-117.06 177.15,-123.42"/>
</a>
</g>
</g>
<!-- Node25 -->
<g id="Node000025" class="node">
<title>Node25</title>
<g id="a_Node000025"><a xlink:href="namespacegraph__visuals.html#ac8a25682128b2e8456b0aa75229e5fb0" target="_top" xlink:title=" ">
<polygon fill="white" stroke="#666666" points="301.5,-68 169.5,-68 169.5,-38 301.5,-38 301.5,-68"/>
<text text-anchor="start" x="177.5" y="-56" font-family="Helvetica,sans-Serif" font-size="10.00">graph_visuals._validate</text>
<text text-anchor="middle" x="235.5" y="-45" font-family="Helvetica,sans-Serif" font-size="10.00">_relationship_filters</text>
</a>
</g>
</g>
<!-- Node1&#45;&gt;Node25 -->
<g id="edge32_Node000001_Node000025" class="edge">
<title>Node1&#45;&gt;Node25</title>
<g id="a_edge32_Node000001_Node000025"><a xlink:title=" ">
<path fill="none" stroke="#63b8ff" d="M73.35,-202.94C87.09,-174.34 120.69,-111.95 167,-77 168.81,-75.63 170.71,-74.33 172.68,-73.11"/>
<polygon fill="#63b8ff" stroke="#63b8ff" points="174.57,-76.06 181.63,-68.16 171.18,-69.93 174.57,-76.06"/>
</a>
</g>
</g>
<!-- Node4 -->
<g id="Node000004" class="node">
<title>Node4</title>
<g id="a_Node000004"><a xlink:href="namespacegraph__visuals.html#a0b234963e74afc0d696565e612ad410c" target="_top" xlink:title=" ">
<polygon fill="white" stroke="#666666" points="813.5,-308 697.5,-308 697.5,-278 813.5,-278 813.5,-308"/>
<text text-anchor="start" x="705.5" y="-296" font-family="Helvetica,sans-Serif" font-size="10.00">graph_visuals._build</text>
<text text-anchor="middle" x="755.5" y="-285" font-family="Helvetica,sans-Serif" font-size="10.00">_asset_id_index</text>
</a>
</g>
</g>
<!-- Node3&#45;&gt;Node4 -->
<g id="edge3_Node000003_Node000004" class="edge">
<title>Node3&#45;&gt;Node4</title>
<g id="a_edge3_Node000003_Node000004"><a xlink:title=" ">
<path fill="none" stroke="#63b8ff" d="M642.82,-293C657.24,-293 672.7,-293 687.39,-293"/>
<polygon fill="#63b8ff" stroke="#63b8ff" points="687.41,-296.5 697.41,-293 687.41,-289.5 687.41,-296.5"/>
</a>
</g>
</g>
<!-- Node5 -->
<g id="Node000005" class="node">
<title>Node5</title>
<g id="a_Node000005"><a xlink:href="namespacegraph__visuals.html#a632734f64a969060dc90f97e0f207d59" target="_top" xlink:title=" ">
<polygon fill="white" stroke="#666666" points="1001,-265 885,-265 885,-235 1001,-235 1001,-265"/>
<text text-anchor="start" x="893" y="-253" font-family="Helvetica,sans-Serif" font-size="10.00">graph_visuals._build</text>
<text text-anchor="middle" x="943" y="-242" font-family="Helvetica,sans-Serif" font-size="10.00">_relationship_index</text>
</a>
</g>
</g>
<!-- Node3&#45;&gt;Node5 -->
<g id="edge4_Node000003_Node000005" class="edge">
<title>Node3&#45;&gt;Node5</title>
<g id="a_edge4_Node000003_Node000005"><a xlink:title=" ">
<path fill="none" stroke="#63b8ff" d="M639.44,-277.96C654.2,-274.55 670.12,-271.27 685,-269 748.96,-259.24 822.67,-254.45 874.7,-252.12"/>
<polygon fill="#63b8ff" stroke="#63b8ff" points="874.97,-255.61 884.81,-251.69 874.67,-248.62 874.97,-255.61"/>
</a>
</g>
</g>
<!-- Node6&#45;&gt;Node7 -->
<g id="edge6_Node000006_Node000007" class="edge">
<title>Node6&#45;&gt;Node7</title>
<g id="a_edge6_Node000006_Node000007"><a xlink:title=" ">
<path fill="none" stroke="#63b8ff" d="M297.27,-190.51C308.56,-190.27 320.47,-190.19 332.13,-190.29"/>
<polygon fill="#63b8ff" stroke="#63b8ff" points="332.24,-193.79 342.29,-190.42 332.33,-186.79 332.24,-193.79"/>
</a>
</g>
</g>
<!-- Node7&#45;&gt;Node3 -->
<g id="edge7_Node000007_Node000003" class="edge">
<title>Node7&#45;&gt;Node3</title>
<g id="a_edge7_Node000007_Node000003"><a xlink:title=" ">
<path fill="none" stroke="#63b8ff" d="M428,-212.13C448,-227.93 481.29,-252.65 513,-269 516.33,-270.71 519.8,-272.36 523.35,-273.93"/>
<polygon fill="#63b8ff" stroke="#63b8ff" points="522.26,-277.26 532.83,-277.89 524.96,-270.8 522.26,-277.26"/>
</a>
</g>
</g>
<!-- Node7&#45;&gt;Node6 -->
<g id="edge8_Node000007_Node000006" class="edge">
<title>Node7&#45;&gt;Node6</title>
<g id="a_edge8_Node000007_Node000006"><a xlink:title=" ">
<path fill="none" stroke="#63b8ff" d="M342.29,-203.58C330.85,-203.78 318.91,-203.8 307.33,-203.66"/>
<polygon fill="#63b8ff" stroke="#63b8ff" points="307.33,-200.16 297.27,-203.49 307.21,-207.16 307.33,-200.16"/>
</a>
</g>
</g>
<!-- Node7&#45;&gt;Node7 -->
<g id="edge26_Node000007_Node000007" class="edge">
<title>Node7&#45;&gt;Node7</title>
<g id="a_edge26_Node000007_Node000007"><a xlink:title=" ">
<path fill="none" stroke="#63b8ff" d="M378.27,-212.28C371.55,-221.41 381.62,-230 408.5,-230 424.46,-230 434.49,-226.97 438.61,-222.6"/>
<polygon fill="#63b8ff" stroke="#63b8ff" points="442.11,-222.32 438.73,-212.28 435.11,-222.23 442.11,-222.32"/>
</a>
</g>
</g>
<!-- Node7&#45;&gt;Node8 -->
<g id="edge9_Node000007_Node000008" class="edge">
<title>Node7&#45;&gt;Node8</title>
<g id="a_edge9_Node000007_Node000008"><a xlink:title=" ">
<path fill="none" stroke="#63b8ff" d="M418.76,-212.11C434.91,-237.28 470.58,-287.89 513,-317 515.14,-318.47 517.38,-319.86 519.69,-321.17"/>
<polygon fill="#63b8ff" stroke="#63b8ff" points="518.37,-324.43 528.87,-325.86 521.56,-318.19 518.37,-324.43"/>
</a>
</g>
</g>
<!-- Node16 -->
<g id="Node000016" class="node">
<title>Node16</title>
<g id="a_Node000016"><a xlink:href="namespacegraph__visuals.html#a3aba8b14bed184d9ab46de2e8f0b3fa5" target="_top" xlink:title=" ">
<polygon fill="white" stroke="#666666" points="649,-30 513,-30 513,0 649,0 649,-30"/>
<text text-anchor="start" x="521" y="-18" font-family="Helvetica,sans-Serif" font-size="10.00">graph_visuals._generate</text>
<text text-anchor="middle" x="581" y="-7" font-family="Helvetica,sans-Serif" font-size="10.00">_dynamic_title</text>
</a>
</g>
</g>
<!-- Node7&#45;&gt;Node16 -->
<g id="edge19_Node000007_Node000016" class="edge">
<title>Node7&#45;&gt;Node16</title>
<g id="a_edge19_Node000007_Node000016"><a xlink:title=" ">
<path fill="none" stroke="#63b8ff" d="M465.97,-181.95C470.02,-179.41 473.78,-176.46 477,-173 517.6,-129.47 473.88,-88.86 513,-44 515.69,-40.92 518.76,-38.15 522.08,-35.67"/>
<polygon fill="#63b8ff" stroke="#63b8ff" points="524.26,-38.44 530.77,-30.08 520.47,-32.55 524.26,-38.44"/>
</a>
</g>
</g>
<!-- Node17 -->
<g id="Node000017" class="node">
<title>Node17</title>
<g id="a_Node000017"><a xlink:href="namespacegraph__visuals.html#a5d2b6e0ace20321ddff80afa16911f60" target="_top" xlink:title=" ">
<polygon fill="white" stroke="#666666" points="647,-260 515,-260 515,-230 647,-230 647,-260"/>
<text text-anchor="start" x="523" y="-248" font-family="Helvetica,sans-Serif" font-size="10.00">graph_visuals._validate</text>
<text text-anchor="middle" x="581" y="-237" font-family="Helvetica,sans-Serif" font-size="10.00">_asset_ids_list</text>
</a>
</g>
</g>
<!-- Node7&#45;&gt;Node17 -->
<g id="edge20_Node000007_Node000017" class="edge">
<title>Node7&#45;&gt;Node17</title>
<g id="a_edge20_Node000007_Node000017"><a xlink:title=" ">
<path fill="none" stroke="#63b8ff" d="M462.98,-212.06C480.12,-216.88 499.26,-222.27 517.01,-227.27"/>
<polygon fill="#63b8ff" stroke="#63b8ff" points="516.14,-230.66 526.71,-230 518.03,-223.92 516.14,-230.66"/>
</a>
</g>
</g>
<!-- Node18 -->
<g id="Node000018" class="node">
<title>Node18</title>
<g id="a_Node000018"><a xlink:href="namespacegraph__visuals.html#a372e2fa2aab88734f03d83259f58c597" target="_top" xlink:title=" ">
<polygon fill="white" stroke="#666666" points="647,-212 515,-212 515,-182 647,-182 647,-212"/>
<text text-anchor="start" x="523" y="-200" font-family="Helvetica,sans-Serif" font-size="10.00">graph_visuals._validate</text>
<text text-anchor="middle" x="581" y="-189" font-family="Helvetica,sans-Serif" font-size="10.00">_asset_ids_uniqueness</text>
</a>
</g>
</g>
<!-- Node7&#45;&gt;Node18 -->
<g id="edge21_Node000007_Node000018" class="edge">
<title>Node7&#45;&gt;Node18</title>
<g id="a_edge21_Node000007_Node000018"><a xlink:title=" ">
<path fill="none" stroke="#63b8ff" d="M474.93,-197C484.62,-197 494.67,-197 504.54,-197"/>
<polygon fill="#63b8ff" stroke="#63b8ff" points="504.74,-200.5 514.74,-197 504.74,-193.5 504.74,-200.5"/>
</a>
</g>
</g>
<!-- Node19 -->
<g id="Node000019" class="node">
<title>Node19</title>
<g id="a_Node000019"><a xlink:href="namespacegraph__visuals.html#aa96bbd15e68187307b2af5f94fd0d364" target="_top" xlink:title=" ">
<polygon fill="white" stroke="#666666" points="821.5,-111 689.5,-111 689.5,-81 821.5,-81 821.5,-111"/>
<text text-anchor="start" x="697.5" y="-99" font-family="Helvetica,sans-Serif" font-size="10.00">graph_visuals._validate</text>
<text text-anchor="middle" x="755.5" y="-88" font-family="Helvetica,sans-Serif" font-size="10.00">_colors_list</text>
</a>
</g>
</g>
<!-- Node7&#45;&gt;Node19 -->
<g id="edge22_Node000007_Node000019" class="edge">
<title>Node7&#45;&gt;Node19</title>
<g id="a_edge22_Node000007_Node000019"><a xlink:title=" ">
<path fill="none" stroke="#63b8ff" d="M465.32,-181.83C469.57,-179.32 473.54,-176.4 477,-173 509.5,-141.06 475.55,-102.96 513,-77 571.78,-36.27 659.02,-58.03 710.98,-77.23"/>
<polygon fill="#63b8ff" stroke="#63b8ff" points="709.98,-80.6 720.57,-80.9 712.48,-74.06 709.98,-80.6"/>
</a>
</g>
</g>
<!-- Node20 -->
<g id="Node000020" class="node">
<title>Node20</title>
<g id="a_Node000020"><a xlink:href="namespacegraph__visuals.html#a8c595f8085bc0ca1f3adf6d2708657f4" target="_top" xlink:title=" ">
<polygon fill="white" stroke="#666666" points="647,-164 515,-164 515,-134 647,-134 647,-164"/>
<text text-anchor="start" x="523" y="-152" font-family="Helvetica,sans-Serif" font-size="10.00">graph_visuals._validate</text>
<text text-anchor="middle" x="581" y="-141" font-family="Helvetica,sans-Serif" font-size="10.00">_hover_texts_list</text>
</a>
</g>
</g>
<!-- Node7&#45;&gt;Node20 -->
<g id="edge24_Node000007_Node000020" class="edge">
<title>Node7&#45;&gt;Node20</title>
<g id="a_edge24_Node000007_Node000020"><a xlink:title=" ">
<path fill="none" stroke="#63b8ff" d="M462.98,-181.94C480.12,-177.12 499.26,-171.73 517.01,-166.73"/>
<polygon fill="#63b8ff" stroke="#63b8ff" points="518.03,-170.08 526.71,-164 516.14,-163.34 518.03,-170.08"/>
</a>
</g>
</g>
<!-- Node21 -->
<g id="Node000021" class="node">
<title>Node21</title>
<g id="a_Node000021"><a xlink:href="namespacegraph__visuals.html#ab2c4f4a71bd4ac0c27552e84e6118eab" target="_top" xlink:title=" ">
<polygon fill="white" stroke="#666666" points="647,-116 515,-116 515,-86 647,-86 647,-116"/>
<text text-anchor="start" x="523" y="-104" font-family="Helvetica,sans-Serif" font-size="10.00">graph_visuals._validate</text>
<text text-anchor="middle" x="581" y="-93" font-family="Helvetica,sans-Serif" font-size="10.00">_positions_array</text>
</a>
</g>
</g>
<!-- Node7&#45;&gt;Node21 -->
<g id="edge25_Node000007_Node000021" class="edge">
<title>Node7&#45;&gt;Node21</title>
<g id="a_edge25_Node000007_Node000021"><a xlink:title=" ">
<path fill="none" stroke="#63b8ff" d="M461.94,-181.89C467.26,-179.34 472.39,-176.39 477,-173 498.48,-157.19 491.54,-140.83 513,-125 514.86,-123.63 516.8,-122.33 518.81,-121.1"/>
<polygon fill="#63b8ff" stroke="#63b8ff" points="520.83,-123.99 527.95,-116.14 517.49,-117.84 520.83,-123.99"/>
</a>
</g>
</g>
<!-- Node8&#45;&gt;Node4 -->
<g id="edge10_Node000008_Node000004" class="edge">
<title>Node8&#45;&gt;Node4</title>
<g id="a_edge10_Node000008_Node000004"><a xlink:title=" ">
<path fill="none" stroke="#63b8ff" d="M636.11,-325.94C653.45,-321.12 672.81,-315.73 690.77,-310.73"/>
<polygon fill="#63b8ff" stroke="#63b8ff" points="691.89,-314.06 700.59,-308 690.01,-307.31 691.89,-314.06"/>
</a>
</g>
</g>
<!-- Node9 -->
<g id="Node000009" class="node">
<title>Node9</title>
<g id="a_Node000009"><a xlink:href="namespacegraph__visuals.html#a7f6044587769ab8335e37ea20279fd8a" target="_top" xlink:title=" ">
<polygon fill="white" stroke="#666666" points="826,-356 685,-356 685,-326 826,-326 826,-356"/>
<text text-anchor="start" x="693" y="-344" font-family="Helvetica,sans-Serif" font-size="10.00">graph_visuals._collect</text>
<text text-anchor="middle" x="755.5" y="-333" font-family="Helvetica,sans-Serif" font-size="10.00">_and_group_relationships</text>
</a>
</g>
</g>
<!-- Node8&#45;&gt;Node9 -->
<g id="edge11_Node000008_Node000009" class="edge">
<title>Node8&#45;&gt;Node9</title>
<g id="a_edge11_Node000008_Node000009"><a xlink:title=" ">
<path fill="none" stroke="#63b8ff" d="M642.82,-341C653.11,-341 663.93,-341 674.62,-341"/>
<polygon fill="#63b8ff" stroke="#63b8ff" points="674.81,-344.5 684.81,-341 674.81,-337.5 674.81,-344.5"/>
</a>
</g>
</g>
<!-- Node10 -->
<g id="Node000010" class="node">
<title>Node10</title>
<g id="a_Node000010"><a xlink:href="namespacegraph__visuals.html#a89feb243f069a64c954d913babcc0284" target="_top" xlink:title=" ">
<polygon fill="white" stroke="#666666" points="817,-404 694,-404 694,-374 817,-374 817,-404"/>
<text text-anchor="start" x="702" y="-392" font-family="Helvetica,sans-Serif" font-size="10.00">graph_visuals._create</text>
<text text-anchor="middle" x="755.5" y="-381" font-family="Helvetica,sans-Serif" font-size="10.00">_trace_for_group</text>
</a>
</g>
</g>
<!-- Node8&#45;&gt;Node10 -->
<g id="edge13_Node000008_Node000010" class="edge">
<title>Node8&#45;&gt;Node10</title>
<g id="a_edge13_Node000008_Node000010"><a xlink:title=" ">
<path fill="none" stroke="#63b8ff" d="M636.11,-356.06C653.45,-360.88 672.81,-366.27 690.77,-371.27"/>
<polygon fill="#63b8ff" stroke="#63b8ff" points="690.01,-374.69 700.59,-374 691.89,-367.94 690.01,-374.69"/>
</a>
</g>
</g>
<!-- Node9&#45;&gt;Node5 -->
<g id="edge12_Node000009_Node000005" class="edge">
<title>Node9&#45;&gt;Node5</title>
<g id="a_edge12_Node000009_Node000005"><a xlink:title=" ">
<path fill="none" stroke="#63b8ff" d="M809.95,-325.93C815.59,-323.37 821.06,-320.4 826,-317 846.53,-302.86 841.19,-287.71 862,-274 866.1,-271.3 870.51,-268.89 875.08,-266.75"/>
<polygon fill="#63b8ff" stroke="#63b8ff" points="876.79,-269.83 884.64,-262.72 874.07,-263.38 876.79,-269.83"/>
</a>
</g>
</g>
<!-- Node11 -->
<g id="Node000011" class="node">
<title>Node11</title>
<g id="a_Node000011"><a xlink:href="namespacegraph__visuals.html#ae0f9ab07f0f1d5aeb10cc8a8bf4a0da6" target="_top" xlink:title=" ">
<polygon fill="white" stroke="#666666" points="1024,-361 862,-361 862,-331 1024,-331 1024,-361"/>
<text text-anchor="start" x="870" y="-349" font-family="Helvetica,sans-Serif" font-size="10.00">graph_visuals._build</text>
<text text-anchor="middle" x="943" y="-338" font-family="Helvetica,sans-Serif" font-size="10.00">_edge_coordinates_optimized</text>
</a>
</g>
</g>
<!-- Node10&#45;&gt;Node11 -->
<g id="edge14_Node000010_Node000011" class="edge">
<title>Node10&#45;&gt;Node11</title>
<g id="a_edge14_Node000010_Node000011"><a xlink:title=" ">
<path fill="none" stroke="#63b8ff" d="M817.24,-374.92C833.08,-371.25 850.33,-367.25 866.82,-363.43"/>
<polygon fill="#63b8ff" stroke="#63b8ff" points="868.02,-366.74 876.97,-361.07 866.44,-359.92 868.02,-366.74"/>
</a>
</g>
</g>
<!-- Node12 -->
<g id="Node000012" class="node">
<title>Node12</title>
<g id="a_Node000012"><a xlink:href="namespacegraph__visuals.html#ac5edbf171a6ddb6e1e3a8f61971ad627" target="_top" xlink:title=" ">
<polygon fill="white" stroke="#666666" points="1001,-313 885,-313 885,-283 1001,-283 1001,-313"/>
<text text-anchor="start" x="893" y="-301" font-family="Helvetica,sans-Serif" font-size="10.00">graph_visuals._build</text>
<text text-anchor="middle" x="943" y="-290" font-family="Helvetica,sans-Serif" font-size="10.00">_hover_texts</text>
</a>
</g>
</g>
<!-- Node10&#45;&gt;Node12 -->
<g id="edge15_Node000010_Node000012" class="edge">
<title>Node10&#45;&gt;Node12</title>
<g id="a_edge15_Node000010_Node000012"><a xlink:title=" ">
<path fill="none" stroke="#63b8ff" d="M809.95,-373.93C815.59,-371.37 821.06,-368.4 826,-365 846.53,-350.86 841.19,-335.71 862,-322 866.1,-319.3 870.51,-316.89 875.08,-314.75"/>
<polygon fill="#63b8ff" stroke="#63b8ff" points="876.79,-317.83 884.64,-310.72 874.07,-311.38 876.79,-317.83"/>
</a>
</g>
</g>
<!-- Node13 -->
<g id="Node000013" class="node">
<title>Node13</title>
<g id="a_Node000013"><a xlink:href="namespacegraph__visuals.html#aa4d02d3595ef8a27dd8ccc870d692749" target="_top" xlink:title=" ">
<polygon fill="white" stroke="#666666" points="1005.5,-457 880.5,-457 880.5,-427 1005.5,-427 1005.5,-457"/>
<text text-anchor="start" x="888.5" y="-445" font-family="Helvetica,sans-Serif" font-size="10.00">graph_visuals._format</text>
<text text-anchor="middle" x="943" y="-434" font-family="Helvetica,sans-Serif" font-size="10.00">_trace_name</text>
</a>
</g>
</g>
<!-- Node10&#45;&gt;Node13 -->
<g id="edge16_Node000010_Node000013" class="edge">
<title>Node10&#45;&gt;Node13</title>
<g id="a_edge16_Node000010_Node000013"><a xlink:title=" ">
<path fill="none" stroke="#63b8ff" d="M809.16,-404.05C830.99,-410.28 856.5,-417.57 879.29,-424.08"/>
<polygon fill="#63b8ff" stroke="#63b8ff" points="878.63,-427.53 889.21,-426.92 880.55,-420.8 878.63,-427.53"/>
</a>
</g>
</g>
<!-- Node14 -->
<g id="Node000014" class="node">
<title>Node14</title>
<g id="a_Node000014"><a xlink:href="namespacegraph__visuals.html#a553f122c8516e6a12814996a7cd1a13e" target="_top" xlink:title=" ">
<polygon fill="white" stroke="#666666" points="997,-409 889,-409 889,-379 997,-379 997,-409"/>
<text text-anchor="start" x="897" y="-397" font-family="Helvetica,sans-Serif" font-size="10.00">graph_visuals._get</text>
<text text-anchor="middle" x="943" y="-386" font-family="Helvetica,sans-Serif" font-size="10.00">_line_style</text>
</a>
</g>
</g>
<!-- Node10&#45;&gt;Node14 -->
<g id="edge17_Node000010_Node000014" class="edge">
<title>Node10&#45;&gt;Node14</title>
<g id="a_edge17_Node000010_Node000014"><a xlink:title=" ">
<path fill="none" stroke="#63b8ff" d="M817.24,-390.64C836.95,-391.17 858.85,-391.76 878.73,-392.29"/>
<polygon fill="#63b8ff" stroke="#63b8ff" points="878.83,-395.8 888.92,-392.57 879.02,-388.8 878.83,-395.8"/>
</a>
</g>
</g>
<!-- Node15 -->
<g id="Node000015" class="node">
<title>Node15</title>
<g id="a_Node000015"><a xlink:href="namespacegraph__visuals.html#af2a815c0bdaadc2b6aa339387795f4bb" target="_top" xlink:title=" ">
<polygon fill="white" stroke="#666666" points="1190,-278 1060,-278 1060,-248 1190,-248 1190,-278"/>
<text text-anchor="start" x="1068" y="-266" font-family="Helvetica,sans-Serif" font-size="10.00">graph_visuals._is_valid</text>
<text text-anchor="middle" x="1125" y="-255" font-family="Helvetica,sans-Serif" font-size="10.00">_color_format</text>
</a>
</g>
</g>
<!-- Node14&#45;&gt;Node15 -->
<g id="edge18_Node000014_Node000015" class="edge">
<title>Node14&#45;&gt;Node15</title>
<g id="a_edge18_Node000014_Node000015"><a xlink:title=" ">
<path fill="none" stroke="#63b8ff" d="M997.35,-382.3C1006.61,-379.08 1015.87,-375.05 1024,-370 1059.21,-348.15 1090.12,-310.75 1107.93,-286.46"/>
<polygon fill="#63b8ff" stroke="#63b8ff" points="1110.91,-288.32 1113.89,-278.16 1105.22,-284.24 1110.91,-288.32"/>
</a>
</g>
</g>
<!-- Node19&#45;&gt;Node15 -->
<g id="edge23_Node000019_Node000015" class="edge">
<title>Node19&#45;&gt;Node15</title>
<g id="a_edge23_Node000019_Node000015"><a xlink:title=" ">
<path fill="none" stroke="#63b8ff" d="M789.76,-111.11C856.64,-141.5 1007.3,-209.97 1081.32,-243.61"/>
<polygon fill="#63b8ff" stroke="#63b8ff" points="1080.26,-246.97 1090.81,-247.92 1083.16,-240.6 1080.26,-246.97"/>
</a>
</g>
</g>
<!-- Node22&#45;&gt;Node16 -->
<g id="edge30_Node000022_Node000016" class="edge">
<title>Node22&#45;&gt;Node16</title>
<g id="a_edge30_Node000022_Node000016"><a xlink:title=" ">
<path fill="none" stroke="#63b8ff" d="M279.8,-133.88C287.86,-130.98 296.2,-127.94 304,-125 385.51,-94.28 479.57,-56.23 534.17,-33.88"/>
<polygon fill="#63b8ff" stroke="#63b8ff" points="535.64,-37.06 543.56,-30.03 532.98,-30.58 535.64,-37.06"/>
</a>
</g>
</g>
<!-- Node23 -->
<g id="Node000023" class="node">
<title>Node23</title>
<g id="a_Node000023"><a xlink:href="namespacegraph__visuals.html#ae50fff61e59d784869707c6cb7cf5554" target="_top" xlink:title=" ">
<polygon fill="white" stroke="#666666" points="477,-164 340,-164 340,-134 477,-134 477,-164"/>
<text text-anchor="start" x="348" y="-152" font-family="Helvetica,sans-Serif" font-size="10.00">graph_visuals._calculate</text>
<text text-anchor="middle" x="408.5" y="-141" font-family="Helvetica,sans-Serif" font-size="10.00">_visible_relationships</text>
</a>
</g>
</g>
<!-- Node22&#45;&gt;Node23 -->
<g id="edge29_Node000022_Node000023" class="edge">
<title>Node22&#45;&gt;Node23</title>
<g id="a_edge29_Node000022_Node000023"><a xlink:title=" ">
<path fill="none" stroke="#63b8ff" d="M300.66,-149C310.16,-149 320.03,-149 329.76,-149"/>
<polygon fill="#63b8ff" stroke="#63b8ff" points="329.84,-152.5 339.84,-149 329.84,-145.5 329.84,-152.5"/>
</a>
</g>
</g>
</g>
</svg>
