<?xml version="1.0" encoding="UTF-8" standalone="no"?>
<!DOCTYPE svg PUBLIC "-//W3C//DTD SVG 1.1//EN"
 "http://www.w3.org/Graphics/SVG/1.1/DTD/svg11.dtd">
<!-- Generated by graphviz version 2.43.0 (0)
 -->
<!-- Title: api.main.get_asset_relationships Pages: 1 -->
<svg width="576pt" height="81pt"
 viewBox="0.00 0.00 576.00 81.00" xmlns="http://www.w3.org/2000/svg" xmlns:xlink="http://www.w3.org/1999/xlink">
<g id="graph0" class="graph" transform="scale(1 1) rotate(0) translate(4 77)">
<title>api.main.get_asset_relationships</title>
<!-- Node1 -->
<g id="Node000001" class="node">
<title>Node1</title>
<g id="a_Node000001"><a xlink:title=" ">
<polygon fill="#999999" stroke="#666666" points="110,-51 0,-51 0,-21 110,-21 110,-51"/>
<text text-anchor="start" x="8" y="-39" font-family="Helvetica,sans-Serif" font-size="10.00">api.main.get_asset</text>
<text text-anchor="middle" x="55" y="-28" font-family="Helvetica,sans-Serif" font-size="10.00">_relationships</text>
</a>
</g>
</g>
<!-- Node2 -->
<g id="Node000002" class="node">
<title>Node2</title>
<g id="a_Node000002"><a xlink:href="namespaceapi_1_1main.html#a36e38405e838cf6847b86f3ef103e262" target="_top" xlink:title=" ">
<polygon fill="white" stroke="#666666" points="260.5,-67.5 149.5,-67.5 149.5,-48.5 260.5,-48.5 260.5,-67.5"/>
<text text-anchor="middle" x="205" y="-55.5" font-family="Helvetica,sans-Serif" font-size="10.00">api.main.get_graph</text>
</a>
</g>
</g>
<!-- Node1&#45;&gt;Node2 -->
<g id="edge1_Node000001_Node000002" class="edge">
<title>Node1&#45;&gt;Node2</title>
<g id="a_edge1_Node000001_Node000002"><a xlink:title=" ">
<path fill="none" stroke="#63b8ff" d="M110.27,-44.07C119.7,-45.47 129.59,-46.94 139.26,-48.38"/>
<polygon fill="#63b8ff" stroke="#63b8ff" points="138.84,-51.85 149.24,-49.86 139.87,-44.93 138.84,-51.85"/>
</a>
</g>
</g>
<!-- Node5 -->
<g id="Node000005" class="node">
<title>Node5</title>
<g id="a_Node000005"><a xlink:href="namespaceapi_1_1main.html#ad5568f262e69dcaf5f1b3e3cd498c9a4" target="_top" xlink:title=" ">
<polygon fill="white" stroke="#666666" points="264,-30 146,-30 146,0 264,0 264,-30"/>
<text text-anchor="start" x="154" y="-18" font-family="Helvetica,sans-Serif" font-size="10.00">api.main.raise_asset</text>
<text text-anchor="middle" x="205" y="-7" font-family="Helvetica,sans-Serif" font-size="10.00">_not_found</text>
</a>
</g>
</g>
<!-- Node1&#45;&gt;Node5 -->
<g id="edge4_Node000001_Node000005" class="edge">
<title>Node1&#45;&gt;Node5</title>
<g id="a_edge4_Node000001_Node000005"><a xlink:title=" ">
<path fill="none" stroke="#63b8ff" d="M110.27,-28.3C118.57,-27.12 127.23,-25.89 135.78,-24.68"/>
<polygon fill="#63b8ff" stroke="#63b8ff" points="136.34,-28.14 145.75,-23.26 135.36,-21.2 136.34,-28.14"/>
</a>
</g>
</g>
<!-- Node3 -->
<g id="Node000003" class="node">
<title>Node3</title>
<g id="a_Node000003"><a xlink:href="namespaceapi_1_1main.html#ae01417ef61271933f6fa186011018274" target="_top" xlink:title=" ">
<polygon fill="white" stroke="#666666" points="410,-73 300,-73 300,-43 410,-43 410,-73"/>
<text text-anchor="start" x="308" y="-61" font-family="Helvetica,sans-Serif" font-size="10.00">api.main._initialize</text>
<text text-anchor="middle" x="355" y="-50" font-family="Helvetica,sans-Serif" font-size="10.00">_graph</text>
</a>
</g>
</g>
<!-- Node2&#45;&gt;Node3 -->
<g id="edge2_Node000002_Node000003" class="edge">
<title>Node2&#45;&gt;Node3</title>
<g id="a_edge2_Node000002_Node000003"><a xlink:title=" ">
<path fill="none" stroke="#63b8ff" d="M260.69,-58C270,-58 279.75,-58 289.29,-58"/>
<polygon fill="#63b8ff" stroke="#63b8ff" points="289.54,-61.5 299.54,-58 289.54,-54.5 289.54,-61.5"/>
</a>
</g>
</g>
<!-- Node4 -->
<g id="Node000004" class="node">
<title>Node4</title>
<g id="a_Node000004"><a xlink:href="namespaceapi_1_1main.html#ac3285016e88cfbffb67e774549fc3a33" target="_top" xlink:title=" ">
<polygon fill="white" stroke="#666666" points="568,-73 446,-73 446,-43 568,-43 568,-73"/>
<text text-anchor="start" x="454" y="-61" font-family="Helvetica,sans-Serif" font-size="10.00">api.main._should_use</text>
<text text-anchor="middle" x="507" y="-50" font-family="Helvetica,sans-Serif" font-size="10.00">_real_data_fetcher</text>
</a>
</g>
</g>
<!-- Node3&#45;&gt;Node4 -->
<g id="edge3_Node000003_Node000004" class="edge">
<title>Node3&#45;&gt;Node4</title>
<g id="a_edge3_Node000003_Node000004"><a xlink:title=" ">
<path fill="none" stroke="#63b8ff" d="M410.15,-58C418.48,-58 427.17,-58 435.78,-58"/>
<polygon fill="#63b8ff" stroke="#63b8ff" points="435.83,-61.5 445.83,-58 435.83,-54.5 435.83,-61.5"/>
</a>
</g>
</g>
</g>
</svg>
