<?xml version="1.0" encoding="UTF-8" standalone="no"?>
<!DOCTYPE svg PUBLIC "-//W3C//DTD SVG 1.1//EN"
 "http://www.w3.org/Graphics/SVG/1.1/DTD/svg11.dtd">
<!-- Generated by graphviz version 2.43.0 (0)
 -->
<!-- Title: graph_visuals._create_directional_arrows Pages: 1 -->
<svg width="625pt" height="140pt"
 viewBox="0.00 0.00 625.00 139.50" xmlns="http://www.w3.org/2000/svg" xmlns:xlink="http://www.w3.org/1999/xlink">
<g id="graph0" class="graph" transform="scale(1 1) rotate(0) translate(4 135.5)">
<title>graph_visuals._create_directional_arrows</title>
<!-- Node1 -->
<g id="Node000001" class="node">
<title>Node1</title>
<g id="a_Node000001"><a xlink:title=" ">
<polygon fill="#999999" stroke="#666666" points="617,-54 494,-54 494,-24 617,-24 617,-54"/>
<text text-anchor="start" x="502" y="-42" font-family="Helvetica,sans-Serif" font-size="10.00">graph_visuals._create</text>
<text text-anchor="middle" x="555.5" y="-31" font-family="Helvetica,sans-Serif" font-size="10.00">_directional_arrows</text>
</a>
</g>
</g>
<!-- Node2 -->
<g id="Node000002" class="node">
<title>Node2</title>
<g id="a_Node000002"><a xlink:href="namespacegraph__visuals.html#adf5165349a616f411dfb4613adf79286" target="_top" xlink:title=" ">
<polygon fill="white" stroke="#666666" points="448,-131.5 336,-131.5 336,-90.5 448,-90.5 448,-131.5"/>
<text text-anchor="start" x="344" y="-119.5" font-family="Helvetica,sans-Serif" font-size="10.00">graph_visuals._add</text>
<text text-anchor="start" x="344" y="-108.5" font-family="Helvetica,sans-Serif" font-size="10.00">_directional_arrows</text>
<text text-anchor="middle" x="392" y="-97.5" font-family="Helvetica,sans-Serif" font-size="10.00">_to_figure</text>
</a>
</g>
</g>
<!-- Node1&#45;&gt;Node2 -->
<g id="edge1_Node000001_Node000002" class="edge">
<title>Node1&#45;&gt;Node2</title>
<g id="a_edge1_Node000001_Node000002"><a xlink:title=" ">
<path fill="none" stroke="#63b8ff" d="M511.41,-58.21C489.08,-68.17 461.81,-80.32 439.06,-90.46"/>
<polygon fill="#63b8ff" stroke="#63b8ff" points="512.94,-61.36 520.64,-54.09 510.09,-54.97 512.94,-61.36"/>
</a>
</g>
</g>
<!-- Node3 -->
<g id="Node000003" class="node">
<title>Node3</title>
<g id="a_Node000003"><a xlink:href="namespacegraph__visuals.html#a870c69decb3e9db3ed97f279c6121748" target="_top" xlink:title=" ">
<polygon fill="white" stroke="#666666" points="458,-54 326,-54 326,-24 458,-24 458,-54"/>
<text text-anchor="start" x="334" y="-42" font-family="Helvetica,sans-Serif" font-size="10.00">graph_visuals._validate</text>
<text text-anchor="middle" x="392" y="-31" font-family="Helvetica,sans-Serif" font-size="10.00">_visualization_data</text>
</a>
</g>
</g>
<!-- Node1&#45;&gt;Node3 -->
<g id="edge2_Node000001_Node000003" class="edge">
<title>Node1&#45;&gt;Node3</title>
<g id="a_edge2_Node000001_Node000003"><a xlink:title=" ">
<path fill="none" stroke="#63b8ff" d="M483.69,-39C475.23,-39 466.63,-39 458.26,-39"/>
<polygon fill="#63b8ff" stroke="#63b8ff" points="483.9,-42.5 493.9,-39 483.9,-35.5 483.9,-42.5"/>
</a>
</g>
</g>
<!-- Node5 -->
<g id="Node000005" class="node">
<title>Node5</title>
<g id="a_Node000005"><a xlink:href="namespacegraph__visuals.html#a828bdcb4c7a34d98e2a555a154c74576" target="_top" xlink:title=" ">
<polygon fill="white" stroke="#666666" points="131,-30 0,-30 0,0 131,0 131,-30"/>
<text text-anchor="start" x="8" y="-18" font-family="Helvetica,sans-Serif" font-size="10.00">graph_visuals.visualize</text>
<text text-anchor="middle" x="65.5" y="-7" font-family="Helvetica,sans-Serif" font-size="10.00">_3d_graph_with_filters</text>
</a>
</g>
</g>
<!-- Node1&#45;&gt;Node5 -->
<g id="edge8_Node000001_Node000005" class="edge">
<title>Node1&#45;&gt;Node5</title>
<g id="a_edge8_Node000001_Node000005"><a xlink:title=" ">
<path fill="none" stroke="#63b8ff" d="M494.05,-21.58C482.19,-18.84 469.78,-16.44 458,-15 343.65,-0.99 209.09,-5.53 131.22,-10.2"/>
<polygon fill="#63b8ff" stroke="#63b8ff" points="493.31,-25 503.85,-23.94 494.95,-18.2 493.31,-25"/>
</a>
</g>
</g>
<!-- Node3&#45;&gt;Node3 -->
<g id="edge6_Node000003_Node000003" class="edge">
<title>Node3&#45;&gt;Node3</title>
<g id="a_edge6_Node000003_Node000003"><a xlink:title=" ">
<path fill="none" stroke="#63b8ff" d="M420.36,-64.6C416.48,-68.97 407.03,-72 392,-72 366.69,-72 357.2,-63.41 363.52,-54.28"/>
<polygon fill="#63b8ff" stroke="#63b8ff" points="423.86,-64.32 420.48,-54.28 416.86,-64.23 423.86,-64.32"/>
</a>
</g>
</g>
<!-- Node4 -->
<g id="Node000004" class="node">
<title>Node4</title>
<g id="a_Node000004"><a xlink:href="namespacegraph__visuals.html#a345ff70d680ece5d645ee7c9501d2a4a" target="_top" xlink:title=" ">
<polygon fill="white" stroke="#666666" points="290,-73 167,-73 167,-43 290,-43 290,-73"/>
<text text-anchor="start" x="175" y="-61" font-family="Helvetica,sans-Serif" font-size="10.00">graph_visuals._create</text>
<text text-anchor="middle" x="228.5" y="-50" font-family="Helvetica,sans-Serif" font-size="10.00">_node_trace</text>
</a>
</g>
</g>
<!-- Node3&#45;&gt;Node4 -->
<g id="edge3_Node000003_Node000004" class="edge">
<title>Node3&#45;&gt;Node4</title>
<g id="a_edge3_Node000003_Node000004"><a xlink:title=" ">
<path fill="none" stroke="#63b8ff" d="M315.72,-41.12C307.1,-42.09 298.4,-43.17 290,-44.32"/>
<polygon fill="#63b8ff" stroke="#63b8ff" points="316.21,-44.59 325.78,-40.04 315.46,-37.63 316.21,-44.59"/>
</a>
</g>
</g>
<!-- Node3&#45;&gt;Node5 -->
<g id="edge7_Node000003_Node000005" class="edge">
<title>Node3&#45;&gt;Node5</title>
<g id="a_edge7_Node000003_Node000005"><a xlink:title=" ">
<path fill="none" stroke="#63b8ff" d="M315.52,-33.42C259.62,-29.28 184.25,-23.71 131.12,-19.78"/>
<polygon fill="#63b8ff" stroke="#63b8ff" points="315.49,-36.92 325.72,-34.17 316.01,-29.94 315.49,-36.92"/>
</a>
</g>
</g>
<!-- Node4&#45;&gt;Node3 -->
<g id="edge4_Node000004_Node000003" class="edge">
<title>Node4&#45;&gt;Node3</title>
<g id="a_edge4_Node000004_Node000003"><a xlink:title=" ">
<path fill="none" stroke="#63b8ff" d="M299.97,-56.41C308.55,-55.48 317.28,-54.43 325.78,-53.31"/>
<polygon fill="#63b8ff" stroke="#63b8ff" points="299.59,-52.93 290,-57.44 300.31,-59.89 299.59,-52.93"/>
</a>
</g>
</g>
<!-- Node4&#45;&gt;Node5 -->
<g id="edge5_Node000004_Node000005" class="edge">
<title>Node4&#45;&gt;Node5</title>
<g id="a_edge5_Node000004_Node000005"><a xlink:title=" ">
<path fill="none" stroke="#63b8ff" d="M161.49,-40.37C148.64,-36.94 135.28,-33.37 122.78,-30.03"/>
<polygon fill="#63b8ff" stroke="#63b8ff" points="160.63,-43.76 171.19,-42.96 162.43,-37 160.63,-43.76"/>
</a>
</g>
</g>
</g>
</svg>
