<?xml version="1.0" encoding="UTF-8" standalone="no"?>
<!DOCTYPE svg PUBLIC "-//W3C//DTD SVG 1.1//EN"
 "http://www.w3.org/Graphics/SVG/1.1/DTD/svg11.dtd">
<!-- Generated by graphviz version 2.43.0 (0)
 -->
<!-- Title: graph_visuals._create_directional_arrows Pages: 1 -->
<!--zoomable 140 -->

<svg id="main" version="1.1" xmlns="http://www.w3.org/2000/svg" xmlns:xlink="http://www.w3.org/1999/xlink" xml:space="preserve" onload="init(evt)">

<style type="text/css"><![CDATA[
.node, .edge {opacity: 0.7;}
.node.selected, .edge.selected {opacity: 1;}
.edge:hover path { stroke: red; }
.edge:hover polygon { stroke: red; fill: red; }
]]></style>

<defs>
  <circle id="rim" cx="0" cy="0" r="7"/>
  <circle id="rim2" cx="0" cy="0" r="3.5"/>
  <g id="zoomPlus">
    <use xlink:href="#rim" fill="#404040"><set attributeName="fill" to="#808080" begin="zoomplus.mouseover" end="zoomplus.mouseout"/></use>
    <path d="M-4,0h8M0,-4v8" fill="none" stroke="white" stroke-width="1.5" pointer-events="none"/>
  </g>
  <g id="zoomMin">
    <use xlink:href="#rim" fill="#404040"><set attributeName="fill" to="#808080" begin="zoomminus.mouseover" end="zoomminus.mouseout"/></use>
    <path d="M-4,0h8" fill="none" stroke="white" stroke-width="1.5" pointer-events="none"/>
  </g>
  <g id="arrowUp" transform="translate(30 24)">
    <use xlink:href="#rim"/>
    <path pointer-events="none" fill="none" stroke="white" stroke-width="1.5" d="M0,-3.0v7 M-2.5,-0.5L0,-3.0L2.5,-0.5"/>
  </g>
  <g id="arrowRight" transform="rotate(90) translate(36 -43)">
    <use xlink:href="#rim"/>
    <path pointer-events="none" fill="none" stroke="white" stroke-width="1.5" d="M0,-3.0v7 M-2.5,-0.5L0,-3.0L2.5,-0.5"/>
  </g>
  <g id="arrowDown" transform="rotate(180) translate(-30 -48)">
    <use xlink:href="#rim"/>
    <path pointer-events="none" fill="none" stroke="white" stroke-width="1.5" d="M0,-3.0v7 M-2.5,-0.5L0,-3.0L2.5,-0.5"/>
  </g>
  <g id="arrowLeft" transform="rotate(270) translate(-36 17)">
    <use xlink:href="#rim"/>
    <path pointer-events="none" fill="none" stroke="white" stroke-width="1.5" d="M0,-3.0v7 M-2.5,-0.5L0,-3.0L2.5,-0.5"/>
  </g>
  <g id="resetDef">
    <use xlink:href="#rim2" fill="#404040"><set attributeName="fill" to="#808080" begin="reset.mouseover" end="reset.mouseout"/></use>
  </g>
</defs>
<script type="application/ecmascript">
var viewWidth = 625;
var viewHeight = 140;
var sectionId = 'dynsection-10';
</script>
<script type="application/ecmascript" xlink:href="svg.min.js"/>
<svg id="graph" class="graph">
<g id="viewport">
<title>graph_visuals._create_directional_arrows</title>
<!-- Node1 -->
<g id="Node000001" class="node">
<title>Node1</title>
<g id="a_Node000001"><a xlink:title=" ">
<polygon fill="#999999" stroke="#666666" points="617,-54 494,-54 494,-24 617,-24 617,-54"/>
<text text-anchor="start" x="502" y="-42" font-family="Helvetica,sans-Serif" font-size="10.00">graph_visuals._create</text>
<text text-anchor="middle" x="555.5" y="-31" font-family="Helvetica,sans-Serif" font-size="10.00">_directional_arrows</text>
</a>
</g>
</g>
<!-- Node2 -->
<g id="Node000002" class="node">
<title>Node2</title>
<g id="a_Node000002"><a xlink:href="namespacegraph__visuals.html#adf5165349a616f411dfb4613adf79286" target="_top" xlink:title=" ">
<polygon fill="white" stroke="#666666" points="448,-131.5 336,-131.5 336,-90.5 448,-90.5 448,-131.5"/>
<text text-anchor="start" x="344" y="-119.5" font-family="Helvetica,sans-Serif" font-size="10.00">graph_visuals._add</text>
<text text-anchor="start" x="344" y="-108.5" font-family="Helvetica,sans-Serif" font-size="10.00">_directional_arrows</text>
<text text-anchor="middle" x="392" y="-97.5" font-family="Helvetica,sans-Serif" font-size="10.00">_to_figure</text>
</a>
</g>
</g>
<!-- Node1&#45;&gt;Node2 -->
<g id="edge1_Node000001_Node000002" class="edge">
<title>Node1&#45;&gt;Node2</title>
<g id="a_edge1_Node000001_Node000002"><a xlink:title=" ">
<path fill="none" stroke="#63b8ff" d="M511.41,-58.21C489.08,-68.17 461.81,-80.32 439.06,-90.46"/>
<polygon fill="#63b8ff" stroke="#63b8ff" points="512.94,-61.36 520.64,-54.09 510.09,-54.97 512.94,-61.36"/>
</a>
</g>
</g>
<!-- Node3 -->
<g id="Node000003" class="node">
<title>Node3</title>
<g id="a_Node000003"><a xlink:href="namespacegraph__visuals.html#a870c69decb3e9db3ed97f279c6121748" target="_top" xlink:title=" ">
<polygon fill="white" stroke="#666666" points="458,-54 326,-54 326,-24 458,-24 458,-54"/>
<text text-anchor="start" x="334" y="-42" font-family="Helvetica,sans-Serif" font-size="10.00">graph_visuals._validate</text>
<text text-anchor="middle" x="392" y="-31" font-family="Helvetica,sans-Serif" font-size="10.00">_visualization_data</text>
</a>
</g>
</g>
<!-- Node1&#45;&gt;Node3 -->
<g id="edge2_Node000001_Node000003" class="edge">
<title>Node1&#45;&gt;Node3</title>
<g id="a_edge2_Node000001_Node000003"><a xlink:title=" ">
<path fill="none" stroke="#63b8ff" d="M483.69,-39C475.23,-39 466.63,-39 458.26,-39"/>
<polygon fill="#63b8ff" stroke="#63b8ff" points="483.9,-42.5 493.9,-39 483.9,-35.5 483.9,-42.5"/>
</a>
</g>
</g>
<!-- Node5 -->
<g id="Node000005" class="node">
<title>Node5</title>
<g id="a_Node000005"><a xlink:href="namespacegraph__visuals.html#a828bdcb4c7a34d98e2a555a154c74576" target="_top" xlink:title=" ">
<polygon fill="white" stroke="#666666" points="131,-30 0,-30 0,0 131,0 131,-30"/>
<text text-anchor="start" x="8" y="-18" font-family="Helvetica,sans-Serif" font-size="10.00">graph_visuals.visualize</text>
<text text-anchor="middle" x="65.5" y="-7" font-family="Helvetica,sans-Serif" font-size="10.00">_3d_graph_with_filters</text>
</a>
</g>
</g>
<!-- Node1&#45;&gt;Node5 -->
<g id="edge8_Node000001_Node000005" class="edge">
<title>Node1&#45;&gt;Node5</title>
<g id="a_edge8_Node000001_Node000005"><a xlink:title=" ">
<path fill="none" stroke="#63b8ff" d="M494.05,-21.58C482.19,-18.84 469.78,-16.44 458,-15 343.65,-0.99 209.09,-5.53 131.22,-10.2"/>
<polygon fill="#63b8ff" stroke="#63b8ff" points="493.31,-25 503.85,-23.94 494.95,-18.2 493.31,-25"/>
</a>
</g>
</g>
<!-- Node3&#45;&gt;Node3 -->
<g id="edge6_Node000003_Node000003" class="edge">
<title>Node3&#45;&gt;Node3</title>
<g id="a_edge6_Node000003_Node000003"><a xlink:title=" ">
<path fill="none" stroke="#63b8ff" d="M420.36,-64.6C416.48,-68.97 407.03,-72 392,-72 366.69,-72 357.2,-63.41 363.52,-54.28"/>
<polygon fill="#63b8ff" stroke="#63b8ff" points="423.86,-64.32 420.48,-54.28 416.86,-64.23 423.86,-64.32"/>
</a>
</g>
</g>
<!-- Node4 -->
<g id="Node000004" class="node">
<title>Node4</title>
<g id="a_Node000004"><a xlink:href="namespacegraph__visuals.html#a345ff70d680ece5d645ee7c9501d2a4a" target="_top" xlink:title=" ">
<polygon fill="white" stroke="#666666" points="290,-73 167,-73 167,-43 290,-43 290,-73"/>
<text text-anchor="start" x="175" y="-61" font-family="Helvetica,sans-Serif" font-size="10.00">graph_visuals._create</text>
<text text-anchor="middle" x="228.5" y="-50" font-family="Helvetica,sans-Serif" font-size="10.00">_node_trace</text>
</a>
</g>
</g>
<!-- Node3&#45;&gt;Node4 -->
<g id="edge3_Node000003_Node000004" class="edge">
<title>Node3&#45;&gt;Node4</title>
<g id="a_edge3_Node000003_Node000004"><a xlink:title=" ">
<path fill="none" stroke="#63b8ff" d="M315.72,-41.12C307.1,-42.09 298.4,-43.17 290,-44.32"/>
<polygon fill="#63b8ff" stroke="#63b8ff" points="316.21,-44.59 325.78,-40.04 315.46,-37.63 316.21,-44.59"/>
</a>
</g>
</g>
<!-- Node3&#45;&gt;Node5 -->
<g id="edge7_Node000003_Node000005" class="edge">
<title>Node3&#45;&gt;Node5</title>
<g id="a_edge7_Node000003_Node000005"><a xlink:title=" ">
<path fill="none" stroke="#63b8ff" d="M315.52,-33.42C259.62,-29.28 184.25,-23.71 131.12,-19.78"/>
<polygon fill="#63b8ff" stroke="#63b8ff" points="315.49,-36.92 325.72,-34.17 316.01,-29.94 315.49,-36.92"/>
</a>
</g>
</g>
<!-- Node4&#45;&gt;Node3 -->
<g id="edge4_Node000004_Node000003" class="edge">
<title>Node4&#45;&gt;Node3</title>
<g id="a_edge4_Node000004_Node000003"><a xlink:title=" ">
<path fill="none" stroke="#63b8ff" d="M299.97,-56.41C308.55,-55.48 317.28,-54.43 325.78,-53.31"/>
<polygon fill="#63b8ff" stroke="#63b8ff" points="299.59,-52.93 290,-57.44 300.31,-59.89 299.59,-52.93"/>
</a>
</g>
</g>
<!-- Node4&#45;&gt;Node5 -->
<g id="edge5_Node000004_Node000005" class="edge">
<title>Node4&#45;&gt;Node5</title>
<g id="a_edge5_Node000004_Node000005"><a xlink:title=" ">
<path fill="none" stroke="#63b8ff" d="M161.49,-40.37C148.64,-36.94 135.28,-33.37 122.78,-30.03"/>
<polygon fill="#63b8ff" stroke="#63b8ff" points="160.63,-43.76 171.19,-42.96 162.43,-37 160.63,-43.76"/>
</a>
</g>
</g>
</g>
</svg>

<g id="navigator" transform="translate(0 0)" fill="#404254">
  <rect fill="#f2f5e9" fill-opacity="0.5" stroke="#606060" stroke-width=".5" x="0" y="0" width="60" height="60"/>
  <use id="zoomplus" xlink:href="#zoomPlus" x="17" y="9" onmousedown="handleZoom(evt,'in')"/>
  <use id="zoomminus" xlink:href="#zoomMin" x="42" y="9" onmousedown="handleZoom(evt,'out')"/>
  <use id="reset" xlink:href="#resetDef" x="30" y="36" onmousedown="handleReset()"/>
   <use id="arrowup" xlink:href="#arrowUp" x="0" y="0" onmousedown="handlePan(0,-1)"/>
  <use id="arrowright" xlink:href="#arrowRight" x="0" y="0" onmousedown="handlePan(1,0)"/>
  <use id="arrowdown" xlink:href="#arrowDown" x="0" y="0" onmousedown="handlePan(0,1)"/>
  <use id="arrowleft" xlink:href="#arrowLeft" x="0" y="0" onmousedown="handlePan(-1,0)"/>
</g>
<svg viewBox="0 0 15 15" width="100%" height="30px" preserveAspectRatio="xMaxYMin meet">
 <g id="arrow_out" transform="scale(0.3 0.3)">
  <a xlink:href="namespacegraph__visuals_a41e2aa4282d406d57e0c1b69abc42480_icgraph_org.svg" target="_base">
   <rect id="button" ry="5" rx="5" y="6" x="6" height="38" width="38"
        fill="#f2f5e9" fill-opacity="0.5" stroke="#606060" stroke-width="1.0"/>
   <path id="arrow"
     d="M 11.500037,31.436501 C 11.940474,20.09759 22.043105,11.32322 32.158766,21.979434 L 37.068811,17.246167 C 37.068811,17.246167 37.088388,32 37.088388,32 L 22.160133,31.978069 C 22.160133,31.978069 26.997745,27.140456 26.997745,27.140456 C 18.528582,18.264221 13.291696,25.230495 11.500037,31.436501 z"
     style="fill:#404040;"/>
  </a>
 </g>
</svg>

<style type='text/css'>
<![CDATA[
[data-mouse-over-selected='false'] { opacity: 0.7; }
[data-mouse-over-selected='true']  { opacity: 1.0; }
]]>
</style>
<script type="application/ecmascript"><![CDATA[
document.addEventListener('DOMContentLoaded', (event) => {
  highlightEdges();
  highlightAdjacentNodes();
});
]]></script>
</svg>
