<?xml version="1.0" encoding="UTF-8" standalone="no"?>
<!DOCTYPE svg PUBLIC "-//W3C//DTD SVG 1.1//EN"
 "http://www.w3.org/Graphics/SVG/1.1/DTD/svg11.dtd">
<!-- Generated by graphviz version 2.43.0 (0)
 -->
<!-- Title: api.main.raise_asset_not_found Pages: 1 -->
<svg width="272pt" height="86pt"
 viewBox="0.00 0.00 272.00 86.00" xmlns="http://www.w3.org/2000/svg" xmlns:xlink="http://www.w3.org/1999/xlink">
<g id="graph0" class="graph" transform="scale(1 1) rotate(0) translate(4 82)">
<title>api.main.raise_asset_not_found</title>
<!-- Node1 -->
<g id="Node000001" class="node">
<title>Node1</title>
<g id="a_Node000001"><a xlink:title=" ">
<polygon fill="#999999" stroke="#666666" points="264,-54 146,-54 146,-24 264,-24 264,-54"/>
<text text-anchor="start" x="154" y="-42" font-family="Helvetica,sans-Serif" font-size="10.00">api.main.raise_asset</text>
<text text-anchor="middle" x="205" y="-31" font-family="Helvetica,sans-Serif" font-size="10.00">_not_found</text>
</a>
</g>
</g>
<!-- Node2 -->
<g id="Node000002" class="node">
<title>Node2</title>
<g id="a_Node000002"><a xlink:href="namespaceapi_1_1main.html#a03617816549accf6f06906b0fc784998" target="_top" xlink:title=" ">
<polygon fill="white" stroke="#666666" points="110,-78 0,-78 0,-48 110,-48 110,-78"/>
<text text-anchor="start" x="8" y="-66" font-family="Helvetica,sans-Serif" font-size="10.00">api.main.get_asset</text>
<text text-anchor="middle" x="55" y="-55" font-family="Helvetica,sans-Serif" font-size="10.00">_detail</text>
</a>
</g>
</g>
<!-- Node1&#45;&gt;Node2 -->
<g id="edge1_Node000001_Node000002" class="edge">
<title>Node1&#45;&gt;Node2</title>
<g id="a_edge1_Node000001_Node000002"><a xlink:title=" ">
<path fill="none" stroke="#63b8ff" d="M135.85,-50.05C127.19,-51.46 118.43,-52.88 110.04,-54.24"/>
<polygon fill="#63b8ff" stroke="#63b8ff" points="136.62,-53.47 145.93,-48.42 135.5,-46.56 136.62,-53.47"/>
</a>
</g>
</g>
<!-- Node3 -->
<g id="Node000003" class="node">
<title>Node3</title>
<g id="a_Node000003"><a xlink:href="namespaceapi_1_1main.html#a4dbc679bdd140b907036fee6a9ee8092" target="_top" xlink:title=" ">
<polygon fill="white" stroke="#666666" points="110,-30 0,-30 0,0 110,0 110,-30"/>
<text text-anchor="start" x="8" y="-18" font-family="Helvetica,sans-Serif" font-size="10.00">api.main.get_asset</text>
<text text-anchor="middle" x="55" y="-7" font-family="Helvetica,sans-Serif" font-size="10.00">_relationships</text>
</a>
</g>
</g>
<!-- Node1&#45;&gt;Node3 -->
<g id="edge2_Node000001_Node000003" class="edge">
<title>Node1&#45;&gt;Node3</title>
<g id="a_edge2_Node000001_Node000003"><a xlink:title=" ">
<path fill="none" stroke="#63b8ff" d="M135.85,-27.95C127.19,-26.54 118.43,-25.12 110.04,-23.76"/>
<polygon fill="#63b8ff" stroke="#63b8ff" points="135.5,-31.44 145.93,-29.58 136.62,-24.53 135.5,-31.44"/>
</a>
</g>
</g>
</g>
</svg>
