<?xml version="1.0" encoding="UTF-8" standalone="no"?>
<!DOCTYPE svg PUBLIC "-//W3C//DTD SVG 1.1//EN"
 "http://www.w3.org/Graphics/SVG/1.1/DTD/svg11.dtd">
<!-- Generated by graphviz version 2.43.0 (0)
 -->
<!-- Title: graph_2d_visuals.visualize_2d_graph Pages: 1 -->
<svg width="332pt" height="182pt"
 viewBox="0.00 0.00 332.00 182.00" xmlns="http://www.w3.org/2000/svg" xmlns:xlink="http://www.w3.org/1999/xlink">
<g id="graph0" class="graph" transform="scale(1 1) rotate(0) translate(4 178)">
<title>graph_2d_visuals.visualize_2d_graph</title>
<!-- Node1 -->
<g id="Node000001" class="node">
<title>Node1</title>
<g id="a_Node000001"><a xlink:title=" ">
<polygon fill="#999999" stroke="#666666" points="148,-102 0,-102 0,-72 148,-72 148,-102"/>
<text text-anchor="start" x="8" y="-90" font-family="Helvetica,sans-Serif" font-size="10.00">graph_2d_visuals.visualize</text>
<text text-anchor="middle" x="74" y="-79" font-family="Helvetica,sans-Serif" font-size="10.00">_2d_graph</text>
</a>
</g>
</g>
<!-- Node2 -->
<g id="Node000002" class="node">
<title>Node2</title>
<g id="a_Node000002"><a xlink:href="namespacegraph__2d__visuals.html#a3c29db703c3db7f334f690de7193b3d0" target="_top" xlink:title=" ">
<polygon fill="white" stroke="#666666" points="324,-174 184,-174 184,-144 324,-144 324,-174"/>
<text text-anchor="start" x="192" y="-162" font-family="Helvetica,sans-Serif" font-size="10.00">graph_2d_visuals._create</text>
<text text-anchor="middle" x="254" y="-151" font-family="Helvetica,sans-Serif" font-size="10.00">_2d_relationship_traces</text>
</a>
</g>
</g>
<!-- Node1&#45;&gt;Node2 -->
<g id="edge1_Node000001_Node000002" class="edge">
<title>Node1&#45;&gt;Node2</title>
<g id="a_edge1_Node000001_Node000002"><a xlink:title=" ">
<path fill="none" stroke="#63b8ff" d="M107.62,-102.18C129.13,-111.99 158.02,-124.78 184,-135 188.68,-136.84 193.56,-138.68 198.47,-140.49"/>
<polygon fill="#63b8ff" stroke="#63b8ff" points="197.3,-143.79 207.9,-143.9 199.68,-137.21 197.3,-143.79"/>
</a>
</g>
</g>
<!-- Node3 -->
<g id="Node000003" class="node">
<title>Node3</title>
<g id="a_Node000003"><a xlink:href="namespacegraph__2d__visuals.html#a64cb4091385f11e59bcd0eb6e77c8a3f" target="_top" xlink:title=" ">
<polygon fill="white" stroke="#666666" points="324,-126 184,-126 184,-96 324,-96 324,-126"/>
<text text-anchor="start" x="192" y="-114" font-family="Helvetica,sans-Serif" font-size="10.00">graph_2d_visuals._create</text>
<text text-anchor="middle" x="254" y="-103" font-family="Helvetica,sans-Serif" font-size="10.00">_circular_layout</text>
</a>
</g>
</g>
<!-- Node1&#45;&gt;Node3 -->
<g id="edge2_Node000001_Node000003" class="edge">
<title>Node1&#45;&gt;Node3</title>
<g id="a_edge2_Node000001_Node000003"><a xlink:title=" ">
<path fill="none" stroke="#63b8ff" d="M148.17,-96.87C156.65,-98.01 165.32,-99.18 173.87,-100.33"/>
<polygon fill="#63b8ff" stroke="#63b8ff" points="173.46,-103.81 183.84,-101.67 174.4,-96.87 173.46,-103.81"/>
</a>
</g>
</g>
<!-- Node4 -->
<g id="Node000004" class="node">
<title>Node4</title>
<g id="a_Node000004"><a xlink:href="namespacegraph__2d__visuals.html#aefa05cca95437bedcafcfcc83c332614" target="_top" xlink:title=" ">
<polygon fill="white" stroke="#666666" points="324,-78 184,-78 184,-48 324,-48 324,-78"/>
<text text-anchor="start" x="192" y="-66" font-family="Helvetica,sans-Serif" font-size="10.00">graph_2d_visuals._create</text>
<text text-anchor="middle" x="254" y="-55" font-family="Helvetica,sans-Serif" font-size="10.00">_grid_layout</text>
</a>
</g>
</g>
<!-- Node1&#45;&gt;Node4 -->
<g id="edge3_Node000001_Node000004" class="edge">
<title>Node1&#45;&gt;Node4</title>
<g id="a_edge3_Node000001_Node000004"><a xlink:title=" ">
<path fill="none" stroke="#63b8ff" d="M148.17,-77.13C156.65,-75.99 165.32,-74.82 173.87,-73.67"/>
<polygon fill="#63b8ff" stroke="#63b8ff" points="174.4,-77.13 183.84,-72.33 173.46,-70.19 174.4,-77.13"/>
</a>
</g>
</g>
<!-- Node5 -->
<g id="Node000005" class="node">
<title>Node5</title>
<g id="a_Node000005"><a xlink:href="namespacegraph__2d__visuals.html#a165b9e325029f53ba7ca0bf8605a40aa" target="_top" xlink:title=" ">
<polygon fill="white" stroke="#666666" points="324,-30 184,-30 184,0 324,0 324,-30"/>
<text text-anchor="start" x="192" y="-18" font-family="Helvetica,sans-Serif" font-size="10.00">graph_2d_visuals._create</text>
<text text-anchor="middle" x="254" y="-7" font-family="Helvetica,sans-Serif" font-size="10.00">_spring_layout_2d</text>
</a>
</g>
</g>
<!-- Node1&#45;&gt;Node5 -->
<g id="edge4_Node000001_Node000005" class="edge">
<title>Node1&#45;&gt;Node5</title>
<g id="a_edge4_Node000001_Node000005"><a xlink:title=" ">
<path fill="none" stroke="#63b8ff" d="M107.62,-71.82C129.13,-62.01 158.02,-49.22 184,-39 188.68,-37.16 193.56,-35.32 198.47,-33.51"/>
<polygon fill="#63b8ff" stroke="#63b8ff" points="199.68,-36.79 207.9,-30.1 197.3,-30.21 199.68,-36.79"/>
</a>
</g>
</g>
</g>
</svg>
