<?xml version="1.0" encoding="UTF-8" standalone="no"?>
<!DOCTYPE svg PUBLIC "-//W3C//DTD SVG 1.1//EN"
 "http://www.w3.org/Graphics/SVG/1.1/DTD/svg11.dtd">
<!-- Generated by graphviz version 2.43.0 (0)
 -->
<!-- Title: api.database.initialize_schema Pages: 1 -->
<svg width="841pt" height="52pt"
 viewBox="0.00 0.00 841.00 51.50" xmlns="http://www.w3.org/2000/svg" xmlns:xlink="http://www.w3.org/1999/xlink">
<g id="graph0" class="graph" transform="scale(1 1) rotate(0) translate(4 47.5)">
<title>api.database.initialize_schema</title>
<!-- Node1 -->
<g id="Node000001" class="node">
<title>Node1</title>
<g id="a_Node000001"><a xlink:title=" ">
<polygon fill="#999999" stroke="#666666" points="125,-30 0,-30 0,0 125,0 125,-30"/>
<text text-anchor="start" x="8" y="-18" font-family="Helvetica,sans-Serif" font-size="10.00">api.database.initialize</text>
<text text-anchor="middle" x="62.5" y="-7" font-family="Helvetica,sans-Serif" font-size="10.00">_schema</text>
</a>
</g>
</g>
<!-- Node2 -->
<g id="Node000002" class="node">
<title>Node2</title>
<g id="a_Node000002"><a xlink:href="namespaceapi_1_1database.html#ad11e531eb65a89c7f8f2b4a41dd57b7d" target="_top" xlink:title=" ">
<polygon fill="white" stroke="#666666" points="282,-24.5 161,-24.5 161,-5.5 282,-5.5 282,-24.5"/>
<text text-anchor="middle" x="221.5" y="-12.5" font-family="Helvetica,sans-Serif" font-size="10.00">api.database.execute</text>
</a>
</g>
</g>
<!-- Node1&#45;&gt;Node2 -->
<g id="edge1_Node000001_Node000002" class="edge">
<title>Node1&#45;&gt;Node2</title>
<g id="a_edge1_Node000001_Node000002"><a xlink:title=" ">
<path fill="none" stroke="#63b8ff" d="M125.1,-15C133.47,-15 142.1,-15 150.6,-15"/>
<polygon fill="#63b8ff" stroke="#63b8ff" points="150.88,-18.5 160.88,-15 150.88,-11.5 150.88,-18.5"/>
</a>
</g>
</g>
<!-- Node3 -->
<g id="Node000003" class="node">
<title>Node3</title>
<g id="a_Node000003"><a xlink:href="namespaceapi_1_1database.html#a6e6aa213df0f9401217ec521935184c5" target="_top" xlink:title=" ">
<polygon fill="white" stroke="#666666" points="475,-24.5 318,-24.5 318,-5.5 475,-5.5 475,-24.5"/>
<text text-anchor="middle" x="396.5" y="-12.5" font-family="Helvetica,sans-Serif" font-size="10.00">api.database.get_connection</text>
</a>
</g>
</g>
<!-- Node2&#45;&gt;Node3 -->
<g id="edge2_Node000002_Node000003" class="edge">
<title>Node2&#45;&gt;Node3</title>
<g id="a_edge2_Node000002_Node000003"><a xlink:title=" ">
<path fill="none" stroke="#63b8ff" d="M282.04,-15C290.33,-15 298.98,-15 307.66,-15"/>
<polygon fill="#63b8ff" stroke="#63b8ff" points="307.83,-18.5 317.83,-15 307.83,-11.5 307.83,-18.5"/>
</a>
</g>
</g>
<!-- Node4 -->
<g id="Node000004" class="node">
<title>Node4</title>
<g id="a_Node000004"><a xlink:href="namespaceapi_1_1database.html#add5bd37c7ccad20f0844cf169de107d2" target="_top" xlink:title=" ">
<polygon fill="white" stroke="#666666" points="637,-43.5 511,-43.5 511,-24.5 637,-24.5 637,-43.5"/>
<text text-anchor="middle" x="574" y="-31.5" font-family="Helvetica,sans-Serif" font-size="10.00">api.database._connect</text>
</a>
</g>
</g>
<!-- Node3&#45;&gt;Node4 -->
<g id="edge3_Node000003_Node000004" class="edge">
<title>Node3&#45;&gt;Node4</title>
<g id="a_edge3_Node000003_Node000004"><a xlink:title=" ">
<path fill="none" stroke="#63b8ff" d="M475.24,-23.42C483.72,-24.33 492.32,-25.27 500.72,-26.17"/>
<polygon fill="#63b8ff" stroke="#63b8ff" points="500.54,-29.68 510.85,-27.27 501.29,-22.72 500.54,-29.68"/>
</a>
</g>
</g>
<!-- Node5 -->
<g id="Node000005" class="node">
<title>Node5</title>
<g id="a_Node000005"><a xlink:href="namespaceapi_1_1database.html#a2b55d2e5b55f35ea1fdaefbf1fd87ac3" target="_top" xlink:title=" ">
<polygon fill="white" stroke="#666666" points="833,-24.5 673,-24.5 673,-5.5 833,-5.5 833,-24.5"/>
<text text-anchor="middle" x="753" y="-12.5" font-family="Helvetica,sans-Serif" font-size="10.00">api.database._is_memory_db</text>
</a>
</g>
</g>
<!-- Node3&#45;&gt;Node5 -->
<g id="edge5_Node000003_Node000005" class="edge">
<title>Node3&#45;&gt;Node5</title>
<g id="a_edge5_Node000003_Node000005"><a xlink:title=" ">
<path fill="none" stroke="#63b8ff" d="M475.3,-15C530.57,-15 604.93,-15 662.64,-15"/>
<polygon fill="#63b8ff" stroke="#63b8ff" points="662.85,-18.5 672.85,-15 662.85,-11.5 662.85,-18.5"/>
</a>
</g>
</g>
<!-- Node4&#45;&gt;Node5 -->
<g id="edge4_Node000004_Node000005" class="edge">
<title>Node4&#45;&gt;Node5</title>
<g id="a_edge4_Node000004_Node000005"><a xlink:title=" ">
<path fill="none" stroke="#63b8ff" d="M637.4,-27.3C645.63,-26.42 654.19,-25.5 662.75,-24.58"/>
<polygon fill="#63b8ff" stroke="#63b8ff" points="663.23,-28.05 672.8,-23.5 662.48,-21.09 663.23,-28.05"/>
</a>
</g>
</g>
</g>
</svg>
