<?xml version="1.0" encoding="UTF-8" standalone="no"?>
<!DOCTYPE svg PUBLIC "-//W3C//DTD SVG 1.1//EN"
 "http://www.w3.org/Graphics/SVG/1.1/DTD/svg11.dtd">
<!-- Generated by graphviz version 2.43.0 (0)
 -->
<!-- Title: api.database.fetch_one Pages: 1 -->
<svg width="690pt" height="46pt"
 viewBox="0.00 0.00 690.00 46.00" xmlns="http://www.w3.org/2000/svg" xmlns:xlink="http://www.w3.org/1999/xlink">
<g id="graph0" class="graph" transform="scale(1 1) rotate(0) translate(4 42)">
<title>api.database.fetch_one</title>
<!-- Node1 -->
<g id="Node000001" class="node">
<title>Node1</title>
<g id="a_Node000001"><a xlink:title=" ">
<polygon fill="#999999" stroke="#666666" points="131,-19 0,-19 0,0 131,0 131,-19"/>
<text text-anchor="middle" x="65.5" y="-7" font-family="Helvetica,sans-Serif" font-size="10.00">api.database.fetch_one</text>
</a>
</g>
</g>
<!-- Node2 -->
<g id="Node000002" class="node">
<title>Node2</title>
<g id="a_Node000002"><a xlink:href="namespaceapi_1_1database.html#a6e6aa213df0f9401217ec521935184c5" target="_top" xlink:title=" ">
<polygon fill="white" stroke="#666666" points="324,-19 167,-19 167,0 324,0 324,-19"/>
<text text-anchor="middle" x="245.5" y="-7" font-family="Helvetica,sans-Serif" font-size="10.00">api.database.get_connection</text>
</a>
</g>
</g>
<!-- Node1&#45;&gt;Node2 -->
<g id="edge1_Node000001_Node000002" class="edge">
<title>Node1&#45;&gt;Node2</title>
<g id="a_edge1_Node000001_Node000002"><a xlink:title=" ">
<path fill="none" stroke="#63b8ff" d="M131.01,-9.5C139.38,-9.5 148.06,-9.5 156.72,-9.5"/>
<polygon fill="#63b8ff" stroke="#63b8ff" points="156.87,-13 166.87,-9.5 156.87,-6 156.87,-13"/>
</a>
</g>
</g>
<!-- Node3 -->
<g id="Node000003" class="node">
<title>Node3</title>
<g id="a_Node000003"><a xlink:href="namespaceapi_1_1database.html#add5bd37c7ccad20f0844cf169de107d2" target="_top" xlink:title=" ">
<polygon fill="white" stroke="#666666" points="486,-38 360,-38 360,-19 486,-19 486,-38"/>
<text text-anchor="middle" x="423" y="-26" font-family="Helvetica,sans-Serif" font-size="10.00">api.database._connect</text>
</a>
</g>
</g>
<!-- Node2&#45;&gt;Node3 -->
<g id="edge2_Node000002_Node000003" class="edge">
<title>Node2&#45;&gt;Node3</title>
<g id="a_edge2_Node000002_Node000003"><a xlink:title=" ">
<path fill="none" stroke="#63b8ff" d="M324.24,-17.92C332.72,-18.83 341.32,-19.77 349.72,-20.67"/>
<polygon fill="#63b8ff" stroke="#63b8ff" points="349.54,-24.18 359.85,-21.77 350.29,-17.22 349.54,-24.18"/>
</a>
</g>
</g>
<!-- Node4 -->
<g id="Node000004" class="node">
<title>Node4</title>
<g id="a_Node000004"><a xlink:href="namespaceapi_1_1database.html#a2b55d2e5b55f35ea1fdaefbf1fd87ac3" target="_top" xlink:title=" ">
<polygon fill="white" stroke="#666666" points="682,-19 522,-19 522,0 682,0 682,-19"/>
<text text-anchor="middle" x="602" y="-7" font-family="Helvetica,sans-Serif" font-size="10.00">api.database._is_memory_db</text>
</a>
</g>
</g>
<!-- Node2&#45;&gt;Node4 -->
<g id="edge4_Node000002_Node000004" class="edge">
<title>Node2&#45;&gt;Node4</title>
<g id="a_edge4_Node000002_Node000004"><a xlink:title=" ">
<path fill="none" stroke="#63b8ff" d="M324.3,-9.5C379.57,-9.5 453.93,-9.5 511.64,-9.5"/>
<polygon fill="#63b8ff" stroke="#63b8ff" points="511.85,-13 521.85,-9.5 511.85,-6 511.85,-13"/>
</a>
</g>
</g>
<!-- Node3&#45;&gt;Node4 -->
<g id="edge3_Node000003_Node000004" class="edge">
<title>Node3&#45;&gt;Node4</title>
<g id="a_edge3_Node000003_Node000004"><a xlink:title=" ">
<path fill="none" stroke="#63b8ff" d="M486.4,-21.8C494.63,-20.92 503.19,-20 511.75,-19.08"/>
<polygon fill="#63b8ff" stroke="#63b8ff" points="512.23,-22.55 521.8,-18 511.48,-15.59 512.23,-22.55"/>
</a>
</g>
</g>
</g>
</svg>
