<?xml version="1.0" encoding="UTF-8" standalone="no"?>
<!DOCTYPE svg PUBLIC "-//W3C//DTD SVG 1.1//EN"
 "http://www.w3.org/Graphics/SVG/1.1/DTD/svg11.dtd">
<!-- Generated by graphviz version 2.43.0 (0)
 -->
<!-- Title: api.main.get_graph Pages: 1 -->
<svg width="319pt" height="198pt"
 viewBox="0.00 0.00 319.00 198.00" xmlns="http://www.w3.org/2000/svg" xmlns:xlink="http://www.w3.org/1999/xlink">

<svg id="main" version="1.1" xmlns="http://www.w3.org/2000/svg" xmlns:xlink="http://www.w3.org/1999/xlink" xml:space="preserve">

<style type="text/css"><![CDATA[
.node, .edge {opacity: 0.7;}
.node.selected, .edge.selected {opacity: 1;}
.edge:hover path { stroke: red; }
.edge:hover polygon { stroke: red; fill: red; }
]]></style>
<script type="application/ecmascript" xlink:href="svg.min.js"/>
<svg id="graph" class="graph">
<g id="graph0" class="graph" transform="scale(1 1) rotate(0) translate(4 194)">
<title>api.main.get_graph</title>
<!-- Node1 -->
<g id="Node000001" class="node">
<title>Node1</title>
<g id="a_Node000001"><a xlink:title=" ">
<polygon fill="#999999" stroke="#666666" points="311,-99 200,-99 200,-80 311,-80 311,-99"/>
<text text-anchor="middle" x="255.5" y="-87" font-family="Helvetica,sans-Serif" font-size="10.00">api.main.get_graph</text>
</a>
</g>
</g>
<!-- Node2 -->
<g id="Node000002" class="node">
<title>Node2</title>
<g id="a_Node000002"><a xlink:href="namespaceapi_1_1main.html#a82617850299efb7763024c5bfd919759" target="_top" xlink:title=" ">
<polygon fill="white" stroke="#666666" points="164,-190 0,-190 0,-171 164,-171 164,-190"/>
<text text-anchor="middle" x="82" y="-178" font-family="Helvetica,sans-Serif" font-size="10.00">api.main.get_all_relationships</text>
</a>
</g>
</g>
<!-- Node1&#45;&gt;Node2 -->
<g id="edge1_Node000001_Node000002" class="edge">
<title>Node1&#45;&gt;Node2</title>
<g id="a_edge1_Node000001_Node000002"><a xlink:title=" ">
<path fill="none" stroke="#63b8ff" d="M238.01,-106.42C220.98,-122.92 192.88,-147.51 164,-161.5 156.07,-165.34 147.32,-168.43 138.59,-170.91"/>
<polygon fill="#63b8ff" stroke="#63b8ff" points="240.8,-108.58 245.44,-99.05 235.87,-103.61 240.8,-108.58"/>
</a>
</g>
</g>
<!-- Node3 -->
<g id="Node000003" class="node">
<title>Node3</title>
<g id="a_Node000003"><a xlink:href="namespaceapi_1_1main.html#a03617816549accf6f06906b0fc784998" target="_top" xlink:title=" ">
<polygon fill="white" stroke="#666666" points="137,-152.5 27,-152.5 27,-122.5 137,-122.5 137,-152.5"/>
<text text-anchor="start" x="35" y="-140.5" font-family="Helvetica,sans-Serif" font-size="10.00">api.main.get_asset</text>
<text text-anchor="middle" x="82" y="-129.5" font-family="Helvetica,sans-Serif" font-size="10.00">_detail</text>
</a>
</g>
</g>
<!-- Node1&#45;&gt;Node3 -->
<g id="edge2_Node000001_Node000003" class="edge">
<title>Node1&#45;&gt;Node3</title>
<g id="a_edge2_Node000001_Node000003"><a xlink:title=" ">
<path fill="none" stroke="#63b8ff" d="M210.29,-101.87C187.87,-108.15 160.46,-115.82 136.82,-122.44"/>
<polygon fill="#63b8ff" stroke="#63b8ff" points="211.52,-105.16 220.21,-99.1 209.63,-98.42 211.52,-105.16"/>
</a>
</g>
</g>
<!-- Node4 -->
<g id="Node000004" class="node">
<title>Node4</title>
<g id="a_Node000004"><a xlink:href="namespaceapi_1_1main.html#a4dbc679bdd140b907036fee6a9ee8092" target="_top" xlink:title=" ">
<polygon fill="white" stroke="#666666" points="137,-104.5 27,-104.5 27,-74.5 137,-74.5 137,-104.5"/>
<text text-anchor="start" x="35" y="-92.5" font-family="Helvetica,sans-Serif" font-size="10.00">api.main.get_asset</text>
<text text-anchor="middle" x="82" y="-81.5" font-family="Helvetica,sans-Serif" font-size="10.00">_relationships</text>
</a>
</g>
</g>
<!-- Node1&#45;&gt;Node4 -->
<g id="edge3_Node000001_Node000004" class="edge">
<title>Node1&#45;&gt;Node4</title>
<g id="a_edge3_Node000001_Node000004"><a xlink:title=" ">
<path fill="none" stroke="#63b8ff" d="M189.74,-89.5C172.42,-89.5 153.89,-89.5 137.22,-89.5"/>
<polygon fill="#63b8ff" stroke="#63b8ff" points="189.76,-93 199.76,-89.5 189.76,-86 189.76,-93"/>
</a>
</g>
</g>
<!-- Node5 -->
<g id="Node000005" class="node">
<title>Node5</title>
<g id="a_Node000005"><a xlink:href="namespaceapi_1_1main.html#ae9e0206bc776c0671651abde39b897ed" target="_top" xlink:title=" ">
<polygon fill="white" stroke="#666666" points="139.5,-56 24.5,-56 24.5,-37 139.5,-37 139.5,-56"/>
<text text-anchor="middle" x="82" y="-44" font-family="Helvetica,sans-Serif" font-size="10.00">api.main.get_assets</text>
</a>
</g>
</g>
<!-- Node1&#45;&gt;Node5 -->
<g id="edge4_Node000001_Node000005" class="edge">
<title>Node1&#45;&gt;Node5</title>
<g id="a_edge4_Node000001_Node000005"><a xlink:title=" ">
<path fill="none" stroke="#63b8ff" d="M209.57,-77.31C195.05,-73.45 178.86,-69.21 164,-65.5 151.25,-62.31 137.33,-58.99 124.68,-56.03"/>
<polygon fill="#63b8ff" stroke="#63b8ff" points="208.75,-80.72 219.32,-79.92 210.56,-73.95 208.75,-80.72"/>
</a>
</g>
</g>
<!-- Node6 -->
<g id="Node000006" class="node">
<title>Node6</title>
<g id="a_Node000006"><a xlink:href="namespaceapi_1_1main.html#ae4595ce91fa5331777bf56cbd51f10a7" target="_top" xlink:title=" ">
<polygon fill="white" stroke="#666666" points="132.5,-19 31.5,-19 31.5,0 132.5,0 132.5,-19"/>
<text text-anchor="middle" x="82" y="-7" font-family="Helvetica,sans-Serif" font-size="10.00">api.main.lifespan</text>
</a>
</g>
</g>
<!-- Node1&#45;&gt;Node6 -->
<g id="edge5_Node000001_Node000006" class="edge">
<title>Node1&#45;&gt;Node6</title>
<g id="a_edge5_Node000001_Node000006"><a xlink:title=" ">
<path fill="none" stroke="#63b8ff" d="M235.04,-73.3C217.5,-59.48 190.47,-40.06 164,-28.5 154.2,-24.22 143.3,-20.83 132.76,-18.17"/>
<polygon fill="#63b8ff" stroke="#63b8ff" points="233.31,-76.4 243.3,-79.95 237.7,-70.95 233.31,-76.4"/>
</a>
</g>
</g>
</g>
</svg>
</svg>

<style type='text/css'>
<![CDATA[
[data-mouse-over-selected='false'] { opacity: 0.7; }
[data-mouse-over-selected='true']  { opacity: 1.0; }
]]>
</style>
<script type="application/ecmascript"><![CDATA[
document.addEventListener('DOMContentLoaded', (event) => {
  highlightEdges();
  highlightAdjacentNodes();
});
]]></script>
</svg>
