<?xml version="1.0" encoding="UTF-8" standalone="no"?>
<!DOCTYPE svg PUBLIC "-//W3C//DTD SVG 1.1//EN"
 "http://www.w3.org/Graphics/SVG/1.1/DTD/svg11.dtd">
<!-- Generated by graphviz version 2.43.0 (0)
 -->
<!-- Title: graph_visuals._is_valid_color_format Pages: 1 -->
<svg width="1103pt" height="90pt"
 viewBox="0.00 0.00 1103.00 90.20" xmlns="http://www.w3.org/2000/svg" xmlns:xlink="http://www.w3.org/1999/xlink">
<g id="graph0" class="graph" transform="scale(1 1) rotate(0) translate(4 86.2)">
<title>graph_visuals._is_valid_color_format</title>
<!-- Node1 -->
<g id="Node000001" class="node">
<title>Node1</title>
<g id="a_Node000001"><a xlink:title=" ">
<polygon fill="#999999" stroke="#666666" points="1095,-57.2 965,-57.2 965,-27.2 1095,-27.2 1095,-57.2"/>
<text text-anchor="start" x="973" y="-45.2" font-family="Helvetica,sans-Serif" font-size="10.00">graph_visuals._is_valid</text>
<text text-anchor="middle" x="1030" y="-34.2" font-family="Helvetica,sans-Serif" font-size="10.00">_color_format</text>
</a>
</g>
</g>
<!-- Node2 -->
<g id="Node000002" class="node">
<title>Node2</title>
<g id="a_Node000002"><a xlink:href="namespacegraph__visuals.html#a553f122c8516e6a12814996a7cd1a13e" target="_top" xlink:title=" ">
<polygon fill="white" stroke="#666666" points="929,-80.2 821,-80.2 821,-50.2 929,-50.2 929,-80.2"/>
<text text-anchor="start" x="829" y="-68.2" font-family="Helvetica,sans-Serif" font-size="10.00">graph_visuals._get</text>
<text text-anchor="middle" x="875" y="-57.2" font-family="Helvetica,sans-Serif" font-size="10.00">_line_style</text>
</a>
</g>
</g>
<!-- Node1&#45;&gt;Node2 -->
<g id="edge1_Node000001_Node000002" class="edge">
<title>Node1&#45;&gt;Node2</title>
<g id="a_edge1_Node000001_Node000002"><a xlink:title=" ">
<path fill="none" stroke="#63b8ff" d="M954.57,-53.39C946.02,-54.68 937.44,-55.97 929.26,-57.2"/>
<polygon fill="#63b8ff" stroke="#63b8ff" points="955.19,-56.84 964.56,-51.89 954.15,-49.92 955.19,-56.84"/>
</a>
</g>
</g>
<!-- Node8 -->
<g id="Node000008" class="node">
<title>Node8</title>
<g id="a_Node000008"><a xlink:href="namespacegraph__visuals.html#aa96bbd15e68187307b2af5f94fd0d364" target="_top" xlink:title=" ">
<polygon fill="white" stroke="#666666" points="785,-34.2 653,-34.2 653,-4.2 785,-4.2 785,-34.2"/>
<text text-anchor="start" x="661" y="-22.2" font-family="Helvetica,sans-Serif" font-size="10.00">graph_visuals._validate</text>
<text text-anchor="middle" x="719" y="-11.2" font-family="Helvetica,sans-Serif" font-size="10.00">_colors_list</text>
</a>
</g>
</g>
<!-- Node1&#45;&gt;Node8 -->
<g id="edge11_Node000001_Node000008" class="edge">
<title>Node1&#45;&gt;Node8</title>
<g id="a_edge11_Node000001_Node000008"><a xlink:title=" ">
<path fill="none" stroke="#63b8ff" d="M954.85,-36.68C903.09,-32.83 834.64,-27.74 785.01,-24.04"/>
<polygon fill="#63b8ff" stroke="#63b8ff" points="954.74,-40.19 964.98,-37.44 955.26,-33.2 954.74,-40.19"/>
</a>
</g>
</g>
<!-- Node3 -->
<g id="Node000003" class="node">
<title>Node3</title>
<g id="a_Node000003"><a xlink:href="namespacegraph__visuals.html#a89feb243f069a64c954d913babcc0284" target="_top" xlink:title=" ">
<polygon fill="white" stroke="#666666" points="780.5,-82.2 657.5,-82.2 657.5,-52.2 780.5,-52.2 780.5,-82.2"/>
<text text-anchor="start" x="665.5" y="-70.2" font-family="Helvetica,sans-Serif" font-size="10.00">graph_visuals._create</text>
<text text-anchor="middle" x="719" y="-59.2" font-family="Helvetica,sans-Serif" font-size="10.00">_trace_for_group</text>
</a>
</g>
</g>
<!-- Node2&#45;&gt;Node3 -->
<g id="edge2_Node000002_Node000003" class="edge">
<title>Node2&#45;&gt;Node3</title>
<g id="a_edge2_Node000002_Node000003"><a xlink:title=" ">
<path fill="none" stroke="#63b8ff" d="M810.46,-66.03C800.63,-66.16 790.49,-66.29 780.72,-66.41"/>
<polygon fill="#63b8ff" stroke="#63b8ff" points="810.62,-69.53 820.57,-65.9 810.53,-62.53 810.62,-69.53"/>
</a>
</g>
</g>
<!-- Node4 -->
<g id="Node000004" class="node">
<title>Node4</title>
<g id="a_Node000004"><a xlink:href="namespacegraph__visuals.html#a126c97a3aa996be29f948301ee861806" target="_top" xlink:title=" ">
<polygon fill="white" stroke="#666666" points="617,-82.2 494,-82.2 494,-52.2 617,-52.2 617,-82.2"/>
<text text-anchor="start" x="502" y="-70.2" font-family="Helvetica,sans-Serif" font-size="10.00">graph_visuals._create</text>
<text text-anchor="middle" x="555.5" y="-59.2" font-family="Helvetica,sans-Serif" font-size="10.00">_relationship_traces</text>
</a>
</g>
</g>
<!-- Node3&#45;&gt;Node4 -->
<g id="edge3_Node000003_Node000004" class="edge">
<title>Node3&#45;&gt;Node4</title>
<g id="a_edge3_Node000003_Node000004"><a xlink:title=" ">
<path fill="none" stroke="#63b8ff" d="M647.1,-67.2C637.12,-67.2 626.93,-67.2 617.17,-67.2"/>
<polygon fill="#63b8ff" stroke="#63b8ff" points="647.4,-70.7 657.4,-67.2 647.4,-63.7 647.4,-70.7"/>
</a>
</g>
</g>
<!-- Node5 -->
<g id="Node000005" class="node">
<title>Node5</title>
<g id="a_Node000005"><a xlink:href="namespacegraph__visuals.html#a870c69decb3e9db3ed97f279c6121748" target="_top" xlink:title=" ">
<polygon fill="white" stroke="#666666" points="458,-34.2 326,-34.2 326,-4.2 458,-4.2 458,-34.2"/>
<text text-anchor="start" x="334" y="-22.2" font-family="Helvetica,sans-Serif" font-size="10.00">graph_visuals._validate</text>
<text text-anchor="middle" x="392" y="-11.2" font-family="Helvetica,sans-Serif" font-size="10.00">_visualization_data</text>
</a>
</g>
</g>
<!-- Node4&#45;&gt;Node5 -->
<g id="edge4_Node000004_Node000005" class="edge">
<title>Node4&#45;&gt;Node5</title>
<g id="a_edge4_Node000004_Node000005"><a xlink:title=" ">
<path fill="none" stroke="#63b8ff" d="M494.18,-49.28C477.49,-44.31 459.55,-38.98 443.48,-34.21"/>
<polygon fill="#63b8ff" stroke="#63b8ff" points="493.26,-52.65 503.84,-52.15 495.26,-45.94 493.26,-52.65"/>
</a>
</g>
</g>
<!-- Node7 -->
<g id="Node000007" class="node">
<title>Node7</title>
<g id="a_Node000007"><a xlink:href="namespacegraph__visuals.html#a828bdcb4c7a34d98e2a555a154c74576" target="_top" xlink:title=" ">
<polygon fill="white" stroke="#666666" points="131,-43.2 0,-43.2 0,-13.2 131,-13.2 131,-43.2"/>
<text text-anchor="start" x="8" y="-31.2" font-family="Helvetica,sans-Serif" font-size="10.00">graph_visuals.visualize</text>
<text text-anchor="middle" x="65.5" y="-20.2" font-family="Helvetica,sans-Serif" font-size="10.00">_3d_graph_with_filters</text>
</a>
</g>
</g>
<!-- Node4&#45;&gt;Node7 -->
<g id="edge10_Node000004_Node000007" class="edge">
<title>Node4&#45;&gt;Node7</title>
<g id="a_edge10_Node000004_Node000007"><a xlink:title=" ">
<path fill="none" stroke="#63b8ff" d="M483.53,-68.98C405.5,-69.88 276.65,-68.27 167,-52.2 152.18,-50.03 136.34,-46.72 121.71,-43.25"/>
<polygon fill="#63b8ff" stroke="#63b8ff" points="483.77,-72.47 493.72,-68.84 483.68,-65.47 483.77,-72.47"/>
</a>
</g>
</g>
<!-- Node5&#45;&gt;Node5 -->
<g id="edge8_Node000005_Node000005" class="edge">
<title>Node5&#45;&gt;Node5</title>
<g id="a_edge8_Node000005_Node000005"><a xlink:title=" ">
<path fill="none" stroke="#63b8ff" d="M420.36,-44.8C416.48,-49.17 407.03,-52.2 392,-52.2 366.69,-52.2 357.2,-43.61 363.52,-34.48"/>
<polygon fill="#63b8ff" stroke="#63b8ff" points="423.86,-44.52 420.48,-34.48 416.86,-44.44 423.86,-44.52"/>
</a>
</g>
</g>
<!-- Node6 -->
<g id="Node000006" class="node">
<title>Node6</title>
<g id="a_Node000006"><a xlink:href="namespacegraph__visuals.html#a345ff70d680ece5d645ee7c9501d2a4a" target="_top" xlink:title=" ">
<polygon fill="white" stroke="#666666" points="290,-43.2 167,-43.2 167,-13.2 290,-13.2 290,-43.2"/>
<text text-anchor="start" x="175" y="-31.2" font-family="Helvetica,sans-Serif" font-size="10.00">graph_visuals._create</text>
<text text-anchor="middle" x="228.5" y="-20.2" font-family="Helvetica,sans-Serif" font-size="10.00">_node_trace</text>
</a>
</g>
</g>
<!-- Node5&#45;&gt;Node6 -->
<g id="edge5_Node000005_Node000006" class="edge">
<title>Node5&#45;&gt;Node6</title>
<g id="a_edge5_Node000005_Node000006"><a xlink:title=" ">
<path fill="none" stroke="#63b8ff" d="M315.72,-16.66C307.1,-17.1 298.4,-17.64 290,-18.27"/>
<polygon fill="#63b8ff" stroke="#63b8ff" points="315.95,-20.16 325.78,-16.2 315.63,-13.16 315.95,-20.16"/>
</a>
</g>
</g>
<!-- Node5&#45;&gt;Node7 -->
<g id="edge9_Node000005_Node000007" class="edge">
<title>Node5&#45;&gt;Node7</title>
<g id="a_edge9_Node000005_Node000007"><a xlink:title=" ">
<path fill="none" stroke="#63b8ff" d="M315.82,-6.79C307.13,-5.73 298.39,-4.82 290,-4.2 235.48,-0.18 221.29,2.19 167,-4.2 151.32,-6.05 134.55,-9.46 119.28,-13.15"/>
<polygon fill="#63b8ff" stroke="#63b8ff" points="315.59,-10.29 325.96,-8.1 316.49,-3.35 315.59,-10.29"/>
</a>
</g>
</g>
<!-- Node6&#45;&gt;Node5 -->
<g id="edge6_Node000006_Node000005" class="edge">
<title>Node6&#45;&gt;Node5</title>
<g id="a_edge6_Node000006_Node000005"><a xlink:title=" ">
<path fill="none" stroke="#63b8ff" d="M300.25,-30.96C308.74,-30.57 317.38,-30.07 325.78,-29.48"/>
<polygon fill="#63b8ff" stroke="#63b8ff" points="299.85,-27.48 290,-31.39 300.14,-34.47 299.85,-27.48"/>
</a>
</g>
</g>
<!-- Node6&#45;&gt;Node7 -->
<g id="edge7_Node000006_Node000007" class="edge">
<title>Node6&#45;&gt;Node7</title>
<g id="a_edge7_Node000006_Node000007"><a xlink:title=" ">
<path fill="none" stroke="#63b8ff" d="M156.47,-28.2C148.07,-28.2 139.52,-28.2 131.21,-28.2"/>
<polygon fill="#63b8ff" stroke="#63b8ff" points="156.63,-31.7 166.63,-28.2 156.63,-24.7 156.63,-31.7"/>
</a>
</g>
</g>
<!-- Node8&#45;&gt;Node5 -->
<g id="edge12_Node000008_Node000005" class="edge">
<title>Node8&#45;&gt;Node5</title>
<g id="a_edge12_Node000008_Node000005"><a xlink:title=" ">
<path fill="none" stroke="#63b8ff" d="M642.44,-19.2C586.64,-19.2 511.47,-19.2 458.27,-19.2"/>
<polygon fill="#63b8ff" stroke="#63b8ff" points="642.62,-22.7 652.62,-19.2 642.62,-15.7 642.62,-22.7"/>
</a>
</g>
</g>
</g>
</svg>
