<?xml version="1.0" encoding="UTF-8" standalone="no"?>
<!DOCTYPE svg PUBLIC "-//W3C//DTD SVG 1.1//EN"
 "http://www.w3.org/Graphics/SVG/1.1/DTD/svg11.dtd">
<!-- Generated by graphviz version 2.43.0 (0)
 -->
<!-- Title: graph_visuals._build_relationship_index Pages: 1 -->
<svg width="954pt" height="164pt"
 viewBox="0.00 0.00 954.00 164.13" xmlns="http://www.w3.org/2000/svg" xmlns:xlink="http://www.w3.org/1999/xlink">
<g id="graph0" class="graph" transform="scale(1 1) rotate(0) translate(4 160.13)">
<title>graph_visuals._build_relationship_index</title>
<!-- Node1 -->
<g id="Node000001" class="node">
<title>Node1</title>
<g id="a_Node000001"><a xlink:title=" ">
<polygon fill="#999999" stroke="#666666" points="946,-107.5 830,-107.5 830,-77.5 946,-77.5 946,-107.5"/>
<text text-anchor="start" x="838" y="-95.5" font-family="Helvetica,sans-Serif" font-size="10.00">graph_visuals._build</text>
<text text-anchor="middle" x="888" y="-84.5" font-family="Helvetica,sans-Serif" font-size="10.00">_relationship_index</text>
</a>
</g>
</g>
<!-- Node2 -->
<g id="Node000002" class="node">
<title>Node2</title>
<g id="a_Node000002"><a xlink:href="namespacegraph__visuals.html#a7f6044587769ab8335e37ea20279fd8a" target="_top" xlink:title=" ">
<polygon fill="white" stroke="#666666" points="794,-130.5 653,-130.5 653,-100.5 794,-100.5 794,-130.5"/>
<text text-anchor="start" x="661" y="-118.5" font-family="Helvetica,sans-Serif" font-size="10.00">graph_visuals._collect</text>
<text text-anchor="middle" x="723.5" y="-107.5" font-family="Helvetica,sans-Serif" font-size="10.00">_and_group_relationships</text>
</a>
</g>
</g>
<!-- Node1&#45;&gt;Node2 -->
<g id="edge1_Node000001_Node000002" class="edge">
<title>Node1&#45;&gt;Node2</title>
<g id="a_edge1_Node000001_Node000002"><a xlink:title=" ">
<path fill="none" stroke="#63b8ff" d="M819.57,-102.04C811.16,-103.23 802.54,-104.45 794.1,-105.65"/>
<polygon fill="#63b8ff" stroke="#63b8ff" points="820.3,-105.48 829.71,-100.61 819.32,-98.54 820.3,-105.48"/>
</a>
</g>
</g>
<!-- Node7 -->
<g id="Node000007" class="node">
<title>Node7</title>
<g id="a_Node000007"><a xlink:href="namespacegraph__visuals.html#a41e2aa4282d406d57e0c1b69abc42480" target="_top" xlink:title=" ">
<polygon fill="white" stroke="#666666" points="617,-84.5 494,-84.5 494,-54.5 617,-54.5 617,-84.5"/>
<text text-anchor="start" x="502" y="-72.5" font-family="Helvetica,sans-Serif" font-size="10.00">graph_visuals._create</text>
<text text-anchor="middle" x="555.5" y="-61.5" font-family="Helvetica,sans-Serif" font-size="10.00">_directional_arrows</text>
</a>
</g>
</g>
<!-- Node1&#45;&gt;Node7 -->
<g id="edge10_Node000001_Node000007" class="edge">
<title>Node1&#45;&gt;Node7</title>
<g id="a_edge10_Node000001_Node000007"><a xlink:title=" ">
<path fill="none" stroke="#63b8ff" d="M819.78,-87.82C760.38,-83.69 674.53,-77.71 617.18,-73.72"/>
<polygon fill="#63b8ff" stroke="#63b8ff" points="819.59,-91.32 829.81,-88.52 820.08,-84.33 819.59,-91.32"/>
</a>
</g>
</g>
<!-- Node3 -->
<g id="Node000003" class="node">
<title>Node3</title>
<g id="a_Node000003"><a xlink:href="namespacegraph__visuals.html#a126c97a3aa996be29f948301ee861806" target="_top" xlink:title=" ">
<polygon fill="white" stroke="#666666" points="617,-132.5 494,-132.5 494,-102.5 617,-102.5 617,-132.5"/>
<text text-anchor="start" x="502" y="-120.5" font-family="Helvetica,sans-Serif" font-size="10.00">graph_visuals._create</text>
<text text-anchor="middle" x="555.5" y="-109.5" font-family="Helvetica,sans-Serif" font-size="10.00">_relationship_traces</text>
</a>
</g>
</g>
<!-- Node2&#45;&gt;Node3 -->
<g id="edge2_Node000002_Node000003" class="edge">
<title>Node2&#45;&gt;Node3</title>
<g id="a_edge2_Node000002_Node000003"><a xlink:title=" ">
<path fill="none" stroke="#63b8ff" d="M642.58,-116.46C634.01,-116.57 625.41,-116.67 617.13,-116.77"/>
<polygon fill="#63b8ff" stroke="#63b8ff" points="642.63,-119.96 652.58,-116.34 642.54,-112.96 642.63,-119.96"/>
</a>
</g>
</g>
<!-- Node4 -->
<g id="Node000004" class="node">
<title>Node4</title>
<g id="a_Node000004"><a xlink:href="namespacegraph__visuals.html#a870c69decb3e9db3ed97f279c6121748" target="_top" xlink:title=" ">
<polygon fill="white" stroke="#666666" points="458,-127.5 326,-127.5 326,-97.5 458,-97.5 458,-127.5"/>
<text text-anchor="start" x="334" y="-115.5" font-family="Helvetica,sans-Serif" font-size="10.00">graph_visuals._validate</text>
<text text-anchor="middle" x="392" y="-104.5" font-family="Helvetica,sans-Serif" font-size="10.00">_visualization_data</text>
</a>
</g>
</g>
<!-- Node3&#45;&gt;Node4 -->
<g id="edge3_Node000003_Node000004" class="edge">
<title>Node3&#45;&gt;Node4</title>
<g id="a_edge3_Node000003_Node000004"><a xlink:title=" ">
<path fill="none" stroke="#63b8ff" d="M483.69,-115.31C475.23,-115.05 466.63,-114.78 458.26,-114.52"/>
<polygon fill="#63b8ff" stroke="#63b8ff" points="483.8,-118.81 493.9,-115.62 484.02,-111.82 483.8,-118.81"/>
</a>
</g>
</g>
<!-- Node6 -->
<g id="Node000006" class="node">
<title>Node6</title>
<g id="a_Node000006"><a xlink:href="namespacegraph__visuals.html#a828bdcb4c7a34d98e2a555a154c74576" target="_top" xlink:title=" ">
<polygon fill="white" stroke="#666666" points="131,-148.5 0,-148.5 0,-118.5 131,-118.5 131,-148.5"/>
<text text-anchor="start" x="8" y="-136.5" font-family="Helvetica,sans-Serif" font-size="10.00">graph_visuals.visualize</text>
<text text-anchor="middle" x="65.5" y="-125.5" font-family="Helvetica,sans-Serif" font-size="10.00">_3d_graph_with_filters</text>
</a>
</g>
</g>
<!-- Node3&#45;&gt;Node6 -->
<g id="edge9_Node000003_Node000006" class="edge">
<title>Node3&#45;&gt;Node6</title>
<g id="a_edge9_Node000003_Node000006"><a xlink:title=" ">
<path fill="none" stroke="#63b8ff" d="M514.06,-136.8C497.15,-143.86 477.03,-150.98 458,-154.5 440.38,-157.76 172.26,-153.03 167,-152.5 155.34,-151.33 143.01,-149.51 131.13,-147.43"/>
<polygon fill="#63b8ff" stroke="#63b8ff" points="515.82,-139.85 523.62,-132.67 513.05,-133.42 515.82,-139.85"/>
</a>
</g>
</g>
<!-- Node4&#45;&gt;Node4 -->
<g id="edge7_Node000004_Node000004" class="edge">
<title>Node4&#45;&gt;Node4</title>
<g id="a_edge7_Node000004_Node000004"><a xlink:title=" ">
<path fill="none" stroke="#63b8ff" d="M420.36,-138.1C416.48,-142.47 407.03,-145.5 392,-145.5 366.69,-145.5 357.2,-136.91 363.52,-127.78"/>
<polygon fill="#63b8ff" stroke="#63b8ff" points="423.86,-137.82 420.48,-127.78 416.86,-137.73 423.86,-137.82"/>
</a>
</g>
</g>
<!-- Node5 -->
<g id="Node000005" class="node">
<title>Node5</title>
<g id="a_Node000005"><a xlink:href="namespacegraph__visuals.html#a345ff70d680ece5d645ee7c9501d2a4a" target="_top" xlink:title=" ">
<polygon fill="white" stroke="#666666" points="290,-127.5 167,-127.5 167,-97.5 290,-97.5 290,-127.5"/>
<text text-anchor="start" x="175" y="-115.5" font-family="Helvetica,sans-Serif" font-size="10.00">graph_visuals._create</text>
<text text-anchor="middle" x="228.5" y="-104.5" font-family="Helvetica,sans-Serif" font-size="10.00">_node_trace</text>
</a>
</g>
</g>
<!-- Node4&#45;&gt;Node5 -->
<g id="edge4_Node000004_Node000005" class="edge">
<title>Node4&#45;&gt;Node5</title>
<g id="a_edge4_Node000004_Node000005"><a xlink:title=" ">
<path fill="none" stroke="#63b8ff" d="M315.72,-105.76C307.1,-105.72 298.4,-105.78 290,-105.94"/>
<polygon fill="#63b8ff" stroke="#63b8ff" points="315.74,-109.26 325.78,-105.86 315.81,-102.26 315.74,-109.26"/>
</a>
</g>
</g>
<!-- Node4&#45;&gt;Node6 -->
<g id="edge8_Node000004_Node000006" class="edge">
<title>Node4&#45;&gt;Node6</title>
<g id="a_edge8_Node000004_Node000006"><a xlink:title=" ">
<path fill="none" stroke="#63b8ff" d="M328.06,-129.84C315.55,-132.61 302.43,-135.04 290,-136.5 236.81,-142.73 176.02,-141.37 131.28,-138.8"/>
<polygon fill="#63b8ff" stroke="#63b8ff" points="328.99,-133.22 337.95,-127.56 327.42,-126.4 328.99,-133.22"/>
</a>
</g>
</g>
<!-- Node5&#45;&gt;Node4 -->
<g id="edge5_Node000005_Node000004" class="edge">
<title>Node5&#45;&gt;Node4</title>
<g id="a_edge5_Node000005_Node000004"><a xlink:title=" ">
<path fill="none" stroke="#63b8ff" d="M300.25,-119.2C308.74,-119.28 317.38,-119.26 325.78,-119.14"/>
<polygon fill="#63b8ff" stroke="#63b8ff" points="300.05,-115.7 290,-119.06 299.95,-122.7 300.05,-115.7"/>
</a>
</g>
</g>
<!-- Node5&#45;&gt;Node6 -->
<g id="edge6_Node000005_Node000006" class="edge">
<title>Node5&#45;&gt;Node6</title>
<g id="a_edge6_Node000005_Node000006"><a xlink:title=" ">
<path fill="none" stroke="#63b8ff" d="M156.47,-121.76C148.07,-122.86 139.52,-123.98 131.21,-125.06"/>
<polygon fill="#63b8ff" stroke="#63b8ff" points="157.17,-125.2 166.63,-120.44 156.26,-118.26 157.17,-125.2"/>
</a>
</g>
</g>
<!-- Node7&#45;&gt;Node4 -->
<g id="edge12_Node000007_Node000004" class="edge">
<title>Node7&#45;&gt;Node4</title>
<g id="a_edge12_Node000007_Node000004"><a xlink:title=" ">
<path fill="none" stroke="#63b8ff" d="M488.28,-87.13C475.39,-90.56 461.99,-94.13 449.45,-97.47"/>
<polygon fill="#63b8ff" stroke="#63b8ff" points="489.25,-90.49 498.02,-84.54 487.45,-83.73 489.25,-90.49"/>
</a>
</g>
</g>
<!-- Node7&#45;&gt;Node6 -->
<g id="edge13_Node000007_Node000006" class="edge">
<title>Node7&#45;&gt;Node6</title>
<g id="a_edge13_Node000007_Node000006"><a xlink:title=" ">
<path fill="none" stroke="#63b8ff" d="M483.52,-65.19C404.95,-62.21 275.14,-62.61 167,-88.5 140.6,-94.82 112.57,-107.97 92.83,-118.44"/>
<polygon fill="#63b8ff" stroke="#63b8ff" points="483.65,-68.7 493.78,-65.61 483.93,-61.71 483.65,-68.7"/>
</a>
</g>
</g>
<!-- Node8 -->
<g id="Node000008" class="node">
<title>Node8</title>
<g id="a_Node000008"><a xlink:href="namespacegraph__visuals.html#adf5165349a616f411dfb4613adf79286" target="_top" xlink:title=" ">
<polygon fill="white" stroke="#666666" points="448,-41 336,-41 336,0 448,0 448,-41"/>
<text text-anchor="start" x="344" y="-29" font-family="Helvetica,sans-Serif" font-size="10.00">graph_visuals._add</text>
<text text-anchor="start" x="344" y="-18" font-family="Helvetica,sans-Serif" font-size="10.00">_directional_arrows</text>
<text text-anchor="middle" x="392" y="-7" font-family="Helvetica,sans-Serif" font-size="10.00">_to_figure</text>
</a>
</g>
</g>
<!-- Node7&#45;&gt;Node8 -->
<g id="edge11_Node000007_Node000008" class="edge">
<title>Node7&#45;&gt;Node8</title>
<g id="a_edge11_Node000007_Node000008"><a xlink:title=" ">
<path fill="none" stroke="#63b8ff" d="M494.88,-51.41C479.62,-46.78 463.27,-41.82 448.24,-37.26"/>
<polygon fill="#63b8ff" stroke="#63b8ff" points="494.14,-54.84 504.73,-54.4 496.17,-48.15 494.14,-54.84"/>
</a>
</g>
</g>
</g>
</svg>
