<?xml version="1.0" encoding="UTF-8" standalone="no"?>
<!DOCTYPE svg PUBLIC "-//W3C//DTD SVG 1.1//EN"
 "http://www.w3.org/Graphics/SVG/1.1/DTD/svg11.dtd">
<!-- Generated by graphviz version 2.43.0 (0)
 -->
<!-- Title: graph_visuals._generate_dynamic_title Pages: 1 -->
<svg width="645pt" height="124pt"
 viewBox="0.00 0.00 645.00 124.00" xmlns="http://www.w3.org/2000/svg" xmlns:xlink="http://www.w3.org/1999/xlink">
<g id="graph0" class="graph" transform="scale(1 1) rotate(0) translate(4 120)">
<title>graph_visuals._generate_dynamic_title</title>
<!-- Node1 -->
<g id="Node000001" class="node">
<title>Node1</title>
<g id="a_Node000001"><a xlink:title=" ">
<polygon fill="#999999" stroke="#666666" points="637,-72 501,-72 501,-42 637,-42 637,-72"/>
<text text-anchor="start" x="509" y="-60" font-family="Helvetica,sans-Serif" font-size="10.00">graph_visuals._generate</text>
<text text-anchor="middle" x="569" y="-49" font-family="Helvetica,sans-Serif" font-size="10.00">_dynamic_title</text>
</a>
</g>
</g>
<!-- Node2 -->
<g id="Node000002" class="node">
<title>Node2</title>
<g id="a_Node000002"><a xlink:href="namespacegraph__visuals.html#a268f24b662cc93d2049a92711703834c" target="_top" xlink:title=" ">
<polygon fill="white" stroke="#666666" points="297,-116 167,-116 167,-86 297,-86 297,-116"/>
<text text-anchor="start" x="175" y="-104" font-family="Helvetica,sans-Serif" font-size="10.00">graph_visuals._prepare</text>
<text text-anchor="middle" x="232" y="-93" font-family="Helvetica,sans-Serif" font-size="10.00">_layout_config</text>
</a>
</g>
</g>
<!-- Node1&#45;&gt;Node2 -->
<g id="edge1_Node000001_Node000002" class="edge">
<title>Node1&#45;&gt;Node2</title>
<g id="a_edge1_Node000001_Node000002"><a xlink:title=" ">
<path fill="none" stroke="#63b8ff" d="M490.65,-67.16C431.98,-74.86 352.3,-85.33 297.16,-92.57"/>
<polygon fill="#63b8ff" stroke="#63b8ff" points="491.15,-70.62 500.61,-65.85 490.24,-63.68 491.15,-70.62"/>
</a>
</g>
</g>
<!-- Node4 -->
<g id="Node000004" class="node">
<title>Node4</title>
<g id="a_Node000004"><a xlink:href="namespacegraph__visuals.html#a870c69decb3e9db3ed97f279c6121748" target="_top" xlink:title=" ">
<polygon fill="white" stroke="#666666" points="465,-42 333,-42 333,-12 465,-12 465,-42"/>
<text text-anchor="start" x="341" y="-30" font-family="Helvetica,sans-Serif" font-size="10.00">graph_visuals._validate</text>
<text text-anchor="middle" x="399" y="-19" font-family="Helvetica,sans-Serif" font-size="10.00">_visualization_data</text>
</a>
</g>
</g>
<!-- Node1&#45;&gt;Node4 -->
<g id="edge3_Node000001_Node000004" class="edge">
<title>Node1&#45;&gt;Node4</title>
<g id="a_edge3_Node000001_Node000004"><a xlink:title=" ">
<path fill="none" stroke="#63b8ff" d="M490.69,-43.2C482.17,-41.67 473.55,-40.13 465.19,-38.64"/>
<polygon fill="#63b8ff" stroke="#63b8ff" points="490.18,-46.66 500.64,-44.97 491.41,-39.77 490.18,-46.66"/>
</a>
</g>
</g>
<!-- Node3 -->
<g id="Node000003" class="node">
<title>Node3</title>
<g id="a_Node000003"><a xlink:href="namespacegraph__visuals.html#a828bdcb4c7a34d98e2a555a154c74576" target="_top" xlink:title=" ">
<polygon fill="white" stroke="#666666" points="131,-73 0,-73 0,-43 131,-43 131,-73"/>
<text text-anchor="start" x="8" y="-61" font-family="Helvetica,sans-Serif" font-size="10.00">graph_visuals.visualize</text>
<text text-anchor="middle" x="65.5" y="-50" font-family="Helvetica,sans-Serif" font-size="10.00">_3d_graph_with_filters</text>
</a>
</g>
</g>
<!-- Node2&#45;&gt;Node3 -->
<g id="edge2_Node000002_Node000003" class="edge">
<title>Node2&#45;&gt;Node3</title>
<g id="a_edge2_Node000002_Node000003"><a xlink:title=" ">
<path fill="none" stroke="#63b8ff" d="M163.55,-83.37C150.42,-79.94 136.77,-76.37 124,-73.03"/>
<polygon fill="#63b8ff" stroke="#63b8ff" points="162.91,-86.82 173.47,-85.96 164.68,-80.05 162.91,-86.82"/>
</a>
</g>
</g>
<!-- Node4&#45;&gt;Node3 -->
<g id="edge8_Node000004_Node000003" class="edge">
<title>Node4&#45;&gt;Node3</title>
<g id="a_edge8_Node000004_Node000003"><a xlink:title=" ">
<path fill="none" stroke="#63b8ff" d="M322.71,-36.25C314.05,-37.22 305.33,-38.16 297,-39 241.07,-44.63 177.38,-49.78 131.14,-53.3"/>
<polygon fill="#63b8ff" stroke="#63b8ff" points="323.3,-39.7 332.84,-35.09 322.51,-32.75 323.3,-39.7"/>
</a>
</g>
</g>
<!-- Node4&#45;&gt;Node4 -->
<g id="edge7_Node000004_Node000004" class="edge">
<title>Node4&#45;&gt;Node4</title>
<g id="a_edge7_Node000004_Node000004"><a xlink:title=" ">
<path fill="none" stroke="#63b8ff" d="M428.06,-52.6C424.09,-56.97 414.4,-60 399,-60 373.06,-60 363.34,-51.41 369.82,-42.28"/>
<polygon fill="#63b8ff" stroke="#63b8ff" points="431.56,-52.32 428.18,-42.28 424.56,-52.23 431.56,-52.32"/>
</a>
</g>
</g>
<!-- Node5 -->
<g id="Node000005" class="node">
<title>Node5</title>
<g id="a_Node000005"><a xlink:href="namespacegraph__visuals.html#a345ff70d680ece5d645ee7c9501d2a4a" target="_top" xlink:title=" ">
<polygon fill="white" stroke="#666666" points="293.5,-30 170.5,-30 170.5,0 293.5,0 293.5,-30"/>
<text text-anchor="start" x="178.5" y="-18" font-family="Helvetica,sans-Serif" font-size="10.00">graph_visuals._create</text>
<text text-anchor="middle" x="232" y="-7" font-family="Helvetica,sans-Serif" font-size="10.00">_node_trace</text>
</a>
</g>
</g>
<!-- Node4&#45;&gt;Node5 -->
<g id="edge4_Node000004_Node000005" class="edge">
<title>Node4&#45;&gt;Node5</title>
<g id="a_edge4_Node000004_Node000005"><a xlink:title=" ">
<path fill="none" stroke="#63b8ff" d="M322.73,-14.8C313.01,-14.03 303.16,-13.38 293.71,-12.88"/>
<polygon fill="#63b8ff" stroke="#63b8ff" points="322.53,-18.29 332.79,-15.64 323.11,-11.32 322.53,-18.29"/>
</a>
</g>
</g>
<!-- Node5&#45;&gt;Node3 -->
<g id="edge6_Node000005_Node000003" class="edge">
<title>Node5&#45;&gt;Node3</title>
<g id="a_edge6_Node000005_Node000003"><a xlink:title=" ">
<path fill="none" stroke="#63b8ff" d="M163.55,-32.63C150.42,-36.06 136.77,-39.63 124,-42.97"/>
<polygon fill="#63b8ff" stroke="#63b8ff" points="164.68,-35.95 173.47,-30.04 162.91,-29.18 164.68,-35.95"/>
</a>
</g>
</g>
<!-- Node5&#45;&gt;Node4 -->
<g id="edge5_Node000005_Node000004" class="edge">
<title>Node5&#45;&gt;Node4</title>
<g id="a_edge5_Node000005_Node000004"><a xlink:title=" ">
<path fill="none" stroke="#63b8ff" d="M303.68,-26.83C313.34,-27.63 323.23,-28.33 332.79,-28.87"/>
<polygon fill="#63b8ff" stroke="#63b8ff" points="303.98,-23.34 293.71,-25.95 303.37,-30.31 303.98,-23.34"/>
</a>
</g>
</g>
</g>
</svg>
