<?xml version="1.0" encoding="UTF-8" standalone="no"?>
<!DOCTYPE svg PUBLIC "-//W3C//DTD SVG 1.1//EN"
 "http://www.w3.org/Graphics/SVG/1.1/DTD/svg11.dtd">
<!-- Generated by graphviz version 2.43.0 (0)
 -->
<!-- Title: api.database.get_connection Pages: 1 -->
<svg width="523pt" height="46pt"
 viewBox="0.00 0.00 523.00 46.00" xmlns="http://www.w3.org/2000/svg" xmlns:xlink="http://www.w3.org/1999/xlink">
<g id="graph0" class="graph" transform="scale(1 1) rotate(0) translate(4 42)">
<title>api.database.get_connection</title>
<!-- Node1 -->
<g id="Node000001" class="node">
<title>Node1</title>
<g id="a_Node000001"><a xlink:title=" ">
<polygon fill="#999999" stroke="#666666" points="157,-19 0,-19 0,0 157,0 157,-19"/>
<text text-anchor="middle" x="78.5" y="-7" font-family="Helvetica,sans-Serif" font-size="10.00">api.database.get_connection</text>
</a>
</g>
</g>
<!-- Node2 -->
<g id="Node000002" class="node">
<title>Node2</title>
<g id="a_Node000002"><a xlink:href="namespaceapi_1_1database.html#add5bd37c7ccad20f0844cf169de107d2" target="_top" xlink:title=" ">
<polygon fill="white" stroke="#666666" points="319,-38 193,-38 193,-19 319,-19 319,-38"/>
<text text-anchor="middle" x="256" y="-26" font-family="Helvetica,sans-Serif" font-size="10.00">api.database._connect</text>
</a>
</g>
</g>
<!-- Node1&#45;&gt;Node2 -->
<g id="edge1_Node000001_Node000002" class="edge">
<title>Node1&#45;&gt;Node2</title>
<g id="a_edge1_Node000001_Node000002"><a xlink:title=" ">
<path fill="none" stroke="#63b8ff" d="M157.24,-17.92C165.72,-18.83 174.32,-19.77 182.72,-20.67"/>
<polygon fill="#63b8ff" stroke="#63b8ff" points="182.54,-24.18 192.85,-21.77 183.29,-17.22 182.54,-24.18"/>
</a>
</g>
</g>
<!-- Node3 -->
<g id="Node000003" class="node">
<title>Node3</title>
<g id="a_Node000003"><a xlink:href="namespaceapi_1_1database.html#a2b55d2e5b55f35ea1fdaefbf1fd87ac3" target="_top" xlink:title=" ">
<polygon fill="white" stroke="#666666" points="515,-19 355,-19 355,0 515,0 515,-19"/>
<text text-anchor="middle" x="435" y="-7" font-family="Helvetica,sans-Serif" font-size="10.00">api.database._is_memory_db</text>
</a>
</g>
</g>
<!-- Node1&#45;&gt;Node3 -->
<g id="edge3_Node000001_Node000003" class="edge">
<title>Node1&#45;&gt;Node3</title>
<g id="a_edge3_Node000001_Node000003"><a xlink:title=" ">
<path fill="none" stroke="#63b8ff" d="M157.3,-9.5C212.57,-9.5 286.93,-9.5 344.64,-9.5"/>
<polygon fill="#63b8ff" stroke="#63b8ff" points="344.85,-13 354.85,-9.5 344.85,-6 344.85,-13"/>
</a>
</g>
</g>
<!-- Node2&#45;&gt;Node3 -->
<g id="edge2_Node000002_Node000003" class="edge">
<title>Node2&#45;&gt;Node3</title>
<g id="a_edge2_Node000002_Node000003"><a xlink:title=" ">
<path fill="none" stroke="#63b8ff" d="M319.4,-21.8C327.63,-20.92 336.19,-20 344.75,-19.08"/>
<polygon fill="#63b8ff" stroke="#63b8ff" points="345.23,-22.55 354.8,-18 344.48,-15.59 345.23,-22.55"/>
</a>
</g>
</g>
</g>
</svg>
