<?xml version="1.0" encoding="UTF-8" standalone="no"?>
<!DOCTYPE svg PUBLIC "-//W3C//DTD SVG 1.1//EN"
 "http://www.w3.org/Graphics/SVG/1.1/DTD/svg11.dtd">
<!-- Generated by graphviz version 2.43.0 (0)
 -->
<!-- Title: graph_visuals._create_trace_for_group Pages: 1 -->
<svg width="495pt" height="182pt"
 viewBox="0.00 0.00 495.00 182.00" xmlns="http://www.w3.org/2000/svg" xmlns:xlink="http://www.w3.org/1999/xlink">
<g id="graph0" class="graph" transform="scale(1 1) rotate(0) translate(4 178)">
<title>graph_visuals._create_trace_for_group</title>
<!-- Node1 -->
<g id="Node000001" class="node">
<title>Node1</title>
<g id="a_Node000001"><a xlink:title=" ">
<polygon fill="#999999" stroke="#666666" points="123,-102 0,-102 0,-72 123,-72 123,-102"/>
<text text-anchor="start" x="8" y="-90" font-family="Helvetica,sans-Serif" font-size="10.00">graph_visuals._create</text>
<text text-anchor="middle" x="61.5" y="-79" font-family="Helvetica,sans-Serif" font-size="10.00">_trace_for_group</text>
</a>
</g>
</g>
<!-- Node2 -->
<g id="Node000002" class="node">
<title>Node2</title>
<g id="a_Node000002"><a xlink:href="namespacegraph__visuals.html#ae0f9ab07f0f1d5aeb10cc8a8bf4a0da6" target="_top" xlink:title=" ">
<polygon fill="white" stroke="#666666" points="321,-174 159,-174 159,-144 321,-144 321,-174"/>
<text text-anchor="start" x="167" y="-162" font-family="Helvetica,sans-Serif" font-size="10.00">graph_visuals._build</text>
<text text-anchor="middle" x="240" y="-151" font-family="Helvetica,sans-Serif" font-size="10.00">_edge_coordinates_optimized</text>
</a>
</g>
</g>
<!-- Node1&#45;&gt;Node2 -->
<g id="edge1_Node000001_Node000002" class="edge">
<title>Node1&#45;&gt;Node2</title>
<g id="a_edge1_Node000001_Node000002"><a xlink:title=" ">
<path fill="none" stroke="#63b8ff" d="M89.8,-102.14C108.82,-112.3 134.99,-125.51 159,-135 164.06,-137 169.35,-138.93 174.7,-140.76"/>
<polygon fill="#63b8ff" stroke="#63b8ff" points="173.76,-144.14 184.35,-143.96 175.96,-137.49 173.76,-144.14"/>
</a>
</g>
</g>
<!-- Node3 -->
<g id="Node000003" class="node">
<title>Node3</title>
<g id="a_Node000003"><a xlink:href="namespacegraph__visuals.html#ac5edbf171a6ddb6e1e3a8f61971ad627" target="_top" xlink:title=" ">
<polygon fill="white" stroke="#666666" points="298,-126 182,-126 182,-96 298,-96 298,-126"/>
<text text-anchor="start" x="190" y="-114" font-family="Helvetica,sans-Serif" font-size="10.00">graph_visuals._build</text>
<text text-anchor="middle" x="240" y="-103" font-family="Helvetica,sans-Serif" font-size="10.00">_hover_texts</text>
</a>
</g>
</g>
<!-- Node1&#45;&gt;Node3 -->
<g id="edge2_Node000001_Node000003" class="edge">
<title>Node1&#45;&gt;Node3</title>
<g id="a_edge2_Node000001_Node000003"><a xlink:title=" ">
<path fill="none" stroke="#63b8ff" d="M123.24,-95.26C138.78,-97.37 155.59,-99.66 171.45,-101.81"/>
<polygon fill="#63b8ff" stroke="#63b8ff" points="171.33,-105.33 181.71,-103.21 172.28,-98.39 171.33,-105.33"/>
</a>
</g>
</g>
<!-- Node4 -->
<g id="Node000004" class="node">
<title>Node4</title>
<g id="a_Node000004"><a xlink:href="namespacegraph__visuals.html#aa4d02d3595ef8a27dd8ccc870d692749" target="_top" xlink:title=" ">
<polygon fill="white" stroke="#666666" points="302.5,-78 177.5,-78 177.5,-48 302.5,-48 302.5,-78"/>
<text text-anchor="start" x="185.5" y="-66" font-family="Helvetica,sans-Serif" font-size="10.00">graph_visuals._format</text>
<text text-anchor="middle" x="240" y="-55" font-family="Helvetica,sans-Serif" font-size="10.00">_trace_name</text>
</a>
</g>
</g>
<!-- Node1&#45;&gt;Node4 -->
<g id="edge3_Node000001_Node000004" class="edge">
<title>Node1&#45;&gt;Node4</title>
<g id="a_edge3_Node000001_Node000004"><a xlink:title=" ">
<path fill="none" stroke="#63b8ff" d="M123.24,-78.74C137.42,-76.81 152.65,-74.74 167.26,-72.76"/>
<polygon fill="#63b8ff" stroke="#63b8ff" points="167.81,-76.21 177.25,-71.4 166.87,-69.28 167.81,-76.21"/>
</a>
</g>
</g>
<!-- Node5 -->
<g id="Node000005" class="node">
<title>Node5</title>
<g id="a_Node000005"><a xlink:href="namespacegraph__visuals.html#a553f122c8516e6a12814996a7cd1a13e" target="_top" xlink:title=" ">
<polygon fill="white" stroke="#666666" points="294,-30 186,-30 186,0 294,0 294,-30"/>
<text text-anchor="start" x="194" y="-18" font-family="Helvetica,sans-Serif" font-size="10.00">graph_visuals._get</text>
<text text-anchor="middle" x="240" y="-7" font-family="Helvetica,sans-Serif" font-size="10.00">_line_style</text>
</a>
</g>
</g>
<!-- Node1&#45;&gt;Node5 -->
<g id="edge4_Node000001_Node000005" class="edge">
<title>Node1&#45;&gt;Node5</title>
<g id="a_edge4_Node000001_Node000005"><a xlink:title=" ">
<path fill="none" stroke="#63b8ff" d="M89.8,-71.86C108.82,-61.7 134.99,-48.49 159,-39 164.44,-36.85 170.16,-34.78 175.92,-32.82"/>
<polygon fill="#63b8ff" stroke="#63b8ff" points="177.23,-36.07 185.64,-29.63 175.04,-29.42 177.23,-36.07"/>
</a>
</g>
</g>
<!-- Node6 -->
<g id="Node000006" class="node">
<title>Node6</title>
<g id="a_Node000006"><a xlink:href="namespacegraph__visuals.html#af2a815c0bdaadc2b6aa339387795f4bb" target="_top" xlink:title=" ">
<polygon fill="white" stroke="#666666" points="487,-30 357,-30 357,0 487,0 487,-30"/>
<text text-anchor="start" x="365" y="-18" font-family="Helvetica,sans-Serif" font-size="10.00">graph_visuals._is_valid</text>
<text text-anchor="middle" x="422" y="-7" font-family="Helvetica,sans-Serif" font-size="10.00">_color_format</text>
</a>
</g>
</g>
<!-- Node5&#45;&gt;Node6 -->
<g id="edge5_Node000005_Node000006" class="edge">
<title>Node5&#45;&gt;Node6</title>
<g id="a_edge5_Node000005_Node000006"><a xlink:title=" ">
<path fill="none" stroke="#63b8ff" d="M294.03,-15C310.5,-15 328.97,-15 346.62,-15"/>
<polygon fill="#63b8ff" stroke="#63b8ff" points="346.89,-18.5 356.89,-15 346.89,-11.5 346.89,-18.5"/>
</a>
</g>
</g>
</g>
</svg>
