<?xml version="1.0" encoding="UTF-8" standalone="no"?>
<!DOCTYPE svg PUBLIC "-//W3C//DTD SVG 1.1//EN"
 "http://www.w3.org/Graphics/SVG/1.1/DTD/svg11.dtd">
<!-- Generated by graphviz version 2.43.0 (0)
 -->
<!-- Title: api.main.lifespan Pages: 1 -->
<svg width="560pt" height="38pt"
 viewBox="0.00 0.00 560.00 38.00" xmlns="http://www.w3.org/2000/svg" xmlns:xlink="http://www.w3.org/1999/xlink">
<g id="graph0" class="graph" transform="scale(1 1) rotate(0) translate(4 34)">
<title>api.main.lifespan</title>
<!-- Node1 -->
<g id="Node000001" class="node">
<title>Node1</title>
<g id="a_Node000001"><a xlink:title=" ">
<polygon fill="#999999" stroke="#666666" points="101,-24.5 0,-24.5 0,-5.5 101,-5.5 101,-24.5"/>
<text text-anchor="middle" x="50.5" y="-12.5" font-family="Helvetica,sans-Serif" font-size="10.00">api.main.lifespan</text>
</a>
</g>
</g>
<!-- Node2 -->
<g id="Node000002" class="node">
<title>Node2</title>
<g id="a_Node000002"><a xlink:href="namespaceapi_1_1main.html#a36e38405e838cf6847b86f3ef103e262" target="_top" xlink:title=" ">
<polygon fill="white" stroke="#666666" points="248,-24.5 137,-24.5 137,-5.5 248,-5.5 248,-24.5"/>
<text text-anchor="middle" x="192.5" y="-12.5" font-family="Helvetica,sans-Serif" font-size="10.00">api.main.get_graph</text>
</a>
</g>
</g>
<!-- Node1&#45;&gt;Node2 -->
<g id="edge1_Node000001_Node000002" class="edge">
<title>Node1&#45;&gt;Node2</title>
<g id="a_edge1_Node000001_Node000002"><a xlink:title=" ">
<path fill="none" stroke="#63b8ff" d="M101.25,-15C109.41,-15 117.97,-15 126.43,-15"/>
<polygon fill="#63b8ff" stroke="#63b8ff" points="126.67,-18.5 136.67,-15 126.67,-11.5 126.67,-18.5"/>
</a>
</g>
</g>
<!-- Node3 -->
<g id="Node000003" class="node">
<title>Node3</title>
<g id="a_Node000003"><a xlink:href="namespaceapi_1_1main.html#ae01417ef61271933f6fa186011018274" target="_top" xlink:title=" ">
<polygon fill="white" stroke="#666666" points="394,-30 284,-30 284,0 394,0 394,-30"/>
<text text-anchor="start" x="292" y="-18" font-family="Helvetica,sans-Serif" font-size="10.00">api.main._initialize</text>
<text text-anchor="middle" x="339" y="-7" font-family="Helvetica,sans-Serif" font-size="10.00">_graph</text>
</a>
</g>
</g>
<!-- Node2&#45;&gt;Node3 -->
<g id="edge2_Node000002_Node000003" class="edge">
<title>Node2&#45;&gt;Node3</title>
<g id="a_edge2_Node000002_Node000003"><a xlink:title=" ">
<path fill="none" stroke="#63b8ff" d="M248.13,-15C256.42,-15 265.05,-15 273.53,-15"/>
<polygon fill="#63b8ff" stroke="#63b8ff" points="273.77,-18.5 283.77,-15 273.77,-11.5 273.77,-18.5"/>
</a>
</g>
</g>
<!-- Node4 -->
<g id="Node000004" class="node">
<title>Node4</title>
<g id="a_Node000004"><a xlink:href="namespaceapi_1_1main.html#ac3285016e88cfbffb67e774549fc3a33" target="_top" xlink:title=" ">
<polygon fill="white" stroke="#666666" points="552,-30 430,-30 430,0 552,0 552,-30"/>
<text text-anchor="start" x="438" y="-18" font-family="Helvetica,sans-Serif" font-size="10.00">api.main._should_use</text>
<text text-anchor="middle" x="491" y="-7" font-family="Helvetica,sans-Serif" font-size="10.00">_real_data_fetcher</text>
</a>
</g>
</g>
<!-- Node3&#45;&gt;Node4 -->
<g id="edge3_Node000003_Node000004" class="edge">
<title>Node3&#45;&gt;Node4</title>
<g id="a_edge3_Node000003_Node000004"><a xlink:title=" ">
<path fill="none" stroke="#63b8ff" d="M394.15,-15C402.48,-15 411.17,-15 419.78,-15"/>
<polygon fill="#63b8ff" stroke="#63b8ff" points="419.83,-18.5 429.83,-15 419.83,-11.5 419.83,-18.5"/>
</a>
</g>
</g>
</g>
</svg>
