<?xml version="1.0" encoding="UTF-8" standalone="no"?>
<!DOCTYPE svg PUBLIC "-//W3C//DTD SVG 1.1//EN"
 "http://www.w3.org/Graphics/SVG/1.1/DTD/svg11.dtd">
<!-- Generated by graphviz version 2.43.0 (0)
 -->
<!-- Title: real_data_fetcher._serialize_graph Pages: 1 -->
<svg width="403pt" height="38pt"
 viewBox="0.00 0.00 403.00 38.00" xmlns="http://www.w3.org/2000/svg" xmlns:xlink="http://www.w3.org/1999/xlink">
<g id="graph0" class="graph" transform="scale(1 1) rotate(0) translate(4 34)">
<title>real_data_fetcher._serialize_graph</title>
<!-- Node1 -->
<g id="Node000001" class="node">
<title>Node1</title>
<g id="a_Node000001"><a xlink:title=" ">
<polygon fill="#999999" stroke="#666666" points="104,-30 0,-30 0,0 104,0 104,-30"/>
<text text-anchor="start" x="8" y="-18" font-family="Helvetica,sans-Serif" font-size="10.00">real_data_fetcher.</text>
<text text-anchor="middle" x="52" y="-7" font-family="Helvetica,sans-Serif" font-size="10.00">_serialize_graph</text>
</a>
</g>
</g>
<!-- Node2 -->
<g id="Node000002" class="node">
<title>Node2</title>
<g id="a_Node000002"><a xlink:href="namespacereal__data__fetcher.html#aa49e9b3286af259490d5da8498795117" target="_top" xlink:title=" ">
<polygon fill="white" stroke="#666666" points="255,-30 140,-30 140,0 255,0 255,-30"/>
<text text-anchor="start" x="148" y="-18" font-family="Helvetica,sans-Serif" font-size="10.00">real_data_fetcher.</text>
<text text-anchor="middle" x="197.5" y="-7" font-family="Helvetica,sans-Serif" font-size="10.00">_serialize_dataclass</text>
</a>
</g>
</g>
<!-- Node1&#45;&gt;Node2 -->
<g id="edge1_Node000001_Node000002" class="edge">
<title>Node1&#45;&gt;Node2</title>
<g id="a_edge1_Node000001_Node000002"><a xlink:title=" ">
<path fill="none" stroke="#63b8ff" d="M104.4,-15C112.52,-15 121.02,-15 129.43,-15"/>
<polygon fill="#63b8ff" stroke="#63b8ff" points="129.62,-18.5 139.62,-15 129.62,-11.5 129.62,-18.5"/>
</a>
</g>
</g>
<!-- Node3 -->
<g id="Node000003" class="node">
<title>Node3</title>
<g id="a_Node000003"><a xlink:href="namespacereal__data__fetcher.html#af21d5c52e7d58d6cfe7230e7f54a35f3" target="_top" xlink:title=" ">
<polygon fill="white" stroke="#666666" points="395,-30 291,-30 291,0 395,0 395,-30"/>
<text text-anchor="start" x="299" y="-18" font-family="Helvetica,sans-Serif" font-size="10.00">real_data_fetcher.</text>
<text text-anchor="middle" x="343" y="-7" font-family="Helvetica,sans-Serif" font-size="10.00">_enum_to_value</text>
</a>
</g>
</g>
<!-- Node2&#45;&gt;Node3 -->
<g id="edge2_Node000002_Node000003" class="edge">
<title>Node2&#45;&gt;Node3</title>
<g id="a_edge2_Node000002_Node000003"><a xlink:title=" ">
<path fill="none" stroke="#63b8ff" d="M255.21,-15C263.57,-15 272.21,-15 280.65,-15"/>
<polygon fill="#63b8ff" stroke="#63b8ff" points="280.82,-18.5 290.82,-15 280.82,-11.5 280.82,-18.5"/>
</a>
</g>
</g>
</g>
</svg>
