<?xml version="1.0" encoding="UTF-8" standalone="no"?>
<!DOCTYPE svg PUBLIC "-//W3C//DTD SVG 1.1//EN"
 "http://www.w3.org/Graphics/SVG/1.1/DTD/svg11.dtd">
<!-- Generated by graphviz version 2.43.0 (0)
 -->
<!-- Title: graph_visuals._validate_visualization_data Pages: 1 -->
<!--zoomable 412 -->

<svg id="main" version="1.1" xmlns="http://www.w3.org/2000/svg" xmlns:xlink="http://www.w3.org/1999/xlink" xml:space="preserve" onload="init(evt)">

<style type="text/css"><![CDATA[
.node, .edge {opacity: 0.7;}
.node.selected, .edge.selected {opacity: 1;}
.edge:hover path { stroke: red; }
.edge:hover polygon { stroke: red; fill: red; }
]]></style>

<defs>
  <circle id="rim" cx="0" cy="0" r="7"/>
  <circle id="rim2" cx="0" cy="0" r="3.5"/>
  <g id="zoomPlus">
    <use xlink:href="#rim" fill="#404040"><set attributeName="fill" to="#808080" begin="zoomplus.mouseover" end="zoomplus.mouseout"/></use>
    <path d="M-4,0h8M0,-4v8" fill="none" stroke="white" stroke-width="1.5" pointer-events="none"/>
  </g>
  <g id="zoomMin">
    <use xlink:href="#rim" fill="#404040"><set attributeName="fill" to="#808080" begin="zoomminus.mouseover" end="zoomminus.mouseout"/></use>
    <path d="M-4,0h8" fill="none" stroke="white" stroke-width="1.5" pointer-events="none"/>
  </g>
  <g id="arrowUp" transform="translate(30 24)">
    <use xlink:href="#rim"/>
    <path pointer-events="none" fill="none" stroke="white" stroke-width="1.5" d="M0,-3.0v7 M-2.5,-0.5L0,-3.0L2.5,-0.5"/>
  </g>
  <g id="arrowRight" transform="rotate(90) translate(36 -43)">
    <use xlink:href="#rim"/>
    <path pointer-events="none" fill="none" stroke="white" stroke-width="1.5" d="M0,-3.0v7 M-2.5,-0.5L0,-3.0L2.5,-0.5"/>
  </g>
  <g id="arrowDown" transform="rotate(180) translate(-30 -48)">
    <use xlink:href="#rim"/>
    <path pointer-events="none" fill="none" stroke="white" stroke-width="1.5" d="M0,-3.0v7 M-2.5,-0.5L0,-3.0L2.5,-0.5"/>
  </g>
  <g id="arrowLeft" transform="rotate(270) translate(-36 17)">
    <use xlink:href="#rim"/>
    <path pointer-events="none" fill="none" stroke="white" stroke-width="1.5" d="M0,-3.0v7 M-2.5,-0.5L0,-3.0L2.5,-0.5"/>
  </g>
  <g id="resetDef">
    <use xlink:href="#rim2" fill="#404040"><set attributeName="fill" to="#808080" begin="reset.mouseover" end="reset.mouseout"/></use>
  </g>
</defs>
<script type="application/ecmascript">
var viewWidth = 853;
var viewHeight = 412;
var sectionId = 'dynsection-32';
</script>
<script type="application/ecmascript" xlink:href="svg.min.js"/>
<svg id="graph" class="graph">
<g id="viewport">
<title>graph_visuals._validate_visualization_data</title>
<!-- Node1 -->
<g id="Node000001" class="node">
<title>Node1</title>
<g id="a_Node000001"><a xlink:title=" ">
<polygon fill="#999999" stroke="#666666" points="132,-236 0,-236 0,-206 132,-206 132,-236"/>
<text text-anchor="start" x="8" y="-224" font-family="Helvetica,sans-Serif" font-size="10.00">graph_visuals._validate</text>
<text text-anchor="middle" x="66" y="-213" font-family="Helvetica,sans-Serif" font-size="10.00">_visualization_data</text>
</a>
</g>
</g>
<!-- Node1&#45;&gt;Node1 -->
<g id="edge23_Node000001_Node000001" class="edge">
<title>Node1&#45;&gt;Node1</title>
<g id="a_edge23_Node000001_Node000001"><a xlink:title=" ">
<path fill="none" stroke="#63b8ff" d="M36.12,-236.28C29.48,-245.41 39.44,-254 66,-254 81.77,-254 91.69,-250.97 95.76,-246.6"/>
<polygon fill="#63b8ff" stroke="#63b8ff" points="99.26,-246.32 95.88,-236.28 92.26,-246.23 99.26,-246.32"/>
</a>
</g>
</g>
<!-- Node2 -->
<g id="Node000002" class="node">
<title>Node2</title>
<g id="a_Node000002"><a xlink:href="namespacegraph__visuals.html#a41e2aa4282d406d57e0c1b69abc42480" target="_top" xlink:title=" ">
<polygon fill="white" stroke="#666666" points="297.5,-404 174.5,-404 174.5,-374 297.5,-374 297.5,-404"/>
<text text-anchor="start" x="182.5" y="-392" font-family="Helvetica,sans-Serif" font-size="10.00">graph_visuals._create</text>
<text text-anchor="middle" x="236" y="-381" font-family="Helvetica,sans-Serif" font-size="10.00">_directional_arrows</text>
</a>
</g>
</g>
<!-- Node1&#45;&gt;Node2 -->
<g id="edge1_Node000001_Node000002" class="edge">
<title>Node1&#45;&gt;Node2</title>
<g id="a_edge1_Node000001_Node000002"><a xlink:title=" ">
<path fill="none" stroke="#63b8ff" d="M73.83,-236.38C87.53,-265.56 121.14,-329.26 168,-365 169.8,-366.37 171.68,-367.67 173.62,-368.89"/>
<polygon fill="#63b8ff" stroke="#63b8ff" points="172.05,-372.03 182.49,-373.84 175.46,-365.91 172.05,-372.03"/>
</a>
</g>
</g>
<!-- Node5 -->
<g id="Node000005" class="node">
<title>Node5</title>
<g id="a_Node000005"><a xlink:href="namespacegraph__visuals.html#a345ff70d680ece5d645ee7c9501d2a4a" target="_top" xlink:title=" ">
<polygon fill="white" stroke="#666666" points="297.5,-356 174.5,-356 174.5,-326 297.5,-326 297.5,-356"/>
<text text-anchor="start" x="182.5" y="-344" font-family="Helvetica,sans-Serif" font-size="10.00">graph_visuals._create</text>
<text text-anchor="middle" x="236" y="-333" font-family="Helvetica,sans-Serif" font-size="10.00">_node_trace</text>
</a>
</g>
</g>
<!-- Node1&#45;&gt;Node5 -->
<g id="edge4_Node000001_Node000005" class="edge">
<title>Node1&#45;&gt;Node5</title>
<g id="a_edge4_Node000001_Node000005"><a xlink:title=" ">
<path fill="none" stroke="#63b8ff" d="M85.05,-236.01C103.83,-255.28 135.04,-287.7 168,-308 177.25,-313.7 188.05,-318.31 198.24,-322.28"/>
<polygon fill="#63b8ff" stroke="#63b8ff" points="197.16,-325.61 207.75,-325.9 199.65,-319.07 197.16,-325.61"/>
</a>
</g>
</g>
<!-- Node6 -->
<g id="Node000006" class="node">
<title>Node6</title>
<g id="a_Node000006"><a xlink:href="namespacegraph__visuals.html#a126c97a3aa996be29f948301ee861806" target="_top" xlink:title=" ">
<polygon fill="white" stroke="#666666" points="297.5,-308 174.5,-308 174.5,-278 297.5,-278 297.5,-308"/>
<text text-anchor="start" x="182.5" y="-296" font-family="Helvetica,sans-Serif" font-size="10.00">graph_visuals._create</text>
<text text-anchor="middle" x="236" y="-285" font-family="Helvetica,sans-Serif" font-size="10.00">_relationship_traces</text>
</a>
</g>
</g>
<!-- Node1&#45;&gt;Node6 -->
<g id="edge6_Node000001_Node000006" class="edge">
<title>Node1&#45;&gt;Node6</title>
<g id="a_edge6_Node000001_Node000006"><a xlink:title=" ">
<path fill="none" stroke="#63b8ff" d="M96.7,-236.07C116.64,-245.96 143.62,-258.87 168,-269 172.34,-270.8 176.86,-272.6 181.42,-274.35"/>
<polygon fill="#63b8ff" stroke="#63b8ff" points="180.2,-277.63 190.79,-277.87 182.66,-271.08 180.2,-277.63"/>
</a>
</g>
</g>
<!-- Node14 -->
<g id="Node000014" class="node">
<title>Node14</title>
<g id="a_Node000014"><a xlink:href="namespacegraph__visuals.html#a3aba8b14bed184d9ab46de2e8f0b3fa5" target="_top" xlink:title=" ">
<polygon fill="white" stroke="#666666" points="304,-260 168,-260 168,-230 304,-230 304,-260"/>
<text text-anchor="start" x="176" y="-248" font-family="Helvetica,sans-Serif" font-size="10.00">graph_visuals._generate</text>
<text text-anchor="middle" x="236" y="-237" font-family="Helvetica,sans-Serif" font-size="10.00">_dynamic_title</text>
</a>
</g>
</g>
<!-- Node1&#45;&gt;Node14 -->
<g id="edge16_Node000001_Node000014" class="edge">
<title>Node1&#45;&gt;Node14</title>
<g id="a_edge16_Node000001_Node000014"><a xlink:title=" ">
<path fill="none" stroke="#63b8ff" d="M132.43,-230.35C140.78,-231.54 149.38,-232.77 157.89,-233.98"/>
<polygon fill="#63b8ff" stroke="#63b8ff" points="157.41,-237.45 167.81,-235.4 158.4,-230.52 157.41,-237.45"/>
</a>
</g>
</g>
<!-- Node15 -->
<g id="Node000015" class="node">
<title>Node15</title>
<g id="a_Node000015"><a xlink:href="namespacegraph__visuals.html#a5d2b6e0ace20321ddff80afa16911f60" target="_top" xlink:title=" ">
<polygon fill="white" stroke="#666666" points="302,-212 170,-212 170,-182 302,-182 302,-212"/>
<text text-anchor="start" x="178" y="-200" font-family="Helvetica,sans-Serif" font-size="10.00">graph_visuals._validate</text>
<text text-anchor="middle" x="236" y="-189" font-family="Helvetica,sans-Serif" font-size="10.00">_asset_ids_list</text>
</a>
</g>
</g>
<!-- Node1&#45;&gt;Node15 -->
<g id="edge17_Node000001_Node000015" class="edge">
<title>Node1&#45;&gt;Node15</title>
<g id="a_edge17_Node000001_Node000015"><a xlink:title=" ">
<path fill="none" stroke="#63b8ff" d="M132.43,-211.65C141.34,-210.38 150.53,-209.07 159.59,-207.77"/>
<polygon fill="#63b8ff" stroke="#63b8ff" points="160.34,-211.2 169.74,-206.32 159.35,-204.27 160.34,-211.2"/>
</a>
</g>
</g>
<!-- Node16 -->
<g id="Node000016" class="node">
<title>Node16</title>
<g id="a_Node000016"><a xlink:href="namespacegraph__visuals.html#a372e2fa2aab88734f03d83259f58c597" target="_top" xlink:title=" ">
<polygon fill="white" stroke="#666666" points="302,-164 170,-164 170,-134 302,-134 302,-164"/>
<text text-anchor="start" x="178" y="-152" font-family="Helvetica,sans-Serif" font-size="10.00">graph_visuals._validate</text>
<text text-anchor="middle" x="236" y="-141" font-family="Helvetica,sans-Serif" font-size="10.00">_asset_ids_uniqueness</text>
</a>
</g>
</g>
<!-- Node1&#45;&gt;Node16 -->
<g id="edge18_Node000001_Node000016" class="edge">
<title>Node1&#45;&gt;Node16</title>
<g id="a_edge18_Node000001_Node000016"><a xlink:title=" ">
<path fill="none" stroke="#63b8ff" d="M96.7,-205.93C116.64,-196.04 143.62,-183.13 168,-173 172.34,-171.2 176.86,-169.4 181.42,-167.65"/>
<polygon fill="#63b8ff" stroke="#63b8ff" points="182.66,-170.92 190.79,-164.13 180.2,-164.37 182.66,-170.92"/>
</a>
</g>
</g>
<!-- Node17 -->
<g id="Node000017" class="node">
<title>Node17</title>
<g id="a_Node000017"><a xlink:href="namespacegraph__visuals.html#aa96bbd15e68187307b2af5f94fd0d364" target="_top" xlink:title=" ">
<polygon fill="white" stroke="#666666" points="476.5,-123 344.5,-123 344.5,-93 476.5,-93 476.5,-123"/>
<text text-anchor="start" x="352.5" y="-111" font-family="Helvetica,sans-Serif" font-size="10.00">graph_visuals._validate</text>
<text text-anchor="middle" x="410.5" y="-100" font-family="Helvetica,sans-Serif" font-size="10.00">_colors_list</text>
</a>
</g>
</g>
<!-- Node1&#45;&gt;Node17 -->
<g id="edge19_Node000001_Node000017" class="edge">
<title>Node1&#45;&gt;Node17</title>
<g id="a_edge19_Node000001_Node000017"><a xlink:title=" ">
<path fill="none" stroke="#63b8ff" d="M77.61,-205.66C94.03,-183.34 127.93,-142.66 168,-125 220.15,-102.01 284.82,-98.61 334.1,-100.49"/>
<polygon fill="#63b8ff" stroke="#63b8ff" points="334.23,-104 344.38,-100.97 334.55,-97.01 334.23,-104"/>
</a>
</g>
</g>
<!-- Node18 -->
<g id="Node000018" class="node">
<title>Node18</title>
<g id="a_Node000018"><a xlink:href="namespacegraph__visuals.html#a8c595f8085bc0ca1f3adf6d2708657f4" target="_top" xlink:title=" ">
<polygon fill="white" stroke="#666666" points="302,-78 170,-78 170,-48 302,-48 302,-78"/>
<text text-anchor="start" x="178" y="-66" font-family="Helvetica,sans-Serif" font-size="10.00">graph_visuals._validate</text>
<text text-anchor="middle" x="236" y="-55" font-family="Helvetica,sans-Serif" font-size="10.00">_hover_texts_list</text>
</a>
</g>
</g>
<!-- Node1&#45;&gt;Node18 -->
<g id="edge21_Node000001_Node000018" class="edge">
<title>Node1&#45;&gt;Node18</title>
<g id="a_edge21_Node000001_Node000018"><a xlink:title=" ">
<path fill="none" stroke="#63b8ff" d="M75.39,-205.87C90.68,-179.51 125.45,-124.85 168,-92 172.39,-88.61 177.23,-85.53 182.25,-82.76"/>
<polygon fill="#63b8ff" stroke="#63b8ff" points="184.09,-85.75 191.41,-78.09 180.91,-79.52 184.09,-85.75"/>
</a>
</g>
</g>
<!-- Node19 -->
<g id="Node000019" class="node">
<title>Node19</title>
<g id="a_Node000019"><a xlink:href="namespacegraph__visuals.html#ab2c4f4a71bd4ac0c27552e84e6118eab" target="_top" xlink:title=" ">
<polygon fill="white" stroke="#666666" points="302,-30 170,-30 170,0 302,0 302,-30"/>
<text text-anchor="start" x="178" y="-18" font-family="Helvetica,sans-Serif" font-size="10.00">graph_visuals._validate</text>
<text text-anchor="middle" x="236" y="-7" font-family="Helvetica,sans-Serif" font-size="10.00">_positions_array</text>
</a>
</g>
</g>
<!-- Node1&#45;&gt;Node19 -->
<g id="edge22_Node000001_Node000019" class="edge">
<title>Node1&#45;&gt;Node19</title>
<g id="a_edge22_Node000001_Node000019"><a xlink:title=" ">
<path fill="none" stroke="#63b8ff" d="M71.32,-205.92C81.95,-171.4 112.64,-86.02 168,-39 169.52,-37.71 171.11,-36.49 172.76,-35.33"/>
<polygon fill="#63b8ff" stroke="#63b8ff" points="174.72,-38.24 181.45,-30.05 171.08,-32.26 174.72,-38.24"/>
</a>
</g>
</g>
<!-- Node3 -->
<g id="Node000003" class="node">
<title>Node3</title>
<g id="a_Node000003"><a xlink:href="namespacegraph__visuals.html#a0b234963e74afc0d696565e612ad410c" target="_top" xlink:title=" ">
<polygon fill="white" stroke="#666666" points="468.5,-359 352.5,-359 352.5,-329 468.5,-329 468.5,-359"/>
<text text-anchor="start" x="360.5" y="-347" font-family="Helvetica,sans-Serif" font-size="10.00">graph_visuals._build</text>
<text text-anchor="middle" x="410.5" y="-336" font-family="Helvetica,sans-Serif" font-size="10.00">_asset_id_index</text>
</a>
</g>
</g>
<!-- Node2&#45;&gt;Node3 -->
<g id="edge2_Node000002_Node000003" class="edge">
<title>Node2&#45;&gt;Node3</title>
<g id="a_edge2_Node000002_Node000003"><a xlink:title=" ">
<path fill="none" stroke="#63b8ff" d="M294.92,-373.89C310.09,-369.93 326.59,-365.63 342.2,-361.56"/>
<polygon fill="#63b8ff" stroke="#63b8ff" points="343.53,-364.83 352.32,-358.92 341.76,-358.05 343.53,-364.83"/>
</a>
</g>
</g>
<!-- Node4 -->
<g id="Node000004" class="node">
<title>Node4</title>
<g id="a_Node000004"><a xlink:href="namespacegraph__visuals.html#a632734f64a969060dc90f97e0f207d59" target="_top" xlink:title=" ">
<polygon fill="white" stroke="#666666" points="656,-381 540,-381 540,-351 656,-351 656,-381"/>
<text text-anchor="start" x="548" y="-369" font-family="Helvetica,sans-Serif" font-size="10.00">graph_visuals._build</text>
<text text-anchor="middle" x="598" y="-358" font-family="Helvetica,sans-Serif" font-size="10.00">_relationship_index</text>
</a>
</g>
</g>
<!-- Node2&#45;&gt;Node4 -->
<g id="edge3_Node000002_Node000004" class="edge">
<title>Node2&#45;&gt;Node4</title>
<g id="a_edge3_Node000002_Node000004"><a xlink:title=" ">
<path fill="none" stroke="#63b8ff" d="M297.66,-385.12C361.99,-381.01 463.33,-374.54 529.98,-370.28"/>
<polygon fill="#63b8ff" stroke="#63b8ff" points="530.2,-373.78 539.96,-369.64 529.75,-366.79 530.2,-373.78"/>
</a>
</g>
</g>
<!-- Node5&#45;&gt;Node1 -->
<g id="edge5_Node000005_Node000001" class="edge">
<title>Node5&#45;&gt;Node1</title>
<g id="a_edge5_Node000005_Node000001"><a xlink:title=" ">
<path fill="none" stroke="#63b8ff" d="M174.19,-329.54C172.07,-328.41 170,-327.23 168,-326 132.59,-304.19 99.2,-268.39 81.08,-244.49"/>
<polygon fill="#63b8ff" stroke="#63b8ff" points="83.82,-242.32 75.12,-236.28 78.16,-246.43 83.82,-242.32"/>
</a>
</g>
</g>
<!-- Node6&#45;&gt;Node3 -->
<g id="edge7_Node000006_Node000003" class="edge">
<title>Node6&#45;&gt;Node3</title>
<g id="a_edge7_Node000006_Node000003"><a xlink:title=" ">
<path fill="none" stroke="#63b8ff" d="M287.82,-308.03C307.04,-313.71 329.1,-320.23 349.11,-326.14"/>
<polygon fill="#63b8ff" stroke="#63b8ff" points="348.16,-329.51 358.74,-328.99 350.15,-322.8 348.16,-329.51"/>
</a>
</g>
</g>
<!-- Node7 -->
<g id="Node000007" class="node">
<title>Node7</title>
<g id="a_Node000007"><a xlink:href="namespacegraph__visuals.html#a7f6044587769ab8335e37ea20279fd8a" target="_top" xlink:title=" ">
<polygon fill="white" stroke="#666666" points="481,-310 340,-310 340,-280 481,-280 481,-310"/>
<text text-anchor="start" x="348" y="-298" font-family="Helvetica,sans-Serif" font-size="10.00">graph_visuals._collect</text>
<text text-anchor="middle" x="410.5" y="-287" font-family="Helvetica,sans-Serif" font-size="10.00">_and_group_relationships</text>
</a>
</g>
</g>
<!-- Node6&#45;&gt;Node7 -->
<g id="edge8_Node000006_Node000007" class="edge">
<title>Node6&#45;&gt;Node7</title>
<g id="a_edge8_Node000006_Node000007"><a xlink:title=" ">
<path fill="none" stroke="#63b8ff" d="M297.82,-293.71C308.11,-293.82 318.93,-293.95 329.62,-294.07"/>
<polygon fill="#63b8ff" stroke="#63b8ff" points="329.77,-297.58 339.81,-294.19 329.85,-290.58 329.77,-297.58"/>
</a>
</g>
</g>
<!-- Node8 -->
<g id="Node000008" class="node">
<title>Node8</title>
<g id="a_Node000008"><a xlink:href="namespacegraph__visuals.html#a89feb243f069a64c954d913babcc0284" target="_top" xlink:title=" ">
<polygon fill="white" stroke="#666666" points="472,-262 349,-262 349,-232 472,-232 472,-262"/>
<text text-anchor="start" x="357" y="-250" font-family="Helvetica,sans-Serif" font-size="10.00">graph_visuals._create</text>
<text text-anchor="middle" x="410.5" y="-239" font-family="Helvetica,sans-Serif" font-size="10.00">_trace_for_group</text>
</a>
</g>
</g>
<!-- Node6&#45;&gt;Node8 -->
<g id="edge10_Node000006_Node000008" class="edge">
<title>Node6&#45;&gt;Node8</title>
<g id="a_edge10_Node000006_Node000008"><a xlink:title=" ">
<path fill="none" stroke="#63b8ff" d="M293.48,-277.94C309.35,-273.71 326.75,-269.07 343.14,-264.7"/>
<polygon fill="#63b8ff" stroke="#63b8ff" points="344.42,-267.98 353.18,-262.02 342.62,-261.21 344.42,-267.98"/>
</a>
</g>
</g>
<!-- Node7&#45;&gt;Node4 -->
<g id="edge9_Node000007_Node000004" class="edge">
<title>Node7&#45;&gt;Node4</title>
<g id="a_edge9_Node000007_Node000004"><a xlink:title=" ">
<path fill="none" stroke="#63b8ff" d="M454.22,-310.12C463.09,-313.33 472.36,-316.74 481,-320 504.02,-328.7 529.45,-338.74 550.62,-347.21"/>
<polygon fill="#63b8ff" stroke="#63b8ff" points="549.44,-350.51 560.03,-350.99 552.05,-344.01 549.44,-350.51"/>
</a>
</g>
</g>
<!-- Node9 -->
<g id="Node000009" class="node">
<title>Node9</title>
<g id="a_Node000009"><a xlink:href="namespacegraph__visuals.html#ae0f9ab07f0f1d5aeb10cc8a8bf4a0da6" target="_top" xlink:title=" ">
<polygon fill="white" stroke="#666666" points="679,-310 517,-310 517,-280 679,-280 679,-310"/>
<text text-anchor="start" x="525" y="-298" font-family="Helvetica,sans-Serif" font-size="10.00">graph_visuals._build</text>
<text text-anchor="middle" x="598" y="-287" font-family="Helvetica,sans-Serif" font-size="10.00">_edge_coordinates_optimized</text>
</a>
</g>
</g>
<!-- Node8&#45;&gt;Node9 -->
<g id="edge11_Node000008_Node000009" class="edge">
<title>Node8&#45;&gt;Node9</title>
<g id="a_edge11_Node000008_Node000009"><a xlink:title=" ">
<path fill="none" stroke="#63b8ff" d="M469.68,-262.06C488.59,-266.95 509.73,-272.42 529.27,-277.48"/>
<polygon fill="#63b8ff" stroke="#63b8ff" points="528.46,-280.88 539.02,-280 530.22,-274.1 528.46,-280.88"/>
</a>
</g>
</g>
<!-- Node10 -->
<g id="Node000010" class="node">
<title>Node10</title>
<g id="a_Node000010"><a xlink:href="namespacegraph__visuals.html#ac5edbf171a6ddb6e1e3a8f61971ad627" target="_top" xlink:title=" ">
<polygon fill="white" stroke="#666666" points="656,-262 540,-262 540,-232 656,-232 656,-262"/>
<text text-anchor="start" x="548" y="-250" font-family="Helvetica,sans-Serif" font-size="10.00">graph_visuals._build</text>
<text text-anchor="middle" x="598" y="-239" font-family="Helvetica,sans-Serif" font-size="10.00">_hover_texts</text>
</a>
</g>
</g>
<!-- Node8&#45;&gt;Node10 -->
<g id="edge12_Node000008_Node000010" class="edge">
<title>Node8&#45;&gt;Node10</title>
<g id="a_edge12_Node000008_Node000010"><a xlink:title=" ">
<path fill="none" stroke="#63b8ff" d="M472.24,-247C490.61,-247 510.88,-247 529.65,-247"/>
<polygon fill="#63b8ff" stroke="#63b8ff" points="529.9,-250.5 539.9,-247 529.9,-243.5 529.9,-250.5"/>
</a>
</g>
</g>
<!-- Node11 -->
<g id="Node000011" class="node">
<title>Node11</title>
<g id="a_Node000011"><a xlink:href="namespacegraph__visuals.html#aa4d02d3595ef8a27dd8ccc870d692749" target="_top" xlink:title=" ">
<polygon fill="white" stroke="#666666" points="660.5,-214 535.5,-214 535.5,-184 660.5,-184 660.5,-214"/>
<text text-anchor="start" x="543.5" y="-202" font-family="Helvetica,sans-Serif" font-size="10.00">graph_visuals._format</text>
<text text-anchor="middle" x="598" y="-191" font-family="Helvetica,sans-Serif" font-size="10.00">_trace_name</text>
</a>
</g>
</g>
<!-- Node8&#45;&gt;Node11 -->
<g id="edge13_Node000008_Node000011" class="edge">
<title>Node8&#45;&gt;Node11</title>
<g id="a_edge13_Node000008_Node000011"><a xlink:title=" ">
<path fill="none" stroke="#63b8ff" d="M469.68,-231.94C488.59,-227.05 509.73,-221.58 529.27,-216.52"/>
<polygon fill="#63b8ff" stroke="#63b8ff" points="530.22,-219.9 539.02,-214 528.46,-213.12 530.22,-219.9"/>
</a>
</g>
</g>
<!-- Node12 -->
<g id="Node000012" class="node">
<title>Node12</title>
<g id="a_Node000012"><a xlink:href="namespacegraph__visuals.html#a553f122c8516e6a12814996a7cd1a13e" target="_top" xlink:title=" ">
<polygon fill="white" stroke="#666666" points="652,-166 544,-166 544,-136 652,-136 652,-166"/>
<text text-anchor="start" x="552" y="-154" font-family="Helvetica,sans-Serif" font-size="10.00">graph_visuals._get</text>
<text text-anchor="middle" x="598" y="-143" font-family="Helvetica,sans-Serif" font-size="10.00">_line_style</text>
</a>
</g>
</g>
<!-- Node8&#45;&gt;Node12 -->
<g id="edge14_Node000008_Node000012" class="edge">
<title>Node8&#45;&gt;Node12</title>
<g id="a_edge14_Node000008_Node000012"><a xlink:title=" ">
<path fill="none" stroke="#63b8ff" d="M429.87,-231.85C450.11,-215.8 484.18,-190.66 517,-175 522.37,-172.44 528.06,-170.08 533.85,-167.93"/>
<polygon fill="#63b8ff" stroke="#63b8ff" points="535.35,-171.12 543.63,-164.51 533.04,-164.51 535.35,-171.12"/>
</a>
</g>
</g>
<!-- Node13 -->
<g id="Node000013" class="node">
<title>Node13</title>
<g id="a_Node000013"><a xlink:href="namespacegraph__visuals.html#af2a815c0bdaadc2b6aa339387795f4bb" target="_top" xlink:title=" ">
<polygon fill="white" stroke="#666666" points="845,-144 715,-144 715,-114 845,-114 845,-144"/>
<text text-anchor="start" x="723" y="-132" font-family="Helvetica,sans-Serif" font-size="10.00">graph_visuals._is_valid</text>
<text text-anchor="middle" x="780" y="-121" font-family="Helvetica,sans-Serif" font-size="10.00">_color_format</text>
</a>
</g>
</g>
<!-- Node12&#45;&gt;Node13 -->
<g id="edge15_Node000012_Node000013" class="edge">
<title>Node12&#45;&gt;Node13</title>
<g id="a_edge15_Node000012_Node000013"><a xlink:title=" ">
<path fill="none" stroke="#63b8ff" d="M652.03,-144.52C668.5,-142.51 686.97,-140.25 704.62,-138.09"/>
<polygon fill="#63b8ff" stroke="#63b8ff" points="705.39,-141.52 714.89,-136.84 704.54,-134.57 705.39,-141.52"/>
</a>
</g>
</g>
<!-- Node17&#45;&gt;Node13 -->
<g id="edge20_Node000017_Node000013" class="edge">
<title>Node17&#45;&gt;Node13</title>
<g id="a_edge20_Node000017_Node000013"><a xlink:title=" ">
<path fill="none" stroke="#63b8ff" d="M476.78,-111.73C540.74,-115.38 638.07,-120.95 704.9,-124.77"/>
<polygon fill="#63b8ff" stroke="#63b8ff" points="704.76,-128.26 714.95,-125.34 705.16,-121.27 704.76,-128.26"/>
</a>
</g>
</g>
</g>
</svg>

<g id="navigator" transform="translate(0 0)" fill="#404254">
  <rect fill="#f2f5e9" fill-opacity="0.5" stroke="#606060" stroke-width=".5" x="0" y="0" width="60" height="60"/>
  <use id="zoomplus" xlink:href="#zoomPlus" x="17" y="9" onmousedown="handleZoom(evt,'in')"/>
  <use id="zoomminus" xlink:href="#zoomMin" x="42" y="9" onmousedown="handleZoom(evt,'out')"/>
  <use id="reset" xlink:href="#resetDef" x="30" y="36" onmousedown="handleReset()"/>
   <use id="arrowup" xlink:href="#arrowUp" x="0" y="0" onmousedown="handlePan(0,-1)"/>
  <use id="arrowright" xlink:href="#arrowRight" x="0" y="0" onmousedown="handlePan(1,0)"/>
  <use id="arrowdown" xlink:href="#arrowDown" x="0" y="0" onmousedown="handlePan(0,1)"/>
  <use id="arrowleft" xlink:href="#arrowLeft" x="0" y="0" onmousedown="handlePan(-1,0)"/>
</g>
<svg viewBox="0 0 15 15" width="100%" height="30px" preserveAspectRatio="xMaxYMin meet">
 <g id="arrow_out" transform="scale(0.3 0.3)">
  <a xlink:href="namespacegraph__visuals_a870c69decb3e9db3ed97f279c6121748_cgraph_org.svg" target="_base">
   <rect id="button" ry="5" rx="5" y="6" x="6" height="38" width="38"
        fill="#f2f5e9" fill-opacity="0.5" stroke="#606060" stroke-width="1.0"/>
   <path id="arrow"
     d="M 11.500037,31.436501 C 11.940474,20.09759 22.043105,11.32322 32.158766,21.979434 L 37.068811,17.246167 C 37.068811,17.246167 37.088388,32 37.088388,32 L 22.160133,31.978069 C 22.160133,31.978069 26.997745,27.140456 26.997745,27.140456 C 18.528582,18.264221 13.291696,25.230495 11.500037,31.436501 z"
     style="fill:#404040;"/>
  </a>
 </g>
</svg>

<style type='text/css'>
<![CDATA[
[data-mouse-over-selected='false'] { opacity: 0.7; }
[data-mouse-over-selected='true']  { opacity: 1.0; }
]]>
</style>
<script type="application/ecmascript"><![CDATA[
document.addEventListener('DOMContentLoaded', (event) => {
  highlightEdges();
  highlightAdjacentNodes();
});
]]></script>
</svg>
