<?xml version="1.0" encoding="UTF-8" standalone="no"?>
<!DOCTYPE svg PUBLIC "-//W3C//DTD SVG 1.1//EN"
 "http://www.w3.org/Graphics/SVG/1.1/DTD/svg11.dtd">
<!-- Generated by graphviz version 2.43.0 (0)
 -->
<!-- Title: api.database.get_connection Pages: 1 -->
<svg width="493pt" height="86pt"
 viewBox="0.00 0.00 493.00 86.00" xmlns="http://www.w3.org/2000/svg" xmlns:xlink="http://www.w3.org/1999/xlink">

<svg id="main" version="1.1" xmlns="http://www.w3.org/2000/svg" xmlns:xlink="http://www.w3.org/1999/xlink" xml:space="preserve">

<style type="text/css"><![CDATA[
.node, .edge {opacity: 0.7;}
.node.selected, .edge.selected {opacity: 1;}
.edge:hover path { stroke: red; }
.edge:hover polygon { stroke: red; fill: red; }
]]></style>
<script type="application/ecmascript" xlink:href="svg.min.js"/>
<svg id="graph" class="graph">
<g id="graph0" class="graph" transform="scale(1 1) rotate(0) translate(4 82)">
<title>api.database.get_connection</title>
<!-- Node1 -->
<g id="Node000001" class="node">
<title>Node1</title>
<g id="a_Node000001"><a xlink:title=" ">
<polygon fill="#999999" stroke="#666666" points="485,-47.5 328,-47.5 328,-28.5 485,-28.5 485,-47.5"/>
<text text-anchor="middle" x="406.5" y="-35.5" font-family="Helvetica,sans-Serif" font-size="10.00">api.database.get_connection</text>
</a>
</g>
</g>
<!-- Node2 -->
<g id="Node000002" class="node">
<title>Node2</title>
<g id="a_Node000002"><a xlink:href="namespaceapi_1_1database.html#ad11e531eb65a89c7f8f2b4a41dd57b7d" target="_top" xlink:title=" ">
<polygon fill="white" stroke="#666666" points="287,-69.5 166,-69.5 166,-50.5 287,-50.5 287,-69.5"/>
<text text-anchor="middle" x="226.5" y="-57.5" font-family="Helvetica,sans-Serif" font-size="10.00">api.database.execute</text>
</a>
</g>
</g>
<!-- Node1&#45;&gt;Node2 -->
<g id="edge1_Node000001_Node000002" class="edge">
<title>Node1&#45;&gt;Node2</title>
<g id="a_edge1_Node000001_Node000002"><a xlink:title=" ">
<path fill="none" stroke="#63b8ff" d="M318.38,-48.77C307.83,-50.07 297.24,-51.38 287.22,-52.62"/>
<polygon fill="#63b8ff" stroke="#63b8ff" points="318.97,-52.22 328.46,-47.52 318.11,-45.27 318.97,-52.22"/>
</a>
</g>
</g>
<!-- Node4 -->
<g id="Node000004" class="node">
<title>Node4</title>
<g id="a_Node000004"><a xlink:href="namespaceapi_1_1database.html#a71b75b8190d8ed80254f80faa05a7948" target="_top" xlink:title=" ">
<polygon fill="white" stroke="#666666" points="292,-29.5 161,-29.5 161,-10.5 292,-10.5 292,-29.5"/>
<text text-anchor="middle" x="226.5" y="-17.5" font-family="Helvetica,sans-Serif" font-size="10.00">api.database.fetch_one</text>
</a>
</g>
</g>
<!-- Node1&#45;&gt;Node4 -->
<g id="edge3_Node000001_Node000004" class="edge">
<title>Node1&#45;&gt;Node4</title>
<g id="a_edge3_Node000001_Node000004"><a xlink:title=" ">
<path fill="none" stroke="#63b8ff" d="M317.78,-29.13C309.1,-28.25 300.4,-27.37 292.01,-26.52"/>
<polygon fill="#63b8ff" stroke="#63b8ff" points="317.64,-32.63 327.94,-30.16 318.35,-25.67 317.64,-32.63"/>
</a>
</g>
</g>
<!-- Node3 -->
<g id="Node000003" class="node">
<title>Node3</title>
<g id="a_Node000003"><a xlink:href="namespaceapi_1_1database.html#a60790c5dbf753da6b2bccf09d471b534" target="_top" xlink:title=" ">
<polygon fill="white" stroke="#666666" points="125,-78 0,-78 0,-48 125,-48 125,-78"/>
<text text-anchor="start" x="8" y="-66" font-family="Helvetica,sans-Serif" font-size="10.00">api.database.initialize</text>
<text text-anchor="middle" x="62.5" y="-55" font-family="Helvetica,sans-Serif" font-size="10.00">_schema</text>
</a>
</g>
</g>
<!-- Node2&#45;&gt;Node3 -->
<g id="edge2_Node000002_Node000003" class="edge">
<title>Node2&#45;&gt;Node3</title>
<g id="a_edge2_Node000002_Node000003"><a xlink:title=" ">
<path fill="none" stroke="#63b8ff" d="M155.57,-61.29C145.4,-61.48 135,-61.68 125.01,-61.86"/>
<polygon fill="#63b8ff" stroke="#63b8ff" points="155.7,-64.79 165.64,-61.11 155.57,-57.79 155.7,-64.79"/>
</a>
</g>
</g>
<!-- Node5 -->
<g id="Node000005" class="node">
<title>Node5</title>
<g id="a_Node000005"><a xlink:href="namespaceapi_1_1database.html#ac1c087e886aa857ebb7fb847b74b896f" target="_top" xlink:title=" ">
<polygon fill="white" stroke="#666666" points="116,-30 9,-30 9,0 116,0 116,-30"/>
<text text-anchor="start" x="17" y="-18" font-family="Helvetica,sans-Serif" font-size="10.00">api.database.fetch</text>
<text text-anchor="middle" x="62.5" y="-7" font-family="Helvetica,sans-Serif" font-size="10.00">_value</text>
</a>
</g>
</g>
<!-- Node4&#45;&gt;Node5 -->
<g id="edge4_Node000004_Node000005" class="edge">
<title>Node4&#45;&gt;Node5</title>
<g id="a_edge4_Node000004_Node000005"><a xlink:title=" ">
<path fill="none" stroke="#63b8ff" d="M150.4,-17.68C138.78,-17.32 127.01,-16.96 116.03,-16.62"/>
<polygon fill="#63b8ff" stroke="#63b8ff" points="150.44,-21.18 160.54,-18 150.65,-14.19 150.44,-21.18"/>
</a>
</g>
</g>
</g>
</svg>
</svg>

<style type='text/css'>
<![CDATA[
[data-mouse-over-selected='false'] { opacity: 0.7; }
[data-mouse-over-selected='true']  { opacity: 1.0; }
]]>
</style>
<script type="application/ecmascript"><![CDATA[
document.addEventListener('DOMContentLoaded', (event) => {
  highlightEdges();
  highlightAdjacentNodes();
});
]]></script>
</svg>
