<?xml version="1.0" encoding="UTF-8" standalone="no"?>
<!DOCTYPE svg PUBLIC "-//W3C//DTD SVG 1.1//EN"
 "http://www.w3.org/Graphics/SVG/1.1/DTD/svg11.dtd">
<!-- Generated by graphviz version 2.43.0 (0)
 -->
<!-- Title: conftest._cov_plugin_available Pages: 1 -->
<svg width="601pt" height="1478pt"
 viewBox="0.00 0.00 601.00 1477.50" xmlns="http://www.w3.org/2000/svg" xmlns:xlink="http://www.w3.org/1999/xlink">
<g id="graph0" class="graph" transform="scale(1 1) rotate(0) translate(4 1473.5)">
<title>conftest._cov_plugin_available</title>
<!-- Node1 -->
<g id="Node000001" class="node">
<title>Node1</title>
<g id="a_Node000001"><a xlink:title=" ">
<polygon fill="#999999" stroke="#666666" points="593,-657.5 477,-657.5 477,-627.5 593,-627.5 593,-657.5"/>
<text text-anchor="start" x="485" y="-645.5" font-family="Helvetica,sans-Serif" font-size="10.00">conftest._cov_plugin</text>
<text text-anchor="middle" x="535" y="-634.5" font-family="Helvetica,sans-Serif" font-size="10.00">_available</text>
</a>
</g>
</g>
<!-- Node2 -->
<g id="Node000002" class="node">
<title>Node2</title>
<g id="a_Node000002"><a xlink:href="namespaceconftest.html#adb13904a10de918e798d257ae36583d7" target="_top" xlink:title=" ">
<polygon fill="white" stroke="#666666" points="397.5,-741.5 281.5,-741.5 281.5,-711.5 397.5,-711.5 397.5,-741.5"/>
<text text-anchor="start" x="289.5" y="-729.5" font-family="Helvetica,sans-Serif" font-size="10.00">conftest.pytest_load</text>
<text text-anchor="middle" x="339.5" y="-718.5" font-family="Helvetica,sans-Serif" font-size="10.00">_initial_conftests</text>
</a>
</g>
</g>
<!-- Node1&#45;&gt;Node2 -->
<g id="edge1_Node000001_Node000002" class="edge">
<title>Node1&#45;&gt;Node2</title>
<g id="a_edge1_Node000001_Node000002"><a xlink:title=" ">
<path fill="none" stroke="#63b8ff" d="M506.58,-663.73C488.76,-676.61 464.54,-692.45 441,-702.5 427.39,-708.31 412.12,-712.87 397.66,-716.38"/>
<polygon fill="#63b8ff" stroke="#63b8ff" points="508.81,-666.44 514.78,-657.69 504.66,-660.8 508.81,-666.44"/>
</a>
</g>
</g>
<!-- Node25 -->
<g id="Node000025" class="node">
<title>Node25</title>
<g id="a_Node000025"><a xlink:href="classtests_1_1unit_1_1test__root__conftest_1_1TestCovPluginAvailable.html#a1a61a6287f3099da36b090e7df9a9370" target="_top" xlink:title=" ">
<polygon fill="white" stroke="#666666" points="440.5,-693 238.5,-693 238.5,-652 440.5,-652 440.5,-693"/>
<text text-anchor="start" x="246.5" y="-681" font-family="Helvetica,sans-Serif" font-size="10.00">tests.unit.test_root</text>
<text text-anchor="start" x="246.5" y="-670" font-family="Helvetica,sans-Serif" font-size="10.00">_conftest.TestCovPluginAvailable.test</text>
<text text-anchor="middle" x="339.5" y="-659" font-family="Helvetica,sans-Serif" font-size="10.00">_cov_plugin_available_uses_importlib</text>
</a>
</g>
</g>
<!-- Node1&#45;&gt;Node25 -->
<g id="edge24_Node000001_Node000025" class="edge">
<title>Node1&#45;&gt;Node25</title>
<g id="a_edge24_Node000001_Node000025"><a xlink:title=" ">
<path fill="none" stroke="#63b8ff" d="M467.11,-652.87C458.53,-654.2 449.62,-655.58 440.66,-656.97"/>
<polygon fill="#63b8ff" stroke="#63b8ff" points="467.64,-656.33 476.99,-651.34 466.57,-649.41 467.64,-656.33"/>
</a>
</g>
</g>
<!-- Node26 -->
<g id="Node000026" class="node">
<title>Node26</title>
<g id="a_Node000026"><a xlink:href="classtests_1_1unit_1_1test__root__conftest_1_1TestCovPluginAvailable.html#ac31f1bd683ef8ee43e1dd863f279d50a" target="_top" xlink:title=" ">
<polygon fill="white" stroke="#666666" points="441,-634 238,-634 238,-593 441,-593 441,-634"/>
<text text-anchor="start" x="246" y="-622" font-family="Helvetica,sans-Serif" font-size="10.00">tests.unit.test_root</text>
<text text-anchor="start" x="246" y="-611" font-family="Helvetica,sans-Serif" font-size="10.00">_conftest.TestCovPluginAvailable.test</text>
<text text-anchor="middle" x="339.5" y="-600" font-family="Helvetica,sans-Serif" font-size="10.00">_cov_plugin_available_when_installed</text>
</a>
</g>
</g>
<!-- Node1&#45;&gt;Node26 -->
<g id="edge25_Node000001_Node000026" class="edge">
<title>Node1&#45;&gt;Node26</title>
<g id="a_edge25_Node000001_Node000026"><a xlink:title=" ">
<path fill="none" stroke="#63b8ff" d="M466.93,-632.45C458.53,-631.19 449.8,-629.88 441.02,-628.57"/>
<polygon fill="#63b8ff" stroke="#63b8ff" points="466.58,-635.93 476.99,-633.96 467.62,-629.01 466.58,-635.93"/>
</a>
</g>
</g>
<!-- Node27 -->
<g id="Node000027" class="node">
<title>Node27</title>
<g id="a_Node000027"><a xlink:href="classtests_1_1unit_1_1test__root__conftest_1_1TestCovPluginAvailable.html#a5713fa68dc0b99f7c991c75feff3d80f" target="_top" xlink:title=" ">
<polygon fill="white" stroke="#666666" points="439,-574.5 240,-574.5 240,-522.5 439,-522.5 439,-574.5"/>
<text text-anchor="start" x="248" y="-562.5" font-family="Helvetica,sans-Serif" font-size="10.00">tests.unit.test_root</text>
<text text-anchor="start" x="248" y="-551.5" font-family="Helvetica,sans-Serif" font-size="10.00">_conftest.TestCovPluginAvailable.test</text>
<text text-anchor="start" x="248" y="-540.5" font-family="Helvetica,sans-Serif" font-size="10.00">_cov_plugin_not_available_when</text>
<text text-anchor="middle" x="339.5" y="-529.5" font-family="Helvetica,sans-Serif" font-size="10.00">_not_installed</text>
</a>
</g>
</g>
<!-- Node1&#45;&gt;Node27 -->
<g id="edge26_Node000001_Node000027" class="edge">
<title>Node1&#45;&gt;Node27</title>
<g id="a_edge26_Node000001_Node000027"><a xlink:title=" ">
<path fill="none" stroke="#63b8ff" d="M503.83,-621.39C486.08,-609.55 462.88,-595.09 441,-584.5 433.83,-581.03 426.23,-577.71 418.55,-574.58"/>
<polygon fill="#63b8ff" stroke="#63b8ff" points="502.34,-624.6 512.58,-627.3 506.26,-618.8 502.34,-624.6"/>
</a>
</g>
</g>
<!-- Node3 -->
<g id="Node000003" class="node">
<title>Node3</title>
<g id="a_Node000003"><a xlink:href="classtests_1_1unit_1_1test__root__conftest_1_1TestPytestLoadInitialConftests.html#a48d64ac903f416416d01393be6b8a03f" target="_top" xlink:title=" ">
<polygon fill="white" stroke="#666666" points="183.5,-1469.5 18.5,-1469.5 18.5,-1417.5 183.5,-1417.5 183.5,-1469.5"/>
<text text-anchor="start" x="26.5" y="-1457.5" font-family="Helvetica,sans-Serif" font-size="10.00">tests.unit.test_root</text>
<text text-anchor="start" x="26.5" y="-1446.5" font-family="Helvetica,sans-Serif" font-size="10.00">_conftest.TestPytestLoadInitial</text>
<text text-anchor="start" x="26.5" y="-1435.5" font-family="Helvetica,sans-Serif" font-size="10.00">Conftests.test_does_nothing</text>
<text text-anchor="middle" x="101" y="-1424.5" font-family="Helvetica,sans-Serif" font-size="10.00">_when_cov_plugin_available</text>
</a>
</g>
</g>
<!-- Node2&#45;&gt;Node3 -->
<g id="edge2_Node000002_Node000003" class="edge">
<title>Node2&#45;&gt;Node3</title>
<g id="a_edge2_Node000002_Node000003"><a xlink:title=" ">
<path fill="none" stroke="#63b8ff" d="M336.72,-752.02C328.47,-863.49 290.49,-1306.76 202,-1408.5 196.81,-1414.47 190.54,-1419.42 183.7,-1423.53"/>
<polygon fill="#63b8ff" stroke="#63b8ff" points="340.23,-751.96 337.47,-741.73 333.25,-751.45 340.23,-751.96"/>
</a>
</g>
</g>
<!-- Node4 -->
<g id="Node000004" class="node">
<title>Node4</title>
<g id="a_Node000004"><a xlink:href="classtests_1_1unit_1_1test__root__conftest_1_1TestPytestLoadInitialConftests.html#a0c145922f69b91a3fb6f17d933728880" target="_top" xlink:title=" ">
<polygon fill="white" stroke="#666666" points="183.5,-1399.5 18.5,-1399.5 18.5,-1347.5 183.5,-1347.5 183.5,-1399.5"/>
<text text-anchor="start" x="26.5" y="-1387.5" font-family="Helvetica,sans-Serif" font-size="10.00">tests.unit.test_root</text>
<text text-anchor="start" x="26.5" y="-1376.5" font-family="Helvetica,sans-Serif" font-size="10.00">_conftest.TestPytestLoadInitial</text>
<text text-anchor="start" x="26.5" y="-1365.5" font-family="Helvetica,sans-Serif" font-size="10.00">Conftests.test_handles_args</text>
<text text-anchor="middle" x="101" y="-1354.5" font-family="Helvetica,sans-Serif" font-size="10.00">_with_only_coverage_flags</text>
</a>
</g>
</g>
<!-- Node2&#45;&gt;Node4 -->
<g id="edge3_Node000002_Node000004" class="edge">
<title>Node2&#45;&gt;Node4</title>
<g id="a_edge3_Node000002_Node000004"><a xlink:title=" ">
<path fill="none" stroke="#63b8ff" d="M336.12,-751.7C325.85,-855.44 282.17,-1248.33 202,-1338.5 196.74,-1344.41 190.43,-1349.32 183.57,-1353.41"/>
<polygon fill="#63b8ff" stroke="#63b8ff" points="339.62,-751.83 337.11,-741.54 332.66,-751.15 339.62,-751.83"/>
</a>
</g>
</g>
<!-- Node5 -->
<g id="Node000005" class="node">
<title>Node5</title>
<g id="a_Node000005"><a xlink:href="classtests_1_1unit_1_1test__root__conftest_1_1TestCoverageFilteringEdgeCases.html#aab14eb5cb2f1b34b39b2336c87ac4a8c" target="_top" xlink:title=" ">
<polygon fill="white" stroke="#666666" points="200.5,-1329.5 1.5,-1329.5 1.5,-1277.5 200.5,-1277.5 200.5,-1329.5"/>
<text text-anchor="start" x="9.5" y="-1317.5" font-family="Helvetica,sans-Serif" font-size="10.00">tests.unit.test_root</text>
<text text-anchor="start" x="9.5" y="-1306.5" font-family="Helvetica,sans-Serif" font-size="10.00">_conftest.TestCoverageFiltering</text>
<text text-anchor="start" x="9.5" y="-1295.5" font-family="Helvetica,sans-Serif" font-size="10.00">EdgeCases.test_handles_consecutive</text>
<text text-anchor="middle" x="101" y="-1284.5" font-family="Helvetica,sans-Serif" font-size="10.00">_coverage_flags</text>
</a>
</g>
</g>
<!-- Node2&#45;&gt;Node5 -->
<g id="edge4_Node000002_Node000005" class="edge">
<title>Node2&#45;&gt;Node5</title>
<g id="a_edge4_Node000002_Node000005"><a xlink:title=" ">
<path fill="none" stroke="#63b8ff" d="M335.35,-751.57C322.85,-847.5 273.85,-1189.87 202,-1268.5 199.02,-1271.76 195.72,-1274.71 192.19,-1277.39"/>
<polygon fill="#63b8ff" stroke="#63b8ff" points="338.83,-751.97 336.64,-741.6 331.89,-751.07 338.83,-751.97"/>
</a>
</g>
</g>
<!-- Node6 -->
<g id="Node000006" class="node">
<title>Node6</title>
<g id="a_Node000006"><a xlink:href="classtests_1_1unit_1_1test__root__conftest_1_1TestCoverageFilteringEdgeCases.html#a4a8a6645cf3262819eaddedf4a5692af" target="_top" xlink:title=" ">
<polygon fill="white" stroke="#666666" points="186,-1259.5 16,-1259.5 16,-1207.5 186,-1207.5 186,-1259.5"/>
<text text-anchor="start" x="24" y="-1247.5" font-family="Helvetica,sans-Serif" font-size="10.00">tests.unit.test_root</text>
<text text-anchor="start" x="24" y="-1236.5" font-family="Helvetica,sans-Serif" font-size="10.00">_conftest.TestCoverageFiltering</text>
<text text-anchor="start" x="24" y="-1225.5" font-family="Helvetica,sans-Serif" font-size="10.00">EdgeCases.test_handles_cov</text>
<text text-anchor="middle" x="101" y="-1214.5" font-family="Helvetica,sans-Serif" font-size="10.00">_flag_at_end_with_no_value</text>
</a>
</g>
</g>
<!-- Node2&#45;&gt;Node6 -->
<g id="edge5_Node000002_Node000006" class="edge">
<title>Node2&#45;&gt;Node6</title>
<g id="a_edge5_Node000002_Node000006"><a xlink:title=" ">
<path fill="none" stroke="#63b8ff" d="M338.81,-751.82C338.35,-829.5 326.34,-1067.1 202,-1198.5 197.32,-1203.44 191.91,-1207.69 186.07,-1211.33"/>
<polygon fill="#63b8ff" stroke="#63b8ff" points="342.31,-751.55 338.8,-741.55 335.31,-751.55 342.31,-751.55"/>
</a>
</g>
</g>
<!-- Node7 -->
<g id="Node000007" class="node">
<title>Node7</title>
<g id="a_Node000007"><a xlink:href="classtests_1_1unit_1_1test__root__conftest_1_1TestCoverageFilteringEdgeCases.html#a54e76345fbf87ec28d17d14bd4ce53c7" target="_top" xlink:title=" ">
<polygon fill="white" stroke="#666666" points="186,-1189.5 16,-1189.5 16,-1137.5 186,-1137.5 186,-1189.5"/>
<text text-anchor="start" x="24" y="-1177.5" font-family="Helvetica,sans-Serif" font-size="10.00">tests.unit.test_root</text>
<text text-anchor="start" x="24" y="-1166.5" font-family="Helvetica,sans-Serif" font-size="10.00">_conftest.TestCoverageFiltering</text>
<text text-anchor="start" x="24" y="-1155.5" font-family="Helvetica,sans-Serif" font-size="10.00">EdgeCases.test_handles_cov</text>
<text text-anchor="middle" x="101" y="-1144.5" font-family="Helvetica,sans-Serif" font-size="10.00">_flags_with_complex_values</text>
</a>
</g>
</g>
<!-- Node2&#45;&gt;Node7 -->
<g id="edge6_Node000002_Node000007" class="edge">
<title>Node2&#45;&gt;Node7</title>
<g id="a_edge6_Node000002_Node000007"><a xlink:title=" ">
<path fill="none" stroke="#63b8ff" d="M337.31,-751.76C332.65,-821.61 310.08,-1019.41 202,-1128.5 197.34,-1133.2 192.01,-1137.28 186.3,-1140.8"/>
<polygon fill="#63b8ff" stroke="#63b8ff" points="340.81,-751.87 337.91,-741.68 333.82,-751.45 340.81,-751.87"/>
</a>
</g>
</g>
<!-- Node8 -->
<g id="Node000008" class="node">
<title>Node8</title>
<g id="a_Node000008"><a xlink:href="classtests_1_1unit_1_1test__root__conftest_1_1TestCoverageFilteringEdgeCases.html#a5b96abd9e3e492ad0a50480b9fd5ff22" target="_top" xlink:title=" ">
<polygon fill="white" stroke="#666666" points="186,-1119.5 16,-1119.5 16,-1067.5 186,-1067.5 186,-1119.5"/>
<text text-anchor="start" x="24" y="-1107.5" font-family="Helvetica,sans-Serif" font-size="10.00">tests.unit.test_root</text>
<text text-anchor="start" x="24" y="-1096.5" font-family="Helvetica,sans-Serif" font-size="10.00">_conftest.TestCoverageFiltering</text>
<text text-anchor="start" x="24" y="-1085.5" font-family="Helvetica,sans-Serif" font-size="10.00">EdgeCases.test_handles_cov</text>
<text text-anchor="middle" x="101" y="-1074.5" font-family="Helvetica,sans-Serif" font-size="10.00">_in_test_path</text>
</a>
</g>
</g>
<!-- Node2&#45;&gt;Node8 -->
<g id="edge7_Node000002_Node000008" class="edge">
<title>Node2&#45;&gt;Node8</title>
<g id="a_edge7_Node000002_Node000008"><a xlink:title=" ">
<path fill="none" stroke="#63b8ff" d="M335.28,-751.41C326.09,-812.51 294.16,-971.14 202,-1058.5 197.33,-1062.93 192.06,-1066.8 186.46,-1070.19"/>
<polygon fill="#63b8ff" stroke="#63b8ff" points="338.75,-751.9 336.7,-741.5 331.82,-750.9 338.75,-751.9"/>
</a>
</g>
</g>
<!-- Node9 -->
<g id="Node000009" class="node">
<title>Node9</title>
<g id="a_Node000009"><a xlink:href="classtests_1_1unit_1_1test__root__conftest_1_1TestCoverageFilteringEdgeCases.html#a1aefac2e1996b70a5138c7a99ada09bf" target="_top" xlink:title=" ">
<polygon fill="white" stroke="#666666" points="186,-1049.5 16,-1049.5 16,-997.5 186,-997.5 186,-1049.5"/>
<text text-anchor="start" x="24" y="-1037.5" font-family="Helvetica,sans-Serif" font-size="10.00">tests.unit.test_root</text>
<text text-anchor="start" x="24" y="-1026.5" font-family="Helvetica,sans-Serif" font-size="10.00">_conftest.TestCoverageFiltering</text>
<text text-anchor="start" x="24" y="-1015.5" font-family="Helvetica,sans-Serif" font-size="10.00">EdgeCases.test_handles_cov</text>
<text text-anchor="middle" x="101" y="-1004.5" font-family="Helvetica,sans-Serif" font-size="10.00">_report_at_end_with_no_value</text>
</a>
</g>
</g>
<!-- Node2&#45;&gt;Node9 -->
<g id="edge8_Node000002_Node000009" class="edge">
<title>Node2&#45;&gt;Node9</title>
<g id="a_edge8_Node000002_Node000009"><a xlink:title=" ">
<path fill="none" stroke="#63b8ff" d="M332.16,-751.67C317.85,-803.45 278.2,-922.53 202,-988.5 197.13,-992.71 191.73,-996.43 186.02,-999.7"/>
<polygon fill="#63b8ff" stroke="#63b8ff" points="335.63,-752.26 334.83,-741.69 328.86,-750.44 335.63,-752.26"/>
</a>
</g>
</g>
<!-- Node10 -->
<g id="Node000010" class="node">
<title>Node10</title>
<g id="a_Node000010"><a xlink:href="classtests_1_1unit_1_1test__root__conftest_1_1TestPytestLoadInitialConftests.html#a8f111009e8b2e0fe37b5f45ae5bb403a" target="_top" xlink:title=" ">
<polygon fill="white" stroke="#666666" points="183.5,-979.5 18.5,-979.5 18.5,-927.5 183.5,-927.5 183.5,-979.5"/>
<text text-anchor="start" x="26.5" y="-967.5" font-family="Helvetica,sans-Serif" font-size="10.00">tests.unit.test_root</text>
<text text-anchor="start" x="26.5" y="-956.5" font-family="Helvetica,sans-Serif" font-size="10.00">_conftest.TestPytestLoadInitial</text>
<text text-anchor="start" x="26.5" y="-945.5" font-family="Helvetica,sans-Serif" font-size="10.00">Conftests.test_handles_empty</text>
<text text-anchor="middle" x="101" y="-934.5" font-family="Helvetica,sans-Serif" font-size="10.00">_args_list</text>
</a>
</g>
</g>
<!-- Node2&#45;&gt;Node10 -->
<g id="edge9_Node000002_Node000010" class="edge">
<title>Node2&#45;&gt;Node10</title>
<g id="a_edge9_Node000002_Node000010"><a xlink:title=" ">
<path fill="none" stroke="#63b8ff" d="M327.44,-750.76C307.82,-791.21 263.15,-872.52 202,-918.5 196.34,-922.76 190.12,-926.52 183.64,-929.85"/>
<polygon fill="#63b8ff" stroke="#63b8ff" points="330.65,-752.16 331.78,-741.63 324.33,-749.16 330.65,-752.16"/>
</a>
</g>
</g>
<!-- Node11 -->
<g id="Node000011" class="node">
<title>Node11</title>
<g id="a_Node000011"><a xlink:href="classtests_1_1unit_1_1test__root__conftest_1_1TestCoverageFilteringEdgeCases.html#a57b56cd4326d60bd67a029f9115e2142" target="_top" xlink:title=" ">
<polygon fill="white" stroke="#666666" points="186,-909.5 16,-909.5 16,-857.5 186,-857.5 186,-909.5"/>
<text text-anchor="start" x="24" y="-897.5" font-family="Helvetica,sans-Serif" font-size="10.00">tests.unit.test_root</text>
<text text-anchor="start" x="24" y="-886.5" font-family="Helvetica,sans-Serif" font-size="10.00">_conftest.TestCoverageFiltering</text>
<text text-anchor="start" x="24" y="-875.5" font-family="Helvetica,sans-Serif" font-size="10.00">EdgeCases.test_handles_mixed</text>
<text text-anchor="middle" x="101" y="-864.5" font-family="Helvetica,sans-Serif" font-size="10.00">_equals_and_space_syntax</text>
</a>
</g>
</g>
<!-- Node2&#45;&gt;Node11 -->
<g id="edge10_Node000002_Node000011" class="edge">
<title>Node2&#45;&gt;Node11</title>
<g id="a_edge10_Node000002_Node000011"><a xlink:title=" ">
<path fill="none" stroke="#63b8ff" d="M318.48,-749.16C293.57,-776.15 248.59,-821.01 202,-848.5 196.53,-851.72 190.73,-854.72 184.77,-857.48"/>
<polygon fill="#63b8ff" stroke="#63b8ff" points="321.11,-751.48 325.25,-741.73 315.93,-746.76 321.11,-751.48"/>
</a>
</g>
</g>
<!-- Node12 -->
<g id="Node000012" class="node">
<title>Node12</title>
<g id="a_Node000012"><a xlink:href="classtests_1_1unit_1_1test__root__conftest_1_1TestRealWorldScenarios.html#aefa613792dabfb4d4022cc2912c22611" target="_top" xlink:title=" ">
<polygon fill="white" stroke="#666666" points="202,-839 0,-839 0,-798 202,-798 202,-839"/>
<text text-anchor="start" x="8" y="-827" font-family="Helvetica,sans-Serif" font-size="10.00">tests.unit.test_root</text>
<text text-anchor="start" x="8" y="-816" font-family="Helvetica,sans-Serif" font-size="10.00">_conftest.TestRealWorldScenarios.test</text>
<text text-anchor="middle" x="101" y="-805" font-family="Helvetica,sans-Serif" font-size="10.00">_local_development_without_cov</text>
</a>
</g>
</g>
<!-- Node2&#45;&gt;Node12 -->
<g id="edge11_Node000002_Node000012" class="edge">
<title>Node2&#45;&gt;Node12</title>
<g id="a_edge11_Node000002_Node000012"><a xlink:title=" ">
<path fill="none" stroke="#63b8ff" d="M300.12,-746.1C273.12,-759.41 235.9,-776.84 202,-789.5 194.13,-792.44 185.81,-795.27 177.48,-797.93"/>
<polygon fill="#63b8ff" stroke="#63b8ff" points="301.83,-749.16 309.22,-741.57 298.71,-742.89 301.83,-749.16"/>
</a>
</g>
</g>
<!-- Node13 -->
<g id="Node000013" class="node">
<title>Node13</title>
<g id="a_Node000013"><a xlink:href="classtests_1_1unit_1_1test__root__conftest_1_1TestRealWorldScenarios.html#a979c17298769fc22ce2a3501892e79d6" target="_top" xlink:title=" ">
<polygon fill="white" stroke="#666666" points="202,-780 0,-780 0,-739 202,-739 202,-780"/>
<text text-anchor="start" x="8" y="-768" font-family="Helvetica,sans-Serif" font-size="10.00">tests.unit.test_root</text>
<text text-anchor="start" x="8" y="-757" font-family="Helvetica,sans-Serif" font-size="10.00">_conftest.TestRealWorldScenarios.test</text>
<text text-anchor="middle" x="101" y="-746" font-family="Helvetica,sans-Serif" font-size="10.00">_mixed_short_and_long_flags</text>
</a>
</g>
</g>
<!-- Node2&#45;&gt;Node13 -->
<g id="edge12_Node000002_Node000013" class="edge">
<title>Node2&#45;&gt;Node13</title>
<g id="a_edge12_Node000002_Node000013"><a xlink:title=" ">
<path fill="none" stroke="#63b8ff" d="M271.25,-735.88C249.74,-738.88 225.45,-742.27 202.12,-745.53"/>
<polygon fill="#63b8ff" stroke="#63b8ff" points="271.83,-739.34 281.25,-734.49 270.86,-732.4 271.83,-739.34"/>
</a>
</g>
</g>
<!-- Node14 -->
<g id="Node000014" class="node">
<title>Node14</title>
<g id="a_Node000014"><a xlink:href="classtests_1_1unit_1_1test__root__conftest_1_1TestPytestLoadInitialConftests.html#a99cf3217e502f06af8f96ed9ca3fe128" target="_top" xlink:title=" ">
<polygon fill="white" stroke="#666666" points="183.5,-720.5 18.5,-720.5 18.5,-668.5 183.5,-668.5 183.5,-720.5"/>
<text text-anchor="start" x="26.5" y="-708.5" font-family="Helvetica,sans-Serif" font-size="10.00">tests.unit.test_root</text>
<text text-anchor="start" x="26.5" y="-697.5" font-family="Helvetica,sans-Serif" font-size="10.00">_conftest.TestPytestLoadInitial</text>
<text text-anchor="start" x="26.5" y="-686.5" font-family="Helvetica,sans-Serif" font-size="10.00">Conftests.test_modifies_args</text>
<text text-anchor="middle" x="101" y="-675.5" font-family="Helvetica,sans-Serif" font-size="10.00">_in_place</text>
</a>
</g>
</g>
<!-- Node2&#45;&gt;Node14 -->
<g id="edge13_Node000002_Node000014" class="edge">
<title>Node2&#45;&gt;Node14</title>
<g id="a_edge13_Node000002_Node000014"><a xlink:title=" ">
<path fill="none" stroke="#63b8ff" d="M271.06,-717.37C243.86,-713.7 212.24,-709.42 183.75,-705.56"/>
<polygon fill="#63b8ff" stroke="#63b8ff" points="270.87,-720.88 281.25,-718.75 271.81,-713.94 270.87,-720.88"/>
</a>
</g>
</g>
<!-- Node15 -->
<g id="Node000015" class="node">
<title>Node15</title>
<g id="a_Node000015"><a xlink:href="classtests_1_1unit_1_1test__root__conftest_1_1TestRealWorldScenarios.html#a223071515e0ea371fa9ab6eccc74a415" target="_top" xlink:title=" ">
<polygon fill="white" stroke="#666666" points="202,-650 0,-650 0,-609 202,-609 202,-650"/>
<text text-anchor="start" x="8" y="-638" font-family="Helvetica,sans-Serif" font-size="10.00">tests.unit.test_root</text>
<text text-anchor="start" x="8" y="-627" font-family="Helvetica,sans-Serif" font-size="10.00">_conftest.TestRealWorldScenarios.test</text>
<text text-anchor="middle" x="101" y="-616" font-family="Helvetica,sans-Serif" font-size="10.00">_multiple_coverage_sources</text>
</a>
</g>
</g>
<!-- Node2&#45;&gt;Node15 -->
<g id="edge14_Node000002_Node000015" class="edge">
<title>Node2&#45;&gt;Node15</title>
<g id="a_edge14_Node000002_Node000015"><a xlink:title=" ">
<path fill="none" stroke="#63b8ff" d="M271.65,-716.88C259.9,-713.45 248.19,-708.8 238,-702.5 216.8,-689.39 222.81,-673.21 202,-659.5 196.63,-655.96 190.82,-652.82 184.81,-650.05"/>
<polygon fill="#63b8ff" stroke="#63b8ff" points="270.94,-720.31 281.5,-719.48 272.72,-713.54 270.94,-720.31"/>
</a>
</g>
</g>
<!-- Node16 -->
<g id="Node000016" class="node">
<title>Node16</title>
<g id="a_Node000016"><a xlink:href="classtests_1_1unit_1_1test__root__conftest_1_1TestPytestLoadInitialConftests.html#ad74bcea2c2ad70645a6ebf0f2c318d7d" target="_top" xlink:title=" ">
<polygon fill="white" stroke="#666666" points="199.5,-591 2.5,-591 2.5,-550 199.5,-550 199.5,-591"/>
<text text-anchor="start" x="10.5" y="-579" font-family="Helvetica,sans-Serif" font-size="10.00">tests.unit.test_root</text>
<text text-anchor="start" x="10.5" y="-568" font-family="Helvetica,sans-Serif" font-size="10.00">_conftest.TestPytestLoadInitial</text>
<text text-anchor="middle" x="101" y="-557" font-family="Helvetica,sans-Serif" font-size="10.00">Conftests.test_preserves_other_flags</text>
</a>
</g>
</g>
<!-- Node2&#45;&gt;Node16 -->
<g id="edge15_Node000002_Node000016" class="edge">
<title>Node2&#45;&gt;Node16</title>
<g id="a_edge15_Node000002_Node000016"><a xlink:title=" ">
<path fill="none" stroke="#63b8ff" d="M271.54,-720.31C259.28,-716.6 247.42,-710.98 238,-702.5 202.27,-670.34 236.8,-633.67 202,-600.5 198.33,-597 194.26,-593.9 189.93,-591.17"/>
<polygon fill="#63b8ff" stroke="#63b8ff" points="270.84,-723.74 281.4,-722.88 272.61,-716.97 270.84,-723.74"/>
</a>
</g>
</g>
<!-- Node17 -->
<g id="Node000017" class="node">
<title>Node17</title>
<g id="a_Node000017"><a xlink:href="classtests_1_1unit_1_1test__root__conftest_1_1TestCoverageFilteringEdgeCases.html#a154fdde32fd4cda2d02ad88e1fb680a4" target="_top" xlink:title=" ">
<polygon fill="white" stroke="#666666" points="193,-531.5 9,-531.5 9,-479.5 193,-479.5 193,-531.5"/>
<text text-anchor="start" x="17" y="-519.5" font-family="Helvetica,sans-Serif" font-size="10.00">tests.unit.test_root</text>
<text text-anchor="start" x="17" y="-508.5" font-family="Helvetica,sans-Serif" font-size="10.00">_conftest.TestCoverageFiltering</text>
<text text-anchor="start" x="17" y="-497.5" font-family="Helvetica,sans-Serif" font-size="10.00">EdgeCases.test_preserves_similar</text>
<text text-anchor="middle" x="101" y="-486.5" font-family="Helvetica,sans-Serif" font-size="10.00">_but_different_flags</text>
</a>
</g>
</g>
<!-- Node2&#45;&gt;Node17 -->
<g id="edge16_Node000002_Node000017" class="edge">
<title>Node2&#45;&gt;Node17</title>
<g id="a_edge16_Node000002_Node000017"><a xlink:title=" ">
<path fill="none" stroke="#63b8ff" d="M271.33,-721.35C258.92,-717.59 247.04,-711.67 238,-702.5 186.53,-650.28 250.49,-596.5 202,-541.5 198.83,-537.9 195.27,-534.66 191.43,-531.75"/>
<polygon fill="#63b8ff" stroke="#63b8ff" points="270.79,-724.83 281.35,-723.93 272.54,-718.05 270.79,-724.83"/>
</a>
</g>
</g>
<!-- Node18 -->
<g id="Node000018" class="node">
<title>Node18</title>
<g id="a_Node000018"><a xlink:href="classtests_1_1unit_1_1test__root__conftest_1_1TestPytestLoadInitialConftests.html#a2ebe1f60aa7c2202c6318400c2d98538" target="_top" xlink:title=" ">
<polygon fill="white" stroke="#666666" points="183.5,-461.5 18.5,-461.5 18.5,-409.5 183.5,-409.5 183.5,-461.5"/>
<text text-anchor="start" x="26.5" y="-449.5" font-family="Helvetica,sans-Serif" font-size="10.00">tests.unit.test_root</text>
<text text-anchor="start" x="26.5" y="-438.5" font-family="Helvetica,sans-Serif" font-size="10.00">_conftest.TestPytestLoadInitial</text>
<text text-anchor="start" x="26.5" y="-427.5" font-family="Helvetica,sans-Serif" font-size="10.00">Conftests.test_removes_cov</text>
<text text-anchor="middle" x="101" y="-416.5" font-family="Helvetica,sans-Serif" font-size="10.00">_flag_with_equals_syntax</text>
</a>
</g>
</g>
<!-- Node2&#45;&gt;Node18 -->
<g id="edge17_Node000002_Node000018" class="edge">
<title>Node2&#45;&gt;Node18</title>
<g id="a_edge17_Node000002_Node000018"><a xlink:title=" ">
<path fill="none" stroke="#63b8ff" d="M271.63,-722.04C258.97,-718.26 246.92,-712.17 238,-702.5 167.24,-625.81 268.74,-550.71 202,-470.5 196.82,-464.28 190.47,-459.16 183.5,-454.95"/>
<polygon fill="#63b8ff" stroke="#63b8ff" points="270.84,-725.45 281.39,-724.51 272.55,-718.67 270.84,-725.45"/>
</a>
</g>
</g>
<!-- Node19 -->
<g id="Node000019" class="node">
<title>Node19</title>
<g id="a_Node000019"><a xlink:href="classtests_1_1unit_1_1test__root__conftest_1_1TestPytestLoadInitialConftests.html#a3362897d8d01b7dde74eb739339d36d4" target="_top" xlink:title=" ">
<polygon fill="white" stroke="#666666" points="183.5,-391.5 18.5,-391.5 18.5,-339.5 183.5,-339.5 183.5,-391.5"/>
<text text-anchor="start" x="26.5" y="-379.5" font-family="Helvetica,sans-Serif" font-size="10.00">tests.unit.test_root</text>
<text text-anchor="start" x="26.5" y="-368.5" font-family="Helvetica,sans-Serif" font-size="10.00">_conftest.TestPytestLoadInitial</text>
<text text-anchor="start" x="26.5" y="-357.5" font-family="Helvetica,sans-Serif" font-size="10.00">Conftests.test_removes_cov</text>
<text text-anchor="middle" x="101" y="-346.5" font-family="Helvetica,sans-Serif" font-size="10.00">_flag_with_value</text>
</a>
</g>
</g>
<!-- Node2&#45;&gt;Node19 -->
<g id="edge18_Node000002_Node000019" class="edge">
<title>Node2&#45;&gt;Node19</title>
<g id="a_edge18_Node000002_Node000019"><a xlink:title=" ">
<path fill="none" stroke="#63b8ff" d="M271.57,-722.34C258.85,-718.55 246.79,-712.38 238,-702.5 148.11,-601.55 286.61,-505.91 202,-400.5 196.93,-394.19 190.66,-389.01 183.73,-384.77"/>
<polygon fill="#63b8ff" stroke="#63b8ff" points="270.83,-725.77 281.38,-724.8 272.53,-718.98 270.83,-725.77"/>
</a>
</g>
</g>
<!-- Node20 -->
<g id="Node000020" class="node">
<title>Node20</title>
<g id="a_Node000020"><a xlink:href="classtests_1_1unit_1_1test__root__conftest_1_1TestPytestLoadInitialConftests.html#a71de15d3113281e24c0cb3c013270bd3" target="_top" xlink:title=" ">
<polygon fill="white" stroke="#666666" points="189,-321.5 13,-321.5 13,-269.5 189,-269.5 189,-321.5"/>
<text text-anchor="start" x="21" y="-309.5" font-family="Helvetica,sans-Serif" font-size="10.00">tests.unit.test_root</text>
<text text-anchor="start" x="21" y="-298.5" font-family="Helvetica,sans-Serif" font-size="10.00">_conftest.TestPytestLoadInitial</text>
<text text-anchor="start" x="21" y="-287.5" font-family="Helvetica,sans-Serif" font-size="10.00">Conftests.test_removes_cov</text>
<text text-anchor="middle" x="101" y="-276.5" font-family="Helvetica,sans-Serif" font-size="10.00">_report_flag_with_equals_syntax</text>
</a>
</g>
</g>
<!-- Node2&#45;&gt;Node20 -->
<g id="edge19_Node000002_Node000020" class="edge">
<title>Node2&#45;&gt;Node20</title>
<g id="a_edge19_Node000002_Node000020"><a xlink:title=" ">
<path fill="none" stroke="#63b8ff" d="M271.61,-722.55C258.83,-718.76 246.73,-712.53 238,-702.5 183.46,-639.87 253.27,-395.84 202,-330.5 198.37,-325.87 194.08,-321.85 189.36,-318.36"/>
<polygon fill="#63b8ff" stroke="#63b8ff" points="270.93,-725.99 281.48,-725 272.62,-719.2 270.93,-725.99"/>
</a>
</g>
</g>
<!-- Node21 -->
<g id="Node000021" class="node">
<title>Node21</title>
<g id="a_Node000021"><a xlink:href="classtests_1_1unit_1_1test__root__conftest_1_1TestPytestLoadInitialConftests.html#a6c38ba0736c1591881c980aa9c1662ea" target="_top" xlink:title=" ">
<polygon fill="white" stroke="#666666" points="183.5,-251.5 18.5,-251.5 18.5,-199.5 183.5,-199.5 183.5,-251.5"/>
<text text-anchor="start" x="26.5" y="-239.5" font-family="Helvetica,sans-Serif" font-size="10.00">tests.unit.test_root</text>
<text text-anchor="start" x="26.5" y="-228.5" font-family="Helvetica,sans-Serif" font-size="10.00">_conftest.TestPytestLoadInitial</text>
<text text-anchor="start" x="26.5" y="-217.5" font-family="Helvetica,sans-Serif" font-size="10.00">Conftests.test_removes_cov</text>
<text text-anchor="middle" x="101" y="-206.5" font-family="Helvetica,sans-Serif" font-size="10.00">_report_flag_with_value</text>
</a>
</g>
</g>
<!-- Node2&#45;&gt;Node21 -->
<g id="edge20_Node000002_Node000021" class="edge">
<title>Node2&#45;&gt;Node21</title>
<g id="a_edge20_Node000002_Node000021"><a xlink:title=" ">
<path fill="none" stroke="#63b8ff" d="M271.5,-722.65C258.72,-718.85 246.65,-712.59 238,-702.5 173.85,-627.69 262.24,-338.49 202,-260.5 196.94,-253.95 190.57,-248.62 183.5,-244.29"/>
<polygon fill="#63b8ff" stroke="#63b8ff" points="270.81,-726.09 281.36,-725.1 272.5,-719.3 270.81,-726.09"/>
</a>
</g>
</g>
<!-- Node22 -->
<g id="Node000022" class="node">
<title>Node22</title>
<g id="a_Node000022"><a xlink:href="classtests_1_1unit_1_1test__root__conftest_1_1TestPytestLoadInitialConftests.html#a3b81785cc186963377ae286b8281e7e1" target="_top" xlink:title=" ">
<polygon fill="white" stroke="#666666" points="190,-181.5 12,-181.5 12,-129.5 190,-129.5 190,-181.5"/>
<text text-anchor="start" x="20" y="-169.5" font-family="Helvetica,sans-Serif" font-size="10.00">tests.unit.test_root</text>
<text text-anchor="start" x="20" y="-158.5" font-family="Helvetica,sans-Serif" font-size="10.00">_conftest.TestPytestLoadInitial</text>
<text text-anchor="start" x="20" y="-147.5" font-family="Helvetica,sans-Serif" font-size="10.00">Conftests.test_removes_multiple</text>
<text text-anchor="middle" x="101" y="-136.5" font-family="Helvetica,sans-Serif" font-size="10.00">_coverage_flags</text>
</a>
</g>
</g>
<!-- Node2&#45;&gt;Node22 -->
<g id="edge21_Node000002_Node000022" class="edge">
<title>Node2&#45;&gt;Node22</title>
<g id="a_edge21_Node000002_Node000022"><a xlink:title=" ">
<path fill="none" stroke="#63b8ff" d="M271.41,-722.73C258.64,-718.92 246.6,-712.64 238,-702.5 164.23,-615.51 271.22,-281.15 202,-190.5 198.65,-186.11 194.71,-182.28 190.37,-178.92"/>
<polygon fill="#63b8ff" stroke="#63b8ff" points="270.73,-726.16 281.28,-725.18 272.41,-719.37 270.73,-726.16"/>
</a>
</g>
</g>
<!-- Node23 -->
<g id="Node000023" class="node">
<title>Node23</title>
<g id="a_Node000023"><a xlink:href="classtests_1_1unit_1_1test__root__conftest_1_1TestCoverageFilteringEdgeCases.html#a03d050747ba55dc24aefb067b3b773b3" target="_top" xlink:title=" ">
<polygon fill="white" stroke="#666666" points="186,-111.5 16,-111.5 16,-59.5 186,-59.5 186,-111.5"/>
<text text-anchor="start" x="24" y="-99.5" font-family="Helvetica,sans-Serif" font-size="10.00">tests.unit.test_root</text>
<text text-anchor="start" x="24" y="-88.5" font-family="Helvetica,sans-Serif" font-size="10.00">_conftest.TestCoverageFiltering</text>
<text text-anchor="start" x="24" y="-77.5" font-family="Helvetica,sans-Serif" font-size="10.00">EdgeCases.test_skip_next_flag</text>
<text text-anchor="middle" x="101" y="-66.5" font-family="Helvetica,sans-Serif" font-size="10.00">_resets_correctly</text>
</a>
</g>
</g>
<!-- Node2&#45;&gt;Node23 -->
<g id="edge22_Node000002_Node000023" class="edge">
<title>Node2&#45;&gt;Node23</title>
<g id="a_edge22_Node000002_Node000023"><a xlink:title=" ">
<path fill="none" stroke="#63b8ff" d="M271.55,-722.84C258.71,-719.04 246.6,-712.73 238,-702.5 154.61,-603.31 280.21,-223.82 202,-120.5 197.67,-114.78 192.34,-109.99 186.41,-105.98"/>
<polygon fill="#63b8ff" stroke="#63b8ff" points="270.93,-726.29 281.47,-725.28 272.6,-719.49 270.93,-726.29"/>
</a>
</g>
</g>
<!-- Node24 -->
<g id="Node000024" class="node">
<title>Node24</title>
<g id="a_Node000024"><a xlink:href="classtests_1_1unit_1_1test__root__conftest_1_1TestRealWorldScenarios.html#a95a8aabbc98e6aea19d6cd613dc4511e" target="_top" xlink:title=" ">
<polygon fill="white" stroke="#666666" points="202,-41 0,-41 0,0 202,0 202,-41"/>
<text text-anchor="start" x="8" y="-29" font-family="Helvetica,sans-Serif" font-size="10.00">tests.unit.test_root</text>
<text text-anchor="start" x="8" y="-18" font-family="Helvetica,sans-Serif" font-size="10.00">_conftest.TestRealWorldScenarios.test</text>
<text text-anchor="middle" x="101" y="-7" font-family="Helvetica,sans-Serif" font-size="10.00">_typical_ci_environment_args</text>
</a>
</g>
</g>
<!-- Node2&#45;&gt;Node24 -->
<g id="edge23_Node000002_Node000024" class="edge">
<title>Node2&#45;&gt;Node24</title>
<g id="a_edge23_Node000002_Node000024"><a xlink:title=" ">
<path fill="none" stroke="#63b8ff" d="M271.5,-722.88C258.66,-719.08 246.57,-712.76 238,-702.5 144.99,-591.12 291.8,-164.49 202,-50.5 199.2,-46.94 195.99,-43.79 192.48,-41"/>
<polygon fill="#63b8ff" stroke="#63b8ff" points="270.87,-726.33 281.42,-725.33 272.55,-719.54 270.87,-726.33"/>
</a>
</g>
</g>
</g>
</svg>
