<?xml version="1.0" encoding="UTF-8" standalone="no"?>
<!DOCTYPE svg PUBLIC "-//W3C//DTD SVG 1.1//EN"
 "http://www.w3.org/Graphics/SVG/1.1/DTD/svg11.dtd">
<!-- Generated by graphviz version 2.43.0 (0)
 -->
<!-- Title: api.database.fetch_value Pages: 1 -->
<svg width="833pt" height="52pt"
 viewBox="0.00 0.00 833.00 51.50" xmlns="http://www.w3.org/2000/svg" xmlns:xlink="http://www.w3.org/1999/xlink">
<g id="graph0" class="graph" transform="scale(1 1) rotate(0) translate(4 47.5)">
<title>api.database.fetch_value</title>
<!-- Node1 -->
<g id="Node000001" class="node">
<title>Node1</title>
<g id="a_Node000001"><a xlink:title=" ">
<polygon fill="#999999" stroke="#666666" points="107,-30 0,-30 0,0 107,0 107,-30"/>
<text text-anchor="start" x="8" y="-18" font-family="Helvetica,sans-Serif" font-size="10.00">api.database.fetch</text>
<text text-anchor="middle" x="53.5" y="-7" font-family="Helvetica,sans-Serif" font-size="10.00">_value</text>
</a>
</g>
</g>
<!-- Node2 -->
<g id="Node000002" class="node">
<title>Node2</title>
<g id="a_Node000002"><a xlink:href="namespaceapi_1_1database.html#a71b75b8190d8ed80254f80faa05a7948" target="_top" xlink:title=" ">
<polygon fill="white" stroke="#666666" points="274,-24.5 143,-24.5 143,-5.5 274,-5.5 274,-24.5"/>
<text text-anchor="middle" x="208.5" y="-12.5" font-family="Helvetica,sans-Serif" font-size="10.00">api.database.fetch_one</text>
</a>
</g>
</g>
<!-- Node1&#45;&gt;Node2 -->
<g id="edge1_Node000001_Node000002" class="edge">
<title>Node1&#45;&gt;Node2</title>
<g id="a_edge1_Node000001_Node000002"><a xlink:title=" ">
<path fill="none" stroke="#63b8ff" d="M107.15,-15C115.42,-15 124.09,-15 132.74,-15"/>
<polygon fill="#63b8ff" stroke="#63b8ff" points="132.85,-18.5 142.85,-15 132.85,-11.5 132.85,-18.5"/>
</a>
</g>
</g>
<!-- Node3 -->
<g id="Node000003" class="node">
<title>Node3</title>
<g id="a_Node000003"><a xlink:href="namespaceapi_1_1database.html#a6e6aa213df0f9401217ec521935184c5" target="_top" xlink:title=" ">
<polygon fill="white" stroke="#666666" points="467,-24.5 310,-24.5 310,-5.5 467,-5.5 467,-24.5"/>
<text text-anchor="middle" x="388.5" y="-12.5" font-family="Helvetica,sans-Serif" font-size="10.00">api.database.get_connection</text>
</a>
</g>
</g>
<!-- Node2&#45;&gt;Node3 -->
<g id="edge2_Node000002_Node000003" class="edge">
<title>Node2&#45;&gt;Node3</title>
<g id="a_edge2_Node000002_Node000003"><a xlink:title=" ">
<path fill="none" stroke="#63b8ff" d="M274.01,-15C282.38,-15 291.06,-15 299.72,-15"/>
<polygon fill="#63b8ff" stroke="#63b8ff" points="299.87,-18.5 309.87,-15 299.87,-11.5 299.87,-18.5"/>
</a>
</g>
</g>
<!-- Node4 -->
<g id="Node000004" class="node">
<title>Node4</title>
<g id="a_Node000004"><a xlink:href="namespaceapi_1_1database.html#add5bd37c7ccad20f0844cf169de107d2" target="_top" xlink:title=" ">
<polygon fill="white" stroke="#666666" points="629,-43.5 503,-43.5 503,-24.5 629,-24.5 629,-43.5"/>
<text text-anchor="middle" x="566" y="-31.5" font-family="Helvetica,sans-Serif" font-size="10.00">api.database._connect</text>
</a>
</g>
</g>
<!-- Node3&#45;&gt;Node4 -->
<g id="edge3_Node000003_Node000004" class="edge">
<title>Node3&#45;&gt;Node4</title>
<g id="a_edge3_Node000003_Node000004"><a xlink:title=" ">
<path fill="none" stroke="#63b8ff" d="M467.24,-23.42C475.72,-24.33 484.32,-25.27 492.72,-26.17"/>
<polygon fill="#63b8ff" stroke="#63b8ff" points="492.54,-29.68 502.85,-27.27 493.29,-22.72 492.54,-29.68"/>
</a>
</g>
</g>
<!-- Node5 -->
<g id="Node000005" class="node">
<title>Node5</title>
<g id="a_Node000005"><a xlink:href="namespaceapi_1_1database.html#a2b55d2e5b55f35ea1fdaefbf1fd87ac3" target="_top" xlink:title=" ">
<polygon fill="white" stroke="#666666" points="825,-24.5 665,-24.5 665,-5.5 825,-5.5 825,-24.5"/>
<text text-anchor="middle" x="745" y="-12.5" font-family="Helvetica,sans-Serif" font-size="10.00">api.database._is_memory_db</text>
</a>
</g>
</g>
<!-- Node3&#45;&gt;Node5 -->
<g id="edge5_Node000003_Node000005" class="edge">
<title>Node3&#45;&gt;Node5</title>
<g id="a_edge5_Node000003_Node000005"><a xlink:title=" ">
<path fill="none" stroke="#63b8ff" d="M467.3,-15C522.57,-15 596.93,-15 654.64,-15"/>
<polygon fill="#63b8ff" stroke="#63b8ff" points="654.85,-18.5 664.85,-15 654.85,-11.5 654.85,-18.5"/>
</a>
</g>
</g>
<!-- Node4&#45;&gt;Node5 -->
<g id="edge4_Node000004_Node000005" class="edge">
<title>Node4&#45;&gt;Node5</title>
<g id="a_edge4_Node000004_Node000005"><a xlink:title=" ">
<path fill="none" stroke="#63b8ff" d="M629.4,-27.3C637.63,-26.42 646.19,-25.5 654.75,-24.58"/>
<polygon fill="#63b8ff" stroke="#63b8ff" points="655.23,-28.05 664.8,-23.5 654.48,-21.09 655.23,-28.05"/>
</a>
</g>
</g>
</g>
</svg>
