<?xml version="1.0" encoding="UTF-8" standalone="no"?>
<!DOCTYPE svg PUBLIC "-//W3C//DTD SVG 1.1//EN"
 "http://www.w3.org/Graphics/SVG/1.1/DTD/svg11.dtd">
<!-- Generated by graphviz version 2.43.0 (0)
 -->
<!-- Title: api.auth.authenticate_user Pages: 1 -->
<svg width="330pt" height="64pt"
 viewBox="0.00 0.00 330.00 64.00" xmlns="http://www.w3.org/2000/svg" xmlns:xlink="http://www.w3.org/1999/xlink">
<g id="graph0" class="graph" transform="scale(1 1) rotate(0) translate(4 60)">
<title>api.auth.authenticate_user</title>
<!-- Node1 -->
<g id="Node000001" class="node">
<title>Node1</title>
<g id="a_Node000001"><a xlink:title=" ">
<polygon fill="#999999" stroke="#666666" points="147,-37 0,-37 0,-18 147,-18 147,-37"/>
<text text-anchor="middle" x="73.5" y="-25" font-family="Helvetica,sans-Serif" font-size="10.00">api.auth.authenticate_user</text>
</a>
</g>
</g>
<!-- Node2 -->
<g id="Node000002" class="node">
<title>Node2</title>
<g id="a_Node000002"><a xlink:href="namespaceapi_1_1auth.html#a5e8641d87f691958e7a3c0ff1a682b76" target="_top" xlink:title=" ">
<polygon fill="white" stroke="#666666" points="303,-56 202,-56 202,-37 303,-37 303,-56"/>
<text text-anchor="middle" x="252.5" y="-44" font-family="Helvetica,sans-Serif" font-size="10.00">api.auth.get_user</text>
</a>
</g>
</g>
<!-- Node1&#45;&gt;Node2 -->
<g id="edge1_Node000001_Node000002" class="edge">
<title>Node1&#45;&gt;Node2</title>
<g id="a_edge1_Node000001_Node000002"><a xlink:title=" ">
<path fill="none" stroke="#63b8ff" d="M147,-35.28C161.83,-36.87 177.28,-38.53 191.6,-40.07"/>
<polygon fill="#63b8ff" stroke="#63b8ff" points="191.5,-43.58 201.81,-41.17 192.24,-36.62 191.5,-43.58"/>
</a>
</g>
</g>
<!-- Node3 -->
<g id="Node000003" class="node">
<title>Node3</title>
<g id="a_Node000003"><a xlink:href="namespaceapi_1_1auth.html#a62205ca839bdfe149312b664a59a030c" target="_top" xlink:title=" ">
<polygon fill="white" stroke="#666666" points="322,-19 183,-19 183,0 322,0 322,-19"/>
<text text-anchor="middle" x="252.5" y="-7" font-family="Helvetica,sans-Serif" font-size="10.00">api.auth.verify_password</text>
</a>
</g>
</g>
<!-- Node1&#45;&gt;Node3 -->
<g id="edge2_Node000001_Node000003" class="edge">
<title>Node1&#45;&gt;Node3</title>
<g id="a_edge2_Node000001_Node000003"><a xlink:title=" ">
<path fill="none" stroke="#63b8ff" d="M147,-20.13C155.51,-19.26 164.23,-18.38 172.81,-17.5"/>
<polygon fill="#63b8ff" stroke="#63b8ff" points="173.22,-20.98 182.82,-16.48 172.51,-14.01 173.22,-20.98"/>
</a>
</g>
</g>
</g>
</svg>
