<?xml version="1.0" encoding="UTF-8" standalone="no"?>
<!DOCTYPE svg PUBLIC "-//W3C//DTD SVG 1.1//EN"
 "http://www.w3.org/Graphics/SVG/1.1/DTD/svg11.dtd">
<!-- Generated by graphviz version 2.43.0 (0)
 -->
<!-- Title: real_data_fetcher._serialize_dataclass Pages: 1 -->
<svg width="599pt" height="38pt"
 viewBox="0.00 0.00 599.00 38.00" xmlns="http://www.w3.org/2000/svg" xmlns:xlink="http://www.w3.org/1999/xlink">
<g id="graph0" class="graph" transform="scale(1 1) rotate(0) translate(4 34)">
<title>real_data_fetcher._serialize_dataclass</title>
<!-- Node1 -->
<g id="Node000001" class="node">
<title>Node1</title>
<g id="a_Node000001"><a xlink:title=" ">
<polygon fill="#999999" stroke="#666666" points="591,-30 476,-30 476,0 591,0 591,-30"/>
<text text-anchor="start" x="484" y="-18" font-family="Helvetica,sans-Serif" font-size="10.00">real_data_fetcher.</text>
<text text-anchor="middle" x="533.5" y="-7" font-family="Helvetica,sans-Serif" font-size="10.00">_serialize_dataclass</text>
</a>
</g>
</g>
<!-- Node2 -->
<g id="Node000002" class="node">
<title>Node2</title>
<g id="a_Node000002"><a xlink:href="namespacereal__data__fetcher.html#a8e813225fc6d948bb9d5f56142b9daf2" target="_top" xlink:title=" ">
<polygon fill="white" stroke="#666666" points="440,-30 336,-30 336,0 440,0 440,-30"/>
<text text-anchor="start" x="344" y="-18" font-family="Helvetica,sans-Serif" font-size="10.00">real_data_fetcher.</text>
<text text-anchor="middle" x="388" y="-7" font-family="Helvetica,sans-Serif" font-size="10.00">_serialize_graph</text>
</a>
</g>
</g>
<!-- Node1&#45;&gt;Node2 -->
<g id="edge1_Node000001_Node000002" class="edge">
<title>Node1&#45;&gt;Node2</title>
<g id="a_edge1_Node000001_Node000002"><a xlink:title=" ">
<path fill="none" stroke="#63b8ff" d="M465.77,-15C457.17,-15 448.47,-15 440.18,-15"/>
<polygon fill="#63b8ff" stroke="#63b8ff" points="465.79,-18.5 475.79,-15 465.78,-11.5 465.79,-18.5"/>
</a>
</g>
</g>
<!-- Node3 -->
<g id="Node000003" class="node">
<title>Node3</title>
<g id="a_Node000003"><a xlink:href="namespacereal__data__fetcher.html#a34a36a48285836a9ee924d54d668ac17" target="_top" xlink:title=" ">
<polygon fill="white" stroke="#666666" points="300,-30 196,-30 196,0 300,0 300,-30"/>
<text text-anchor="start" x="204" y="-18" font-family="Helvetica,sans-Serif" font-size="10.00">real_data_fetcher.</text>
<text text-anchor="middle" x="248" y="-7" font-family="Helvetica,sans-Serif" font-size="10.00">_save_to_cache</text>
</a>
</g>
</g>
<!-- Node2&#45;&gt;Node3 -->
<g id="edge2_Node000002_Node000003" class="edge">
<title>Node2&#45;&gt;Node3</title>
<g id="a_edge2_Node000002_Node000003"><a xlink:title=" ">
<path fill="none" stroke="#63b8ff" d="M325.5,-15C317.13,-15 308.6,-15 300.43,-15"/>
<polygon fill="#63b8ff" stroke="#63b8ff" points="325.61,-18.5 335.61,-15 325.61,-11.5 325.61,-18.5"/>
</a>
</g>
</g>
<!-- Node4 -->
<g id="Node000004" class="node">
<title>Node4</title>
<g id="a_Node000004"><a xlink:href="classreal__data__fetcher_1_1RealDataFetcher.html#a9a0b50ea3d53d8cd924fe836f2e15f3e" target="_top" xlink:title=" ">
<polygon fill="white" stroke="#666666" points="160,-30 0,-30 0,0 160,0 160,-30"/>
<text text-anchor="start" x="8" y="-18" font-family="Helvetica,sans-Serif" font-size="10.00">real_data_fetcher.RealData</text>
<text text-anchor="middle" x="80" y="-7" font-family="Helvetica,sans-Serif" font-size="10.00">Fetcher.create_real_database</text>
</a>
</g>
</g>
<!-- Node3&#45;&gt;Node4 -->
<g id="edge3_Node000003_Node000004" class="edge">
<title>Node3&#45;&gt;Node4</title>
<g id="a_edge3_Node000003_Node000004"><a xlink:title=" ">
<path fill="none" stroke="#63b8ff" d="M185.8,-15C177.42,-15 168.72,-15 160.08,-15"/>
<polygon fill="#63b8ff" stroke="#63b8ff" points="185.84,-18.5 195.84,-15 185.84,-11.5 185.84,-18.5"/>
</a>
</g>
</g>
</g>
</svg>
